<svg width="936" height="648" viewBox="0 0 936 648" fill="none" xmlns="http://www.w3.org/2000/svg">
<g clip-path="url(#clip0_389_397)">
<path d="M335.079 138.512C333.386 138.678 332.026 138.762 330.999 138.762C300.509 138.732 270.089 138.662 239.609 139.362" stroke="#B41F22" stroke-width="2"/>
<path d="M631.991 157.289L597.781 157.759" stroke="#B41F22" stroke-width="2"/>
<path d="M597.781 157.76C593.111 157.4 588.49 157.71 583.85 157.25C580.72 156.94 577.551 157.5 574.521 157.45C572.821 157.417 571.14 157.527 569.48 157.78" stroke="#B41F22" stroke-width="2"/>
<path d="M569.48 157.781C557.233 158.301 544.993 158.308 532.76 157.801" stroke="#B41F22" stroke-width="2"/>
<path d="M532.76 157.799C529.887 156.852 526.797 156.652 523.49 157.199" stroke="#B41F22" stroke-width="2"/>
<path d="M522.99 157.56C522.09 157.1 521.513 157.133 521.26 157.66" stroke="#B41F22" stroke-width="2"/>
<path d="M521.26 157.662L510.12 157.212C509.994 157.205 509.884 157.245 509.79 157.332L509.531 157.602C509.391 157.742 509.221 157.808 509.021 157.802L494.23 157.622" stroke="#B41F22" stroke-width="2"/>
<path d="M494.231 157.618L420.551 157.398" stroke="#B41F22" stroke-width="2"/>
<path d="M414.3 157.811C408.29 156.901 403.04 158.371 395.83 157.711" stroke="#B41F22" stroke-width="2"/>
<path d="M395.831 157.709C389.518 157.229 383.214 157.085 376.921 157.279C371.081 157.459 363.821 156.829 357.211 157.559" stroke="#B41F22" stroke-width="2"/>
<path d="M357.21 157.562L310.49 157.262" stroke="#B41F22" stroke-width="2"/>
<path d="M522.64 159.5C522.133 161.187 522.133 162.94 522.64 164.76" stroke="#B41F22" stroke-width="2"/>
<path d="M521.26 157.661C512.26 158.274 503.25 158.261 494.23 157.621" stroke="#B41F22" stroke-width="2"/>
<path d="M714.77 137.531C711.97 138.051 709.32 138.471 706.39 138.501C685.277 138.708 658.71 138.791 626.69 138.751C624.297 138.745 622.284 138.595 620.65 138.301" stroke="#B41F22" stroke-width="2"/>
<path d="M525.421 138.48L430.281 138.69" stroke="#B41F22" stroke-width="2"/>
<path d="M395.831 157.709C391.298 157.769 386.851 157.932 382.491 158.199C380.001 158.349 377.151 158.059 374.481 158.239C368.601 158.619 363.021 158.019 357.211 157.559" stroke="#B41F22" stroke-width="2"/>
<path d="M532.761 157.799C530.815 157.572 529.795 157.732 529.701 158.279" stroke="#B41F22" stroke-width="2"/>
<path d="M597.781 157.761C587.291 159.161 579.07 157.531 569.48 157.781" stroke="#B41F22" stroke-width="2"/>
<path d="M639.681 319.93C581.521 319.98 524.171 320.36 465.091 319.76C459.571 319.7 453.131 320.32 448.001 320.27C420.854 320.024 393.708 319.84 366.561 319.72C347.791 319.63 329.061 320.41 310.281 319.68C309.954 319.667 309.768 319.824 309.721 320.151C309.601 321.011 309.151 321.48 308.371 321.56" stroke="#B41F22" stroke-width="2"/>
<path d="M639.77 324.711C637.297 326.638 634.457 327.621 631.25 327.661C623.097 327.754 614.934 327.824 606.76 327.871C605.28 327.884 603.463 327.661 601.31 327.201C593.85 325.621 586.93 327.281 579.58 326.721C579.314 326.701 579.187 326.824 579.2 327.091L579.23 327.691" stroke="#B41F22" stroke-width="2"/>
<path d="M579.23 327.688C578.61 327.448 578.096 327.498 577.69 327.838C577.579 327.93 577.448 327.993 577.308 328.021C577.168 328.049 577.024 328.041 576.89 327.998C574.35 327.188 571.95 328.028 570 328.008C560.626 327.915 551.323 327.801 542.09 327.668" stroke="#B41F22" stroke-width="2"/>
<path d="M521.24 327.73C511.46 328.004 501.694 328.077 491.94 327.95C489.49 327.91 487.6 326.76 485.11 326.43C484.757 326.384 484.617 326.534 484.69 326.88C484.857 327.667 484.817 328.387 484.57 329.04" stroke="#B41F22" stroke-width="2"/>
<path d="M467.39 327.62C463.477 328.14 459.513 328.213 455.5 327.84C454.7 327.766 453.7 327.82 452.5 328C450.05 328.38 431.09 327.14 430.72 327.68C430.527 327.96 430.283 328.01 429.99 327.83C427.95 326.54 425.39 327.84 423.25 328.15" stroke="#B41F22" stroke-width="2"/>
<path d="M417.761 327.952C415.221 326.752 413.174 326.642 411.621 327.622" stroke="#B41F22" stroke-width="2"/>
<path d="M410.831 327.968C410.378 327.628 409.985 327.515 409.651 327.628C409.098 327.821 408.798 327.921 408.751 327.928C399.771 328.381 390.795 328.305 381.821 327.698C381.635 327.691 381.484 327.765 381.371 327.918C380.931 328.538 378.251 327.758 377.391 327.718C377.065 327.705 376.801 327.565 376.601 327.298C375.781 326.191 374.748 325.951 373.501 326.578C373.214 326.718 372.911 326.791 372.591 326.798L353.701 327.358" stroke="#B41F22" stroke-width="2"/>
<path d="M353.24 328.012L316.75 328.082" stroke="#B41F22" stroke-width="2"/>
<path d="M597.33 331.3C597.75 330.6 597.907 329.777 597.8 328.83C597.76 328.497 597.574 328.31 597.24 328.27C596.634 328.19 595.967 328.28 595.24 328.54" stroke="#B41F22" stroke-width="2"/>
<path d="M548.97 340.941C547.77 340.728 547.143 341.618 547.09 343.611" stroke="#B41F22" stroke-width="2"/>
<path d="M347.669 343.49C347.376 342.29 346.993 341.484 346.52 341.07" stroke="#B41F22" stroke-width="2"/>
<path d="M639.481 448.14C636.681 448.48 634.081 448.74 631.161 448.63C615.911 448.08 597.541 448.35 585.441 448.33C495.311 448.18 404.991 448.61 315.041 448.29C313.074 448.283 312.014 448.24 311.861 448.16C311.074 447.727 310.358 446.727 309.711 445.16" stroke="#B41F22" stroke-width="2"/>
<path d="M589.76 456.729C589.494 456.469 589.114 456.219 588.62 455.979C588.24 455.793 587.807 455.709 587.32 455.729C579.38 456.043 571.437 456.179 563.49 456.139C495.52 455.759 427.22 455.79 368.25 456.34C365.677 456.36 363.394 456.86 361.4 457.84" stroke="#B41F22" stroke-width="2"/>
<path d="M575.21 479.46C510.95 479.87 446.59 479.36 382.28 479.24C381.273 479.233 380.266 479.126 379.26 478.92C378.08 478.68 377.08 478.487 376.26 478.34" stroke="#B41F22" stroke-width="2"/>
<path d="M256.28 146.589C256.253 146.522 256.23 146.439 256.21 146.339C256.183 146.266 256.13 146.232 256.05 146.239L245.49 147.109C245.279 147.128 245.08 147.216 244.925 147.361C244.77 147.505 244.668 147.697 244.635 147.906C244.602 148.115 244.639 148.329 244.741 148.515C244.844 148.7 245.005 148.846 245.2 148.929C246.56 149.499 248.45 150.349 250.04 150.299C262.81 149.829 276.91 150.289 288.32 150.159C307.827 149.932 327.323 150.249 346.81 151.109C349.24 151.219 351.68 150.479 354.25 150.479C375.983 150.546 397.713 150.426 419.44 150.119C430.81 149.959 443.01 150.699 452.18 150.649C500.81 150.389 549.45 150.859 598.06 150.439C606.29 150.359 614.59 149.719 622.64 149.989C640.773 150.596 658.903 150.589 677.03 149.969C688.6 149.569 700.69 150.459 712.57 150.389C712.83 150.389 713.02 150.272 713.14 150.039C714.06 148.169 713.08 147.509 711.31 147.439C700.157 146.999 691.867 146.742 686.44 146.669C670.07 146.449 652.31 147.479 635.74 147.379C584.27 147.049 547.29 147.929 510.3 147.489C506.07 147.439 500.86 148.159 496.14 147.799C491.267 147.426 488.163 147.242 486.83 147.249C428.4 147.739 369.94 147.319 311.5 147.379C311.02 147.379 310.607 147.266 310.26 147.039C309.987 146.866 309.69 146.776 309.37 146.769C291.723 146.329 274.077 146.302 256.43 146.689C256.395 146.689 256.362 146.68 256.335 146.662C256.308 146.644 256.289 146.618 256.28 146.589Z" stroke="#B41F22" stroke-width="2"/>
<path d="M335.079 138.511C333.386 138.678 332.026 138.761 330.999 138.761C300.509 138.731 270.089 138.661 239.609 139.361C241.249 135.141 242.889 131.151 245.099 127.071C261.433 97.0312 277.383 67.2712 292.949 37.7912C293.656 36.4445 294.773 35.7711 296.299 35.7711C316.373 35.7445 336.106 35.7745 355.499 35.8611C358.479 35.8745 361.546 36.0378 364.699 36.3511C364.791 36.3584 364.879 36.3872 364.957 36.4352C365.035 36.4832 365.101 36.5491 365.15 36.6277C365.198 36.7063 365.228 36.7954 365.237 36.888C365.245 36.9806 365.233 37.0741 365.199 37.1611C364.573 38.7411 363.996 40.3911 363.469 42.1111C355.096 69.3645 347.006 96.7011 339.199 124.121C338.249 127.471 336.049 133.581 335.079 138.511Z" fill="#B41F22"/>
<path d="M525.421 138.482L430.281 138.692L435.301 36.9417C435.341 36.215 435.721 35.8517 436.441 35.8517C456.895 35.7184 477.498 35.695 498.251 35.7817C500.858 35.795 503.458 35.9583 506.051 36.2717C506.391 36.3117 506.595 36.5017 506.661 36.8417L525.421 138.482Z" fill="#B41F22"/>
<path d="M714.769 137.531C711.969 138.051 709.319 138.471 706.389 138.501C685.276 138.707 658.709 138.791 626.689 138.751C624.296 138.744 622.283 138.594 620.649 138.301L576.969 37.2106C576.816 36.8573 576.926 36.6273 577.299 36.5206C579.006 36.0406 580.759 35.7973 582.559 35.7906C603.199 35.744 623.843 35.734 644.489 35.7606C648.539 35.7606 648.539 37.8106 650.359 40.5106C681.693 86.884 701.463 116.237 709.669 128.571C710.663 130.071 712.363 133.057 714.769 137.531Z" fill="#B41F22"/>
<path d="M714.771 137.531C718.091 139.021 716.701 153.321 716.351 156.711C716.334 156.858 716.264 156.993 716.155 157.091C716.046 157.188 715.906 157.242 715.761 157.241L631.991 157.291L597.781 157.761C593.111 157.401 588.491 157.711 583.851 157.251C580.721 156.941 577.551 157.501 574.521 157.451C572.821 157.418 571.141 157.528 569.481 157.781C557.234 158.301 544.994 158.308 532.761 157.801C529.888 156.855 526.798 156.655 523.491 157.201C523.618 157.368 523.451 157.488 522.991 157.561C522.091 157.101 521.514 157.135 521.261 157.661L510.121 157.211C509.994 157.205 509.884 157.245 509.791 157.331L509.531 157.601C509.391 157.741 509.221 157.808 509.021 157.801L494.231 157.621L420.551 157.401C417.831 156.555 415.748 156.691 414.301 157.811C408.291 156.901 403.041 158.371 395.831 157.711C389.518 157.231 383.214 157.088 376.921 157.281C371.081 157.461 363.821 156.831 357.211 157.561L310.491 157.261H240.501C239.948 157.261 239.644 156.985 239.591 156.431C239.031 150.785 239.038 145.095 239.611 139.361C270.091 138.661 300.511 138.731 331.001 138.761C332.028 138.761 333.388 138.678 335.081 138.511L430.281 138.691L525.421 138.481L620.651 138.301C622.284 138.595 624.298 138.745 626.691 138.751C658.711 138.791 685.278 138.708 706.391 138.501C709.321 138.471 711.971 138.051 714.771 137.531ZM256.281 146.591C256.254 146.525 256.231 146.441 256.211 146.341C256.184 146.268 256.131 146.235 256.051 146.241L245.491 147.111C245.28 147.13 245.081 147.218 244.926 147.363C244.771 147.507 244.669 147.699 244.636 147.908C244.603 148.117 244.64 148.331 244.742 148.517C244.845 148.702 245.006 148.848 245.201 148.931C246.561 149.501 248.451 150.351 250.041 150.301C262.811 149.831 276.911 150.291 288.321 150.161C307.828 149.935 327.324 150.251 346.811 151.111C349.241 151.221 351.681 150.481 354.251 150.481C375.984 150.548 397.714 150.428 419.441 150.121C430.811 149.961 443.011 150.701 452.181 150.651C500.811 150.391 549.451 150.861 598.061 150.441C606.291 150.361 614.591 149.721 622.641 149.991C640.774 150.598 658.904 150.591 677.031 149.971C688.601 149.571 700.691 150.461 712.571 150.391C712.831 150.391 713.021 150.275 713.141 150.041C714.061 148.171 713.081 147.511 711.311 147.441C700.158 147.001 691.868 146.745 686.441 146.671C670.071 146.451 652.311 147.481 635.741 147.381C584.271 147.051 547.291 147.931 510.301 147.491C506.071 147.441 500.861 148.161 496.141 147.801C491.268 147.428 488.164 147.245 486.831 147.251C428.401 147.741 369.941 147.321 311.501 147.381C311.021 147.381 310.608 147.268 310.261 147.041C309.988 146.868 309.691 146.778 309.371 146.771C291.724 146.331 274.078 146.305 256.431 146.691C256.396 146.691 256.363 146.682 256.336 146.664C256.309 146.646 256.29 146.62 256.281 146.591Z" fill="#B41F22"/>
<path d="M256.43 146.689C274.077 146.302 291.723 146.329 309.37 146.769C309.69 146.776 309.987 146.866 310.26 147.039C310.607 147.266 311.02 147.379 311.5 147.379C369.94 147.319 428.4 147.739 486.83 147.249C488.163 147.242 491.267 147.426 496.14 147.799C500.86 148.159 506.07 147.439 510.3 147.489C547.29 147.929 584.27 147.049 635.74 147.379C652.31 147.479 670.07 146.449 686.44 146.669C691.867 146.742 700.157 146.999 711.31 147.439C713.08 147.509 714.06 148.169 713.14 150.039C713.02 150.272 712.83 150.389 712.57 150.389C700.69 150.459 688.6 149.569 677.03 149.969C658.903 150.589 640.773 150.596 622.64 149.989C614.59 149.719 606.29 150.359 598.06 150.439C549.45 150.859 500.81 150.389 452.18 150.649C443.01 150.699 430.81 149.959 419.44 150.119C397.713 150.426 375.983 150.546 354.25 150.479C351.68 150.479 349.24 151.219 346.81 151.109C327.323 150.249 307.827 149.932 288.32 150.159C276.91 150.289 262.81 149.829 250.04 150.299C248.45 150.349 246.56 149.499 245.2 148.929C245.005 148.846 244.844 148.7 244.741 148.515C244.639 148.329 244.602 148.115 244.635 147.906C244.668 147.697 244.77 147.505 244.925 147.361C245.08 147.216 245.279 147.128 245.49 147.109L256.05 146.239C256.13 146.232 256.183 146.266 256.21 146.339C256.23 146.439 256.253 146.522 256.28 146.589C256.289 146.618 256.308 146.644 256.335 146.662C256.362 146.68 256.395 146.689 256.43 146.689Z" fill="#B41F22"/>
<path d="M395.831 157.709C391.298 157.769 386.851 157.932 382.491 158.199C380.001 158.349 377.151 158.059 374.481 158.239C368.601 158.619 363.021 158.019 357.211 157.559C363.821 156.829 371.081 157.459 376.921 157.279C383.214 157.085 389.518 157.229 395.831 157.709Z" fill="#B41F22"/>
<path d="M521.26 157.662C512.26 158.275 503.25 158.262 494.23 157.622L509.021 157.802C509.221 157.808 509.391 157.742 509.531 157.602L509.79 157.332C509.884 157.245 509.994 157.205 510.12 157.212L521.26 157.662Z" fill="#B41F22"/>
<path d="M532.76 157.799C530.814 157.572 529.794 157.732 529.7 158.279L523.49 157.199C526.797 156.652 529.887 156.852 532.76 157.799Z" fill="#B41F22"/>
<path d="M597.781 157.76C587.291 159.16 579.07 157.53 569.48 157.78C571.14 157.527 572.821 157.417 574.521 157.45C577.551 157.5 580.72 156.94 583.85 157.25C588.49 157.71 593.111 157.4 597.781 157.76Z" fill="#B41F22"/>
<path d="M357.21 157.562C363.02 158.022 368.6 158.622 374.48 158.242C377.15 158.062 380 158.352 382.49 158.202C386.85 157.935 391.297 157.772 395.83 157.712C403.04 158.372 408.29 156.902 414.3 157.812L414.28 205.892C414.281 206.247 414.147 206.59 413.904 206.852C413.661 207.113 413.327 207.274 412.97 207.302L405.82 207.822C405.304 207.86 404.793 207.7 404.39 207.375C403.987 207.05 403.722 206.584 403.65 206.072C401.86 193.322 399.64 184.332 389.5 176.382C369.27 160.522 334.51 167.232 325.29 192.752C323.717 197.112 322.774 201.592 322.46 206.192C322.445 206.423 322.384 206.649 322.281 206.857C322.179 207.065 322.036 207.25 321.861 207.402C321.686 207.555 321.483 207.671 321.263 207.745C321.044 207.818 320.811 207.848 320.58 207.832L312.29 207.232C311.955 207.209 311.641 207.061 311.411 206.818C311.181 206.575 311.052 206.255 311.05 205.922L310.49 157.262L357.21 157.562Z" fill="#B41F22"/>
<path d="M494.231 157.62C503.251 158.26 512.261 158.273 521.261 157.66C521.514 157.133 522.091 157.1 522.991 157.56C523.044 158.167 522.927 158.813 522.641 159.5C522.134 161.187 522.134 162.94 522.641 164.76L523.261 175.44C523.061 183.493 522.904 191.51 522.791 199.49C522.761 201.17 523.041 202.7 523.381 204.31C523.439 204.561 523.403 204.828 523.281 205.06C522.514 206.553 521.297 207.11 519.631 206.73C519.297 206.65 518.997 206.71 518.731 206.91L517.711 207.66C514.824 208.42 513.287 207.367 513.101 204.5C511.091 174.71 481.601 160.51 455.341 171.44C440.941 177.433 433.144 189.16 431.951 206.62C431.933 206.9 431.807 207.163 431.601 207.353C431.394 207.543 431.122 207.646 430.841 207.64L422.141 207.44C421.756 207.432 421.39 207.274 421.121 206.999C420.851 206.724 420.701 206.355 420.701 205.97L420.551 157.4L494.231 157.62Z" fill="#B41F22"/>
<path d="M631.99 157.289C631.75 172.102 631.653 186.929 631.7 201.769C631.73 210.509 628.69 207.279 622.66 208.019C622.416 208.046 622.171 207.979 621.975 207.833C621.778 207.686 621.644 207.47 621.6 207.229C619.52 195.099 618.17 186.239 608.74 177.839C595.19 165.759 573.51 164.919 558.14 174.179C547.213 180.766 541.24 190.912 540.22 204.619C540.179 205.161 539.941 205.669 539.551 206.048C539.161 206.427 538.645 206.652 538.1 206.679L530.77 207.039C530.575 207.05 530.379 207.021 530.195 206.955C530.01 206.888 529.841 206.785 529.696 206.652C529.552 206.519 529.436 206.358 529.354 206.179C529.272 206 529.226 205.806 529.22 205.609C528.767 189.969 528.927 174.192 529.7 158.279C529.793 157.732 530.813 157.572 532.76 157.799C544.993 158.306 557.233 158.299 569.48 157.779C579.07 157.529 587.29 159.159 597.78 157.759L631.99 157.289Z" fill="#B41F22"/>
<path d="M522.64 159.5C523.14 161.3 523.14 163.053 522.64 164.76C522.133 162.94 522.133 161.187 522.64 159.5Z" fill="#B41F22"/>
<path d="M323.32 258.299C322.674 270.753 322.48 283.133 322.74 295.439C322.774 297.059 322.444 299.126 321.75 301.639C318.877 302.166 316.057 302.199 313.29 301.739C313.134 301.713 312.99 301.637 312.88 301.524C312.77 301.41 312.7 301.265 312.68 301.109C312.287 297.843 312.077 294.639 312.05 291.499C311.817 267.413 311.717 243.329 311.75 219.249C311.757 217.436 311.874 215.629 312.1 213.829C312.154 213.403 312.397 213.193 312.83 213.199L322.12 213.369C323.014 213.389 323.46 213.846 323.46 214.739L323.32 258.299Z" fill="#B41F22"/>
<path d="M422.431 213.309H414.251C413.307 213.309 412.541 214.074 412.541 215.019V300.199C412.541 301.143 413.307 301.909 414.251 301.909H422.431C423.375 301.909 424.141 301.143 424.141 300.199V215.019C424.141 214.074 423.375 213.309 422.431 213.309Z" fill="#B41F22"/>
<path d="M531.1 213.262H522.72C521.809 213.262 521.07 214 521.07 214.912V300.212C521.07 301.123 521.809 301.862 522.72 301.862H531.1C532.012 301.862 532.75 301.123 532.75 300.212V214.912C532.75 214 532.012 213.262 531.1 213.262Z" fill="#B41F22"/>
<path d="M631.39 213.23H623.85C622.695 213.23 621.76 214.166 621.76 215.32V299.82C621.76 300.975 622.695 301.91 623.85 301.91H631.39C632.544 301.91 633.48 300.975 633.48 299.82V215.32C633.48 214.166 632.544 213.23 631.39 213.23Z" fill="#B41F22"/>
<path d="M494.481 309.238C499.031 308.958 504.101 309.818 507.761 309.948C511.011 310.058 514.091 310.318 517.421 309.998C524.541 309.308 532.281 309.808 538.741 309.468C542.408 309.282 546.078 309.175 549.751 309.148L638.541 309.268C638.948 309.268 639.161 309.472 639.181 309.878L639.681 319.928C581.521 319.978 524.171 320.358 465.091 319.758C459.571 319.698 453.131 320.318 448.001 320.268C420.854 320.022 393.708 319.838 366.561 319.718C347.791 319.628 329.061 320.408 310.281 319.678C309.954 319.665 309.768 319.822 309.721 320.148C309.601 321.008 309.151 321.478 308.371 321.558L308.541 309.408C317.271 312.728 330.821 309.768 339.701 309.718C346.991 309.688 354.221 310.158 361.501 309.738C364.668 309.558 367.838 309.422 371.011 309.328L494.481 309.238Z" fill="#B41F22"/>
<path d="M639.681 319.93C640.168 321.33 640.198 322.924 639.771 324.711C637.298 326.637 634.458 327.62 631.251 327.66C623.098 327.754 614.934 327.824 606.761 327.87C605.281 327.884 603.464 327.66 601.311 327.2C593.851 325.62 586.931 327.28 579.581 326.72C579.314 326.7 579.188 326.824 579.201 327.091L579.231 327.69C578.611 327.45 578.098 327.501 577.691 327.841C577.58 327.932 577.449 327.995 577.309 328.023C577.169 328.051 577.026 328.043 576.891 328C574.351 327.19 571.951 328.03 570.001 328.01C560.628 327.917 551.324 327.804 542.091 327.67C539.804 327.03 537.331 327.06 534.671 327.76C531.421 327.35 524.161 326.4 521.241 327.73C511.461 328.004 501.694 328.077 491.941 327.95C489.491 327.91 487.601 326.76 485.111 326.43C484.758 326.384 484.618 326.534 484.691 326.88C484.858 327.667 484.818 328.387 484.571 329.04C483.691 327.49 470.931 327.63 467.391 327.62C463.478 328.14 459.514 328.214 455.501 327.841C454.701 327.767 453.701 327.82 452.501 328C450.051 328.38 431.091 327.14 430.721 327.68C430.528 327.96 430.284 328.01 429.991 327.83C427.951 326.54 425.391 327.841 423.251 328.151L417.761 327.95C415.221 326.75 413.174 326.64 411.621 327.62L410.831 327.97C410.378 327.63 409.984 327.517 409.651 327.63C409.098 327.824 408.798 327.924 408.751 327.93C399.771 328.384 390.794 328.307 381.821 327.7C381.634 327.694 381.484 327.767 381.371 327.92C380.931 328.54 378.251 327.76 377.391 327.72C377.064 327.707 376.801 327.567 376.601 327.3C375.781 326.194 374.748 325.954 373.501 326.58C373.214 326.72 372.911 326.794 372.591 326.8L353.701 327.36L353.241 328.01L316.751 328.08L310.161 327.6C309.788 327.574 309.521 327.394 309.361 327.06C308.621 325.454 308.291 323.62 308.371 321.56C309.151 321.48 309.601 321.011 309.721 320.151C309.768 319.824 309.954 319.667 310.281 319.68C329.061 320.41 347.791 319.63 366.561 319.72C393.708 319.84 420.854 320.024 448.001 320.27C453.131 320.32 459.571 319.7 465.091 319.76C524.171 320.36 581.521 319.98 639.681 319.93Z" fill="#B41F22"/>
<path d="M639.77 324.711C639.51 326.131 638.697 327.218 637.33 327.971C637.037 328.138 636.813 328.368 636.66 328.661L634.08 333.681C627.247 334.041 620.277 334.101 613.17 333.861C612.75 333.848 610.327 333.564 605.9 333.011C603.034 332.658 600.247 332.798 597.54 333.431C597.973 332.604 597.904 331.894 597.33 331.301C597.75 330.601 597.907 329.778 597.8 328.831C597.76 328.498 597.573 328.311 597.24 328.271C596.633 328.191 595.967 328.281 595.24 328.541L579.23 327.691L579.2 327.091C579.187 326.824 579.314 326.701 579.58 326.721C586.93 327.281 593.85 325.621 601.31 327.201C603.463 327.661 605.28 327.884 606.76 327.871C614.934 327.824 623.097 327.754 631.25 327.661C634.457 327.621 637.297 326.638 639.77 324.711Z" fill="#B41F22"/>
<path d="M410.831 327.968L409.221 334.098L376.521 333.668C376.076 333.662 375.645 333.509 375.294 333.232C374.943 332.956 374.693 332.571 374.581 332.138L373.541 328.108C373.495 327.93 373.389 327.773 373.24 327.664C373.09 327.554 372.907 327.5 372.721 327.508L365.261 327.868C361.295 328.308 357.441 328.138 353.701 327.358L372.591 326.798C372.911 326.791 373.214 326.718 373.501 326.578C374.748 325.951 375.781 326.191 376.601 327.298C376.801 327.565 377.065 327.705 377.391 327.718C378.251 327.758 380.931 328.538 381.371 327.918C381.484 327.765 381.635 327.691 381.821 327.698C390.795 328.305 399.771 328.381 408.751 327.928C408.798 327.921 409.098 327.821 409.651 327.628C409.985 327.515 410.378 327.628 410.831 327.968Z" fill="#B41F22"/>
<path d="M521.24 327.73C521.553 329.457 521.28 331.374 520.42 333.48C520.06 333.794 519.833 334.197 519.74 334.69C519.686 334.964 519.526 335.06 519.26 334.98C517.02 334.3 515.43 333.967 514.49 333.98C505.163 334.147 495.823 333.937 486.469 333.35C486.156 333.33 485.94 333.174 485.82 332.88L484.81 330.44C484.603 329.9 484.523 329.433 484.57 329.04C484.816 328.387 484.856 327.667 484.69 326.88C484.616 326.534 484.756 326.384 485.11 326.43C487.6 326.76 489.49 327.91 491.94 327.95C501.693 328.077 511.46 328.004 521.24 327.73Z" fill="#B41F22"/>
<path d="M417.761 327.952C415.548 328.312 413.501 328.202 411.621 327.622C413.174 326.642 415.221 326.752 417.761 327.952Z" fill="#B41F22"/>
<path d="M467.39 327.62L466.9 332.99C465.173 333.683 463.853 334.023 462.94 334.01C455.6 333.93 448.263 333.833 440.93 333.72C438.43 333.68 435.52 332.63 432.49 333.12C432.177 333.166 431.88 333.116 431.6 332.97C430.887 332.59 430.373 332.01 430.06 331.23L429.72 328.8C429.68 328.513 429.517 328.366 429.23 328.36L423.25 328.15C425.39 327.84 427.95 326.54 429.99 327.83C430.283 328.01 430.527 327.96 430.72 327.68C431.09 327.14 450.05 328.38 452.5 328C453.7 327.82 454.7 327.766 455.5 327.84C459.513 328.213 463.477 328.14 467.39 327.62Z" fill="#B41F22"/>
<path d="M579.23 327.688L577.88 333.788L545.63 333.408C545.296 333.401 544.986 333.478 544.7 333.638C544.293 333.851 543.863 333.831 543.41 333.578C543.09 333.398 542.903 333.125 542.85 332.758L542.09 327.668C551.323 327.801 560.626 327.915 570 328.008C571.95 328.028 574.35 327.188 576.89 327.998C577.024 328.041 577.168 328.049 577.308 328.021C577.448 327.993 577.579 327.93 577.69 327.838C578.096 327.498 578.61 327.448 579.23 327.688Z" fill="#B41F22"/>
<path d="M353.241 328.012L351.991 333.972C350.901 335.522 348.511 333.972 346.751 334.022C337.151 334.282 327.458 334.508 317.671 334.702C316.958 333.255 316.651 331.048 316.751 328.082L353.241 328.012Z" fill="#B41F22"/>
<path d="M597.33 331.3C597.43 329.8 596.734 328.88 595.24 328.54C595.967 328.28 596.634 328.19 597.24 328.27C597.574 328.31 597.76 328.497 597.8 328.83C597.907 329.777 597.75 330.6 597.33 331.3Z" fill="#B41F22"/>
<path d="M548.97 340.942C547.77 340.729 547.144 341.619 547.091 343.612L545.98 340.802C546.354 340.095 547.35 340.142 548.97 340.942Z" fill="#B41F22"/>
<path d="M461.629 343.281C456.879 349.021 455.549 354.561 457.509 362.021C460.029 371.661 463.489 380.031 465.989 390.501C468.299 400.141 463.279 414.781 458.049 422.801C455.419 426.841 448.709 425.761 444.499 425.751C441.593 425.745 439.353 424.288 437.779 421.381C432.499 411.631 428.589 398.111 431.859 387.131C434.753 377.431 437.663 367.731 440.589 358.031C441.979 353.401 436.829 345.041 434.879 340.451L459.239 341.331C459.351 341.337 459.461 341.3 459.547 341.228C459.632 341.155 459.687 341.053 459.699 340.941L459.739 340.631C459.748 340.564 459.778 340.502 459.825 340.453C459.872 340.405 459.934 340.373 460 340.363C460.067 340.353 460.135 340.365 460.195 340.397C460.254 340.429 460.302 340.48 460.329 340.541L461.629 343.281Z" fill="#B41F22"/>
<path d="M516.65 340.829L516.26 342.409C516.18 342.722 516.043 343.005 515.85 343.259C512.2 348.029 509.81 353.959 511.26 360.039C513.74 370.429 517.71 380.409 520.48 390.749C523.14 400.659 516.43 416.749 510.89 424.889C510.723 425.129 510.501 425.327 510.244 425.464C509.986 425.602 509.7 425.675 509.41 425.679L496.94 425.929C496.58 425.935 496.266 425.822 496 425.589C490.88 421.119 488.4 413.489 486.7 407.549C482.44 392.679 488.34 379.279 492.87 365.419C495.97 355.929 494.41 350.719 489.63 342.329C489.97 339.979 490.67 340.719 492.32 340.759C500.3 340.959 508.41 340.982 516.65 340.829Z" fill="#B41F22"/>
<path d="M348.359 341.78C348.026 342.26 347.796 342.83 347.669 343.49C347.376 342.29 346.993 341.484 346.52 341.07L347.299 340.87C347.666 340.783 347.933 340.91 348.099 341.25L348.359 341.78Z" fill="#B41F22"/>
<path d="M404.23 343.689C397.15 353.829 399.97 360.379 403.93 372.869C405.443 377.629 406.943 382.392 408.43 387.159C412.23 399.369 406.96 414.869 399.66 424.589C399.393 424.945 399.046 425.235 398.647 425.435C398.247 425.634 397.807 425.738 397.36 425.739L386.08 425.749C385.799 425.749 385.528 425.669 385.3 425.519C375.77 419.299 371.8 396.629 375.06 386.609C379.707 372.342 382.54 362.979 383.56 358.519C384.76 353.299 381.31 347.399 378.87 343.059C378.97 341.805 379.743 341.172 381.19 341.159C389.077 341.079 395.177 341.112 399.49 341.259C400.77 341.309 401.96 340.779 403.4 341.059C403.7 341.119 403.913 341.285 404.04 341.559C404.307 342.125 404.37 342.835 404.23 343.689Z" fill="#B41F22"/>
<path d="M571.649 344.661C566.709 351.511 567.149 357.291 569.769 365.681C573.389 377.251 579.759 391.341 577.009 403.561C575.323 411.068 572.626 417.691 568.919 423.431C566.799 426.711 555.859 425.961 554.069 425.691C551.239 425.261 549.669 422.331 548.089 419.411C542.899 409.821 539.579 397.491 542.969 386.861C545.383 379.301 547.729 371.721 550.009 364.121C552.409 356.111 551.829 350.171 547.089 343.611C547.143 341.618 547.769 340.728 548.969 340.941L570.969 341.301C571.309 341.308 571.489 341.481 571.509 341.821L571.649 344.661Z" fill="#B41F22"/>
<path d="M629.48 342.481C625.99 349.531 622.94 353.531 625.4 361.821C630.03 377.431 636.72 390.171 633.43 404.811C631.957 411.351 629.537 417.305 626.17 422.671C623.43 427.041 615.96 425.781 611.51 425.691C603.46 425.531 598.71 402.461 598.31 396.621C597.23 380.591 614.56 360.471 605.53 346.731C605.324 345.271 604.727 344.008 603.74 342.941C603.454 342.628 603.484 342.345 603.83 342.091C604.564 341.558 605.644 341.281 607.07 341.261C612.63 341.188 618.19 341.008 623.75 340.721C627.464 340.535 629.374 341.121 629.48 342.481Z" fill="#B41F22"/>
<path d="M346.52 341.07C346.993 341.484 347.376 342.29 347.67 343.49C341.5 351.16 342.25 357.57 345.21 366.89C347.283 373.41 349.313 379.944 351.3 386.49C355.3 399.67 350.29 414.91 342.15 425.52C341.95 425.78 341.686 425.91 341.36 425.91H328.83C328.49 425.911 328.164 425.782 327.92 425.55C318.14 416.4 314.56 397.1 318.72 384.52C320.22 379.97 321.61 375.39 323.06 370.83C326.04 361.46 327.97 356.58 325.22 348.13C325.122 347.817 324.931 347.535 324.67 347.32C322.683 345.654 321.58 343.757 321.36 341.63L346.52 341.07Z" fill="#B41F22"/>
<path d="M639.481 448.138C636.681 448.478 634.081 448.738 631.161 448.628C615.911 448.078 597.541 448.348 585.441 448.328C495.311 448.178 404.991 448.608 315.041 448.288C313.074 448.282 312.014 448.238 311.861 448.158C311.074 447.725 310.357 446.725 309.711 445.158C309.511 444.132 309.591 442.842 309.951 441.288C310.017 441.002 310.201 440.842 310.501 440.808L315.001 440.388C315.462 440.341 315.889 440.124 316.198 439.78C316.507 439.436 316.675 438.989 316.671 438.528L316.601 431.988C316.587 430.995 317.077 430.498 318.071 430.498H352.151C352.537 430.498 352.741 430.692 352.761 431.078L353.101 438.698C353.161 440.038 353.861 440.698 355.201 440.678L372.291 440.428C372.613 440.423 372.921 440.291 373.148 440.061C373.374 439.831 373.501 439.521 373.501 439.198V431.748C373.501 431.585 373.533 431.423 373.596 431.271C373.659 431.12 373.751 430.983 373.867 430.868C373.984 430.753 374.121 430.662 374.273 430.6C374.425 430.538 374.587 430.507 374.751 430.508L409.021 430.538C409.282 430.538 409.533 430.639 409.721 430.82C409.909 431.001 410.02 431.247 410.031 431.508L410.351 439.818C410.358 440.053 410.458 440.274 410.629 440.435C410.799 440.596 411.026 440.684 411.261 440.678L429.421 440.428C429.709 440.423 429.984 440.305 430.186 440.099C430.388 439.893 430.501 439.617 430.501 439.328V431.118C430.501 430.698 430.711 430.488 431.131 430.488L465.271 430.528C465.663 430.528 466.04 430.684 466.317 430.962C466.595 431.239 466.751 431.616 466.751 432.008V438.998C466.751 439.396 466.909 439.778 467.19 440.059C467.471 440.34 467.853 440.498 468.251 440.498H483.751C483.908 440.498 484.061 440.45 484.193 440.361C484.325 440.272 484.428 440.146 484.491 439.998C485.361 437.868 484.611 434.248 484.481 432.168C484.468 431.957 484.499 431.746 484.572 431.547C484.644 431.349 484.756 431.167 484.902 431.014C485.047 430.86 485.222 430.738 485.416 430.654C485.61 430.571 485.819 430.528 486.031 430.528L520.261 430.488C520.47 430.488 520.672 430.568 520.823 430.712C520.974 430.855 521.063 431.051 521.071 431.258L521.321 439.178C521.354 440.212 521.891 440.722 522.931 440.708L540.721 440.418C540.873 440.416 541.018 440.353 541.124 440.245C541.231 440.136 541.291 439.99 541.291 439.838L541.271 432.488C541.271 431.958 541.48 431.449 541.854 431.074C542.227 430.699 542.733 430.488 543.261 430.488L576.441 430.508C576.888 430.511 577.317 430.686 577.637 430.998C577.956 431.31 578.14 431.733 578.151 432.178L578.301 439.408C578.306 439.699 578.425 439.976 578.633 440.18C578.84 440.384 579.12 440.498 579.411 440.498H596.981C597.237 440.499 597.485 440.409 597.68 440.244C597.874 440.078 598.002 439.849 598.041 439.598C598.361 437.618 598.344 435.505 597.991 433.258C597.724 431.545 598.411 430.678 600.051 430.658C610.951 430.518 621.824 430.465 632.671 430.498C633.11 430.501 633.537 430.651 633.883 430.925C634.229 431.198 634.474 431.579 634.581 432.008C635.027 433.875 635.151 435.752 634.951 437.638C634.904 438.045 635.024 438.398 635.311 438.698L638.391 441.918C638.618 442.152 638.762 442.458 638.801 442.788L639.481 448.138Z" fill="#B41F22"/>
<path d="M309.709 445.16C310.356 446.727 311.073 447.727 311.859 448.16C312.013 448.24 313.073 448.283 315.039 448.29C404.989 448.61 495.309 448.18 585.439 448.33C597.539 448.35 615.909 448.08 631.159 448.63C634.079 448.74 636.679 448.48 639.479 448.14L639.349 455.25C639.344 455.594 639.205 455.922 638.961 456.164C638.718 456.405 638.391 456.54 638.049 456.54L589.759 456.73C589.493 456.47 589.113 456.22 588.619 455.98C588.239 455.793 587.806 455.71 587.319 455.73C579.379 456.043 571.436 456.18 563.489 456.14C495.519 455.76 427.219 455.79 368.249 456.34C365.676 456.36 363.393 456.86 361.399 457.84C361.186 456.867 360.779 456.384 360.179 456.39C343.366 456.55 326.526 456.57 309.659 456.45C309.313 456.45 309.113 456.28 309.059 455.94C308.513 452.527 308.729 448.933 309.709 445.16Z" fill="#B41F22"/>
<path d="M589.76 456.729C585.474 463.589 581.654 469.366 578.3 474.059C577.32 475.429 574.25 477.51 575.21 479.46C510.95 479.87 446.59 479.359 382.28 479.239C381.274 479.233 380.267 479.126 379.26 478.919C378.08 478.679 377.08 478.486 376.26 478.34L361.4 457.84C363.394 456.86 365.677 456.36 368.25 456.34C427.22 455.79 495.52 455.759 563.49 456.139C571.437 456.179 579.38 456.043 587.32 455.729C587.807 455.709 588.24 455.793 588.62 455.979C589.114 456.219 589.494 456.469 589.76 456.729Z" fill="#B41F22"/>
<path d="M376.26 478.34C377.08 478.487 378.08 478.68 379.26 478.92C380.267 479.126 381.273 479.233 382.28 479.24C446.59 479.36 510.95 479.87 575.21 479.46L577.25 480.52C577.557 480.68 577.707 480.933 577.7 481.28L577.43 490.32C577.383 491.766 576.633 492.49 575.18 492.49L374.56 492.5C373.767 492.5 373.357 492.103 373.33 491.31L372.97 481.95C372.957 481.663 373.053 481.42 373.26 481.22L376.26 478.34Z" fill="#B41F22"/>
<path d="M349.02 613.549C310.32 613.159 306.15 547.049 335.33 531.199C343.22 526.919 355.69 527.149 364.52 528.239C379.7 530.099 389.57 544.819 391.71 558.759C394.38 576.059 392.28 594.319 378.93 606.399C370.3 614.209 360.78 613.659 349.02 613.549ZM334.61 547.459C325.02 562.189 325.9 598.409 347.99 603.259C361.41 606.199 372.68 600.669 377.38 588.109C382.26 575.089 381.82 550.919 369.79 541.969C358.82 533.799 342.26 535.719 334.61 547.459Z" fill="#B41F22"/>
<path d="M705.19 606.31C687.28 590.34 687.17 557.94 700.75 539.52C706.86 531.23 713.82 528.52 724.46 527.91C730.067 527.583 735.08 527.703 739.5 528.27C753.5 530.04 763.42 543.25 766.12 556.48C770.04 575.65 766.64 601.94 746.13 611.13C739.12 614.27 729.34 613.77 721.5 613.28C715.407 612.9 709.97 610.576 705.19 606.31ZM713.94 598.81C719.88 603.543 726.424 605.276 733.57 604.01C752.99 600.55 757.01 579.39 754.88 563.28C752.67 546.63 744.18 535.55 726 537.37C712.42 538.73 706.05 549.54 704.22 561.75C702.39 574.03 703.69 590.64 713.94 598.81Z" fill="#B41F22"/>
<path d="M132.95 572.69C132.697 573.923 132.59 574.943 132.63 575.75C133.097 584.663 133.05 593.563 132.49 602.45C132.463 602.877 132.663 603.087 133.09 603.08L173.72 602.37C174.018 602.365 174.306 602.477 174.521 602.683C174.737 602.889 174.862 603.172 174.87 603.47L175.05 612.34C175.053 612.426 175.038 612.511 175.007 612.591C174.976 612.671 174.929 612.744 174.87 612.806C174.81 612.867 174.739 612.916 174.66 612.949C174.581 612.983 174.496 613 174.41 613H122.5C122.007 613 121.76 612.75 121.76 612.25L121.75 529.75C121.75 528.917 122.167 528.5 123 528.5L174.46 528.59C174.573 528.59 174.686 528.613 174.79 528.657C174.894 528.701 174.989 528.765 175.068 528.846C175.147 528.927 175.21 529.023 175.251 529.129C175.293 529.234 175.313 529.347 175.31 529.46L175.08 537.66C175.067 538.12 174.83 538.353 174.37 538.36C160.477 538.48 146.58 538.527 132.68 538.5C132.609 538.499 132.539 538.514 132.474 538.543C132.409 538.572 132.351 538.616 132.303 538.669C132.256 538.723 132.221 538.787 132.199 538.856C132.178 538.925 132.171 538.998 132.18 539.07C133.1 546.25 133.213 553.427 132.52 560.6C132.493 560.913 132.633 561.07 132.94 561.07L171.17 561.3C171.32 561.3 171.464 561.356 171.574 561.458C171.683 561.561 171.75 561.701 171.76 561.85L172.35 570.6C172.41 571.507 171.987 571.96 171.08 571.96C161.413 572 151.773 572.103 142.16 572.27C139.89 572.31 136.47 571.7 133.57 572.11C133.23 572.157 133.023 572.35 132.95 572.69Z" fill="#B41F22"/>
<path d="M230.75 566.431C234.4 567.701 237.89 568.831 240.38 571.891C244.78 577.285 246.573 583.288 245.76 589.901C243.84 605.671 230.27 612.391 215.81 612.841C206.483 613.135 197.157 613.148 187.83 612.881C187.443 612.868 187.25 612.665 187.25 612.271V529.531C187.25 529.131 187.45 528.921 187.85 528.901C198.057 528.481 208.347 528.385 218.72 528.611C223.78 528.725 227.403 529.158 229.59 529.911C237.03 532.471 241.78 538.981 241.9 546.891C242.01 554.841 237.25 561.441 230.68 565.821C230.293 566.075 230.317 566.278 230.75 566.431ZM198.67 539.591L198.75 561.211C198.75 561.349 198.777 561.486 198.83 561.613C198.883 561.741 198.96 561.856 199.058 561.954C199.155 562.051 199.271 562.129 199.398 562.181C199.526 562.234 199.662 562.261 199.8 562.261L216.48 562.201C219.877 562.19 223.132 561.144 225.529 559.293C227.925 557.443 229.267 554.938 229.26 552.331L229.24 548.271C229.236 546.98 228.901 545.703 228.254 544.512C227.607 543.322 226.66 542.241 225.467 541.332C224.275 540.423 222.861 539.703 221.305 539.214C219.749 538.725 218.082 538.476 216.4 538.481L199.72 538.541C199.582 538.541 199.446 538.569 199.318 538.621C199.191 538.674 199.075 538.751 198.978 538.849C198.88 538.946 198.803 539.062 198.75 539.19C198.697 539.317 198.67 539.454 198.67 539.591ZM198.88 573.271L199.08 602.231C199.08 602.303 199.108 602.372 199.159 602.422C199.21 602.473 199.278 602.501 199.35 602.501L218.02 602.371C220.037 602.357 222.033 602.008 223.892 601.344C225.751 600.679 227.438 599.713 228.856 598.499C230.274 597.285 231.396 595.848 232.156 594.27C232.917 592.692 233.302 591.004 233.29 589.301L233.27 585.721C233.245 582.285 231.604 579 228.706 576.591C225.809 574.181 221.893 572.843 217.82 572.871L199.15 573.001C199.078 573.001 199.01 573.03 198.959 573.08C198.908 573.131 198.88 573.2 198.88 573.271Z" fill="#B41F22"/>
<path d="M256.681 612.66C256.528 612.66 256.451 612.583 256.451 612.43L256.521 530C256.528 529.313 256.874 528.957 257.561 528.93C272.421 528.41 289.191 526.18 301.821 534.45C312.651 541.56 313.311 556.66 307.751 567.29C301.231 579.74 282.611 583.07 269.511 581.84C269.385 581.829 269.258 581.844 269.138 581.885C269.018 581.926 268.909 581.991 268.815 582.077C268.722 582.162 268.648 582.266 268.597 582.382C268.547 582.498 268.521 582.623 268.521 582.75L268.471 611.57C268.471 611.761 268.433 611.951 268.358 612.127C268.283 612.303 268.173 612.462 268.035 612.596C267.897 612.729 267.734 612.833 267.555 612.903C267.375 612.972 267.184 613.005 266.991 613L256.681 612.66ZM268.551 539.23L268.611 570.63C268.611 570.882 268.711 571.124 268.889 571.302C269.068 571.48 269.309 571.58 269.561 571.58L281.981 571.55C286.571 571.541 290.97 569.995 294.211 567.251C297.451 564.508 299.268 560.791 299.261 556.92V552.82C299.258 550.902 298.807 549.004 297.933 547.234C297.06 545.464 295.782 543.857 294.172 542.504C292.561 541.151 290.651 540.079 288.549 539.349C286.447 538.619 284.195 538.246 281.921 538.25L269.501 538.28C269.249 538.28 269.008 538.38 268.829 538.558C268.651 538.736 268.551 538.978 268.551 539.23Z" fill="#B41F22"/>
<path d="M416.75 538.891V560.981C416.75 561.112 416.801 561.238 416.893 561.331C416.984 561.424 417.109 561.478 417.24 561.481C424.813 561.561 432.397 561.734 439.99 562.001C457.37 562.621 467.15 577.271 462.95 593.561C460.06 604.791 449.03 612.241 437.68 612.671C427.02 613.078 416.357 613.158 405.69 612.911C405.572 612.908 405.46 612.86 405.378 612.776C405.296 612.692 405.25 612.579 405.25 612.461V529.111C405.25 528.678 405.463 528.461 405.89 528.461L456.41 528.621C456.648 528.621 456.884 528.669 457.103 528.763C457.321 528.857 457.519 528.994 457.684 529.167C457.848 529.34 457.976 529.545 458.06 529.769C458.143 529.993 458.181 530.232 458.17 530.471L457.93 536.311C457.877 537.584 457.213 538.221 455.94 538.221L417.36 538.281C416.953 538.281 416.75 538.484 416.75 538.891ZM416.97 572.361L417.03 602.141C417.03 602.247 417.072 602.349 417.147 602.424C417.222 602.499 417.324 602.541 417.43 602.541L435.11 602.511C439.517 602.502 443.741 601.006 446.852 598.353C449.963 595.699 451.707 592.105 451.7 588.361V586.021C451.697 584.166 451.263 582.331 450.425 580.619C449.586 578.907 448.359 577.352 446.812 576.044C445.266 574.736 443.432 573.699 441.413 572.993C439.395 572.287 437.233 571.926 435.05 571.931L417.37 571.961C417.264 571.961 417.162 572.003 417.087 572.078C417.012 572.153 416.97 572.255 416.97 572.361Z" fill="#B41F22"/>
<path d="M596.13 538.249L568.4 537.989C568.102 537.986 567.814 538.099 567.598 538.304C567.381 538.51 567.253 538.791 567.24 539.089C566.66 550.389 566.22 561.735 565.92 573.129C565.61 585.069 564.33 599.349 554.97 607.989C550.57 612.042 545.473 613.659 539.68 612.839C535.3 612.219 531.16 613.189 526.84 612.969C526.321 612.939 525.823 612.754 525.411 612.439C524.999 612.123 524.692 611.691 524.53 611.199L517.59 589.959C517.55 589.837 517.472 589.73 517.368 589.655C517.264 589.579 517.139 589.539 517.01 589.539C508.223 589.452 499.497 589.449 490.83 589.529C487.27 589.569 484.98 588.099 483.7 592.969C482.913 595.989 480.697 602.459 477.05 612.379C477.002 612.511 476.919 612.627 476.809 612.714C476.699 612.8 476.568 612.854 476.43 612.869C473.103 613.262 469.85 613.062 466.67 612.269C465.577 611.996 465.26 611.345 465.72 610.319C467.1 607.259 468.43 603.855 469.71 600.109C477.777 576.429 485.87 552.752 493.99 529.079C494.117 528.712 494.373 528.532 494.76 528.539L507.84 528.589C508.038 528.592 508.23 528.651 508.395 528.759C508.56 528.867 508.69 529.02 508.77 529.199C510.24 532.379 511.32 536.329 512.2 538.859C519.887 560.965 527.5 583.092 535.04 605.239C535.447 606.439 535.973 607.579 536.62 608.659C536.867 609.072 536.997 609.035 537.01 608.549C537.22 600.909 544.33 603.949 547.76 599.789C553.69 592.569 554.53 578.029 555.2 568.439C556.113 555.459 556.637 542.479 556.77 529.499C556.773 529.223 556.884 528.96 557.079 528.766C557.274 528.573 557.537 528.466 557.81 528.469L607.91 528.609C608.263 528.609 608.44 528.786 608.44 529.139C608.64 562.739 607.53 585.669 608.59 612.149C608.597 612.456 608.45 612.615 608.15 612.629L598.13 613.099C597.103 613.145 596.587 612.652 596.58 611.619L596.5 538.629C596.5 538.375 596.377 538.249 596.13 538.249ZM488.41 578.649C488.386 578.721 488.38 578.798 488.392 578.874C488.404 578.949 488.433 579.02 488.478 579.082C488.523 579.143 488.582 579.193 488.65 579.228C488.718 579.262 488.794 579.279 488.87 579.279L513.32 579.239C513.397 579.238 513.472 579.22 513.54 579.184C513.608 579.149 513.666 579.098 513.71 579.035C513.754 578.972 513.783 578.9 513.793 578.824C513.803 578.748 513.796 578.671 513.77 578.599L501.48 541.619C501.448 541.524 501.387 541.441 501.305 541.382C501.224 541.323 501.126 541.292 501.025 541.292C500.924 541.292 500.826 541.323 500.745 541.382C500.663 541.441 500.602 541.524 500.57 541.619L488.41 578.649Z" fill="#B41F22"/>
<path d="M625.681 612.831C625.374 612.824 625.221 612.671 625.221 612.371L625.261 529.661C625.261 529.443 625.346 529.234 625.499 529.078C625.652 528.921 625.861 528.829 626.081 528.821L636.561 528.481C636.974 528.468 637.177 528.668 637.171 529.081C636.977 540.008 636.924 550.891 637.011 561.731C637.024 563.091 637.191 564.414 637.511 565.701C637.591 566.021 637.794 566.164 638.121 566.131C663.831 563.651 648.291 525.221 683.491 528.721C683.938 528.767 684.351 528.981 684.644 529.319C684.938 529.658 685.091 530.095 685.071 530.541L684.801 536.601C684.791 536.845 684.731 537.085 684.626 537.305C684.52 537.526 684.37 537.722 684.185 537.882C684.001 538.042 683.785 538.163 683.552 538.237C683.319 538.311 683.074 538.336 682.831 538.311C670.621 537.111 668.921 545.511 665.411 554.631C663.191 560.411 660.951 563.481 656.281 567.021C655.047 567.961 654.911 569.041 655.871 570.261L688.061 611.201C688.128 611.285 688.172 611.385 688.19 611.491C688.209 611.597 688.2 611.705 688.165 611.807C688.13 611.909 688.07 612 687.991 612.072C687.911 612.144 687.815 612.196 687.711 612.221C683.411 613.281 676.441 614.381 672.941 611.151C672.934 611.144 671.734 609.611 669.341 606.551C662.161 597.384 654.957 588.238 647.731 579.111C644.491 575.011 643.161 572.211 637.951 574.141C637.698 574.235 637.48 574.404 637.326 574.626C637.172 574.848 637.09 575.111 637.091 575.381L636.961 612.191C636.961 612.307 636.937 612.422 636.892 612.529C636.847 612.636 636.78 612.732 636.696 612.813C636.612 612.895 636.513 612.958 636.404 613.001C636.295 613.043 636.178 613.064 636.061 613.061L625.681 612.831Z" fill="#B41F22"/>
<path d="M792 572.9V612.28C792 612.385 791.979 612.49 791.938 612.587C791.897 612.684 791.837 612.772 791.761 612.846C791.686 612.919 791.596 612.977 791.498 613.016C791.4 613.054 791.295 613.073 791.19 613.07L780.62 612.8C780.414 612.795 780.218 612.709 780.074 612.562C779.93 612.414 779.85 612.216 779.85 612.01L780.02 529.54C780.02 529.336 780.099 529.139 780.24 528.992C780.382 528.844 780.575 528.758 780.78 528.75L791.17 528.43C791.275 528.427 791.38 528.446 791.478 528.484C791.576 528.523 791.666 528.58 791.741 528.654C791.817 528.728 791.877 528.816 791.918 528.913C791.959 529.01 791.98 529.114 791.98 529.22L792.04 560.76C792.04 560.969 792.123 561.17 792.271 561.319C792.419 561.467 792.62 561.55 792.83 561.55L830.19 561.56C830.399 561.56 830.6 561.477 830.748 561.329C830.896 561.18 830.98 560.979 830.98 560.77L831.01 529.36C831.01 529.255 831.03 529.152 831.071 529.055C831.111 528.959 831.17 528.871 831.245 528.798C831.319 528.724 831.407 528.666 831.504 528.627C831.601 528.588 831.705 528.569 831.81 528.57L840.97 528.66C841.177 528.663 841.376 528.747 841.522 528.895C841.668 529.043 841.75 529.242 841.75 529.45V612.23C841.75 612.335 841.729 612.438 841.689 612.535C841.648 612.631 841.589 612.719 841.515 612.792C841.44 612.866 841.352 612.924 841.255 612.963C841.158 613.002 841.054 613.021 840.95 613.02L831.84 612.96C831.632 612.957 831.433 612.873 831.287 612.725C831.141 612.577 831.06 612.378 831.06 612.17L830.97 572.79C830.97 572.58 830.886 572.379 830.738 572.231C830.59 572.083 830.389 572 830.18 572L792.79 572.11C792.58 572.11 792.379 572.193 792.231 572.341C792.083 572.489 792 572.69 792 572.9Z" fill="#B41F22"/>
</g>
<defs>
<clipPath id="clip0_389_397">
<rect width="936" height="648" fill="white"/>
</clipPath>
</defs>
</svg>
