<svg width="255" height="102" viewBox="0 0 255 102" fill="none" xmlns="http://www.w3.org/2000/svg">
<path d="M35.7734 54.176L37.6483 55.1129C38.4803 55.5287 39.459 54.9236 39.459 53.9935V53.9935C39.459 53.3024 38.8987 52.7422 38.2076 52.7422H37.6162" stroke="#F5A925" stroke-width="3" stroke-linecap="round"/>
<path d="M35.7744 77.3132L35.8476 77.3635C36.5965 77.8787 37.6162 77.3426 37.6162 76.4335V76.4335C37.6162 75.8101 37.1108 75.3047 36.4874 75.3047H35.7734" stroke="#F5A925" stroke-width="3" stroke-linecap="round"/>
<path d="M200.522 37.5399C200.136 37.4267 199.797 37.2526 199.505 37.0177C199.212 36.7588 198.931 36.4757 198.662 36.1685C198.539 36.0266 198.33 35.7422 198.035 35.3154C197.739 34.8885 197.419 34.4141 197.074 33.8921C196.752 33.3697 196.444 32.883 196.148 32.4322C195.851 31.9573 195.629 31.6012 195.481 31.3638C195.367 31.7258 195.24 32.0281 195.101 32.2706C194.985 32.4887 194.931 32.8377 194.939 33.3176C194.705 33.6578 194.532 34.0449 194.42 34.479C194.331 34.8886 194.23 35.2984 194.117 35.7085C194.05 35.9737 193.934 36.2158 193.77 36.4347C193.63 36.6532 193.441 36.8486 193.204 37.0208C192.916 37.0019 192.662 36.9103 192.443 36.7461C192.248 36.5816 192.077 36.4165 191.93 36.2511C191.781 35.9657 191.716 35.6908 191.736 35.4264C191.755 35.162 191.811 34.909 191.902 34.6673C191.947 34.4505 192.071 34.0283 192.276 33.4006C192.505 32.7724 192.745 32.0961 192.997 31.3716C193.247 30.623 193.476 29.9589 193.682 29.3792C193.887 28.7755 194 28.4014 194.022 28.257C194.157 27.7745 194.4 27.2542 194.75 26.6959C195.124 26.1132 195.377 25.4847 195.509 24.8102C195.554 24.6414 195.672 24.4833 195.861 24.336C196.05 24.1646 196.264 24.0768 196.504 24.0726C196.768 24.0439 196.986 24.1721 197.159 24.4571C197.208 24.4803 197.28 24.515 197.377 24.5613C197.474 24.5836 197.546 24.6303 197.596 24.7015C197.791 24.914 197.903 25.1401 197.932 25.3796C197.984 25.6188 197.94 25.8716 197.801 26.1381C197.499 26.6955 197.243 27.1561 197.033 27.5198C196.847 27.8591 196.662 28.2345 196.477 28.6458C196.292 29.0571 196.086 29.6248 195.859 30.3489C196.265 30.2458 196.564 30.1685 196.755 30.1171C196.946 30.0417 197.124 29.9306 197.289 29.7837C197.478 29.6123 197.726 29.3559 198.032 29.0144C198.15 28.8923 198.386 28.6602 198.74 28.3179C199.117 27.9512 199.506 27.5602 199.907 27.1451C200.332 26.7296 200.697 26.3631 201.004 26.0456C201.334 25.7277 201.511 25.5446 201.534 25.4962C201.674 25.2777 201.815 25.0832 201.956 24.9126C202.121 24.7177 202.334 24.5699 202.596 24.4693C202.957 24.5109 203.21 24.5785 203.356 24.6719C203.501 24.7414 203.781 24.9405 204.195 25.2692C204.316 25.3631 204.368 25.5902 204.351 25.9506C204.333 26.287 204.205 26.5533 203.969 26.7495C203.543 27.093 203.01 27.5345 202.372 28.0738C201.733 28.6131 201.047 29.1773 200.313 29.7664C199.604 30.355 198.893 30.9076 198.182 31.4242C198.528 31.9702 198.837 32.4928 199.11 32.9921C199.382 33.4673 199.606 33.8715 199.78 34.2044C199.838 34.8035 200.061 35.2076 200.449 35.4168C200.86 35.6016 201.354 35.6889 201.93 35.6788C202.124 35.7714 202.246 35.8892 202.296 36.0324C202.37 36.1511 202.409 36.2944 202.412 36.4624C202.438 36.606 202.465 36.7495 202.491 36.8931C202.159 37.115 201.923 37.3112 201.782 37.4817C201.664 37.6278 201.522 37.7143 201.354 37.7412C201.21 37.7438 200.933 37.6767 200.522 37.5399ZM220.624 37.4376C220.479 37.3921 220.334 37.3587 220.19 37.3372C220.045 37.2918 219.9 37.2463 219.755 37.2009C219.634 37.155 219.49 37.1215 219.321 37.1005C219.076 36.7688 218.972 36.3625 219.012 35.8818C219.051 35.377 219.15 34.8592 219.309 34.3283C219.491 33.797 219.662 33.2779 219.821 32.771C220.004 32.2637 220.105 31.8299 220.122 31.4695C220.097 31.3739 220.06 31.3506 220.013 31.3994C219.965 31.4243 219.942 31.4607 219.943 31.5087C219.778 31.7036 219.541 31.8398 219.23 31.9173C218.919 31.9948 218.632 32.0598 218.369 32.1125C217.915 32.1925 217.46 32.2845 217.006 32.3886C216.552 32.4926 216.11 32.6084 215.68 32.736C215.607 32.6893 215.522 32.6308 215.425 32.5605C215.352 32.4897 215.278 32.431 215.206 32.3843C215.038 32.3873 214.896 32.5458 214.782 32.8598C214.667 33.1739 214.566 33.5597 214.478 34.0174C214.39 34.451 214.301 34.8726 214.213 35.2822C214.147 35.6675 214.08 35.9447 214.011 36.1139C213.628 36.1687 213.352 36.1855 213.184 36.1645C213.04 36.1431 212.762 36.0759 212.352 35.9631C212.156 35.7026 212.043 35.4525 212.015 35.213C212.011 34.973 212.042 34.7084 212.109 34.4192C212.219 33.8652 212.307 33.4195 212.374 33.0823C212.464 32.7447 212.612 32.31 212.819 31.7783C212.934 31.5122 213.037 31.2583 213.129 31.0167C213.245 30.7506 213.299 30.4616 213.294 30.1496C213.482 29.9063 213.609 29.64 213.676 29.3508C213.743 29.0616 213.822 28.7721 213.913 28.4825C214.279 27.4919 214.566 26.7307 214.773 26.199C215.003 25.6428 215.163 25.2079 215.254 24.8943C215.344 24.5806 215.399 24.2916 215.418 24.0272C215.436 23.6909 215.637 23.5193 216.021 23.5125C216.261 23.5083 216.515 23.5999 216.782 23.7872C217.049 23.9505 217.257 24.1629 217.406 24.4243C217.554 24.6857 217.571 24.9614 217.456 25.2515C217.388 25.4448 217.273 25.7588 217.113 26.1937C216.976 26.6042 216.816 27.0631 216.633 27.5704C216.474 28.0533 216.314 28.5122 216.153 28.9471C216.016 29.3575 215.902 29.6596 215.809 29.8533C215.787 29.9497 215.74 30.0345 215.67 30.1078C215.598 30.157 215.564 30.2416 215.566 30.3616C215.736 30.4786 216.013 30.5218 216.396 30.491C216.804 30.4358 217.09 30.3588 217.257 30.2598C217.616 30.2535 217.964 30.2473 218.3 30.2414C218.66 30.2351 219.02 30.2287 219.38 30.2224C219.744 30.432 220.026 30.7511 220.225 31.1796C220.385 30.7207 220.603 30.1168 220.877 29.3679C221.152 28.5949 221.414 27.8342 221.665 27.0856C221.916 26.3371 222.062 25.7704 222.103 25.3856C222.148 25.1688 222.24 24.9752 222.381 24.8047C222.522 24.6341 222.676 24.4994 222.842 24.4005C223.181 24.5625 223.508 24.7008 223.822 24.8153C224.159 24.9053 224.38 25.1775 224.484 25.6317C224.464 25.8481 224.42 26.0649 224.352 26.2822C224.283 26.4754 224.214 26.6686 224.146 26.8619C223.918 27.562 223.632 28.3352 223.286 29.1814C222.941 30.0036 222.62 30.8494 222.323 31.7187C222.05 32.5637 221.86 33.3592 221.753 34.1052C221.754 34.1772 221.699 34.4182 221.586 34.8282C221.497 35.2379 221.396 35.6357 221.283 36.0218C221.193 36.4074 221.137 36.6124 221.114 36.6368C221.116 36.8048 221.071 36.9616 220.978 37.1073C220.884 37.229 220.766 37.3391 220.624 37.4376ZM233.816 37.5291C233.572 37.2934 233.327 36.9736 233.079 36.5699C232.832 36.1422 232.631 35.6537 232.477 35.1043C232.426 34.9132 232.397 34.6497 232.392 34.3137C232.41 33.9773 232.405 33.7374 232.379 33.5938C232.31 33.7631 232.193 33.9451 232.028 34.1401C231.887 34.3106 231.746 34.4571 231.604 34.5796C231.51 34.6773 231.297 34.8731 230.966 35.167C230.635 35.4368 230.303 35.6587 229.97 35.8326C229.187 36.3505 228.532 36.6381 228.005 36.6954C227.502 36.7523 227.017 36.4968 226.551 35.9289C226.162 35.6237 225.88 35.2806 225.705 34.8996C225.554 34.5182 225.545 33.9903 225.677 33.3159C225.71 32.4752 225.816 31.6572 225.994 30.8619C226.171 30.0427 226.548 28.9559 227.124 27.6015C227.611 26.6088 227.982 25.8821 228.238 25.4215C228.494 24.9369 228.657 24.646 228.727 24.5488C229.085 24.4224 229.385 24.4292 229.627 24.5689C229.869 24.6847 230.017 24.9101 230.071 25.2452C230.22 25.4826 230.203 25.891 230.021 26.4703C229.863 27.0491 229.576 27.7623 229.159 28.6098C228.837 29.4316 228.539 30.253 228.266 31.0739C228.016 31.8944 227.873 32.5931 227.835 33.1698C227.797 33.7466 227.947 34.092 228.285 34.2061C228.503 34.3222 228.874 34.2797 229.399 34.0784C229.947 33.8767 230.551 33.386 231.209 32.6063C231.892 31.8261 232.543 30.6505 233.163 29.0793C233.347 28.596 233.483 28.1735 233.573 27.8119C233.662 27.4262 233.715 27.0052 233.731 26.5489C233.678 26.2618 233.685 26.0096 233.754 25.7924C233.845 25.5507 234.034 25.3434 234.319 25.1703C234.413 25.0486 234.543 24.9383 234.709 24.8394C234.875 24.7164 234.983 24.7145 235.033 24.8337L235.608 24.7875C235.704 24.7618 235.765 24.8208 235.791 24.9643C235.841 25.0835 235.927 25.19 236.049 25.2838C236.317 25.4952 236.397 25.9618 236.29 26.6838C236.182 27.4058 235.864 28.4196 235.335 29.7251C234.897 30.717 234.598 31.4664 234.439 31.9733C234.304 32.4797 234.228 32.9731 234.213 33.4535C234.22 33.8854 234.311 34.2919 234.486 34.6728C234.661 35.0538 234.931 35.3971 235.296 35.7027C235.563 35.866 235.711 36.0555 235.739 36.271C235.79 36.4861 235.807 36.7379 235.788 37.0263C235.744 37.2431 235.603 37.4256 235.365 37.5738C235.152 37.6976 234.901 37.762 234.613 37.7671C234.325 37.7722 234.059 37.6928 233.816 37.5291ZM251.731 36.3492C251.658 36.3025 251.501 36.2332 251.259 36.1415C251.041 36.0253 250.908 35.9556 250.859 35.9325C250.689 35.7915 250.589 35.6132 250.562 35.3976C250.534 35.1821 250.518 34.9423 250.513 34.6784C250.532 34.414 250.503 34.1385 250.426 33.8518C250.492 33.5146 250.558 33.1294 250.622 32.6962C250.686 32.2629 250.8 31.9129 250.964 31.646C251.052 31.2363 251.188 30.7539 251.37 30.1986C251.576 29.6189 251.758 29.0516 251.916 28.4967C252.098 27.9174 252.209 27.4234 252.25 27.0146C251.871 27.2613 251.539 27.5312 251.256 27.8242C250.973 28.1172 250.739 28.4094 250.552 28.7008C250.458 28.8464 250.352 28.9683 250.234 29.0664C250.115 29.1405 249.997 29.2386 249.879 29.3607C249.597 29.6778 249.326 30.0066 249.068 30.3472C248.81 30.6878 248.553 31.0404 248.295 31.405C247.874 32.0125 247.391 32.5731 246.848 33.0867C246.305 33.6004 245.786 34.1136 245.291 34.6264C245.103 34.8458 244.89 34.9935 244.651 35.0698C244.436 35.1216 244.219 35.1014 244.002 35.0092C243.712 34.8943 243.469 34.7545 243.274 34.5899C243.103 34.4249 242.919 34.1881 242.722 33.8796C242.689 33.4001 242.752 32.8469 242.909 32.22C243.089 31.5927 243.294 30.953 243.523 30.3009C243.775 29.6483 243.993 29.0444 244.175 28.4891C244.357 27.9098 244.445 27.4522 244.439 27.1163C244.414 27.0927 244.378 27.0813 244.33 27.0822C244.306 27.0826 244.271 27.1072 244.223 27.1561C243.207 28.0621 242.336 29.0136 241.609 30.0106C240.907 31.0071 240.184 32.196 239.44 33.5774C239.254 33.9407 239.07 34.4 238.888 34.9553C238.729 35.4862 238.484 35.8866 238.153 36.1564C238.129 36.1569 238.105 36.1573 238.081 36.1577C238.081 36.1337 238.069 36.1219 238.045 36.1224C238.02 36.0748 237.984 36.0754 237.937 36.1243C237.889 36.1731 237.818 36.2104 237.722 36.236C237.602 36.2382 237.481 36.1803 237.359 36.0624C237.188 35.8974 237.005 35.7326 236.811 35.568C236.64 35.403 236.516 35.2011 236.44 34.9625C236.484 34.7696 236.541 34.6006 236.611 34.4554C236.68 34.2861 236.809 34.0918 236.997 33.8725C237.064 33.6312 237.157 33.4136 237.273 33.2195C237.414 33.025 237.53 32.8069 237.622 32.5653C237.851 31.9371 238.222 31.2105 238.736 30.3853C239.249 29.5601 239.847 28.7454 240.529 27.9413C241.211 27.1372 241.918 26.4286 242.652 25.8156C243.385 25.2025 244.074 24.7823 244.718 24.5549C244.742 24.5545 244.754 24.5543 244.754 24.5543C244.778 24.5539 244.802 24.5535 244.826 24.553C245.067 24.6208 245.284 24.701 245.478 24.7936C245.671 24.8622 245.877 24.9426 246.094 25.0348C246.192 25.153 246.303 25.3071 246.427 25.497C246.55 25.6628 246.637 25.8413 246.688 26.0325C246.789 26.3187 246.784 26.7269 246.674 27.2569C246.563 27.7869 246.428 28.3174 246.27 28.8483C246.111 29.3791 245.974 29.8016 245.86 30.1157C245.838 30.2121 245.757 30.4175 245.619 30.732C245.48 31.0465 245.4 31.288 245.379 31.4564C245.38 31.4804 245.38 31.5043 245.381 31.5283C245.381 31.5523 245.394 31.5761 245.418 31.5997C245.796 31.233 246.161 30.8545 246.514 30.4642C246.891 30.0735 247.232 29.6834 247.538 29.294C248.266 28.417 249.007 27.5278 249.759 26.6264C250.535 25.7006 251.41 24.9411 252.383 24.3478C252.621 24.2236 252.897 24.2427 253.212 24.4052C253.551 24.5673 253.806 24.7428 253.978 24.9318C254.246 25.1431 254.395 25.4285 254.425 25.7881C254.481 26.2671 254.433 26.9281 254.28 27.7709C254.126 28.5898 253.925 29.4094 253.675 30.23C253.45 31.0501 253.233 31.702 253.025 32.1857C252.98 32.3065 252.945 32.4032 252.923 32.4756C252.9 32.548 252.878 32.6564 252.856 32.8008C252.835 32.9692 252.79 33.138 252.721 33.3073C252.676 33.4761 252.631 33.6329 252.585 33.7777C252.519 34.0909 252.512 34.4031 252.566 34.7142C252.643 35.0249 252.697 35.336 252.726 35.6475C252.727 35.6715 252.691 35.7081 252.62 35.7574C252.478 35.8559 252.336 35.9545 252.193 36.053C252.075 36.1271 251.944 36.2254 251.803 36.3479C251.779 36.3483 251.767 36.3485 251.767 36.3485C251.767 36.3485 251.755 36.3488 251.731 36.3492Z" fill="#F5A925"/>
<path d="M59.9075 41.7834C59.1627 41.7509 58.716 41.6281 58.5676 41.4151C58.4431 41.2017 58.3784 40.975 58.3734 40.735C58.4859 40.3726 58.6107 40.0219 58.7477 39.683C58.9087 39.3436 59.0212 38.9812 59.0852 38.5958C59.1507 38.2824 59.2167 37.9929 59.2832 37.7275C59.3497 37.4621 59.4277 37.1724 59.5172 36.8584C59.6972 36.2786 59.8985 35.5663 60.121 34.7215C60.3675 33.8762 60.626 33.0306 60.8965 32.1848C61.167 31.339 61.4045 30.6379 61.609 30.0816C61.7895 29.5257 61.9358 29.0546 62.0478 28.6682C62.1838 28.2813 62.32 27.9063 62.4565 27.5434C62.593 27.1805 62.74 26.7454 62.8975 26.238C63.011 25.9236 63.1128 25.6214 63.2028 25.3315C63.2923 25.0175 63.3818 24.7036 63.4713 24.3897C63.5848 24.0753 63.6866 23.7731 63.7766 23.4832C63.8901 23.1687 63.9916 22.8546 64.0811 22.5406C64.3335 21.9833 64.5505 21.4507 64.732 20.9428C64.9375 20.4344 65.118 19.8785 65.2735 19.2752C65.365 19.0572 65.3498 18.9015 65.2278 18.808C65.1299 18.7141 65.0776 18.5111 65.0712 18.1992C65.0412 17.9117 65.109 17.7063 65.2744 17.5828C65.4634 17.4349 65.7026 17.3939 65.992 17.4599C66.3295 17.5249 66.7986 17.5752 67.3995 17.6107C68.0243 17.6458 68.5887 17.658 69.0926 17.6476C69.62 17.6126 69.9074 17.5827 69.9549 17.5577C70.0739 17.5072 70.4683 17.427 71.1382 17.3171C71.8075 17.1831 72.6206 17.0342 73.5774 16.8703C74.5342 16.7064 75.5153 16.5541 76.5206 16.4132C77.5499 16.2718 78.4594 16.1449 79.2493 16.0324C79.5122 15.979 79.7642 15.9737 80.0051 16.0168C80.27 16.0593 80.523 16.102 80.7639 16.145C81.0769 16.1866 81.3923 16.348 81.7102 16.6295C82.0281 16.911 82.1433 17.2566 82.0558 17.6666C81.9653 17.9325 81.7643 18.0807 81.4529 18.1112C81.1409 18.1176 80.72 18.0784 80.1902 17.9933C80.1422 17.9943 80.0962 18.0913 80.0522 18.2843C80.0082 18.4772 79.9529 18.7064 79.8864 18.9719C79.8439 19.2368 79.7656 19.5145 79.6516 19.8049C79.5112 19.9759 79.3499 20.3033 79.1679 20.7872C79.0099 21.2705 78.8409 21.8022 78.6609 22.382C78.4809 22.9619 78.3359 23.493 78.2259 23.9754C78.1159 24.4578 78.0629 24.795 78.0668 24.9869C77.7419 25.5218 77.5139 26.1026 77.3829 26.7295C77.2758 27.3558 77.1321 27.947 76.9516 28.5028C76.9296 28.5993 76.8406 28.9372 76.6846 29.5166C76.552 30.0714 76.386 30.747 76.1865 31.5434C75.987 32.3397 75.7875 33.136 75.588 33.9323C75.3879 34.7046 75.2217 35.3682 75.0892 35.9231C74.9567 36.4779 74.8911 36.7914 74.8926 36.8633C74.8786 37.3437 74.8288 37.8369 74.7433 38.3428C74.6818 38.8482 74.644 39.341 74.63 39.8214C74.656 39.9169 74.6697 40.0007 74.6712 40.0726C74.6722 40.1206 74.6252 40.1696 74.5302 40.2196C74.3417 40.3915 74.0196 40.4822 73.5637 40.4917C73.1073 40.4772 72.8176 40.3992 72.6946 40.2577C72.5946 40.0677 72.5072 39.9015 72.4322 39.759C72.3567 39.5926 72.329 39.4131 72.349 39.2206C72.3831 38.5478 72.4531 37.8742 72.5591 37.1999C72.6651 36.5255 72.7597 35.8754 72.8427 35.2495C72.9497 34.6232 73.082 34.0563 73.2395 33.5489C73.397 33.0416 73.5112 32.7631 73.5822 32.7137L74.213 30.144C74.462 29.4187 74.6183 28.8513 74.6818 28.4419C74.7448 28.0085 74.8081 27.5871 74.8716 27.1777C74.9591 26.7678 75.1161 26.2364 75.3426 25.5836C75.5701 24.9787 75.7496 24.3749 75.8812 23.772C76.0362 23.1447 76.1914 22.5293 76.3469 21.9259C76.503 21.3466 76.6605 20.8392 76.8195 20.4038C76.978 19.9444 77.1017 19.5458 77.1907 19.2079C77.3037 18.8694 77.3457 18.5805 77.3168 18.341C76.7899 18.4 76.2992 18.4702 75.8448 18.5516C75.4144 18.6326 74.96 18.714 74.4816 18.796C74.0267 18.8534 73.4643 18.9371 72.7944 19.0471C72.3875 19.1035 71.8494 19.1987 71.18 19.3326C70.5101 19.4425 69.8883 19.5515 69.3144 19.6594C68.764 19.7429 68.4168 19.7861 68.2729 19.7891C68.1054 19.8165 67.9624 19.8675 67.8439 19.942C67.7255 20.0165 67.6675 20.1137 67.67 20.2337C67.325 20.961 66.9922 21.7 66.6718 22.4509C66.3508 23.1777 66.0653 23.8798 65.8153 24.5571C65.5888 25.2099 65.4208 25.7895 65.3113 26.2959C65.2653 26.3929 65.1743 26.6348 65.0383 27.0217C64.9023 27.4086 64.7435 27.856 64.562 28.3639C64.3805 28.8718 64.2105 29.3554 64.052 29.8148C63.8935 30.2742 63.769 30.6369 63.6785 30.9028C63.6115 31.1442 63.5888 31.2047 63.6103 31.0843C63.2743 32.2435 62.9932 33.1615 62.7672 33.8383C62.5647 34.4907 62.3955 35.0103 62.2595 35.3972C62.1235 35.7841 62.0105 36.1225 61.9205 36.4125C61.8305 36.7024 61.7417 37.0523 61.6542 37.4622C61.5182 37.8491 61.4065 38.2475 61.3189 38.6574C61.2314 39.0673 61.1439 39.4772 61.0564 39.8872C61.0349 40.0076 61.0017 40.1403 60.9567 40.2853C60.9356 40.4298 60.8939 40.7307 60.8314 41.1881C60.7394 41.3821 60.6224 41.5285 60.4804 41.6275C60.3629 41.7499 60.172 41.8019 59.9075 41.7834ZM82.1409 39.9536C81.829 39.9601 81.5758 39.9053 81.3813 39.7893C81.2109 39.6728 80.9914 39.5093 80.723 39.2989C80.2571 38.8284 79.9237 38.3793 79.7228 37.9513C79.5214 37.4994 79.4524 37.0688 79.516 36.6594C79.584 36.4659 79.6042 36.2854 79.5767 36.118C79.5728 35.926 79.5708 35.83 79.5708 35.83C79.4483 35.7126 79.4108 35.6413 79.4583 35.6163C79.5053 35.5673 79.5518 35.4944 79.5978 35.3974C79.7418 35.3944 79.787 35.2614 79.7335 34.9985C79.6816 34.8075 79.7688 34.3856 79.9953 33.7328C80.2218 33.0799 80.5091 32.4618 80.857 31.8785C80.996 31.6356 81.2055 31.3191 81.4855 30.9292C81.7649 30.5154 82.0687 30.113 82.3966 29.7221C82.7481 29.3067 83.0653 28.976 83.3482 28.7301C83.9376 28.2138 84.4578 27.8309 84.9087 27.5815C85.3596 27.3321 85.8478 27.1419 86.3732 27.011C86.8986 26.88 87.2573 26.8126 87.4492 26.8086C87.6652 26.8041 87.9571 26.9901 88.325 27.3665C88.8819 27.595 89.2838 27.8747 89.5307 28.2057C89.8016 28.5361 89.9798 29.0245 90.0652 29.6709C90.1521 30.3893 90.1093 31.2183 89.9368 32.1581C89.7878 33.0734 89.2475 34.2249 88.3161 35.6125C87.7342 36.4888 87.1958 37.1481 86.7008 37.5904C86.2054 38.0088 85.614 38.4292 84.9266 38.8515C84.4297 39.1979 83.979 39.4593 83.5746 39.6358C83.1697 39.7882 82.6918 39.8941 82.1409 39.9536ZM85.517 36.0667C86.0794 35.4069 86.5226 34.7855 86.8466 34.2027C87.1945 33.6193 87.5153 32.8805 87.8088 31.9862C87.8993 31.7203 87.9525 31.3951 87.9686 31.0107C87.9841 30.6023 87.9644 30.2306 87.9094 29.8957C87.8779 29.5363 87.7897 29.3341 87.6448 29.2891C87.3533 29.1271 87.0044 29.0863 86.598 29.1668C86.1911 29.2232 85.7519 29.4604 85.2805 29.8783C84.5496 30.5176 83.9179 31.3108 83.3855 32.2581C82.8525 33.1814 82.3343 34.2363 81.8308 35.423C81.4888 36.2943 81.4193 36.9919 81.6222 37.5158C81.8486 38.0152 82.2962 38.186 82.9651 38.0281C83.6575 37.8457 84.5081 37.1919 85.517 36.0667ZM97.6783 48.2369C97.5823 48.2389 97.4624 48.2414 97.3184 48.2444C97.1749 48.2714 97.0409 48.1781 96.9165 47.9647C96.818 47.8467 96.7543 47.668 96.7253 47.4285C96.7203 47.1886 96.7714 46.7554 96.8784 46.1291C96.9899 45.7187 97.0774 45.3088 97.1409 44.8993C97.2049 44.5139 97.235 44.2253 97.231 44.0333C97.229 43.9373 97.249 43.7449 97.291 43.4559C97.3575 43.1905 97.3895 42.9978 97.387 42.8778C97.503 42.6834 97.5935 42.4174 97.6585 42.08C97.7235 41.7426 97.7533 41.4419 97.7478 41.178C97.7418 40.89 97.8803 40.6231 98.1633 40.3772C98.1593 40.1852 98.1903 39.9445 98.2563 39.6551C98.3463 39.3651 98.3903 39.1722 98.3883 39.0762C98.4534 38.7388 98.5971 38.1477 98.8196 37.3029C99.0656 36.4336 99.3574 35.4553 99.6949 34.3681C100.056 33.2803 100.406 32.2168 100.745 31.1776C101.083 30.1383 101.389 29.2558 101.662 28.53C101.936 27.8522 102.116 27.2723 102.202 26.7904C102.312 26.284 102.364 25.9109 102.359 25.6709C102.357 25.5749 102.379 25.5025 102.426 25.4535C102.473 25.3805 102.578 25.2463 102.742 25.0508C102.977 24.8059 103.18 24.7297 103.35 24.8222C103.544 24.9142 103.774 25.0534 104.042 25.2399C104.241 25.5478 104.378 25.809 104.455 26.0235C104.555 26.2375 104.563 26.6094 104.478 27.1393C104.485 27.4992 104.432 27.8124 104.317 28.0788C104.203 28.3452 104.099 28.5514 104.006 28.6974C103.913 28.8193 103.89 28.8678 103.937 28.8428C104.911 28.3665 105.77 28.1086 106.514 28.0692C107.28 28.0053 107.919 28.124 108.429 28.4255C108.963 28.7025 109.368 29.1022 109.643 29.6246C109.918 30.147 110.062 30.7561 110.077 31.452C110.083 31.7399 110.03 32.0891 109.918 32.4995C109.806 32.8859 109.658 33.2491 109.473 33.589C109.311 33.9044 109.16 34.1356 109.019 34.2825C108.923 34.2845 108.829 34.3705 108.736 34.5405C108.643 34.6864 108.551 34.8564 108.459 35.0503C108.272 35.2943 107.966 35.5767 107.54 35.8976C107.138 36.194 106.735 36.4424 106.332 36.6428C105.927 36.8193 105.628 36.8735 105.435 36.8055C105.435 36.8055 105.399 36.8182 105.328 36.8437C105.28 36.8447 105.257 36.9052 105.259 37.0252C105.26 37.0732 105.071 37.1851 104.69 37.3611C104.309 37.513 103.868 37.6662 103.367 37.8206C102.866 37.951 102.423 38.0202 102.039 38.0282C101.535 38.0387 101.174 37.9502 100.954 37.7627C100.907 37.8117 100.848 37.8849 100.778 37.9824C100.732 38.0793 100.71 38.1638 100.711 38.2358C100.714 38.3798 100.66 38.657 100.549 39.0674C100.461 39.4533 100.348 39.8277 100.212 40.1906C100.075 40.5535 99.9471 40.7362 99.8272 40.7387C99.8272 40.7387 99.8039 40.7752 99.7574 40.8482C99.7109 40.9212 99.7369 41.0166 99.8354 41.1346C99.8354 41.1346 99.8261 41.2668 99.8076 41.5313C99.8136 41.8192 99.7586 42.0604 99.6426 42.2549C99.6466 42.4468 99.6165 42.7355 99.5525 43.1209C99.4885 43.5063 99.4105 43.796 99.3185 43.99C99.3245 44.2779 99.2822 44.5548 99.1917 44.8208C99.1257 45.1102 99.0447 45.2559 98.9488 45.2579C98.8533 45.2839 98.7963 45.4291 98.7778 45.6936C98.7597 45.982 98.752 46.1862 98.7545 46.3062C98.7429 46.9065 98.6327 47.3769 98.4237 47.7173C98.2147 48.0577 97.9662 48.2309 97.6783 48.2369ZM101.784 36.1251C101.976 36.1211 102.37 36.0289 102.966 35.8485C103.563 35.6681 104.17 35.4514 104.789 35.1985C105.432 34.9211 105.906 34.6472 106.212 34.3768C106.825 33.812 107.292 33.1782 107.613 32.4753C107.958 31.748 107.92 31.0647 107.499 30.4253C107.3 30.0933 106.949 29.9686 106.447 30.051C105.944 30.1095 105.396 30.3129 104.803 30.6613C104.21 31.0096 103.655 31.4413 103.138 31.9561C102.856 32.274 102.6 32.6634 102.37 33.1243C102.139 33.5852 101.945 34.0453 101.786 34.5047C101.652 34.9636 101.576 35.3493 101.558 35.6617C101.541 35.9741 101.616 36.1286 101.784 36.1251ZM114.895 39.9218C113.839 39.9437 112.967 39.5657 112.279 38.7879C111.59 37.986 111.245 36.9849 111.244 35.7847C111.274 34.9199 111.423 33.9926 111.691 33.0028C111.982 31.9886 112.37 31.0203 112.855 30.098C113.339 29.1518 113.874 28.3245 114.459 27.6162C115.045 26.9079 115.659 26.4031 116.3 26.1017C116.538 25.9767 116.788 25.8755 117.05 25.798C117.337 25.7201 117.624 25.6781 117.912 25.6721C118.176 25.6667 118.453 25.7089 118.743 25.7989C119.032 25.8649 119.274 25.9439 119.468 26.0359C119.879 26.1954 120.195 26.3929 120.416 26.6284C120.637 26.8638 120.837 27.2318 121.015 27.7322C121.097 28.1866 121.139 28.5098 121.143 28.7017C121.147 28.8937 121.093 29.1829 120.981 29.5693C120.711 30.4391 120.355 31.1906 119.912 31.824C119.469 32.4573 118.868 32.9979 118.109 33.4457C117.92 33.5697 117.694 33.6704 117.431 33.7478C117.192 33.8008 116.941 33.83 116.677 33.8355C116.197 33.8455 115.727 33.7712 115.268 33.6127C114.832 33.4297 114.479 33.161 114.207 32.8066L113.949 32.5239L113.847 32.814C113.621 33.4669 113.441 34.0707 113.309 34.6256C113.2 35.18 113.151 35.6851 113.16 36.141C113.166 36.4289 113.196 36.7044 113.249 36.9673C113.327 37.2298 113.427 37.4557 113.551 37.6452C113.65 37.7872 113.809 37.8919 114.026 37.9594C114.267 38.0024 114.519 38.0212 114.783 38.0157C114.951 38.0122 115.119 38.0087 115.287 38.0053C115.479 37.9773 115.658 37.9256 115.824 37.8501C116.229 37.6977 116.55 37.535 116.786 37.362C117.047 37.1886 117.307 37.0031 117.567 36.8057L117.709 36.7307L117.673 36.7315C117.958 36.5815 118.207 36.4323 118.42 36.2839C118.657 36.1349 118.776 36.0604 118.776 36.0604C118.872 36.0585 118.966 35.9965 119.06 35.8745C119.25 35.7745 119.49 35.8056 119.782 35.9675C120.097 36.129 120.258 36.3417 120.263 36.6057C120.242 36.7262 120.138 36.9204 119.951 37.1883C119.764 37.4322 119.553 37.6647 119.318 37.8856C119.106 38.106 118.929 38.2297 118.785 38.2567C118.762 38.2812 118.679 38.3309 118.536 38.4059C118.393 38.4569 118.298 38.5069 118.251 38.5559L118.287 38.5551C118.077 38.8475 117.864 38.996 117.648 39.0005L117.36 39.0065C117.268 39.1764 116.96 39.3748 116.437 39.6018C115.913 39.8047 115.399 39.9114 114.895 39.9218ZM116.35 31.9699C116.782 31.9609 117.152 31.8332 117.458 31.5868C117.789 31.3159 118.071 31.022 118.304 30.7051C118.771 30.0473 119.034 29.4177 119.093 28.8163C119.176 28.1904 119.095 27.76 118.85 27.5251C118.705 27.4561 118.572 27.4228 118.452 27.4253C118.356 27.4033 118.153 27.4435 117.843 27.546C117.628 27.5984 117.332 27.7846 116.954 28.1045C116.577 28.4244 116.2 28.7803 115.824 29.1722C115.472 29.5636 115.203 29.8933 115.016 30.1612L114.564 30.9267C114.755 30.8508 114.934 30.811 115.102 30.8076C115.293 30.7796 115.401 30.7893 115.426 30.8368C115.431 31.0528 115.471 31.256 115.547 31.4465C115.647 31.6124 115.757 31.7422 115.879 31.8356C116.025 31.9286 116.182 31.9734 116.35 31.9699ZM122.49 39.4761C122.297 39.4081 122.09 39.2684 121.869 39.0569C121.649 38.8214 121.463 38.5492 121.312 38.2403C121.162 37.9313 121.084 37.6449 121.079 37.3809C121.193 37.1145 121.34 36.6554 121.518 36.0035C121.696 35.3277 121.92 34.5549 122.19 33.6851C122.377 33.4171 122.514 33.1022 122.603 32.7403C122.715 32.3779 122.816 32.0517 122.906 31.7618C123.09 31.3739 123.308 30.8773 123.56 30.2719C123.811 29.6426 124.05 29.0135 124.277 28.3846C124.527 27.7313 124.744 27.1867 124.927 26.7508C125.178 26.1214 125.326 25.7343 125.371 25.5893C125.415 25.4204 125.449 25.2876 125.471 25.1912C125.467 24.9992 125.511 24.8422 125.605 24.7203C125.698 24.5743 125.792 24.5003 125.888 24.4983C125.982 24.4004 126.089 24.3501 126.209 24.3477C126.353 24.3207 126.472 24.3062 126.568 24.3042C126.832 24.2987 127.064 24.4739 127.263 24.8299C127.462 25.1618 127.565 25.4718 127.571 25.7597C127.577 26.0476 127.477 26.4578 127.272 26.9902C127.091 27.498 126.874 28.0307 126.621 28.588C126.393 29.1449 126.199 29.629 126.039 30.0404C125.88 30.4518 125.837 30.6927 125.91 30.7632C125.91 30.7632 126.077 30.6878 126.41 30.5368C126.742 30.3619 127.097 30.1265 127.475 29.8306C127.736 29.6811 128.02 29.4952 128.328 29.2727C128.635 29.0503 128.931 28.8401 129.215 28.6422C129.498 28.4203 129.736 28.2833 129.927 28.2313C130.211 28.0334 130.507 27.8472 130.815 27.6728C131.123 27.4743 131.324 27.3261 131.418 27.2282C131.822 27.0277 132.121 26.9615 132.314 27.0295C132.532 27.097 132.751 27.2725 132.973 27.556C133.244 27.8624 133.297 28.1374 133.134 28.3808C132.971 28.6002 132.581 28.9084 131.965 29.3053C131.468 29.6277 130.864 30.0123 130.153 30.4591C129.466 30.9055 128.85 31.3023 128.305 31.6497C127.784 31.9966 127.489 32.2068 127.418 32.2803C127.418 32.2803 127.518 32.4582 127.717 32.8142C127.917 33.1701 128.115 33.4901 128.313 33.774C128.513 34.1539 128.725 34.5096 128.948 34.8411C129.194 35.148 129.318 35.3615 129.321 35.4815C129.523 35.9814 129.772 36.3963 130.067 36.7263C130.361 37.0322 130.689 37.2294 131.051 37.318C131.437 37.382 131.82 37.326 132.2 37.1501C132.676 36.9482 133.023 36.8809 133.24 36.9484C133.482 37.0154 133.653 37.1919 133.755 37.4779C133.855 37.6678 133.882 37.8113 133.836 37.9083C133.814 37.9808 133.662 38.164 133.38 38.4579C132.933 38.9232 132.471 39.2209 131.994 39.3508C131.54 39.4803 131.12 39.453 130.732 39.269C130.492 39.274 130.214 39.1837 129.898 38.9983C129.582 38.7888 129.19 38.4488 128.725 37.9784C128.283 37.5075 127.729 36.8468 127.063 35.9964C127.061 35.9005 127.01 35.7695 126.911 35.6035C126.835 35.413 126.747 35.2348 126.648 35.0689C126.548 34.8789 126.424 34.6774 126.275 34.4645C126.126 34.2275 126.052 34.109 126.052 34.109C126.05 34.037 126.025 33.9775 125.976 33.9306C125.951 33.8591 125.901 33.7761 125.827 33.6816C125.777 33.5866 125.715 33.4799 125.64 33.3614C125.254 33.2494 124.979 33.3271 124.817 33.5945C124.654 33.862 124.48 34.1416 124.294 34.4336C124.181 34.748 124.034 35.1951 123.854 35.775C123.697 36.3304 123.565 36.8732 123.456 37.4036C123.371 37.9335 123.354 38.2939 123.406 38.4849C123.414 38.8688 123.359 39.134 123.242 39.2804C123.125 39.4029 122.874 39.4681 122.49 39.4761ZM133.853 38.304C133.664 38.452 133.389 38.4937 133.027 38.4292C132.666 38.3647 132.376 38.2987 132.159 38.2312C132.109 38.1362 132.059 38.0292 132.008 37.9102C131.958 37.7912 131.92 37.684 131.894 37.5885C131.867 37.4691 131.841 37.3496 131.814 37.2301C131.812 37.1101 131.785 37.0026 131.735 36.9077C131.806 36.8342 131.864 36.761 131.911 36.688C131.981 36.6145 132.052 36.553 132.123 36.5035C132.243 36.501 132.375 36.4983 132.519 36.4953C132.663 36.4923 132.795 36.4896 132.915 36.4871C133.034 36.4366 133.128 36.3626 133.198 36.2652C133.292 36.1432 133.411 36.0807 133.555 36.0777C134.076 35.7308 134.58 35.1923 135.069 34.4619C135.582 33.7311 136.07 32.9169 136.531 32.0191C137.016 31.1208 137.442 30.2478 137.809 29.4C138.199 28.5277 138.52 27.8009 138.772 27.2195C138.771 27.1716 138.77 27.1356 138.77 27.1116C138.769 27.0876 138.757 27.0638 138.732 27.0403C138.565 27.0918 138.386 27.1435 138.195 27.1955C138.004 27.2235 137.813 27.2755 137.622 27.3514C137.599 27.3759 137.563 27.4007 137.516 27.4257C137.468 27.4506 137.433 27.4754 137.409 27.4999C137.15 27.7213 136.803 27.7885 136.369 27.7015C135.959 27.614 135.667 27.416 135.493 27.1076C135.443 27.0126 135.393 26.9296 135.344 26.8586C135.294 26.7876 135.232 26.7049 135.158 26.6104C135.25 26.3925 135.39 26.1855 135.578 25.9896C135.789 25.7691 136.014 25.6324 136.253 25.5795C136.898 25.422 137.532 25.3009 138.154 25.2159C138.8 25.1065 139.447 25.0691 140.096 25.1036C140.745 25.1381 141.384 25.2689 142.013 25.4959C142.133 25.5174 142.242 25.5392 142.338 25.5612C142.435 25.5832 142.532 25.6292 142.629 25.6992C142.775 25.7922 142.921 25.8971 143.068 26.0141C143.214 26.1311 143.349 26.2484 143.471 26.3658C143.642 26.5063 143.777 26.6595 143.877 26.8255C143.976 26.9915 144.04 27.1822 144.069 27.3977C144.122 27.6366 144.151 27.8881 144.156 28.152C144.186 28.4154 144.179 28.6796 144.137 28.9446C144.029 29.5469 143.852 30.2708 143.606 31.1161C143.383 31.9369 143.182 32.6492 143.002 33.2531C142.734 34.1948 142.499 35.0399 142.298 35.7882C142.097 36.5125 141.908 37.2246 141.731 37.9244C141.421 38.0269 141.121 38.0211 140.83 37.9071C140.54 37.7931 140.284 37.6184 140.063 37.3829C139.96 37.049 139.906 36.7381 139.9 36.4501C139.893 36.1382 139.971 35.8245 140.132 35.5091C140.293 35.1697 140.404 34.7353 140.465 34.2059C140.526 33.6765 140.674 33.2534 140.907 32.9365C140.953 32.8395 140.975 32.755 140.974 32.683C140.971 32.5391 141.013 32.2621 141.101 31.8522C141.212 31.4418 141.335 30.9832 141.468 30.4763C141.601 29.9454 141.723 29.4508 141.833 28.9924C141.968 28.5335 142.057 28.1836 142.1 27.9426C142.145 27.7977 142.142 27.6657 142.091 27.5467C142.065 27.4272 142.05 27.2955 142.047 27.1516C141.853 27.0596 141.576 26.9933 141.215 26.9528C140.878 26.9118 140.653 27.0365 140.539 27.3269C140.516 27.3754 140.493 27.4359 140.47 27.5084C140.471 27.5564 140.46 27.6046 140.437 27.6531C140.258 28.2569 140.006 28.8383 139.681 29.3971C139.381 29.9555 139.109 30.7173 138.865 31.6826C138.798 31.948 138.695 32.2022 138.556 32.4451C138.441 32.6636 138.338 32.9058 138.247 33.1717C138.248 33.1957 138.236 33.22 138.213 33.2444C138.213 33.2684 138.202 33.2927 138.178 33.3172C138.179 33.3412 138.167 33.3654 138.144 33.3899C137.98 33.6094 137.829 33.8405 137.69 34.0835C137.575 34.3019 137.447 34.5326 137.308 34.7755C136.914 35.4559 136.388 36.0909 135.728 36.6808C135.092 37.2701 134.467 37.8112 133.853 38.304ZM146.854 37.9621C146.567 38.0161 146.254 37.9746 145.915 37.8376C145.576 37.7006 145.272 37.5029 145.003 37.2444C144.757 36.9854 144.596 36.7127 144.518 36.4263C144.411 35.9244 144.458 35.2993 144.659 34.551C144.883 33.7781 145.202 32.9673 145.617 32.1186C146.055 31.2453 146.541 30.407 147.077 29.6037C147.636 28.7999 148.21 28.1039 148.798 27.5155C149.409 26.9027 149.977 26.4829 150.5 26.2559C150.76 26.0825 150.962 25.9703 151.105 25.9193C151.272 25.8438 151.439 25.8284 151.608 25.8729C151.801 25.9169 152.08 26.0311 152.444 26.2156C152.782 26.3046 153.036 26.4073 153.206 26.5238C153.377 26.6403 153.598 26.8758 153.869 27.2302C154.068 27.5862 154.22 27.9431 154.323 28.301C154.427 28.659 154.519 29.0651 154.601 29.5195C154.805 30.1154 154.885 30.5098 154.841 30.7028C154.797 30.8718 154.727 31.0052 154.633 31.1032C154.447 31.3471 154.401 31.4681 154.497 31.4661C154.497 31.4661 154.486 31.5143 154.464 31.6108C154.465 31.6828 154.42 31.8038 154.327 31.9737C154.17 32.5051 154.05 33.0597 153.966 33.6376C153.905 34.191 153.927 34.6466 154.03 35.0046C154.233 35.5285 154.588 35.8332 155.094 35.9187C155.599 36.0042 156.111 35.7775 156.628 35.2387C156.888 35.0413 157.136 34.8681 157.373 34.7191C157.61 34.5462 157.73 34.5557 157.734 34.7476C157.734 34.7476 157.771 34.7829 157.844 34.8534C157.917 34.8999 158.001 34.9221 158.097 34.9201C158.217 34.9176 158.29 34.9641 158.316 35.0596C158.366 35.1546 158.369 35.2866 158.325 35.4555C158.304 35.6 158.235 35.7695 158.119 35.9639C157.767 36.3313 157.592 36.575 157.594 36.695C157.594 36.695 157.547 36.7439 157.453 36.8419C157.383 36.9154 157.253 37.0381 157.065 37.2101C156.638 37.483 156.089 37.6264 155.417 37.6403C154.769 37.6538 154.263 37.5323 153.897 37.2758C153.532 37.0193 153.189 36.6664 152.867 36.217C152.57 35.767 152.37 35.3751 152.267 35.0412L152.079 34.685L151.05 35.3905C150.791 35.6599 150.509 35.9178 150.202 36.1643C149.919 36.4102 149.73 36.5821 149.636 36.6801C149.566 36.7776 149.484 36.8633 149.389 36.9373C149.319 37.0108 149.236 37.0485 149.14 37.0505C149.044 37.0525 148.96 37.0542 148.888 37.0557C148.816 37.0572 148.78 37.058 148.78 37.058C148.782 37.1539 148.664 37.2764 148.427 37.4254C148.214 37.5738 147.953 37.6993 147.643 37.8017C147.357 37.9037 147.094 37.9571 146.854 37.9621ZM146.454 36.026C146.598 36.023 146.848 35.9098 147.203 35.6864C147.582 35.4385 147.996 35.1538 148.446 34.8324C148.919 34.5105 149.332 34.1899 149.686 33.8705C150.063 33.5506 150.322 33.3051 150.463 33.1342C150.557 33.0362 150.709 32.877 150.921 32.6566C151.132 32.4122 151.32 32.2042 151.484 32.0328C152.023 31.3974 152.393 30.7056 152.593 29.9573C152.793 29.185 152.757 28.5856 152.484 28.1592C152.382 27.8972 152.26 27.7557 152.115 27.7347C151.971 27.7137 151.672 27.8039 151.22 28.0054C150.936 28.1793 150.583 28.5107 150.161 28.9996C149.762 29.4639 149.33 30.013 148.863 30.6469C148.419 31.2562 148 31.889 147.606 32.5454C147.211 33.2017 146.888 33.8085 146.635 34.3659C146.383 34.9232 146.26 35.3579 146.266 35.6698C146.268 35.7658 146.294 35.8493 146.344 35.9203C146.417 35.9908 146.454 36.026 146.454 36.026ZM172.653 38.5068C172.41 38.3918 172.228 38.2756 172.105 38.1581C171.982 38.0166 171.775 37.8649 171.484 37.7029C171.381 37.369 171.266 37.0353 171.139 36.7019C171.035 36.3439 170.992 35.9968 171.009 35.6603C171.029 35.4679 170.989 35.2647 170.889 35.0507C170.812 34.8122 170.819 34.608 170.912 34.4381C170.856 34.0552 170.858 33.563 170.917 32.9617C170.976 32.3363 171.06 31.7464 171.169 31.1921C171.277 30.6137 171.352 30.204 171.395 29.9631C171.321 29.8686 171.248 29.8101 171.175 29.7876C171.127 29.7646 171.056 29.8021 170.962 29.9001C170.727 30.145 170.504 30.3897 170.293 30.6341C170.082 30.8785 169.859 31.1352 169.625 31.4041C169.531 31.5021 169.425 31.6003 169.307 31.6988C169.188 31.7733 169.131 31.8945 169.134 32.0625L167.874 33.817C167.782 34.0109 167.608 34.2666 167.35 34.584C167.116 34.877 166.931 35.2289 166.796 35.6398C166.751 35.8087 166.67 35.9544 166.553 36.0769C166.435 36.1754 166.317 36.2738 166.199 36.3723C165.885 36.2588 165.679 36.1791 165.582 36.1331C165.485 36.0871 165.302 35.9468 165.033 35.7124C164.788 35.4774 164.616 35.2649 164.516 35.075C164.415 34.861 164.387 34.6455 164.43 34.4286C164.423 34.0687 164.412 33.5648 164.399 32.9169C164.409 32.2446 164.396 31.6087 164.359 31.0093C164.346 30.3855 164.289 29.9546 164.188 29.7166C163.925 29.7461 163.746 29.7858 163.651 29.8358C163.556 29.8858 163.439 30.0322 163.3 30.2752C163.323 30.2507 163.219 30.4209 162.986 30.7858C162.777 31.1262 162.487 31.5763 162.114 32.1362C161.765 32.6715 161.416 33.2189 161.068 33.7782C160.719 34.3136 160.429 34.7757 160.197 35.1646C159.988 35.529 159.896 35.699 159.919 35.6745C159.755 35.8699 159.615 36.0769 159.5 36.2953C159.408 36.5133 159.317 36.7432 159.226 36.9852C159.112 37.2756 158.984 37.4703 158.842 37.5692C158.7 37.6442 158.567 37.623 158.445 37.5055C158.25 37.3895 158.044 37.2737 157.825 37.1583C157.631 37.0423 157.461 36.9378 157.315 36.8448C157.215 36.6788 157.128 36.5126 157.052 36.3461C157 36.1552 156.96 35.94 156.931 35.7005C157.12 35.5765 157.251 35.5018 157.322 35.4763C157.393 35.4269 157.452 35.3416 157.497 35.2207C158.009 34.4179 158.451 33.7365 158.823 33.1767C159.195 32.5929 159.509 32.1182 159.766 31.7528C160.022 31.3874 160.22 31.1073 160.36 30.9123C160.5 30.6934 160.581 30.5477 160.603 30.4752C160.718 30.2327 160.858 30.0018 161.021 29.7823C161.209 29.5624 161.384 29.3307 161.547 29.0873C161.569 29.0148 161.686 28.8444 161.896 28.5759C162.106 28.2835 162.328 27.9908 162.562 27.6979C162.796 27.405 162.961 27.2335 163.056 27.1836C163.174 27.1091 163.256 27.0114 163.302 26.8904C163.371 26.7449 163.44 26.5995 163.509 26.454C163.552 26.2371 163.657 26.0789 163.823 25.9794C163.989 25.8799 164.24 25.8507 164.577 25.8917C164.773 26.0557 164.992 26.2312 165.236 26.4181C165.48 26.5811 165.735 26.7559 166.003 26.9423C165.984 27.1828 165.977 27.435 165.983 27.6989C166.012 27.9624 166.117 28.3683 166.296 28.9167C166.23 29.2061 166.248 29.5058 166.351 29.8157C166.453 30.1257 166.459 30.4136 166.369 30.6796C166.375 30.9915 166.452 31.2179 166.599 31.3589C166.769 31.4754 167.019 31.3502 167.347 30.9833C167.721 30.4954 168.167 29.9701 168.683 29.4073C169.199 28.8204 169.704 28.2698 170.197 27.7555C170.714 27.2166 171.149 26.7635 171.501 26.3961C171.877 26.0042 172.1 25.7596 172.17 25.6621C172.215 25.5411 172.298 25.4794 172.418 25.4769C172.562 25.4499 172.694 25.4712 172.816 25.5407C173.228 25.7481 173.507 25.8984 173.653 25.9914C173.799 26.0844 174.007 26.2601 174.276 26.5186C174.523 26.8495 174.565 27.1487 174.403 27.4161C174.312 27.6581 174.188 28.0567 174.032 28.6121C173.899 29.143 173.755 29.7341 173.6 30.3854C173.47 31.0363 173.351 31.6509 173.242 32.2292C173.158 32.7831 173.107 33.2163 173.089 33.5287C173.075 34.0091 173.062 34.5135 173.049 35.0419C173.035 35.5463 173.082 36.0734 173.19 36.6233C173.397 37.3631 173.455 37.842 173.364 38.06C173.296 38.2534 173.059 38.4024 172.653 38.5068ZM182.363 37.153C181.868 37.5954 181.286 37.8595 180.615 37.9455C179.969 38.0309 179.331 37.9481 178.702 37.6971C178.072 37.4221 177.547 37.0009 177.127 36.4335C176.708 35.9141 176.432 35.3197 176.298 34.6503C176.164 33.957 176.133 33.0574 176.206 31.9517C176.259 31.0144 176.539 30.0724 177.047 29.1256C177.555 28.1549 178.174 27.2898 178.902 26.5306C179.654 25.7708 180.4 25.2392 181.137 24.9358C181.492 24.6884 181.79 24.5742 182.031 24.5932C182.294 24.5877 182.691 24.6035 183.22 24.6405C183.773 24.7011 184.183 24.8006 184.45 24.9391C184.741 25.0771 184.973 25.2643 185.146 25.5007C185.513 25.8532 185.761 26.2081 185.888 26.5656C186.015 26.899 186.082 27.2337 186.089 27.5696C186.004 28.0995 185.658 28.7548 185.05 29.5356C184.465 30.2919 183.686 30.9202 182.712 31.4205C182.188 31.5995 181.614 31.6834 180.989 31.6723C180.365 31.6613 179.846 31.516 179.432 31.2366C178.972 31.0541 178.673 31.0963 178.534 31.3632C178.395 31.6062 178.276 32.2088 178.176 33.1711C178.099 34.0849 178.185 34.7552 178.433 35.1821C178.682 35.5851 179.011 35.8183 179.42 35.8818C179.902 35.9678 180.276 36.0321 180.54 36.0746C180.829 36.0926 181.175 35.9774 181.578 35.729C181.956 35.4811 182.194 35.3441 182.289 35.3182C182.384 35.2682 182.455 35.2187 182.502 35.1697C182.573 35.0962 182.725 34.937 182.96 34.6921C183.125 34.5206 183.254 34.3979 183.349 34.3239C183.443 34.226 183.55 34.1757 183.67 34.1733C183.79 34.1708 183.899 34.2285 183.997 34.3465C184.095 34.4405 184.193 34.5105 184.29 34.5565C184.53 34.5515 184.581 34.6945 184.443 34.9854C184.329 35.2758 184.084 35.629 183.709 36.0449C183.333 36.4367 182.884 36.8061 182.363 37.153ZM182.169 29.5234C182.43 29.3979 182.703 29.2243 182.986 29.0023C183.269 28.7564 183.504 28.4995 183.69 28.2315C183.9 27.9391 184.003 27.6969 183.999 27.505C183.992 27.169 183.831 26.8963 183.514 26.6869C183.197 26.4534 182.729 26.4271 182.108 26.608C181.846 26.6855 181.55 26.8717 181.22 27.1666C180.889 27.4375 180.572 27.7442 180.267 28.0866C179.986 28.4285 179.752 28.7334 179.565 29.0013C179.403 29.2687 179.346 29.426 179.395 29.473C179.47 29.5914 179.676 29.6832 180.013 29.7482C180.35 29.7892 180.722 29.7935 181.13 29.761C181.561 29.7281 181.907 29.6489 182.169 29.5234Z" fill="#F5A925"/>
<path d="M37.251 97.8263L37.1623 97.8254C36.2533 97.816 35.7066 98.83 36.214 99.5843V99.5843C36.562 100.102 37.2635 100.239 37.7807 99.8907L38.373 99.4922" stroke="#F5A925" stroke-width="3" stroke-linecap="round"/>
<path d="M49.89 29.104C50.5774 29.0399 51.0827 28.4307 51.0186 27.7434C50.9545 27.056 50.3454 26.5507 49.658 26.6148L49.89 29.104ZM25.3203 79.8367C25.9606 79.5785 26.2703 78.8502 26.0122 78.2099L21.8052 67.7761C21.547 67.1359 20.8187 66.8261 20.1784 67.0843C19.5382 67.3424 19.2284 68.0708 19.4866 68.711L23.2261 77.9855L13.9517 81.7251C13.3114 81.9832 13.0016 82.7115 13.2598 83.3518C13.518 83.9921 14.2463 84.3018 14.8865 84.0437L25.3203 79.8367ZM49.658 26.6148C38.1909 27.6838 28.1594 30.2879 20.2242 33.9059C12.3105 37.5142 6.37814 42.1799 3.26583 47.4395C0.107698 52.7766 -0.0962048 58.6612 3.35768 64.3534C6.75668 69.9552 13.6263 75.261 24.3637 79.8277L25.3421 77.5271C14.8243 73.0538 8.50465 68.0166 5.495 63.0566C2.54022 58.1869 2.70825 53.2909 5.41736 48.7126C8.17229 44.057 13.6025 39.6727 21.2614 36.1806C28.8988 32.6984 38.6498 30.1518 49.89 29.104L49.658 26.6148Z" fill="#F5A925"/>
</svg>
