<svg width="66" height="66" viewBox="0 0 66 66" fill="none" xmlns="http://www.w3.org/2000/svg">
<mask id="path-1-inside-1_542_1518" fill="white">
<path fill-rule="evenodd" clip-rule="evenodd" d="M32.6085 65.217C50.6176 65.217 65.217 50.6176 65.217 32.6085C65.217 14.5993 50.6176 0 32.6085 0C14.5993 0 0 14.5993 0 32.6085C0 50.6176 14.5993 65.217 32.6085 65.217Z"/>
</mask>
<path d="M24.6953 33.2644L23.9882 32.5573L23.2811 33.2644L23.9882 33.9715L24.6953 33.2644ZM35.334 21.2109L23.9882 32.5573L25.4024 33.9715L36.7483 22.6251L35.334 21.2109ZM23.9882 33.9715L35.3341 45.3174L36.7483 43.9032L25.4024 32.5573L23.9882 33.9715ZM63.217 32.6085C63.217 49.5131 49.5131 63.217 32.6085 63.217V67.217C51.7222 67.217 67.217 51.7222 67.217 32.6085H63.217ZM32.6085 2C49.5131 2 63.217 15.7039 63.217 32.6085H67.217C67.217 13.4947 51.7222 -2 32.6085 -2V2ZM2 32.6085C2 15.7039 15.7039 2 32.6085 2V-2C13.4947 -2 -2 13.4947 -2 32.6085H2ZM32.6085 63.217C15.7039 63.217 2 49.5131 2 32.6085H-2C-2 51.7222 13.4947 67.217 32.6085 67.217V63.217Z" fill="#F5A925" mask="url(#path-1-inside-1_542_1518)"/>
</svg>
