<svg width="198" height="66" viewBox="0 0 198 66" fill="none" xmlns="http://www.w3.org/2000/svg">
<mask id="path-1-inside-1_714_1182" fill="white">
<path fill-rule="evenodd" clip-rule="evenodd" d="M32.6085 65.217C50.6176 65.217 65.217 50.6176 65.217 32.6085C65.217 14.5993 50.6176 0 32.6085 0C14.5993 0 0 14.5993 0 32.6085C0 50.6176 14.5993 65.217 32.6085 65.217Z"/>
</mask>
<path d="M24.6953 33.4871L23.9882 32.78L23.2811 33.4871L23.9882 34.1942L24.6953 33.4871ZM35.334 21.4335L23.9882 32.78L25.4024 34.1942L36.7483 22.8477L35.334 21.4335ZM23.9882 34.1942L35.3341 45.54L36.7483 44.1258L25.4024 32.78L23.9882 34.1942ZM63.217 32.6085C63.217 49.5131 49.5131 63.217 32.6085 63.217V67.217C51.7222 67.217 67.217 51.7222 67.217 32.6085H63.217ZM32.6085 2C49.5131 2 63.217 15.7039 63.217 32.6085H67.217C67.217 13.4947 51.7222 -2 32.6085 -2V2ZM2 32.6085C2 15.7039 15.7039 2 32.6085 2V-2C13.4947 -2 -2 13.4947 -2 32.6085H2ZM32.6085 63.217C15.7039 63.217 2 49.5131 2 32.6085H-2C-2 51.7222 13.4947 67.217 32.6085 67.217V63.217Z" fill="#F5A925" mask="url(#path-1-inside-1_714_1182)"/>
<path d="M77.214 52.5221C77.214 52.5221 77.1781 52.5005 77.1062 52.4571C77.0353 52.437 76.9412 52.418 76.8238 52.4C76.7297 52.381 76.6128 52.3746 76.4732 52.381C76.0968 52.3049 75.8197 52.1077 75.642 51.7894C75.4654 51.4943 75.4151 51.1586 75.4913 50.7821C75.5801 50.6848 75.6409 50.4839 75.6736 50.1793C75.7064 49.8747 75.7186 49.6294 75.7101 49.4433C75.7947 49.2529 75.847 49.1223 75.8671 49.0514C75.8862 48.9573 75.9337 48.722 76.0098 48.3455C76.0616 47.9469 76.1531 47.3948 76.2842 46.6895C76.4375 45.9598 76.6003 45.183 76.7727 44.3592C76.9683 43.5343 77.1538 42.7449 77.3293 41.9909C77.5048 41.2369 77.6624 40.6002 77.8019 40.081C77.9648 39.5607 78.0795 39.264 78.1461 39.1911C78.1461 39.1911 78.1445 39.1562 78.1413 39.0864C78.1371 38.9933 78.1329 38.9002 78.1286 38.8072C78.1286 38.8072 78.1355 38.702 78.1493 38.4915C78.1852 38.2567 78.2899 37.9955 78.4633 37.7079C78.5447 37.4477 78.6134 37.1648 78.6695 36.8592C78.7255 36.5536 78.7514 36.3543 78.7472 36.2612C78.8349 36.1406 78.9502 35.8556 79.0929 35.4062C79.2579 34.9324 79.4117 34.4708 79.5545 34.0213C79.6771 33.6427 79.8104 33.2404 79.9542 32.8142C80.1212 32.3869 80.256 32.0194 80.3586 31.7117C80.4844 31.4029 80.5473 31.2485 80.5473 31.2485C80.5431 31.1554 80.541 31.1089 80.541 31.1089C80.5399 31.0856 80.5394 31.074 80.5394 31.074C80.6282 30.9767 80.8281 30.5013 81.1389 29.6479C81.472 28.7702 81.9219 27.6423 82.4887 26.2643C82.5733 26.074 82.6801 25.8593 82.8091 25.6203C82.9381 25.3813 83.0005 25.2153 82.9962 25.1222C83.1041 24.9308 83.2633 24.8419 83.4737 24.8557C83.6831 24.8461 83.8957 24.9064 84.1114 25.0365C84.3504 25.1655 84.5339 25.3553 84.6619 25.6059L85.0362 26.1484L83.8943 28.7182C83.5517 29.3866 83.2646 29.9941 83.033 30.5409C82.8247 31.0866 82.7227 31.406 82.7269 31.499C82.7269 31.499 82.6656 31.6883 82.5429 32.0669C82.4203 32.4455 82.2775 32.895 82.1147 33.4153C81.9519 33.9356 81.8102 34.4083 81.6896 34.8334C81.4665 35.5663 81.2492 36.1707 81.0378 36.6465C80.8495 37.1214 80.7576 37.4053 80.7618 37.4984C80.7597 37.4519 81.014 37.4053 81.5248 37.3588C82.0356 37.3122 82.6865 37.2709 83.4775 37.2349C84.2685 37.1989 85.0711 37.1624 85.8854 37.1254C86.7219 37.064 87.4542 37.019 88.0824 36.9904C88.7328 36.9375 89.1732 36.8825 89.4038 36.8254L91.2105 36.5683L92.2335 32.9199C92.39 32.26 92.5983 31.4578 92.8584 30.5135C93.1185 29.5691 93.35 28.7659 93.553 28.1039C93.8766 27.0167 94.1372 26.3404 94.335 26.075C94.5327 25.8095 94.7712 25.6705 95.0503 25.6578C95.1201 25.6546 95.2143 25.6736 95.3327 25.7149C95.4734 25.7318 95.604 25.7841 95.7245 25.8719C95.8673 25.9353 95.9651 26.0358 96.018 26.1733C96.3088 26.4165 96.45 26.7015 96.4416 27.0282C96.4564 27.354 96.2899 27.7928 95.942 28.3449C95.5983 28.99 95.3155 29.6906 95.0934 30.4467C94.8936 31.1785 94.7112 31.7813 94.5462 32.2551C94.5589 32.5343 94.5346 32.7685 94.4733 32.9578C94.4109 33.1238 94.3353 33.2555 94.2465 33.3528C94.2021 33.4015 94.1169 33.5802 93.9911 33.889C93.8653 34.1978 93.7511 34.5061 93.6485 34.8138C93.546 35.1215 93.4963 35.3103 93.4994 35.3801C93.5069 35.543 93.481 35.7423 93.4217 35.9781C93.3625 36.214 93.2885 36.3805 93.1997 36.4778C93.1595 36.6195 93.0707 36.9733 92.9333 37.539C92.7958 38.1048 92.6399 38.7763 92.4654 39.5536C92.2899 40.3076 92.1022 41.0506 91.9024 41.7824C91.7015 42.4909 91.5186 43.0821 91.3536 43.5558C91.361 43.7187 91.3124 43.9307 91.2077 44.1919C91.102 44.4299 91.0533 44.6419 91.0618 44.828C90.9814 45.1115 90.881 45.4657 90.7605 45.8909C90.6399 46.316 90.5823 46.5867 90.5876 46.703C90.4956 47.2434 90.3925 47.796 90.2784 48.3607C90.1874 48.9244 90.1044 49.4061 90.0294 49.8058C89.9786 50.2278 89.9549 50.4736 89.958 50.5434C89.8692 50.6407 89.7301 50.6587 89.5409 50.5974C89.3516 50.5361 89.1268 50.4647 88.8667 50.3833C88.413 50.1475 88.1327 49.8805 88.0259 49.5822C87.9434 49.3062 88.0179 48.8949 88.2495 48.3481C88.3574 48.1567 88.4763 47.6967 88.6064 46.968C88.7586 46.2151 88.9114 45.4738 89.0647 44.7441C89.1884 44.3887 89.3184 43.9166 89.4548 43.3275C89.5902 42.7152 89.7255 42.1029 89.8608 41.4906C89.9951 40.855 90.1109 40.3252 90.2082 39.9011C90.3044 39.4538 90.3747 39.2058 90.4191 39.1572C90.4149 39.0641 90.4112 38.9827 90.408 38.9129C90.4048 38.8431 90.4032 38.8082 90.4032 38.8082C90.3546 38.7638 90.0622 38.7421 89.526 38.7432C88.9888 38.721 88.3252 38.7395 87.5352 38.7988C86.7442 38.8348 85.9194 38.8956 85.0607 38.9813C84.2242 39.0427 83.4707 39.1353 82.8002 39.259C82.5443 39.2707 82.2535 39.2839 81.9278 39.2987C81.6021 39.3136 81.3462 39.3252 81.16 39.3337C80.9041 39.3453 80.6831 39.3554 80.497 39.3639C80.3341 39.3713 80.2527 39.375 80.2527 39.375C80.2326 39.4458 80.1623 39.6938 80.0418 40.1189C79.9212 40.5441 79.7816 41.0633 79.6231 41.6767C79.4634 42.2668 79.2932 42.8807 79.1124 43.5184C78.9538 44.1317 78.8163 44.6975 78.7 45.2157C78.6059 45.7096 78.5404 46.0622 78.5034 46.2737C78.4294 46.6968 78.3252 47.226 78.1909 47.8616C78.0799 48.4961 77.9462 49.1433 77.7897 49.8032C77.6576 50.4853 77.5328 51.0739 77.4154 51.5688C77.3213 52.0626 77.2542 52.3804 77.214 52.5221ZM94.8737 47.5571C94.7722 47.3752 94.6495 47.2409 94.5057 47.1542C94.3608 47.0442 94.2862 46.9427 94.282 46.8497C94.2777 46.7566 94.2619 46.6641 94.2344 46.5721C94.2291 46.4557 94.1778 46.3532 94.0805 46.2643C93.9578 46.13 93.9552 45.8154 94.0725 45.3205C94.1888 44.8023 94.3934 44.1752 94.6863 43.4392C94.9782 42.6799 95.3266 41.883 95.7316 41.0486C95.9092 40.854 96.0842 40.6013 96.2566 40.2903C96.4289 39.9794 96.5595 39.7753 96.6484 39.678C96.6441 39.585 96.6753 39.5019 96.7419 39.429C96.8075 39.3327 96.8868 39.2825 96.9799 39.2783L96.9703 39.0689C96.965 38.9526 97.0607 38.75 97.2574 38.4613C97.4774 38.1716 97.7428 37.8564 98.0537 37.5159C98.3635 37.1521 98.686 36.811 99.0213 36.4927C99.3554 36.1511 99.6356 35.9052 99.8619 35.755C100.336 35.4071 100.827 35.1866 101.336 35.0935C101.867 34.9993 102.326 35.095 102.712 35.3805C102.785 35.4471 102.907 35.5582 103.077 35.7136C103.248 35.8691 103.442 36.0467 103.661 36.2466C103.902 36.4221 104.144 36.6093 104.386 36.8081L105.73 37.901L105.181 39.6744C104.921 40.6188 104.876 41.4368 105.048 42.1284C105.242 42.819 105.503 43.4133 105.828 43.9113C105.956 44.162 106.2 44.3957 106.56 44.6124C106.942 44.8281 107.298 44.9519 107.626 44.9836C107.813 44.9984 107.99 45.0602 108.159 45.1691C108.327 45.2781 108.417 45.4605 108.428 45.7164C108.439 45.949 108.401 46.1373 108.314 46.2811C108.227 46.4249 108.069 46.5254 107.838 46.5825C107.075 46.7105 106.345 46.5572 105.649 46.1226C104.977 45.6869 104.337 44.9467 103.73 43.9019C103.63 43.7666 103.491 43.5165 103.311 43.1516C103.153 42.7625 103.06 42.5103 103.032 42.395C102.944 42.5156 102.779 42.7445 102.538 43.0819C102.296 43.396 102.108 43.626 101.975 43.7719C100.4 45.5222 99.0202 46.7157 97.8368 47.3523C96.6757 47.9647 95.688 48.033 94.8737 47.5571ZM96.0411 45.5457C96.0485 45.7085 96.2928 45.6974 96.774 45.5123C97.2773 45.3029 97.8092 44.9523 98.3697 44.4605C99.13 43.7499 99.8871 42.9694 100.641 42.1191C101.418 41.2678 102.035 40.482 102.492 39.7618L103.203 38.4706C102.946 37.946 102.673 37.5971 102.386 37.4237C102.12 37.2259 101.895 37.1313 101.708 37.1397C101.406 37.1535 100.965 37.4533 100.386 38.0392C99.8293 38.6241 99.235 39.3971 98.6027 40.3584C97.9703 41.3197 97.3771 42.3725 96.823 43.5168C96.6115 43.9927 96.4228 44.4559 96.2568 44.9064C96.113 45.3326 96.0411 45.5457 96.0411 45.5457ZM116.45 47.7643C116.376 47.6744 116.303 47.6078 116.231 47.5645C116.158 47.4979 116.073 47.4318 115.977 47.3662C115.903 47.2763 115.781 47.1653 115.612 47.0331C115.576 46.755 115.593 46.3695 115.664 45.8767C115.758 45.3828 115.864 44.8884 115.981 44.3935C116.099 43.8986 116.199 43.5327 116.281 43.2958C116.281 43.2958 116.33 43.0954 116.429 42.6946C116.55 42.2927 116.691 41.8084 116.852 41.2416C117.012 40.6515 117.172 40.073 117.333 39.5062C117.516 38.915 117.657 38.4307 117.756 38.0531C117.878 37.6513 117.939 37.4503 117.939 37.4503C117.981 37.3551 118 37.261 117.996 37.168C117.99 37.0516 117.984 36.912 117.977 36.7492C117.888 36.3336 117.908 36.0179 118.038 35.8022C118.192 35.5854 118.31 35.3585 118.392 35.1217C118.649 35.1333 118.824 35.1253 118.916 35.0978C119.031 35.0693 119.16 35.0867 119.303 35.1502C119.467 35.166 119.78 35.1285 120.242 35.0375C120.704 34.9465 121.165 34.8323 121.625 34.6948C122.108 34.5562 122.43 34.4484 122.589 34.3711C122.915 34.3563 123.229 34.3304 123.53 34.2934C123.855 34.2553 124.169 34.2526 124.474 34.2854C124.869 34.2674 125.225 34.3911 125.54 34.6565C125.855 34.922 126.074 35.1334 126.198 35.291C126.156 35.3862 126.102 35.4819 126.036 35.5781C125.993 35.65 125.95 35.722 125.906 35.7939C125.863 35.8658 125.808 35.9382 125.741 36.0112C125.602 36.0176 125.311 36.0308 124.869 36.0509C124.427 36.071 123.951 36.116 123.441 36.1858C122.955 36.2546 122.551 36.3545 122.231 36.4857C121.933 36.5925 121.61 36.6655 121.262 36.7046C120.936 36.7194 120.636 36.7914 120.362 36.9204C120.251 37.042 120.146 37.28 120.045 37.6342C119.945 37.9885 119.856 38.3539 119.78 38.7304C119.704 39.1068 119.635 39.3897 119.574 39.579C119.573 39.5558 119.511 39.7218 119.387 40.0771C119.287 40.4314 119.165 40.8333 119.022 41.2827C118.903 41.7311 118.803 42.097 118.722 42.3804C118.636 42.5242 118.532 42.7971 118.41 43.1989C118.288 43.6008 118.178 44.0021 118.08 44.4029C117.982 44.8037 117.914 45.0983 117.876 45.2865C117.802 45.7095 117.704 46.1336 117.584 46.5587C117.462 46.9606 117.306 47.364 117.114 47.7691C117.021 47.7733 116.916 47.7781 116.8 47.7833C116.683 47.7654 116.566 47.759 116.45 47.7643ZM124.354 46.8102C124.187 46.7245 124.01 46.6743 123.823 46.6595C123.659 46.6436 123.483 46.6283 123.296 46.6135C123.126 46.4581 122.979 46.3016 122.855 46.144C122.753 45.9621 122.674 45.7559 122.617 45.5254C122.587 45.3868 122.605 45.2578 122.669 45.1383C122.734 45.0188 122.799 44.9109 122.864 44.8147C122.934 44.8115 123.016 44.8195 123.11 44.8385C123.203 44.8343 123.296 44.83 123.389 44.8258C123.771 44.5053 124.105 44.1637 124.392 43.801C124.701 43.4139 124.997 43.0158 125.282 42.6065C125.587 42.1496 125.858 41.6944 126.094 41.2407C126.329 40.7637 126.516 40.2656 126.655 39.7464C126.716 39.5338 126.753 39.3223 126.766 39.1119C126.779 38.8782 126.828 38.6661 126.912 38.4758C127.039 38.1902 127.131 37.9063 127.188 37.6239C127.267 37.3172 127.347 37.0222 127.428 36.7388C127.076 36.6849 126.806 36.6505 126.619 36.6357C126.454 36.5966 126.299 36.522 126.154 36.4121C126.009 36.3021 125.803 36.1366 125.537 35.9156C125.499 35.5909 125.523 35.3567 125.61 35.2129C125.695 35.0458 125.911 34.9078 126.255 34.7988C126.393 34.7459 126.531 34.7047 126.669 34.6751C126.807 34.6222 126.945 34.5926 127.085 34.5862C127.34 34.5513 127.595 34.528 127.851 34.5164C128.107 34.5047 128.375 34.5042 128.655 34.5148C128.843 34.5296 129.03 34.556 129.218 34.5941C129.407 34.6321 129.595 34.6702 129.783 34.7082C129.996 34.7685 130.209 34.852 130.424 34.9588C130.638 35.0424 130.851 35.1143 131.063 35.1745C131.227 35.1904 131.381 35.2417 131.525 35.3284C131.669 35.4151 131.825 35.5129 131.993 35.6218C132.423 35.8587 132.764 36.1696 133.015 36.5545C133.264 36.9162 133.399 37.3296 133.421 37.7949C133.453 38.5162 133.379 39.1956 133.199 39.8333C133.102 40.2806 132.995 40.7285 132.875 41.1769C132.779 41.6242 132.671 42.0721 132.552 42.5205C132.472 42.8272 132.392 43.1222 132.312 43.4056C132.232 43.6891 132.175 43.9831 132.142 44.2876C132.108 44.5457 132.085 44.8148 132.074 45.095C132.064 45.3753 132.042 45.6677 132.009 45.9722C131.917 45.9997 131.825 46.0272 131.733 46.0547C131.665 46.0812 131.573 46.1203 131.459 46.1721C131.199 46.0907 130.927 46.0098 130.643 45.9295C130.359 45.8259 130.15 45.5906 130.017 45.2236C130.015 45.1771 130.013 45.1306 130.011 45.084C130.031 45.0132 130.039 44.9312 130.034 44.8382C130.031 44.7684 130.028 44.6986 130.025 44.6288C130.022 44.559 130.018 44.4892 130.015 44.4194C130.043 43.9985 130.094 43.5882 130.169 43.1884C130.243 42.7654 130.341 42.353 130.462 41.9511C130.627 41.4773 130.758 41.0168 130.854 40.5695C130.949 40.0989 131.045 39.6399 131.141 39.1926C131.202 38.98 131.239 38.7685 131.252 38.558C131.288 38.3233 131.313 38.1007 131.327 37.8902C131.338 37.6332 131.267 37.3451 131.113 37.0257C130.871 36.8502 130.621 36.7217 130.361 36.6403C130.099 36.5356 129.817 36.4669 129.512 36.4341C129.473 36.5991 129.399 36.7773 129.292 36.9687C129.27 37.0163 129.262 37.0866 129.266 37.1797C129.269 37.2495 129.248 37.2971 129.203 37.3224C129.067 37.4219 128.98 37.5541 128.941 37.719C128.924 37.8597 128.908 38.012 128.892 38.1759C128.874 38.2933 128.844 38.4112 128.803 38.5296C128.762 38.6481 128.709 38.767 128.644 38.8865C128.556 38.9838 128.503 39.1144 128.487 39.2783C128.471 39.419 128.454 39.5713 128.438 39.7352C128.408 40.0863 128.342 40.4273 128.24 40.7584C128.139 41.0894 128.004 41.4569 127.836 41.8608C127.727 42.029 127.63 42.2082 127.545 42.3986C127.46 42.5657 127.375 42.7444 127.29 42.9348C127.271 43.0289 127.229 43.1241 127.163 43.2203C127.096 43.2933 127.043 43.389 127.001 43.5074C126.896 43.7454 126.779 43.9955 126.651 44.2577C126.522 44.4967 126.368 44.7135 126.191 44.9081C125.902 45.2243 125.614 45.5522 125.326 45.8917C125.062 46.2301 124.738 46.5363 124.354 46.8102ZM137.246 45.8738C137.062 45.9288 136.819 45.9632 136.516 45.977C136.213 45.9675 135.944 45.9448 135.709 45.9088C135.496 45.8485 135.388 45.7835 135.385 45.7137C135.38 45.5974 135.319 45.5419 135.203 45.5472C135.203 45.5472 135.143 45.5033 135.022 45.4155C134.925 45.3267 134.769 45.2405 134.556 45.157C134.331 44.8408 134.211 44.4966 134.194 44.1243C134.176 43.7288 134.253 43.1075 134.424 42.2605C134.467 41.6756 134.657 40.9909 134.995 40.2062C135.354 39.3972 135.795 38.5728 136.316 37.7331C136.837 36.8935 137.386 36.1341 137.961 35.4552C138.559 34.7752 139.108 34.2723 139.606 33.9466C139.917 33.606 140.304 33.4135 140.768 33.3691C141.233 33.3247 141.679 33.4092 142.109 33.6228C142.347 33.7286 142.588 33.9041 142.832 34.1494C143.077 34.3948 143.31 34.6639 143.533 34.9568C143.757 35.2497 143.945 35.5442 144.098 35.8403C144.18 36.0931 144.225 36.3241 144.235 36.5335C144.266 36.7186 144.277 36.9513 144.266 37.2315C144.279 37.5107 144.263 37.931 144.219 38.4926C144.122 38.9167 144.04 39.4332 143.975 40.0424C143.932 40.6505 143.921 41.1755 143.941 41.6175C143.915 42.0617 143.976 42.3737 144.124 42.5534C144.295 42.7322 144.528 42.7332 144.823 42.5566C145.096 42.4043 145.361 42.3339 145.618 42.3456C145.874 42.3339 146.075 42.3947 146.221 42.528C146.39 42.6601 146.481 42.8658 146.494 43.145C146.506 43.4242 146.38 43.7214 146.115 44.0365C145.871 44.3273 145.557 44.5864 145.171 44.8138C144.807 45.0169 144.451 45.1264 144.102 45.1422C143.846 45.1539 143.595 45.0138 143.348 44.7219C143.101 44.4068 142.874 44.0324 142.668 43.5989C142.484 43.141 142.312 42.7058 142.154 42.2934L141.908 41.5003L140.472 42.9994C140.185 43.3388 139.896 43.655 139.606 43.948C139.339 44.2166 139.173 44.4107 139.108 44.5302C139.001 44.7449 138.79 44.9643 138.474 45.1885C138.181 45.4117 137.772 45.6401 137.246 45.8738ZM137.257 43.8101C137.642 43.5595 138.08 43.2015 138.572 42.7361C139.063 42.2475 139.54 41.7246 140.004 41.1672C140.467 40.5866 140.851 40.0563 141.156 39.5762C141.527 39.0231 141.807 38.5091 141.995 38.0343C142.183 37.5594 142.314 37.1105 142.388 36.6875C142.283 36.4358 142.12 36.1751 141.898 35.9055C141.675 35.6126 141.481 35.4582 141.317 35.4423C140.806 35.4656 140.274 35.8162 139.722 36.4941C139.192 37.1477 138.676 37.8589 138.175 38.6277C138.087 38.7483 137.968 38.9402 137.817 39.2035C137.665 39.4669 137.514 39.7186 137.361 39.9586C137.231 40.1744 137.145 40.3182 137.101 40.3901C137.036 40.4863 136.908 40.7602 136.719 41.2118C136.552 41.6391 136.385 42.0779 136.219 42.5284C136.052 42.9557 135.972 43.2391 135.978 43.3787C135.985 43.5183 136.003 43.669 136.034 43.8308C136.088 43.9915 136.209 44.0909 136.397 44.129C136.585 44.167 136.872 44.0607 137.257 43.8101ZM150.94 34.5149C151.307 34.3816 151.749 34.1167 152.267 33.7201C152.786 33.3235 153.291 32.8926 153.782 32.4272C154.274 31.9619 154.641 31.5722 154.883 31.2581C155.104 30.9916 155.301 30.7145 155.475 30.4269C155.671 30.1381 155.88 29.8605 156.101 29.594C156.456 29.1816 156.781 28.6422 157.077 27.976C157.373 27.3097 157.509 26.7091 157.484 26.174C157.478 26.0344 157.403 25.9212 157.259 25.8345C157.139 25.7467 157.021 25.7288 156.907 25.7806C156.724 25.8589 156.542 25.9604 156.361 26.0852C156.179 26.1867 156.022 26.3105 155.889 26.4564C155.6 26.7726 155.276 27.0904 154.918 27.4098C154.558 27.7059 154.235 28.0237 153.947 28.3632C153.925 28.3875 153.903 28.4235 153.882 28.4711C153.883 28.4943 153.873 28.5298 153.852 28.5773C153.661 28.9824 153.445 29.3768 153.206 29.7607C152.991 30.1436 152.764 30.5386 152.526 30.9457C152.202 31.52 151.926 32.1153 151.698 32.7319C151.493 33.3474 151.24 33.9417 150.94 34.5149ZM151.946 36.6373C152.015 36.6341 152.085 36.6309 152.155 36.6277C152.247 36.6002 152.327 36.5733 152.396 36.5468C152.63 36.5595 152.853 36.596 153.065 36.6563C153.3 36.6922 153.535 36.7281 153.77 36.7641C153.896 36.9682 154.046 37.1945 154.22 37.443C154.417 37.6672 154.556 37.894 154.636 38.1235C154.69 38.2842 154.744 38.4566 154.799 38.6406C154.853 38.8013 154.896 38.9742 154.928 39.1593C154.887 39.2777 154.886 39.5226 154.926 39.8937C154.99 40.2639 154.97 40.6028 154.868 40.9105C154.748 41.3589 154.641 41.8184 154.546 42.289C154.45 42.7364 154.282 43.1636 154.045 43.5708C153.893 43.8341 153.653 44.1831 153.323 44.6177C153.016 45.0513 152.739 45.3554 152.49 45.5299C152.331 45.6304 152.16 45.7081 151.976 45.7631C151.814 45.7938 151.643 45.8599 151.461 45.9614C151.166 46.138 150.839 46.1296 150.48 45.9361C150.145 45.7415 149.838 45.6506 149.559 45.6633C149.349 45.6728 149.098 45.5211 148.804 45.208C148.533 44.894 148.295 44.5318 148.09 44.1215C147.908 43.7101 147.833 43.3522 147.866 43.0476C147.884 42.9302 147.856 42.8266 147.782 42.7367C147.731 42.6457 147.703 42.5421 147.698 42.4258C147.677 41.9605 147.663 41.4132 147.658 40.784C147.653 40.1548 147.682 39.524 147.747 38.8916C147.835 38.2581 147.963 37.7394 148.131 37.3354C147.939 37.2276 147.781 37.0832 147.656 36.9024C147.555 36.7205 147.442 36.5391 147.317 36.3583C147.358 36.2399 147.399 36.1214 147.441 36.003C147.482 35.8845 147.512 35.7783 147.531 35.6841C147.693 35.6535 147.843 35.6233 147.981 35.5937C148.143 35.563 148.305 35.5207 148.465 35.4668C148.806 34.239 149.238 32.9837 149.763 31.7009C150.31 30.4171 150.978 29.2093 151.766 28.0778C152.553 26.9229 153.477 25.9716 154.539 25.2239C154.809 25.0251 155.138 24.812 155.524 24.5846C155.932 24.3329 156.312 24.234 156.664 24.2879C156.733 24.2615 156.803 24.2583 156.874 24.2784C156.968 24.2974 157.037 24.2826 157.081 24.234C157.129 24.2551 157.177 24.2763 157.224 24.2974C157.271 24.2953 157.318 24.3164 157.367 24.3609C157.491 24.5184 157.769 24.7389 158.201 25.0223C158.656 25.2814 159.046 25.6483 159.37 26.1231C159.62 26.4848 159.64 26.9268 159.431 27.4492C159.245 27.9706 159.091 28.4322 158.969 28.8341C158.868 29.1651 158.707 29.4755 158.487 29.7652C158.289 30.0307 158.128 30.3294 158.003 30.6615C157.963 30.8032 157.887 30.9232 157.775 31.0216C157.662 31.0967 157.586 31.2167 157.546 31.3817C157.341 31.4843 157.196 31.6307 157.112 31.8211C157.051 32.0104 156.941 32.1669 156.784 32.2907C156.627 32.4377 156.482 32.5725 156.347 32.6952C156.236 32.8168 156.115 32.9622 155.982 33.1314C155.763 33.4212 155.494 33.6782 155.178 33.9024C154.884 34.1023 154.616 34.3476 154.372 34.6385C154.009 34.8415 153.648 35.1027 153.289 35.4221C152.954 35.7405 152.591 35.9668 152.201 36.1011C151.971 36.1815 151.731 36.2857 151.481 36.4136C151.229 36.5183 150.99 36.6341 150.762 36.7611C150.557 36.8637 150.394 37.1159 150.272 37.5177C150.173 37.8953 150.088 38.3421 150.018 38.8581C149.949 39.3742 149.901 39.866 149.876 40.3334C149.85 40.8008 149.831 41.1397 149.817 41.3502C149.806 41.6304 149.849 42.0598 149.946 42.6382C150.041 43.1934 150.152 43.5963 150.28 43.847C150.331 43.9379 150.44 44.0262 150.607 44.1118C150.774 44.1975 150.902 44.1917 150.991 44.0944C151.058 44.0214 151.168 43.8765 151.321 43.6597C151.498 43.4419 151.662 43.2245 151.816 43.0077C151.991 42.7666 152.1 42.5985 152.143 42.5033C152.269 42.2178 152.395 41.8973 152.518 41.542C152.642 41.1867 152.744 40.8557 152.823 40.549C152.939 40.0308 152.954 39.5872 152.867 39.2181C152.804 38.848 152.695 38.5149 152.542 38.2188C152.389 37.9227 152.248 37.6493 152.12 37.3987C151.992 37.1481 151.934 36.8943 151.946 36.6373ZM166.707 33.133C167.025 32.932 167.359 32.8585 167.712 32.9124C168.063 32.9431 168.337 33.0821 168.535 33.3296C168.755 33.5527 168.803 33.8536 168.681 34.2322C168.721 34.0905 168.667 34.1862 168.519 34.5193C168.393 34.8281 168.225 35.2321 168.015 35.7312C167.828 36.2293 167.651 36.7036 167.485 37.1541C167.341 37.5803 167.248 37.8294 167.204 37.9013L167.209 38.006C167.581 37.989 167.808 38.0953 167.888 38.3248C167.99 38.5299 168.036 38.7726 168.026 39.0529C167.749 39.1121 167.555 39.2025 167.444 39.3242C167.332 39.4225 167.183 39.4876 166.998 39.5193C166.928 39.5225 166.848 39.5611 166.759 39.6351C166.669 39.7091 166.614 39.7932 166.595 39.8873C166.575 39.9582 166.518 40.2405 166.424 40.7344C166.352 41.2039 166.259 41.7211 166.145 42.2858C166.053 42.8262 165.967 43.2381 165.886 43.5215C165.848 43.7098 165.762 43.8652 165.628 43.9879C165.492 44.0873 165.402 44.1497 165.356 44.1751C164.883 44.0101 164.563 43.9081 164.398 43.869C164.256 43.8055 164.112 43.7188 163.967 43.6088C163.937 43.4703 163.93 43.3075 163.945 43.1203C163.958 42.9098 164.005 42.6629 164.086 42.3795C164.186 42.0252 164.264 41.6953 164.321 41.3896C164.399 41.0597 164.471 40.6018 164.538 40.0159C164.443 39.9736 164.245 39.9826 163.945 40.0429C163.666 40.0789 163.366 40.1275 163.042 40.1889C162.718 40.2502 162.441 40.3095 162.211 40.3666C162.003 40.4227 161.911 40.4385 161.933 40.4142C161.819 40.466 161.599 40.511 161.275 40.5491C160.972 40.5628 160.658 40.5655 160.331 40.557C160.026 40.5243 159.803 40.4878 159.662 40.4476L159.457 40.5618C159.444 40.7956 159.355 41.1493 159.191 41.6231C159.025 42.0736 158.951 42.4966 158.969 42.8921C158.959 43.1956 158.926 43.5002 158.87 43.8058C158.814 44.1114 158.782 44.4276 158.773 44.7544C158.774 45.2673 158.648 45.5877 158.398 45.7157C158.17 45.8426 157.806 45.7776 157.305 45.5206C157.185 45.4561 157.065 45.38 156.945 45.2922C156.847 45.2034 156.738 45.1035 156.616 44.9924L157.052 42.2799C157.131 41.9499 157.198 41.6438 157.255 41.3614C157.311 41.0558 157.379 40.7613 157.46 40.4779C157.623 39.9576 157.773 39.4262 157.912 38.8836C158.074 38.3401 158.26 37.8303 158.472 37.3544C158.472 37.3544 158.501 37.2365 158.561 37.0007C158.642 36.7406 158.734 36.4566 158.837 36.1489C158.938 35.8179 159.019 35.5577 159.081 35.3684C159.142 35.1791 159.152 35.1437 159.111 35.2621C159.174 35.1194 159.267 34.847 159.388 34.4452C159.509 34.0201 159.619 33.6187 159.718 33.2412C159.84 32.8393 159.9 32.6268 159.899 32.6035C159.939 32.4618 160.005 32.3656 160.096 32.3148C160.186 32.2408 160.3 32.2006 160.44 32.1942C160.835 32.153 161.164 32.2312 161.43 32.4289C161.694 32.6034 161.844 32.8297 161.88 33.1078C161.864 33.2485 161.858 33.377 161.863 33.4933C161.868 33.6096 161.849 33.7037 161.806 33.7757L160.193 38.2903L160.206 38.5694C160.445 38.6985 160.783 38.7064 161.221 38.5932C161.681 38.4557 162.027 38.3817 162.26 38.3711C162.375 38.3425 162.642 38.3071 163.059 38.2647C163.5 38.2214 163.919 38.1907 164.314 38.1727C164.733 38.1536 164.954 38.1552 164.979 38.1774C165.203 37.4678 165.406 36.8058 165.588 36.1914C165.768 35.5537 166.03 34.9007 166.373 34.2323C166.394 34.1847 166.434 34.0314 166.492 33.7723C166.573 33.5121 166.645 33.299 166.707 33.133ZM173.015 53.3035C172.993 53.3511 172.887 53.3093 172.694 53.1782C172.525 53.046 172.354 52.879 172.182 52.677C172.01 52.4983 171.933 52.3386 171.95 52.1979C171.842 51.8765 171.835 51.4688 171.929 50.9749C172.048 50.5033 172.307 49.7921 172.707 48.8414C172.922 48.4585 173.112 48.007 173.274 47.4867C173.46 46.9653 173.67 46.4429 173.902 45.9194C174.009 45.7047 174.245 45.2394 174.608 44.5234C174.972 43.8075 175.355 42.9974 175.757 42.0932C176.182 41.188 176.527 40.3329 176.794 39.5282C176.218 40.1839 175.688 40.8491 175.206 41.5238C174.723 42.1752 174.269 42.7088 173.845 43.1244C173.444 43.5389 173.057 43.7431 172.684 43.7367C172.378 43.6807 172.048 43.5908 171.693 43.4671C171.36 43.3191 171.126 43.05 170.991 42.6597C170.875 42.1521 170.811 41.5023 170.798 40.7102C170.808 39.9171 170.905 38.712 171.088 37.0951C171.238 36.2956 171.315 35.686 171.319 35.2661C171.346 34.822 171.319 34.4968 171.24 34.2906C171.161 34.0844 171.024 33.9041 170.831 33.7497C170.516 33.4842 170.342 33.2474 170.309 33.039C170.298 32.8064 170.452 32.6012 170.771 32.4235C171.254 32.285 171.601 32.2342 171.813 32.2712C172.023 32.285 172.288 32.4594 172.606 32.7946C172.806 33.0886 172.982 33.372 173.134 33.6449C173.309 33.8934 173.411 34.3433 173.44 34.9948C173.453 35.2739 173.423 35.6483 173.352 36.1178C173.303 36.5863 173.253 37.0315 173.203 37.4535C173.174 37.8511 173.152 38.1319 173.136 38.2958C172.942 39.1672 172.825 39.9186 172.784 40.5499C172.766 41.1802 172.815 41.4927 172.931 41.4874C173.38 41.094 173.803 40.6551 174.2 40.1707C174.62 39.662 175.049 39.0947 175.487 38.4686C175.947 37.8182 176.45 37.0843 176.995 36.2668C177.187 35.8617 177.379 35.4683 177.571 35.0866C177.763 34.7048 177.92 34.313 178.042 33.9111C178.168 33.6023 178.296 33.3517 178.427 33.1592C178.559 32.9667 178.67 32.8567 178.762 32.8292C178.876 32.7774 179.016 32.7827 179.183 32.8451C179.372 32.9064 179.538 32.9804 179.682 33.0671C179.848 33.1295 179.932 33.184 179.934 33.2305C179.959 33.2527 180.018 33.2733 180.112 33.2924C180.206 33.3114 180.3 33.3304 180.394 33.3495C180.511 33.3442 180.571 33.3764 180.574 33.4462C180.576 33.4927 180.525 33.6466 180.42 33.9078C180.338 34.168 180.235 34.4641 180.111 34.7962C180.008 35.1039 179.916 35.3878 179.835 35.648C179.752 35.8849 179.724 36.0261 179.749 36.0715C179.798 36.116 179.771 36.292 179.668 36.5998C179.564 36.8842 179.439 37.2047 179.292 37.5611C179.168 37.9164 179.055 38.2363 178.951 38.5208C178.753 39.2991 178.521 40.079 178.253 40.8606C177.985 41.6188 177.658 42.3797 177.273 43.1433C177.146 43.4288 176.956 43.8687 176.704 44.4631C176.474 45.0563 176.244 45.638 176.014 46.208C175.808 46.8002 175.642 47.2507 175.516 47.5595C175.431 47.7499 175.305 48.047 175.137 48.451C174.993 48.8772 174.827 49.3393 174.64 49.8374C174.476 50.3345 174.311 50.7966 174.144 51.2239C173.978 51.6744 173.854 52.0181 173.771 52.255C173.745 52.6991 173.655 53.0296 173.501 53.2464C173.408 53.2506 173.304 53.2554 173.187 53.2607C173.072 53.2892 173.015 53.3035 173.015 53.3035ZM181.745 44.7232C181.503 44.5244 181.296 44.3357 181.125 44.157C180.977 43.9772 180.862 43.7726 180.782 43.5431C180.869 43.3993 180.909 43.2692 180.904 43.1529C180.898 43.0133 180.889 42.8272 180.879 42.5945C180.862 42.2223 180.845 41.8617 180.83 41.5127C180.836 41.1394 180.819 40.7671 180.779 40.3959C180.74 40.048 180.783 39.7313 180.91 39.4458C181.037 39.1602 181.237 38.9297 181.508 38.7541C181.78 38.5786 181.981 38.3829 182.111 38.1672C182.264 37.9504 182.38 37.6654 182.457 37.3122C182.554 36.8881 182.631 36.5232 182.687 36.2176C182.743 35.912 182.807 35.536 182.88 35.0898C182.975 34.6192 183.098 33.9725 183.247 33.1497C183.215 32.9647 183.219 32.7897 183.258 32.6247C183.32 32.4587 183.347 32.2826 183.339 32.0965C183.316 31.6079 183.559 31.2938 184.065 31.1542C184.395 31.2324 184.62 31.3038 184.739 31.3683C184.881 31.4085 185.012 31.4724 185.133 31.5602C185.253 31.648 185.436 31.8262 185.682 32.0948C185.686 32.1878 185.671 32.375 185.637 32.6563C185.627 32.9365 185.58 33.1835 185.496 33.3971C185.356 33.9163 185.228 34.4351 185.112 34.9532C185.019 35.4704 184.914 35.9764 184.797 36.4713C184.779 36.5887 184.75 36.7183 184.709 36.86C184.691 36.9773 184.697 37.1053 184.727 37.2438L187.395 36.7028C187.51 36.6742 187.639 36.6917 187.782 36.7551C187.924 36.7953 188.077 36.8349 188.242 36.8741C188.56 36.1835 188.878 35.4813 189.195 34.7675C189.535 34.0293 189.868 33.4196 190.196 32.9384C190.414 32.6021 190.612 32.3367 190.789 32.1421C190.99 31.9464 191.215 31.7614 191.463 31.5869C191.708 31.3193 191.979 31.1437 192.279 31.0602C192.577 30.9534 192.866 30.8936 193.145 30.8809C193.242 30.9697 193.339 31.0585 193.437 31.1474C193.557 31.2351 193.667 31.3351 193.765 31.4472C193.886 31.5349 193.995 31.6232 194.092 31.7121C194.212 31.7998 194.334 31.8992 194.455 32.0103C195.057 31.9129 195.534 31.8912 195.886 31.9451C196.26 31.9747 196.583 32.1582 196.855 32.4955C196.905 32.5632 196.932 32.6552 196.938 32.7715C196.965 32.8635 196.957 32.9339 196.912 32.9825L196.042 33.8265C196.142 33.9851 196.231 34.1559 196.31 34.3388C196.387 34.4985 196.476 34.6693 196.578 34.8512C196.583 34.9675 196.554 35.097 196.491 35.2398C196.426 35.3593 196.432 35.4873 196.508 35.6237C196.684 35.8955 196.755 36.1836 196.722 36.4882C196.688 36.7695 196.69 37.0725 196.729 37.3971C196.78 37.5113 196.766 37.7101 196.686 37.9936C196.604 38.2537 196.512 38.526 196.408 38.8105C196.327 39.0707 196.277 39.2594 196.259 39.3768C196.205 39.729 196.08 40.0494 195.883 40.3381C195.685 40.6036 195.536 40.9134 195.436 41.2677C195.415 41.3153 195.37 41.3639 195.303 41.4136C195.257 41.439 195.189 41.4771 195.098 41.5279C194.59 42.1571 194.065 42.6589 193.523 43.0333C193.14 43.3305 192.789 43.5446 192.468 43.6758C192.171 43.8059 191.86 43.89 191.535 43.9281C191.21 43.9429 190.803 43.9614 190.314 43.9836C189.814 43.7499 189.491 43.5781 189.346 43.4681C189.201 43.3582 189.103 43.2461 189.051 43.1319C188.999 43.0177 188.828 42.8389 188.537 42.5957C188.524 42.2933 188.393 41.9845 188.145 41.6694C188.184 41.4811 188.175 41.295 188.12 41.111C188.065 40.927 188.034 40.7536 188.026 40.5907L187.936 38.6015C187.628 38.499 187.43 38.508 187.343 38.6285C187.254 38.7258 187.127 38.7665 186.964 38.7507C186.669 38.9273 186.337 39.0706 185.969 39.1806C185.623 39.2663 185.347 39.3372 185.139 39.3932C184.91 39.4736 184.681 39.5772 184.454 39.7042C184.227 39.8311 184.08 39.9426 184.015 40.0389C183.793 40.2821 183.667 40.6026 183.639 41.0002C183.643 41.0932 183.594 41.3053 183.493 41.6363C183.415 41.9662 183.325 42.3083 183.225 42.6626C183.148 43.0158 183.101 43.2628 183.084 43.4034C183.089 43.5197 183.04 43.7201 182.936 44.0046C182.856 44.288 182.77 44.4551 182.679 44.5059C182.544 44.6053 182.408 44.6814 182.27 44.7343C182.133 44.7872 181.958 44.7835 181.745 44.7232ZM191.505 41.7263C191.892 41.5222 192.287 41.2245 192.688 40.8332C193.09 40.4419 193.562 39.8026 194.105 38.9153C194.338 38.3918 194.495 38 194.576 37.7399C194.681 37.4787 194.727 37.2085 194.714 36.9293C194.725 36.649 194.718 36.2414 194.693 35.7063C194.639 35.0326 194.44 34.4938 194.095 34.0899C193.773 33.6616 193.45 33.2333 193.128 32.805C192.799 33.263 192.456 33.6749 192.1 34.0408C191.743 34.4067 191.386 35.0058 191.027 35.8381C190.755 36.5033 190.492 37.133 190.239 37.7274C189.985 38.2985 189.912 39.0012 190.02 39.8355C190.043 40.3241 190.093 40.6715 190.173 40.8777C190.252 41.0839 190.309 41.3145 190.344 41.5693C190.399 41.7533 190.555 41.8511 190.812 41.8628C191.069 41.8744 191.3 41.8289 191.505 41.7263Z" fill="#F5A925"/>
</svg>
