<svg width="1338" height="547" viewBox="0 0 1338 547" fill="none" xmlns="http://www.w3.org/2000/svg">
<g clip-path="url(#clip0_616_1220)">
<path d="M1145.99 269.097C1144.25 269.729 1143.35 271.654 1143.98 273.396L1191.25 404.343C1191.88 406.086 1193.79 406.987 1195.53 406.356L1231 393.46C1232.74 392.829 1233.64 390.904 1233.01 389.161L1185.74 258.214C1185.11 256.471 1183.2 255.57 1181.46 256.202L1145.99 269.097Z" fill="#F7F7F7"/>
<path d="M1111.18 510.967L1112.29 512.563C1112.61 513.025 1113.24 513.139 1113.7 512.818L1116.34 510.974C1116.61 510.785 1116.96 510.74 1117.27 510.855L1118.1 511.16C1118.41 511.274 1118.75 511.229 1119.02 511.04L1213.61 445.02C1214.07 444.699 1214.7 444.813 1215.02 445.274L1215.36 445.761C1215.66 446.195 1216.24 446.328 1216.69 446.059C1223.59 441.983 1236.37 433.663 1238.09 429.486C1239.87 425.14 1240.95 425.16 1241.27 425.713L1243.34 430.266C1243.43 430.464 1243.57 430.625 1243.76 430.733C1249.73 434.167 1260.62 443.891 1260.59 457.561C1260.59 458.4 1261.47 458.878 1261.97 458.202C1264.34 454.982 1265.31 447.575 1256.24 435.045C1246.9 422.149 1246.09 420.774 1247.12 422.009C1247.47 422.423 1248.07 422.519 1248.51 422.211L1249.89 421.249C1250.35 420.928 1250.98 421.042 1251.3 421.504L1251.5 421.793C1251.82 422.255 1252.45 422.368 1252.91 422.048L1254.63 420.846C1255.09 420.525 1255.72 420.639 1256.04 421.101L1256.4 421.624C1256.73 422.096 1257.38 422.199 1257.87 421.899C1263.13 418.675 1272.85 418.593 1276.47 440.286C1276.62 441.132 1277.72 441.512 1278.42 441.025C1283.67 437.394 1295.11 435.678 1301.25 450.882L1301.25 450.884C1301.25 450.888 1301.25 450.89 1301.26 450.894L1301.26 450.9C1301.34 451.131 1303.69 457.518 1303.28 464.474C1303.24 465.109 1303.75 465.649 1304.38 465.575C1312.3 464.635 1326.42 459.897 1327.94 447.052C1329.53 433.58 1300.23 420.129 1285.2 415.018C1285.08 414.975 1284.97 414.911 1284.87 414.817C1283.83 413.788 1283.04 411.679 1284.87 408.99C1285.52 408.023 1284.47 405.808 1283.32 406.023C1279.58 406.726 1275.85 407.151 1274.48 406.5C1274.08 406.309 1274.22 405.815 1274.59 405.561L1279.78 401.933C1280.24 401.612 1280.36 400.978 1280.04 400.516L1279.74 400.096C1279.42 399.635 1279.54 399 1280 398.68L1283.46 396.261C1283.75 396.06 1284.15 396.131 1284.35 396.42C1284.55 396.709 1284.94 396.78 1285.23 396.579L1293.25 390.979C1293.71 390.658 1293.83 390.024 1293.51 389.562L1290.23 384.829C1289.91 384.368 1289.27 384.254 1288.81 384.575L1281.1 389.958C1280.64 390.278 1280.53 390.913 1280.85 391.374L1281.14 391.794C1281.46 392.256 1281.35 392.89 1280.89 393.211L1278.65 394.776C1278.19 395.097 1277.55 394.983 1277.23 394.521L1275.58 392.141C1275.26 391.679 1274.63 391.565 1274.17 391.886L1267.85 396.302C1267.24 396.727 1266.4 396.374 1266.33 395.633C1265.99 391.932 1266.34 386.109 1269.75 383.725C1274.63 380.32 1245.07 381.93 1226.85 416.188C1226.49 416.866 1225.53 416.947 1225.09 416.315L1224.87 415.991C1224.61 415.617 1224.63 415.117 1224.9 414.753C1227.3 411.547 1230.92 404.694 1229.91 397.888C1229.82 397.281 1229.19 396.938 1228.62 397.149L1199.39 407.935C1198.87 408.125 1198.6 408.692 1198.77 409.214L1199.67 411.877C1199.7 411.991 1199.76 412.095 1199.84 412.187C1201.79 414.551 1207.08 418.962 1213.88 419.288C1214.32 419.308 1214.7 419.583 1214.84 419.994L1217.87 428.935C1218.01 429.364 1217.86 429.838 1217.48 430.097L1209.52 435.659C1209.08 435.961 1208.98 436.556 1209.28 436.989C1209.58 437.422 1209.47 438.017 1209.04 438.319L1113.89 504.732C1113.43 505.053 1113.32 505.687 1113.64 506.149L1113.93 506.569C1114.25 507.03 1114.14 507.664 1113.68 507.985L1111.44 509.55C1110.98 509.871 1110.86 510.505 1111.18 510.967Z" fill="#F7F7F7"/>
<path d="M-52.5003 516.878L-57.1896 524.553C-58.3794 526.501 -60.1068 528.063 -62.1638 529.051C-73.5131 534.505 -69.6286 551.557 -57.0369 551.557H1430.67C1437.3 551.557 1442.68 546.18 1442.68 539.547C1442.68 532.914 1437.3 527.537 1430.67 527.537H1392.16L1366.22 524.895H1128.26C1121.11 524.895 1114.39 521.479 1110.18 515.704C1105.71 509.558 1098.41 506.11 1090.82 506.55L1017.75 510.783C1007.34 511.386 996.899 510.947 986.577 509.474L914.83 499.231C884.171 494.854 852.973 496.086 822.755 502.867L798.719 508.26C772.225 514.205 744.656 513.32 718.598 505.687C692.236 497.965 664.109 497.202 637.341 503.373C612.924 509.003 587.332 508.934 562.968 503.083L560.473 502.484C536.93 496.831 512.462 496.188 488.655 500.598L456.929 506.474C418.252 513.638 378.549 513.172 340.051 505.103C304.733 497.701 268.374 496.692 232.7 502.125L210.055 505.574C184.429 509.477 158.304 508.645 132.978 503.119L121.038 500.513C101.066 496.156 80.4213 495.872 60.338 499.68L36.2873 504.24C26.8108 506.037 17.0335 505.401 7.86989 502.391L-3.21774 498.749C-21.8618 492.625 -42.2692 500.132 -52.5003 516.878Z" fill="#F7F7F7"/>
</g>
<defs>
<clipPath id="clip0_616_1220">
<rect width="1338" height="547" fill="white"/>
</clipPath>
</defs>
</svg>
