<svg width="1338" height="547" viewBox="0 0 1338 547" fill="none" xmlns="http://www.w3.org/2000/svg">
<g clip-path="url(#clip0_616_1220)">
<path d="M1151.31 231.443C1149.3 232.171 1148.26 234.393 1148.98 236.404L1203.73 387.52C1204.45 389.531 1206.67 390.571 1208.69 389.842L1249.77 374.96C1251.78 374.232 1252.82 372.01 1252.09 369.999L1197.35 218.883C1196.62 216.872 1194.4 215.832 1192.39 216.561L1151.31 231.443Z" fill="#F7F7F7"/>
<path d="M1111 510.566L1112.28 512.408C1112.65 512.941 1113.38 513.072 1113.91 512.702L1116.97 510.574C1117.28 510.356 1117.69 510.304 1118.05 510.436L1119 510.788C1119.36 510.921 1119.76 510.869 1120.08 510.65L1229.62 434.462C1230.16 434.091 1230.89 434.223 1231.26 434.755L1231.65 435.316C1232 435.818 1232.67 435.971 1233.2 435.661C1241.19 430.957 1255.99 421.356 1257.97 416.535C1260.03 411.52 1261.29 411.543 1261.66 412.181L1264.05 417.435C1264.16 417.664 1264.33 417.849 1264.55 417.974C1271.46 421.937 1284.07 433.159 1284.04 448.934C1284.03 449.903 1285.05 450.454 1285.63 449.674C1288.37 445.958 1289.5 437.411 1278.99 422.95C1268.18 408.068 1267.25 406.481 1268.44 407.906C1268.84 408.384 1269.53 408.495 1270.04 408.14L1271.64 407.03C1272.17 406.659 1272.9 406.791 1273.27 407.323L1273.51 407.657C1273.88 408.19 1274.61 408.321 1275.14 407.951L1277.13 406.565C1277.67 406.194 1278.4 406.326 1278.77 406.858L1279.19 407.462C1279.57 408.007 1280.32 408.126 1280.88 407.78C1286.98 404.059 1298.23 403.964 1302.43 428.998C1302.6 429.975 1303.87 430.414 1304.69 429.852C1310.77 425.661 1324.02 423.68 1331.13 441.226L1331.13 441.229C1331.13 441.233 1331.13 441.236 1331.13 441.24L1331.14 441.247C1331.23 441.514 1333.95 448.885 1333.47 456.913C1333.43 457.645 1334.03 458.268 1334.76 458.182C1343.92 457.098 1360.28 451.63 1362.03 436.807C1363.88 421.26 1329.95 405.737 1312.54 399.839C1312.4 399.79 1312.27 399.716 1312.16 399.607C1310.95 398.419 1310.04 395.985 1312.15 392.882C1312.91 391.766 1311.69 389.21 1310.36 389.458C1306.03 390.269 1301.71 390.76 1300.13 390.009C1299.66 389.788 1299.82 389.218 1300.24 388.925L1306.26 384.738C1306.8 384.368 1306.93 383.636 1306.56 383.103L1306.22 382.618C1305.85 382.086 1305.98 381.354 1306.51 380.984L1310.53 378.192C1310.86 377.961 1311.32 378.043 1311.55 378.376C1311.78 378.709 1312.24 378.792 1312.57 378.56L1321.86 372.097C1322.4 371.727 1322.53 370.995 1322.16 370.462L1318.36 365C1317.99 364.468 1317.26 364.336 1316.72 364.707L1307.79 370.918C1307.26 371.289 1307.13 372.021 1307.5 372.553L1307.84 373.038C1308.21 373.57 1308.08 374.302 1307.54 374.673L1304.95 376.479C1304.41 376.849 1303.68 376.718 1303.31 376.185L1301.4 373.438C1301.03 372.905 1300.3 372.774 1299.77 373.144L1292.44 378.24C1291.73 378.731 1290.77 378.323 1290.69 377.468C1290.29 373.197 1290.69 366.477 1294.65 363.726C1300.29 359.797 1266.06 361.654 1244.96 401.189C1244.54 401.972 1243.43 402.065 1242.93 401.336L1242.67 400.962C1242.36 400.53 1242.39 399.953 1242.71 399.533C1245.48 395.833 1249.67 387.924 1248.5 380.07C1248.4 379.37 1247.67 378.973 1247 379.218L1213.15 391.664C1212.55 391.884 1212.24 392.538 1212.44 393.141L1213.48 396.214C1213.52 396.345 1213.58 396.466 1213.67 396.572C1215.94 399.3 1222.06 404.39 1229.94 404.766C1230.44 404.79 1230.89 405.106 1231.05 405.581L1234.55 415.899C1234.72 416.394 1234.54 416.942 1234.11 417.241L1224.88 423.659C1224.38 424.007 1224.26 424.694 1224.61 425.194C1224.96 425.694 1224.83 426.381 1224.33 426.728L1114.14 503.371C1113.6 503.741 1113.47 504.473 1113.84 505.006L1114.18 505.49C1114.55 506.023 1114.42 506.755 1113.89 507.125L1111.29 508.931C1110.76 509.301 1110.63 510.033 1111 510.566Z" fill="#F7F7F7"/>
<path d="M-52.5003 516.878L-57.1896 524.553C-58.3794 526.501 -60.1068 528.063 -62.1638 529.051C-73.5131 534.505 -69.6286 551.557 -57.0369 551.557H1430.67C1437.3 551.557 1442.68 546.18 1442.68 539.547C1442.68 532.914 1437.3 527.537 1430.67 527.537H1392.16L1366.22 524.895H1128.26C1121.11 524.895 1114.39 521.479 1110.18 515.704C1105.71 509.558 1098.41 506.11 1090.82 506.55L1017.75 510.783C1007.34 511.386 996.899 510.947 986.577 509.474L914.83 499.231C884.171 494.854 852.973 496.086 822.755 502.867L798.719 508.26C772.225 514.205 744.656 513.32 718.598 505.687C692.236 497.965 664.109 497.202 637.341 503.373C612.924 509.003 587.332 508.934 562.968 503.083L560.473 502.484C536.93 496.831 512.462 496.188 488.655 500.598L456.929 506.474C418.252 513.638 378.549 513.172 340.051 505.103C304.733 497.701 268.374 496.692 232.7 502.125L210.055 505.574C184.429 509.477 158.304 508.645 132.978 503.119L121.038 500.513C101.066 496.156 80.4213 495.872 60.338 499.68L36.2873 504.24C26.8108 506.037 17.0335 505.401 7.86989 502.391L-3.21774 498.749C-21.8618 492.625 -42.2692 500.132 -52.5003 516.878Z" fill="#F7F7F7"/>
</g>
<defs>
<clipPath id="clip0_616_1220">
<rect width="1338" height="547" fill="white"/>
</clipPath>
</defs>
</svg>
