<svg width="7074" height="2602" viewBox="0 0 7074 2602" fill="none" xmlns="http://www.w3.org/2000/svg">
<g filter="url(#filter0_d_802_1269)">
<path fill-rule="evenodd" clip-rule="evenodd" d="M2345.49 2333.85C2477.57 2333.85 2584.65 2226.28 2584.65 2093.59C2584.65 1960.9 2477.57 1853.33 2345.49 1853.33C2213.4 1853.33 2106.33 1960.9 2106.33 2093.59C2106.33 2226.28 2213.4 2333.85 2345.49 2333.85ZM2352.49 2133.84C2374.81 2133.84 2392.9 2115.67 2392.9 2093.25C2392.9 2070.82 2374.81 2052.65 2352.49 2052.65C2330.17 2052.65 2312.08 2070.82 2312.08 2093.25C2312.08 2115.67 2330.17 2133.84 2352.49 2133.84Z" fill="#F7F7F7"/>
<g filter="url(#filter1_d_802_1269)">
<path d="M689.389 959.723C638.02 930.043 582.941 910.923 524.153 902.361V1391.22H385.458V902.361C326.67 910.923 271.306 930.043 219.366 959.723L172.279 856.13C213.373 831.587 257.893 813.037 305.837 800.48C353.781 787.924 403.152 781.645 453.949 781.645C505.318 781.645 554.974 787.924 602.918 800.48C651.433 813.037 695.952 831.587 736.476 856.13L689.389 959.723ZM1003.71 1404.06C930.649 1404.06 875.856 1387.79 839.327 1355.26C802.798 1322.73 784.534 1274.78 784.534 1211.43V930.614H917.236V1086.43C930.364 1077.3 947.486 1069.59 968.605 1063.32C990.294 1057.04 1014.84 1053.9 1042.23 1053.9C1098.74 1053.9 1142.97 1068.17 1174.93 1096.71C1206.9 1125.24 1222.88 1166.91 1222.88 1221.7C1222.88 1279.92 1203.19 1325.01 1163.81 1356.97C1124.42 1388.36 1071.06 1404.06 1003.71 1404.06ZM1271.68 930.614H1405.24V1391.22H1271.68V930.614ZM1003.71 1309.89C1031.1 1309.89 1051.94 1301.89 1066.2 1285.91C1080.47 1269.93 1087.61 1249.1 1087.61 1223.41C1087.61 1199.44 1080.19 1180.32 1065.35 1166.05C1051.08 1151.21 1030.25 1143.79 1002.85 1143.79C983.444 1143.79 966.322 1147.79 951.482 1155.78C937.213 1163.2 925.798 1173.47 917.236 1186.6V1224.27C917.236 1251.1 924.656 1272.21 939.496 1287.63C954.336 1302.47 975.739 1309.89 1003.71 1309.89ZM1752.24 1398.07C1703.15 1398.07 1658.92 1388.08 1619.53 1368.1C1580.72 1347.56 1550.19 1319.3 1527.93 1283.34C1506.24 1247.39 1495.39 1206.58 1495.39 1160.92C1495.39 1115.26 1506.24 1074.45 1527.93 1038.49C1550.19 1002.53 1580.72 974.563 1619.53 954.586C1658.92 934.039 1703.15 923.765 1752.24 923.765C1800.75 923.765 1842.99 934.039 1878.94 954.586C1915.47 974.563 1942.01 1003.39 1958.57 1041.06L1854.97 1096.71C1831 1054.47 1796.47 1033.35 1751.38 1033.35C1716.56 1033.35 1687.74 1044.77 1664.91 1067.6C1642.08 1090.43 1630.66 1121.53 1630.66 1160.92C1630.66 1200.3 1642.08 1231.41 1664.91 1254.24C1687.74 1277.07 1716.56 1288.48 1751.38 1288.48C1797.04 1288.48 1831.57 1267.36 1854.97 1225.13L1958.57 1281.63C1942.01 1318.16 1915.47 1346.7 1878.94 1367.25C1842.99 1387.79 1800.75 1398.07 1752.24 1398.07ZM2437.26 930.614V1391.22H2318.25V1259.37H2219.8L2132.47 1391.22H1990.35L2095.66 1240.54C2063.69 1227.98 2039.15 1210 2022.03 1186.6C2005.48 1162.63 1997.2 1133.81 1997.2 1100.13C1997.2 1045.91 2016.61 1004.24 2055.42 975.134C2094.8 945.454 2148.74 930.614 2217.23 930.614H2437.26ZM2219.8 1039.34C2191.26 1039.34 2169.57 1044.48 2154.73 1054.75C2140.46 1065.03 2133.33 1081.58 2133.33 1104.41C2133.33 1127.24 2140.18 1144.08 2153.87 1154.92C2168.14 1165.2 2189.55 1170.33 2218.08 1170.33H2318.25V1039.34H2219.8ZM2979.99 930.614V1391.22H2846.43V1219.99C2807.62 1239.4 2764.81 1249.1 2718.01 1249.1C2655.8 1249.1 2608.71 1235.12 2576.75 1207.15C2545.36 1178.61 2529.66 1134.66 2529.66 1075.3V930.614H2663.22V1066.74C2663.22 1094.71 2670.35 1114.97 2684.62 1127.53C2699.46 1140.08 2720.58 1146.36 2747.98 1146.36C2782.79 1146.36 2815.61 1138.94 2846.43 1124.1V930.614H2979.99ZM3573.12 930.614V1391.22H3445.55V1338.14C3412.45 1378.09 3364.5 1398.07 3301.72 1398.07C3258.34 1398.07 3218.96 1388.36 3183.57 1368.96C3148.76 1349.55 3121.36 1321.87 3101.38 1285.91C3081.41 1249.96 3071.42 1208.29 3071.42 1160.92C3071.42 1113.54 3081.41 1071.88 3101.38 1035.92C3121.36 999.962 3148.76 972.28 3183.57 952.874C3218.96 933.468 3258.34 923.765 3301.72 923.765C3360.51 923.765 3406.45 942.315 3439.56 979.414V930.614H3573.12ZM3324.84 1288.48C3358.51 1288.48 3386.48 1277.07 3408.74 1254.24C3431 1230.83 3442.13 1199.73 3442.13 1160.92C3442.13 1122.1 3431 1091.28 3408.74 1068.45C3386.48 1045.05 3358.51 1033.35 3324.84 1033.35C3290.59 1033.35 3262.34 1045.05 3240.08 1068.45C3217.82 1091.28 3206.69 1122.1 3206.69 1160.92C3206.69 1199.73 3217.82 1230.83 3240.08 1254.24C3262.34 1277.07 3290.59 1288.48 3324.84 1288.48ZM4396.41 930.614V1391.22H4268.85V1337.28C4251.72 1357.26 4230.6 1372.38 4205.49 1382.66C4180.95 1392.93 4154.69 1398.07 4126.73 1398.07C4066.23 1398.07 4018 1380.66 3982.04 1345.84C3946.65 1311.03 3928.96 1259.37 3928.96 1190.88V930.614H4062.52V1171.19C4062.52 1245.39 4093.62 1282.49 4155.84 1282.49C4188.37 1282.49 4214.34 1272.21 4233.74 1251.67C4253.15 1230.55 4262.85 1199.44 4262.85 1158.35V930.614H4396.41ZM4981.92 1398.07C4933.4 1398.07 4889.74 1388.08 4850.93 1368.1C4812.69 1347.56 4782.72 1319.3 4761.03 1283.34C4739.35 1247.39 4728.5 1206.58 4728.5 1160.92C4728.5 1115.26 4739.35 1074.45 4761.03 1038.49C4782.72 1002.53 4812.69 974.563 4850.93 954.586C4889.74 934.039 4933.4 923.765 4981.92 923.765C5030.43 923.765 5073.81 934.039 5112.05 954.586C5150.29 974.563 5180.26 1002.53 5201.95 1038.49C5223.64 1074.45 5234.48 1115.26 5234.48 1160.92C5234.48 1206.58 5223.64 1247.39 5201.95 1283.34C5180.26 1319.3 5150.29 1347.56 5112.05 1368.1C5073.81 1388.08 5030.43 1398.07 4981.92 1398.07ZM4981.92 1288.48C5016.16 1288.48 5044.13 1277.07 5065.82 1254.24C5088.08 1230.83 5099.21 1199.73 5099.21 1160.92C5099.21 1122.1 5088.08 1091.28 5065.82 1068.45C5044.13 1045.05 5016.16 1033.35 4981.92 1033.35C4947.67 1033.35 4919.42 1045.05 4897.16 1068.45C4874.9 1091.28 4863.77 1122.1 4863.77 1160.92C4863.77 1199.73 4874.9 1230.83 4897.16 1254.24C4919.42 1277.07 4947.67 1288.48 4981.92 1288.48ZM5796.36 930.614V1314.17C5796.36 1398.64 5774.39 1461.42 5730.44 1502.52C5686.49 1543.61 5622.28 1564.16 5537.81 1564.16C5493.29 1564.16 5451.05 1558.74 5411.1 1547.89C5371.15 1537.05 5338.04 1521.35 5311.79 1500.8L5364.87 1404.92C5384.27 1420.9 5408.82 1433.46 5438.5 1442.59C5468.18 1452.29 5497.86 1457.14 5527.54 1457.14C5573.77 1457.14 5607.73 1446.58 5629.42 1425.46C5651.68 1404.92 5662.81 1373.53 5662.81 1331.29V1311.6C5627.99 1349.84 5579.48 1368.96 5517.26 1368.96C5475.03 1368.96 5436.21 1359.83 5400.83 1341.56C5366.01 1322.73 5338.33 1296.47 5317.78 1262.8C5297.23 1229.12 5286.96 1190.31 5286.96 1146.36C5286.96 1102.41 5297.23 1063.6 5317.78 1029.93C5338.33 996.252 5366.01 970.282 5400.83 952.018C5436.21 933.183 5475.03 923.765 5517.26 923.765C5584.04 923.765 5634.84 945.739 5669.66 989.688V930.614H5796.36ZM5543.8 1259.37C5579.19 1259.37 5608.01 1249.1 5630.27 1228.55C5653.1 1207.43 5664.52 1180.04 5664.52 1146.36C5664.52 1112.69 5653.1 1085.58 5630.27 1065.03C5608.01 1043.91 5579.19 1033.35 5543.8 1033.35C5508.42 1033.35 5479.31 1043.91 5456.48 1065.03C5433.65 1085.58 5422.23 1112.69 5422.23 1146.36C5422.23 1180.04 5433.65 1207.43 5456.48 1228.55C5479.31 1249.1 5508.42 1259.37 5543.8 1259.37ZM6379.58 930.614V1391.22H6252.02V1337.28C6234.9 1357.26 6213.78 1372.38 6188.67 1382.66C6164.12 1392.93 6137.87 1398.07 6109.9 1398.07C6049.4 1398.07 6001.17 1380.66 5965.21 1345.84C5929.82 1311.03 5912.13 1259.37 5912.13 1190.88V930.614H6045.69V1171.19C6045.69 1245.39 6076.8 1282.49 6139.01 1282.49C6171.54 1282.49 6197.51 1272.21 6216.92 1251.67C6236.32 1230.55 6246.03 1199.44 6246.03 1158.35V930.614H6379.58ZM6506.88 930.614H6639.58V1110.4H6839.92V930.614H6973.48V1391.22H6839.92V1219.13H6639.58V1391.22H6506.88V930.614Z" fill="#F7F7F7"/>
</g>
<g filter="url(#filter2_d_802_1269)">
<rect x="2356.14" y="2305.26" width="3085.95" height="29.39" fill="#F7F7F7"/>
</g>
<g filter="url(#filter3_d_802_1269)">
<path d="M6273.49 569.037C6306.49 615.086 6315.42 661.806 6311.13 687.867C6310.4 692.301 6305.49 694.269 6301.72 691.824C6232.29 646.812 6237.85 519.295 6273.49 569.037Z" fill="#F7F7F7"/>
<path d="M6337.69 808.026C6309.02 855.445 6276.43 854.523 6258.14 845.651C6253.88 843.584 6253.85 837.967 6257.6 835.078C6301.48 801.266 6369.31 755.738 6337.69 808.026Z" fill="#F7F7F7"/>
<path d="M6478.05 380.141L6398.5 531.115C6308.6 701.718 6232 879.006 6169.4 1061.4L6110.68 1232.45M6273.49 569.037C6306.49 615.086 6315.42 661.806 6311.13 687.867C6310.4 692.301 6305.49 694.269 6301.72 691.824C6232.29 646.812 6237.85 519.295 6273.49 569.037ZM6337.69 808.026C6309.02 855.445 6276.43 854.523 6258.14 845.651C6253.88 843.584 6253.85 837.967 6257.6 835.078C6301.48 801.266 6369.31 755.738 6337.69 808.026Z" stroke="#F7F7F7" stroke-width="22.0425" stroke-linecap="round"/>
</g>
<g filter="url(#filter4_d_802_1269)">
<path d="M6577.75 118.276C6617.98 88.3209 6674.63 120.469 6669.54 170.37V170.37C6666.67 198.609 6684.77 224.742 6712.22 231.972V231.972C6760.72 244.75 6770.91 309.085 6728.72 336.221V336.221C6704.85 351.578 6695.71 382.025 6707.17 407.994V407.994C6727.42 453.883 6683.47 501.958 6635.95 485.897V485.897C6609.06 476.807 6579.56 488.641 6566.4 513.792V513.792C6543.15 558.237 6478.16 553.852 6461.09 506.687V506.687C6451.43 479.996 6423.78 464.305 6395.91 469.7V469.7C6346.67 479.233 6309.58 425.689 6335.81 382.937V382.937C6350.66 358.743 6345.69 327.344 6324.09 308.919V308.919C6285.94 276.361 6304.67 213.978 6354.45 207.832V207.832C6382.62 204.354 6404.07 180.89 6405.02 152.521V152.521C6406.68 102.389 6467.13 78.1427 6502.98 113.231V113.231C6523.26 133.088 6554.98 135.228 6577.75 118.276V118.276Z" fill="#FFA200"/>
</g>
<path d="M6617.22 210.878C6650.7 204.88 6675.34 241.532 6657.15 270.269V270.269C6646.85 286.531 6649.93 307.866 6664.39 320.561V320.561C6689.95 342.995 6676.66 385.112 6642.85 388.808V388.808C6623.72 390.9 6608.96 406.605 6608.05 425.83V425.83C6606.45 459.802 6565.23 475.669 6541.26 451.542V451.542C6527.7 437.888 6506.22 436.137 6490.62 447.415V447.415C6463.06 467.343 6424.96 445.012 6428.88 411.229V411.229C6431.09 392.111 6419.07 374.223 6400.53 369.061V369.061C6367.76 359.94 6361.47 316.226 6390.32 298.227V298.227C6406.65 288.041 6413.14 267.486 6405.62 249.771V249.771C6392.32 218.468 6422.57 186.29 6454.63 197.628V197.628C6472.78 204.045 6492.89 196.301 6502.05 179.373V179.373C6518.23 149.46 6562.25 153.048 6573.38 185.186V185.186C6579.68 203.373 6598.27 214.272 6617.22 210.878V210.878Z" fill="#F7F7F7"/>
<path d="M6551.23 234.262C6565.48 225.419 6583.87 235.855 6583.59 252.626L6583.14 279.236C6583.03 285.6 6585.79 291.676 6590.65 295.783L6610.98 312.954C6623.8 323.777 6619.56 344.492 6603.52 349.405L6578.07 357.2C6571.99 359.065 6567.06 363.567 6564.66 369.461L6554.61 394.105C6548.28 409.637 6527.27 412.004 6517.64 398.269L6502.36 376.477C6498.71 371.265 6492.9 367.971 6486.55 367.507L6460.01 365.567C6443.28 364.344 6434.54 345.091 6444.63 331.689L6460.63 310.426C6464.46 305.34 6465.8 298.803 6464.28 292.622L6457.92 266.779C6453.91 250.491 6469.52 236.225 6485.38 241.678L6510.55 250.328C6516.57 252.397 6523.2 251.65 6528.61 248.294L6551.23 234.262Z" fill="#FFA200"/>
<g filter="url(#filter5_d_802_1269)">
<path d="M489.265 1864.25C538.351 1864.25 581.158 1873.95 617.687 1893.36C654.216 1912.76 682.468 1940.45 702.445 1976.4C722.422 2012.36 732.41 2054.31 732.41 2102.26C732.41 2149.06 722.992 2190.44 704.157 2226.4C685.322 2261.78 658.782 2289.47 624.536 2309.44C590.29 2328.85 550.908 2338.55 506.388 2338.55C447.6 2338.55 401.654 2320 368.549 2282.9V2497.79H234.991V2103.11C234.991 2055.74 245.55 2014.07 266.668 1978.12C287.787 1942.16 317.466 1914.19 355.707 1894.21C393.948 1874.24 438.468 1864.25 489.265 1864.25ZM483.272 2228.97C518.089 2228.97 546.342 2217.27 568.031 2193.86C589.72 2170.46 600.564 2139.93 600.564 2102.26C600.564 2064.02 589.72 2033.19 568.031 2009.79C546.342 1985.82 518.089 1973.84 483.272 1973.84C448.456 1973.84 420.203 1985.54 398.514 2008.94C377.396 2032.34 366.837 2063.16 366.837 2101.4C366.837 2139.64 377.396 2170.46 398.514 2193.86C419.633 2217.27 447.885 2228.97 483.272 2228.97ZM1055.96 2231.53C1079.94 2231.53 1101.05 2228.11 1119.32 2221.26C1138.15 2213.84 1155.56 2202.43 1171.54 2187.02L1242.6 2264.07C1199.23 2313.72 1135.87 2338.55 1052.54 2338.55C1000.6 2338.55 954.655 2328.56 914.701 2308.59C874.748 2288.04 843.927 2259.79 822.238 2223.83C800.549 2187.87 789.705 2147.06 789.705 2101.4C789.705 2056.31 800.264 2015.79 821.382 1979.83C843.071 1943.3 872.465 1915.05 909.564 1895.07C947.235 1874.52 989.471 1864.25 1036.27 1864.25C1080.22 1864.25 1120.18 1873.67 1156.13 1892.5C1192.09 1910.77 1220.63 1937.59 1241.75 1972.98C1263.44 2007.8 1274.28 2049.18 1274.28 2097.12L933.536 2163.04C943.239 2185.87 958.365 2203 978.912 2214.41C1000.03 2225.83 1025.71 2231.53 1055.96 2231.53ZM1036.27 1965.27C1002.6 1965.27 975.202 1976.12 954.084 1997.81C932.966 2019.5 921.836 2049.46 920.694 2087.7L1145 2044.04C1138.73 2020.07 1125.88 2000.95 1106.48 1986.68C1087.07 1972.41 1063.67 1965.27 1036.27 1965.27ZM1816.1 2331.7V2056.03L1678.26 2287.18H1621.75L1487.34 2055.17V2331.7H1366.62V1871.1H1506.18L1653.43 2137.36L1810.11 1871.1H1935.1L1936.81 2331.7H1816.1Z" fill="#F7F7F7"/>
</g>
<g filter="url(#filter6_d_802_1269)">
<path d="M5590.38 1871.1H5723.08V2050.89H5923.42V1871.1H6056.98V2331.7H5923.42V2159.62H5723.08V2331.7H5590.38V1871.1ZM6773.86 1864.25C6831.5 1864.25 6877.16 1881.37 6910.84 1915.62C6945.08 1949.29 6962.21 2000.09 6962.21 2068.01V2331.7H6828.65V2088.56C6828.65 2052.03 6820.94 2024.92 6805.53 2007.23C6790.69 1988.96 6769.29 1979.83 6741.32 1979.83C6709.93 1979.83 6685.1 1990.1 6666.84 2010.65C6648.57 2030.63 6639.44 2060.59 6639.44 2100.54V2331.7H6505.88V2088.56C6505.88 2016.07 6476.77 1979.83 6418.56 1979.83C6387.74 1979.83 6363.19 1990.1 6344.93 2010.65C6326.66 2030.63 6317.53 2060.59 6317.53 2100.54V2331.7H6183.97V1871.1H6311.54V1924.18C6328.66 1904.77 6349.5 1889.93 6374.04 1879.66C6399.15 1869.39 6426.55 1864.25 6456.23 1864.25C6488.76 1864.25 6518.16 1870.81 6544.41 1883.94C6570.67 1896.5 6591.78 1915.05 6607.76 1939.59C6626.6 1915.62 6650.29 1897.07 6678.82 1883.94C6707.93 1870.81 6739.61 1864.25 6773.86 1864.25Z" fill="#F7F7F7"/>
</g>
<path d="M208.664 784.95L180.646 722.397C205.021 710.852 231.948 701.748 268.81 692.68C330.118 677.6 397.829 669.913 466.616 670.492C535.408 671.071 602.532 679.893 662.726 695.952C696.217 704.887 721.069 713.831 743.264 724.726L711.944 779.324L673.08 763.434C642.196 744.767 607.183 741.247 584.664 739.29C578.091 738.719 572.072 738.254 566.483 737.822C546.865 736.307 532.545 735.2 518.12 731.352C484.423 722.362 461.198 722.204 438.249 724.696C432.753 725.292 428 725.91 423.531 726.49C411.3 728.078 401.204 729.389 383.872 729.244C367.682 729.107 352.663 729.955 338.908 733.271C322.55 737.215 311.282 743.821 302.678 750.158C296.914 754.403 296.848 754.618 296.868 754.624C296.855 754.628 296.796 754.652 296.588 754.767C296.56 754.783 296.401 754.87 296.067 755.023C295.726 755.18 295.155 755.426 294.301 755.745C292.572 756.391 289.684 757.337 285.176 758.446C273.692 761.27 266.969 762.523 262.925 763.196C261.288 763.468 260.135 763.641 258.738 763.851C258.162 763.937 257.545 764.03 256.835 764.138L256.788 764.146C254.892 764.435 251.032 765.024 246.781 766.066C235.406 768.852 227.049 773.366 220.601 777.29C217.467 779.197 213.303 781.913 208.664 784.95Z" fill="white" stroke="#FFA200" stroke-width="124.907"/>
<path d="M420.071 1926.79C420.071 1953.17 312.746 2003.94 300.573 2003.94C288.399 2003.94 278.53 1997.25 278.53 1970.87C278.53 1949.05 340.235 1897.94 380.257 1889.28C394.324 1886.24 412.788 1889.2 417.251 1902.88C419.127 1908.63 420.071 1916.49 420.071 1926.79Z" fill="#FFA200"/>
<path d="M315.268 2071.73C315.268 2098.11 287.031 2114.15 274.857 2114.15C262.683 2114.15 256.488 2094.14 256.488 2067.76C256.488 2047.95 262.703 2037.18 279.798 2039.26C294.084 2041 313.347 2043.08 314.777 2057.4C315.134 2060.97 315.268 2065.64 315.268 2071.73Z" fill="#FFA200"/>
</g>
<defs>
<filter id="filter0_d_802_1269" x="0.46875" y="0.671875" width="7143.38" height="2647.32" filterUnits="userSpaceOnUse" color-interpolation-filters="sRGB">
<feFlood flood-opacity="0" result="BackgroundImageFix"/>
<feColorMatrix in="SourceAlpha" type="matrix" values="0 0 0 0 0 0 0 0 0 0 0 0 0 0 0 0 0 0 127 0" result="hardAlpha"/>
<feOffset dy="4"/>
<feGaussianBlur stdDeviation="50"/>
<feComposite in2="hardAlpha" operator="out"/>
<feColorMatrix type="matrix" values="0 0 0 0 0.1 0 0 0 0 0.1 0 0 0 0 0.1 0 0 0 0.15 0"/>
<feBlend mode="normal" in2="BackgroundImageFix" result="effect1_dropShadow_802_1269"/>
<feBlend mode="normal" in="SourceGraphic" in2="effect1_dropShadow_802_1269" result="shape"/>
</filter>
<filter id="filter1_d_802_1269" x="168.277" y="781.648" width="6809.2" height="790.508" filterUnits="userSpaceOnUse" color-interpolation-filters="sRGB">
<feFlood flood-opacity="0" result="BackgroundImageFix"/>
<feColorMatrix in="SourceAlpha" type="matrix" values="0 0 0 0 0 0 0 0 0 0 0 0 0 0 0 0 0 0 127 0" result="hardAlpha"/>
<feOffset dy="4"/>
<feGaussianBlur stdDeviation="2"/>
<feComposite in2="hardAlpha" operator="out"/>
<feColorMatrix type="matrix" values="0 0 0 0 0 0 0 0 0 0 0 0 0 0 0 0 0 0 0.25 0"/>
<feBlend mode="normal" in2="BackgroundImageFix" result="effect1_dropShadow_802_1269"/>
<feBlend mode="normal" in="SourceGraphic" in2="effect1_dropShadow_802_1269" result="shape"/>
</filter>
<filter id="filter2_d_802_1269" x="2352.14" y="2305.26" width="3093.95" height="37.3906" filterUnits="userSpaceOnUse" color-interpolation-filters="sRGB">
<feFlood flood-opacity="0" result="BackgroundImageFix"/>
<feColorMatrix in="SourceAlpha" type="matrix" values="0 0 0 0 0 0 0 0 0 0 0 0 0 0 0 0 0 0 127 0" result="hardAlpha"/>
<feOffset dy="4"/>
<feGaussianBlur stdDeviation="2"/>
<feComposite in2="hardAlpha" operator="out"/>
<feColorMatrix type="matrix" values="0 0 0 0 0 0 0 0 0 0 0 0 0 0 0 0 0 0 0.25 0"/>
<feBlend mode="normal" in2="BackgroundImageFix" result="effect1_dropShadow_802_1269"/>
<feBlend mode="normal" in="SourceGraphic" in2="effect1_dropShadow_802_1269" result="shape"/>
</filter>
<filter id="filter3_d_802_1269" x="6095.66" y="369.117" width="397.422" height="882.359" filterUnits="userSpaceOnUse" color-interpolation-filters="sRGB">
<feFlood flood-opacity="0" result="BackgroundImageFix"/>
<feColorMatrix in="SourceAlpha" type="matrix" values="0 0 0 0 0 0 0 0 0 0 0 0 0 0 0 0 0 0 127 0" result="hardAlpha"/>
<feOffset dy="4"/>
<feGaussianBlur stdDeviation="2"/>
<feComposite in2="hardAlpha" operator="out"/>
<feColorMatrix type="matrix" values="0 0 0 0 0 0 0 0 0 0 0 0 0 0 0 0 0 0 0.25 0"/>
<feBlend mode="normal" in2="BackgroundImageFix" result="effect1_dropShadow_802_1269"/>
<feBlend mode="normal" in="SourceGraphic" in2="effect1_dropShadow_802_1269" result="shape"/>
</filter>
<filter id="filter4_d_802_1269" x="6299.79" y="96.6719" width="459.418" height="456.055" filterUnits="userSpaceOnUse" color-interpolation-filters="sRGB">
<feFlood flood-opacity="0" result="BackgroundImageFix"/>
<feColorMatrix in="SourceAlpha" type="matrix" values="0 0 0 0 0 0 0 0 0 0 0 0 0 0 0 0 0 0 127 0" result="hardAlpha"/>
<feOffset dy="4"/>
<feGaussianBlur stdDeviation="2"/>
<feComposite in2="hardAlpha" operator="out"/>
<feColorMatrix type="matrix" values="0 0 0 0 0 0 0 0 0 0 0 0 0 0 0 0 0 0 0.25 0"/>
<feBlend mode="normal" in2="BackgroundImageFix" result="effect1_dropShadow_802_1269"/>
<feBlend mode="normal" in="SourceGraphic" in2="effect1_dropShadow_802_1269" result="shape"/>
</filter>
<filter id="filter5_d_802_1269" x="230.992" y="1864.25" width="1709.82" height="641.547" filterUnits="userSpaceOnUse" color-interpolation-filters="sRGB">
<feFlood flood-opacity="0" result="BackgroundImageFix"/>
<feColorMatrix in="SourceAlpha" type="matrix" values="0 0 0 0 0 0 0 0 0 0 0 0 0 0 0 0 0 0 127 0" result="hardAlpha"/>
<feOffset dy="4"/>
<feGaussianBlur stdDeviation="2"/>
<feComposite in2="hardAlpha" operator="out"/>
<feColorMatrix type="matrix" values="0 0 0 0 0 0 0 0 0 0 0 0 0 0 0 0 0 0 0.25 0"/>
<feBlend mode="normal" in2="BackgroundImageFix" result="effect1_dropShadow_802_1269"/>
<feBlend mode="normal" in="SourceGraphic" in2="effect1_dropShadow_802_1269" result="shape"/>
</filter>
<filter id="filter6_d_802_1269" x="5586.38" y="1864.25" width="1379.83" height="475.453" filterUnits="userSpaceOnUse" color-interpolation-filters="sRGB">
<feFlood flood-opacity="0" result="BackgroundImageFix"/>
<feColorMatrix in="SourceAlpha" type="matrix" values="0 0 0 0 0 0 0 0 0 0 0 0 0 0 0 0 0 0 127 0" result="hardAlpha"/>
<feOffset dy="4"/>
<feGaussianBlur stdDeviation="2"/>
<feComposite in2="hardAlpha" operator="out"/>
<feColorMatrix type="matrix" values="0 0 0 0 0 0 0 0 0 0 0 0 0 0 0 0 0 0 0.25 0"/>
<feBlend mode="normal" in2="BackgroundImageFix" result="effect1_dropShadow_802_1269"/>
<feBlend mode="normal" in="SourceGraphic" in2="effect1_dropShadow_802_1269" result="shape"/>
</filter>
</defs>
</svg>
