<svg width="671" height="238" viewBox="0 0 671 238" fill="none" xmlns="http://www.w3.org/2000/svg">
<path fill-rule="evenodd" clip-rule="evenodd" d="M216.908 216.888C229.67 216.888 240.015 206.495 240.015 193.675C240.015 180.854 229.67 170.461 216.908 170.461C204.146 170.461 193.801 180.854 193.801 193.675C193.801 206.495 204.146 216.888 216.908 216.888ZM217.582 197.564C219.739 197.564 221.487 195.807 221.487 193.641C221.487 191.475 219.739 189.719 217.582 189.719C215.426 189.719 213.678 191.475 213.678 193.641C213.678 195.807 215.426 197.564 217.582 197.564Z" fill="#F7F7F7"/>
<path d="M57.3741 83.8959C52.411 81.0283 47.0894 79.181 41.4094 78.3538V125.586H28.0091V78.3538C22.3291 79.181 16.98 81.0283 11.9617 83.8959L7.41222 73.887C11.3827 71.5157 15.6841 69.7235 20.3163 68.5103C24.9485 67.2971 29.7186 66.6905 34.6265 66.6905C39.5896 66.6905 44.3873 67.2971 49.0195 68.5103C53.7069 69.7235 58.0082 71.5157 61.9236 73.887L57.3741 83.8959ZM87.7427 126.827C80.684 126.827 75.3901 125.255 71.8608 122.112C68.3314 118.968 66.5668 114.336 66.5668 108.215V81.0835H79.3881V96.1382C80.6565 95.2559 82.3108 94.5114 84.3512 93.9048C86.4468 93.2982 88.818 92.9949 91.465 92.9949C96.9244 92.9949 101.198 94.3736 104.286 97.1308C107.374 99.8881 108.919 103.914 108.919 109.208C108.919 114.833 107.016 119.189 103.211 122.277C99.406 125.31 94.2498 126.827 87.7427 126.827ZM113.634 81.0835H126.538V125.586H113.634V81.0835ZM87.7427 117.728C90.3897 117.728 92.4025 116.956 93.7811 115.412C95.1598 113.868 95.8491 111.855 95.8491 109.373C95.8491 107.057 95.1322 105.21 93.6984 103.831C92.3198 102.397 90.3069 101.68 87.66 101.68C85.785 101.68 84.1306 102.066 82.6969 102.838C81.3182 103.555 80.2153 104.548 79.3881 105.816V109.456C79.3881 112.048 80.105 114.088 81.5388 115.577C82.9726 117.011 85.0405 117.728 87.7427 117.728ZM160.064 126.248C155.321 126.248 151.047 125.283 147.242 123.353C143.492 121.367 140.542 118.638 138.391 115.163C136.296 111.689 135.248 107.746 135.248 103.335C135.248 98.9231 136.296 94.9802 138.391 91.506C140.542 88.0318 143.492 85.3297 147.242 83.3996C151.047 81.4144 155.321 80.4217 160.064 80.4217C164.751 80.4217 168.832 81.4144 172.306 83.3996C175.835 85.3297 178.4 88.1145 179.999 91.7542L169.99 97.1308C167.674 93.0501 164.337 91.0097 159.981 91.0097C156.617 91.0097 153.832 92.1126 151.626 94.3184C149.421 96.5242 148.318 99.5297 148.318 103.335C148.318 107.14 149.421 110.145 151.626 112.351C153.832 114.557 156.617 115.66 159.981 115.66C164.393 115.66 167.729 113.619 169.99 109.539L179.999 114.998C178.4 118.527 175.835 121.285 172.306 123.27C168.832 125.255 164.751 126.248 160.064 126.248ZM226.249 81.0835V125.586H214.751V112.847H205.238L196.801 125.586H183.07L193.244 111.028C190.156 109.814 187.785 108.077 186.13 105.816C184.531 103.5 183.731 100.715 183.731 97.4617C183.731 92.2229 185.606 88.1973 189.356 85.3848C193.161 82.5173 198.373 81.0835 204.99 81.0835H226.249ZM205.238 91.5887C202.481 91.5887 200.385 92.085 198.952 93.0776C197.573 94.0703 196.884 95.6695 196.884 97.8753C196.884 100.081 197.545 101.708 198.869 102.756C200.248 103.748 202.315 104.245 205.073 104.245H214.751V91.5887H205.238ZM278.686 81.0835V125.586H265.782V109.042C262.032 110.917 257.896 111.855 253.374 111.855C247.364 111.855 242.814 110.504 239.726 107.802C236.693 105.044 235.176 100.798 235.176 95.0629V81.0835H248.08V94.2357C248.08 96.9378 248.77 98.8955 250.148 100.109C251.582 101.322 253.623 101.929 256.27 101.929C259.633 101.929 262.804 101.212 265.782 99.7778V81.0835H278.686ZM335.993 81.0835V125.586H323.668V120.457C320.469 124.318 315.837 126.248 309.771 126.248C305.58 126.248 301.775 125.31 298.356 123.435C294.992 121.56 292.345 118.886 290.415 115.412C288.485 111.937 287.52 107.912 287.52 103.335C287.52 98.7576 288.485 94.732 290.415 91.2578C292.345 87.7837 294.992 85.1091 298.356 83.2342C301.775 81.3592 305.58 80.4217 309.771 80.4217C315.451 80.4217 319.89 82.214 323.089 85.7984V81.0835H335.993ZM312.004 115.66C315.258 115.66 317.96 114.557 320.111 112.351C322.261 110.09 323.337 107.085 323.337 103.335C323.337 99.5848 322.261 96.607 320.111 94.4011C317.96 92.1402 315.258 91.0097 312.004 91.0097C308.696 91.0097 305.966 92.1402 303.815 94.4011C301.664 96.607 300.589 99.5848 300.589 103.335C300.589 107.085 301.664 110.09 303.815 112.351C305.966 114.557 308.696 115.66 312.004 115.66ZM415.537 81.0835V125.586H403.212V120.375C401.558 122.305 399.517 123.766 397.091 124.759C394.72 125.751 392.183 126.248 389.481 126.248C383.636 126.248 378.976 124.566 375.502 121.202C372.083 117.838 370.373 112.847 370.373 106.23V81.0835H383.277V104.327C383.277 111.496 386.282 115.081 392.293 115.081C395.437 115.081 397.946 114.088 399.821 112.103C401.696 110.062 402.633 107.057 402.633 103.087V81.0835H415.537ZM472.107 126.248C467.42 126.248 463.201 125.283 459.452 123.353C455.757 121.367 452.862 118.638 450.766 115.163C448.671 111.689 447.623 107.746 447.623 103.335C447.623 98.9231 448.671 94.9802 450.766 91.506C452.862 88.0318 455.757 85.3297 459.452 83.3996C463.201 81.4144 467.42 80.4217 472.107 80.4217C476.795 80.4217 480.986 81.4144 484.681 83.3996C488.375 85.3297 491.271 88.0318 493.366 91.506C495.462 94.9802 496.509 98.9231 496.509 103.335C496.509 107.746 495.462 111.689 493.366 115.163C491.271 118.638 488.375 121.367 484.681 123.353C480.986 125.283 476.795 126.248 472.107 126.248ZM472.107 115.66C475.416 115.66 478.118 114.557 480.214 112.351C482.365 110.09 483.44 107.085 483.44 103.335C483.44 99.5848 482.365 96.607 480.214 94.4011C478.118 92.1402 475.416 91.0097 472.107 91.0097C468.799 91.0097 466.069 92.1402 463.918 94.4011C461.768 96.607 460.692 99.5848 460.692 103.335C460.692 107.085 461.768 110.09 463.918 112.351C466.069 114.557 468.799 115.66 472.107 115.66ZM550.797 81.0835V118.141C550.797 126.303 548.674 132.369 544.428 136.339C540.182 140.31 533.978 142.295 525.816 142.295C521.515 142.295 517.434 141.771 513.574 140.723C509.714 139.676 506.515 138.159 503.979 136.174L509.107 126.909C510.982 128.454 513.353 129.667 516.221 130.549C519.088 131.487 521.956 131.955 524.824 131.955C529.29 131.955 532.572 130.935 534.667 128.895C536.818 126.909 537.893 123.876 537.893 119.796V117.893C534.529 121.588 529.842 123.435 523.831 123.435C519.75 123.435 516 122.553 512.581 120.788C509.217 118.968 506.543 116.432 504.558 113.178C502.572 109.925 501.58 106.175 501.58 101.929C501.58 97.6823 502.572 93.9324 504.558 90.6788C506.543 87.4252 509.217 84.9161 512.581 83.1514C516 81.3316 519.75 80.4217 523.831 80.4217C530.283 80.4217 535.191 82.5448 538.555 86.7911V81.0835H550.797ZM526.395 112.847C529.814 112.847 532.599 111.855 534.75 109.869C536.956 107.829 538.059 105.182 538.059 101.929C538.059 98.6749 536.956 96.0555 534.75 94.0703C532.599 92.0299 529.814 91.0097 526.395 91.0097C522.976 91.0097 520.164 92.0299 517.958 94.0703C515.752 96.0555 514.649 98.6749 514.649 101.929C514.649 105.182 515.752 107.829 517.958 109.869C520.164 111.855 522.976 112.847 526.395 112.847ZM607.146 81.0835V125.586H594.821V120.375C593.167 122.305 591.127 123.766 588.7 124.759C586.329 125.751 583.792 126.248 581.09 126.248C575.245 126.248 570.585 124.566 567.111 121.202C563.692 117.838 561.982 112.847 561.982 106.23V81.0835H574.886V104.327C574.886 111.496 577.892 115.081 583.902 115.081C587.046 115.081 589.555 114.088 591.43 112.103C593.305 110.062 594.242 107.057 594.242 103.087V81.0835H607.146ZM619.446 81.0835H632.267V98.4543H651.623V81.0835H664.527V125.586H651.623V108.96H632.267V125.586H619.446V81.0835Z" fill="#F7F7F7"/>
<path d="M616.19 28.125L608.504 42.7118C599.818 59.195 592.417 76.3241 586.368 93.9464L580.695 110.473" stroke="#F7F7F7" stroke-width="2.83958" stroke-linecap="round"/>
<rect x="217.938" y="214.125" width="298.156" height="2.83958" fill="#F7F7F7"/>
<path d="M596.422 46.3757C599.61 50.8248 600.473 55.3388 600.058 57.8567C599.988 58.2852 599.514 58.4753 599.149 58.2391C592.441 53.8901 592.978 41.5697 596.422 46.3757Z" fill="#F7F7F7" stroke="#F7F7F7" stroke-width="2.12969"/>
<path d="M602.625 69.4662C599.854 74.0477 596.705 73.9587 594.939 73.1014C594.527 72.9018 594.524 72.359 594.886 72.0798C599.126 68.813 605.68 64.4143 602.625 69.4662Z" fill="#F7F7F7" stroke="#F7F7F7" stroke-width="2.12969"/>
<path d="M625.818 2.82397C629.705 -0.0702465 635.179 3.03582 634.687 7.85711V7.85711C634.409 10.5855 636.158 13.1104 638.81 13.809V13.809C643.497 15.0436 644.481 21.2594 640.405 23.8813V23.8813C638.099 25.365 637.215 28.3067 638.322 30.8157V30.8157C640.279 35.2494 636.033 39.8944 631.442 38.3425V38.3425C628.844 37.4643 625.993 38.6077 624.722 41.0377V41.0377C622.475 45.3319 616.196 44.9082 614.547 40.3512V40.3512C613.614 37.7724 610.942 36.2564 608.25 36.7776V36.7776C603.492 37.6987 599.908 32.5254 602.443 28.3948V28.3948C603.877 26.0572 603.397 23.0235 601.311 21.2434V21.2434C597.624 18.0978 599.434 12.0705 604.244 11.4767V11.4767C606.966 11.1406 609.038 8.87358 609.129 6.13259V6.13259C609.29 1.289 615.131 -1.05364 618.594 2.33654V2.33654C620.554 4.25504 623.618 4.46182 625.818 2.82397V2.82397Z" fill="#F5A925"/>
<path d="M629.632 11.7711C632.866 11.1916 635.247 14.7328 633.49 17.5093V17.5093C632.495 19.0806 632.792 21.1419 634.19 22.3685V22.3685C636.659 24.536 635.375 28.6052 632.109 28.9623V28.9623C630.26 29.1644 628.834 30.6818 628.746 32.5393V32.5393C628.591 35.8216 624.609 37.3546 622.293 35.0234V35.0234C620.983 33.7042 618.907 33.5351 617.4 34.6247V34.6247C614.737 36.5502 611.056 34.3926 611.435 31.1286V31.1286C611.649 29.2814 610.487 27.5531 608.696 27.0544V27.0544C605.53 26.1731 604.922 21.9496 607.71 20.2106V20.2106C609.287 19.2265 609.914 17.2404 609.187 15.5289V15.5289C607.903 12.5045 610.825 9.39548 613.923 10.491V10.491C615.676 11.1109 617.62 10.3627 618.505 8.72722V8.72722C620.068 5.83713 624.321 6.18371 625.396 9.28882V9.28882C626.005 11.046 627.801 12.099 629.632 11.7711V11.7711Z" fill="#F7F7F7"/>
<path d="M623.252 14.0303C624.629 13.1759 626.406 14.1842 626.378 15.8046L626.335 18.3755C626.324 18.9905 626.591 19.5775 627.061 19.9743L629.025 21.6333C630.264 22.679 629.854 24.6804 628.304 25.1551L625.846 25.9083C625.258 26.0884 624.782 26.5234 624.55 27.0929L623.579 29.4739C622.967 30.9746 620.937 31.2033 620.006 29.8762L618.53 27.7708C618.177 27.2672 617.617 26.949 617.003 26.9041L614.439 26.7167C612.822 26.5985 611.978 24.7383 612.952 23.4435L614.499 21.3891C614.868 20.8977 614.998 20.2661 614.851 19.6689L614.237 17.172C613.85 15.5983 615.358 14.22 616.89 14.7468L619.322 15.5825C619.904 15.7824 620.544 15.7103 621.067 15.386L623.252 14.0303Z" fill="#F5A925"/>
<path d="M38.0251 171.289C42.7676 171.289 46.9035 172.226 50.4328 174.101C53.9621 175.976 56.6918 178.651 58.6219 182.125C60.552 185.599 61.5171 189.652 61.5171 194.285C61.5171 198.807 60.6072 202.805 58.7874 206.279C56.9676 209.698 54.4033 212.372 51.0946 214.302C47.7858 216.177 43.9808 217.115 39.6794 217.115C33.9994 217.115 29.5602 215.323 26.3618 211.738V232.5H13.4577V194.367C13.4577 189.79 14.4779 185.765 16.5183 182.29C18.5587 178.816 21.4263 176.114 25.121 174.184C28.8158 172.254 33.1171 171.289 38.0251 171.289ZM37.446 206.527C40.8099 206.527 43.5396 205.396 45.6351 203.135C47.7307 200.875 48.7784 197.924 48.7784 194.285C48.7784 190.59 47.7307 187.612 45.6351 185.351C43.5396 183.035 40.8099 181.877 37.446 181.877C34.0822 181.877 31.3525 183.007 29.2569 185.268C27.2165 187.529 26.1963 190.507 26.1963 194.202C26.1963 197.897 27.2165 200.875 29.2569 203.135C31.2973 205.396 34.027 206.527 37.446 206.527ZM92.7781 206.775C95.0942 206.775 97.1346 206.444 98.8993 205.782C100.719 205.066 102.401 203.963 103.945 202.474L110.811 209.918C106.62 214.716 100.498 217.115 92.4472 217.115C87.429 217.115 82.9898 216.15 79.1296 214.22C75.2694 212.234 72.2915 209.505 70.196 206.031C68.1005 202.556 67.0527 198.614 67.0527 194.202C67.0527 189.845 68.0729 185.93 70.1133 182.456C72.2088 178.927 75.0488 176.197 78.6333 174.267C82.2729 172.282 86.3537 171.289 90.8756 171.289C95.1218 171.289 98.982 172.199 102.456 174.019C105.93 175.783 108.688 178.375 110.728 181.794C112.824 185.158 113.871 189.156 113.871 193.788L80.9494 200.158C81.8869 202.363 83.3482 204.018 85.3335 205.121C87.3739 206.224 89.8554 206.775 92.7781 206.775ZM90.8756 181.05C87.622 181.05 84.975 182.097 82.9346 184.193C80.8943 186.289 79.8189 189.184 79.7086 192.878L101.381 188.66C100.774 186.344 99.5334 184.496 97.6585 183.118C95.7835 181.739 93.5226 181.05 90.8756 181.05ZM166.22 216.453V189.818L152.903 212.152H147.443L134.457 189.735V216.453H122.793V171.951H136.276L150.504 197.676L165.641 171.951H177.718L177.884 216.453H166.22Z" fill="#F7F7F7"/>
<path d="M530.49 171.951H543.311V189.322H562.667V171.951H575.571V216.453H562.667V199.827H543.311V216.453H530.49V171.951ZM644.834 171.289C650.404 171.289 654.816 172.943 658.069 176.252C661.378 179.506 663.032 184.414 663.032 190.976V216.453H650.128V192.961C650.128 189.432 649.384 186.812 647.895 185.103C646.461 183.338 644.393 182.456 641.691 182.456C638.658 182.456 636.259 183.449 634.494 185.434C632.73 187.364 631.847 190.259 631.847 194.119V216.453H618.943V192.961C618.943 185.958 616.131 182.456 610.506 182.456C607.528 182.456 605.157 183.449 603.392 185.434C601.628 187.364 600.745 190.259 600.745 194.119V216.453H587.841V171.951H600.166V177.079C601.821 175.204 603.834 173.77 606.205 172.778C608.631 171.785 611.278 171.289 614.146 171.289C617.289 171.289 620.129 171.923 622.666 173.191C625.202 174.405 627.243 176.197 628.787 178.568C630.607 176.252 632.895 174.46 635.652 173.191C638.465 171.923 641.525 171.289 644.834 171.289Z" fill="#F7F7F7"/>
<path d="M10.4536 67.2363L7.74648 61.1926C10.1015 60.0772 12.7031 59.1975 16.2647 58.3215C22.1881 56.8645 28.7302 56.1218 35.3762 56.1777C42.0228 56.2336 48.508 57.086 54.3239 58.6376C57.5597 59.5009 59.9608 60.365 62.1052 61.4177L59.0792 66.6928L55.3243 65.1576C52.3403 63.354 48.9575 63.0138 46.7817 62.8248C46.1466 62.7696 45.5651 62.7247 45.0251 62.683C43.1297 62.5365 41.7461 62.4296 40.3524 62.0578C37.0967 61.1892 34.8528 61.1739 32.6355 61.4147C32.1045 61.4724 31.6452 61.532 31.2135 61.5881C30.0318 61.7415 29.0563 61.8682 27.3818 61.8541C25.8174 61.841 24.3663 61.9229 23.0374 62.2433C21.4569 62.6243 20.3683 63.2626 19.5369 63.8748C18.9436 64.3118 18.9752 64.3068 18.976 64.3062C18.9762 64.306 18.9735 64.3063 18.9486 64.3201C18.9458 64.3217 18.9305 64.3301 18.8982 64.3449C18.8653 64.36 18.8101 64.3838 18.7276 64.4146C18.5606 64.4771 18.2815 64.5684 17.846 64.6755C16.7364 64.9485 16.0868 65.0695 15.6961 65.1345C15.5379 65.1608 15.4266 65.1775 15.2915 65.1978C15.2359 65.2061 15.1763 65.2151 15.1077 65.2256L15.1032 65.2263C14.9199 65.2542 14.5471 65.3111 14.1364 65.4118C13.0373 65.681 12.2298 66.1171 11.6068 66.4963C11.3041 66.6805 10.9017 66.9429 10.4536 67.2363Z" fill="white" stroke="#F5A925" stroke-width="12.0682"/>
<path d="M30.8831 177.558C30.8831 180.106 20.5136 185.012 19.3374 185.012C18.1612 185.012 17.2077 184.366 17.2077 181.817C17.2077 179.708 23.1695 174.77 27.0364 173.934C28.3955 173.64 30.1794 173.926 30.6106 175.248C30.7918 175.804 30.8831 176.563 30.8831 177.558Z" fill="#F5A925"/>
<path d="M20.7573 191.562C20.7573 194.11 18.0291 195.66 16.8529 195.66C15.6767 195.66 15.0781 193.727 15.0781 191.178C15.0781 189.265 15.6785 188.223 17.3302 188.425C18.7105 188.593 20.5716 188.793 20.7098 190.177C20.7443 190.522 20.7573 190.973 20.7573 191.562Z" fill="#F5A925"/>
</svg>
