<svg width="92" height="47" viewBox="0 0 92 47" fill="none" xmlns="http://www.w3.org/2000/svg">
<path d="M26.7353 35.7878C26.6422 35.7465 26.513 35.6612 26.3476 35.532C26.2049 35.4017 26.0736 35.271 25.9537 35.1397C25.8823 35.0746 25.8229 35.0203 25.7753 34.9769C25.7268 34.9107 25.6792 34.8673 25.6327 34.8466C25.6254 34.6874 25.6544 34.5721 25.7195 34.5008C25.8074 34.4284 25.8947 34.3447 25.9816 34.2496C26.0663 34.109 26.211 34.034 26.4157 34.0247C26.6204 34.0154 26.777 33.9513 26.8856 33.8324C27.2815 33.5181 27.6883 33.192 28.1059 32.8539C28.5235 32.5158 28.8704 32.124 29.1463 31.6784C29.4441 31.2091 29.7402 30.7056 30.0348 30.168C30.3294 29.6304 30.6132 29.1048 30.8861 28.591C30.9698 28.4276 31.1047 28.1366 31.2907 27.7179C31.4768 27.2992 31.652 26.8924 31.8164 26.4975C32.0024 26.0788 32.1032 25.7893 32.1187 25.6291C31.9109 25.5702 31.715 25.5221 31.531 25.4849C31.3687 25.4239 31.2069 25.3743 31.0456 25.3361C30.8264 25.027 30.7044 24.8502 30.6796 24.8058C30.6538 24.7386 30.6326 24.523 30.616 24.1591C30.6036 23.8862 30.7437 23.7089 31.0362 23.6272C31.6885 23.438 32.2638 23.3093 32.7621 23.241C33.2831 23.1718 33.7907 23.0575 34.2848 22.8983C34.5991 22.7928 34.9842 22.7411 35.4401 22.7432C35.896 22.7452 36.3555 22.8268 36.8187 22.9881C37.0275 23.0697 37.2032 23.1757 37.3459 23.306C37.4886 23.4362 37.6209 23.5897 37.7429 23.7665C38.0572 24.1624 38.221 24.5082 38.2345 24.8039C38.2707 25.0985 38.2723 25.3833 38.2392 25.6583C38.2061 25.9333 38.2542 26.2387 38.3835 26.5747C38.2522 27.196 38.1178 27.7491 37.9804 28.234C37.8419 28.6961 37.7137 29.1349 37.5959 29.5505C37.477 29.9433 37.3685 30.3129 37.2703 30.6592C37.1721 31.0056 37.0966 31.3508 37.0439 31.6951C36.9695 32.0631 36.8723 32.4322 36.7524 32.8023C36.6325 33.1724 36.5473 33.5523 36.4966 33.9421C36.4646 34.2398 36.338 34.4621 36.1168 34.6089C35.9183 34.7546 35.6965 34.8901 35.4515 35.0152C35.3616 35.042 35.2014 35.0265 34.9708 34.9687C34.762 34.887 34.563 34.7707 34.3738 34.6198C34.2942 34.3727 34.2611 34.1463 34.2745 33.9406C34.288 33.7349 34.3241 33.5281 34.383 33.3203C34.443 33.1353 34.5495 32.7202 34.7024 32.0751C34.8554 31.43 35.0275 30.7043 35.2187 29.898C35.4099 29.0916 35.5923 28.3426 35.766 27.651C35.9396 26.9594 36.0543 26.4756 36.1101 26.1996C36.2073 25.8305 36.229 25.556 36.1752 25.3762C36.1442 25.1952 36.1023 25.0262 36.0496 24.8691C35.5637 24.7089 35.2314 24.667 35.0525 24.7435C34.8954 24.7963 34.6928 24.8511 34.4447 24.9079C34.3351 25.0041 34.2488 25.1106 34.1857 25.2274C34.1227 25.3442 34.0824 25.46 34.0648 25.5747C33.8446 26.2457 33.6524 26.7786 33.488 27.1735C33.3464 27.5674 33.2032 27.9272 33.0585 28.2528C32.9128 28.5557 32.7458 28.8938 32.5577 29.267C32.3923 29.6391 32.1763 30.1504 31.9096 30.8006C31.7463 31.2183 31.5359 31.6039 31.2785 31.9574C31.0439 32.31 30.833 32.6842 30.6459 33.0802L30.2924 33.5748C30.3151 33.5738 30.2283 33.6689 30.0319 33.8602C29.8355 34.0514 29.6391 34.2427 29.4427 34.434C29.269 34.6242 29.1822 34.7193 29.1822 34.7193L28.1619 35.5862C28.0523 35.6823 27.861 35.7366 27.5881 35.749C27.3152 35.7614 27.0309 35.7744 26.7353 35.7878ZM39.9544 35.1863C39.7177 34.992 39.5156 34.8074 39.3481 34.6327C39.2034 34.457 39.0917 34.257 39.0131 34.0327C39.0979 33.8921 39.1377 33.7649 39.1325 33.6512C39.1263 33.5147 39.118 33.3328 39.1077 33.1053C39.0911 32.7415 39.0751 32.3889 39.0595 32.0478C39.0657 31.6829 39.0492 31.319 39.0099 30.9561C38.9716 30.616 39.0145 30.3064 39.1385 30.0273C39.2626 29.7481 39.4574 29.5228 39.7231 29.3511C39.9888 29.1795 40.1852 28.9883 40.3123 28.7774C40.4622 28.5654 40.5749 28.2868 40.6503 27.9415C40.7454 27.527 40.8204 27.1703 40.8751 26.8716C40.9299 26.5728 40.9929 26.2053 41.0643 25.769C41.1573 25.309 41.2766 24.6768 41.4224 23.8725C41.3913 23.6916 41.395 23.5205 41.4332 23.3593C41.4942 23.197 41.5205 23.0248 41.5123 22.8429C41.4905 22.3653 41.7272 22.0582 42.2224 21.9218C42.545 21.9982 42.7646 22.068 42.8815 22.1311C43.02 22.1703 43.1482 22.2329 43.266 22.3187C43.3839 22.4045 43.5628 22.5787 43.8026 22.8412C43.8067 22.9322 43.7923 23.1152 43.7592 23.3902C43.7489 23.6641 43.7029 23.9055 43.6212 24.1143C43.4848 24.6219 43.3597 25.129 43.246 25.6356C43.1551 26.1411 43.0523 26.6358 42.9375 27.1196C42.92 27.2343 42.8915 27.361 42.8523 27.4995C42.8347 27.6142 42.8404 27.7393 42.8693 27.8748L45.4775 27.3458C45.5902 27.3179 45.7163 27.335 45.8559 27.397C45.9944 27.4363 46.1443 27.475 46.3056 27.5133C46.6167 26.8382 46.9274 26.1518 47.2375 25.4539C47.5693 24.7323 47.8954 24.1364 48.2159 23.666C48.4288 23.3372 48.6221 23.0777 48.7958 22.8875C48.9922 22.6962 49.2118 22.5153 49.4548 22.3447C49.6936 22.0832 49.9592 21.9116 50.2518 21.8299C50.5433 21.7255 50.8255 21.667 51.0985 21.6546C51.1936 21.7414 51.2887 21.8283 51.3838 21.9151C51.5016 22.0009 51.6086 22.0986 51.7048 22.2082C51.8226 22.294 51.9291 22.3803 52.0242 22.4671C52.1421 22.5529 52.2605 22.6501 52.3794 22.7586C52.9676 22.6635 53.4338 22.6423 53.7781 22.695C54.144 22.7239 54.4599 22.9033 54.7256 23.233C54.7741 23.2992 54.801 23.3891 54.8062 23.5028C54.8331 23.5928 54.8248 23.6615 54.7814 23.7091L53.9301 24.5341C54.0283 24.6891 54.1157 24.8561 54.1922 25.0349C54.2677 25.191 54.355 25.358 54.4543 25.5358C54.4595 25.6495 54.431 25.7761 54.369 25.9157C54.306 26.0325 54.3117 26.1576 54.3861 26.291C54.5577 26.5566 54.6275 26.8383 54.5955 27.1361C54.5624 27.4111 54.5645 27.7072 54.6017 28.0246C54.6524 28.1362 54.6384 28.3306 54.5599 28.6077C54.4803 28.862 54.3899 29.1282 54.2886 29.4063C54.209 29.6606 54.1604 29.8451 54.1428 29.9599C54.0901 30.3041 53.9676 30.6174 53.7754 30.8996C53.5821 31.1591 53.4363 31.462 53.3381 31.8083C53.3174 31.8548 53.274 31.9024 53.2079 31.951C53.1634 31.9758 53.0967 32.013 53.0078 32.0626C52.5116 32.6777 51.9984 33.1683 51.4681 33.5343C51.0939 33.8248 50.7502 34.0342 50.4369 34.1624C50.1464 34.2895 49.8425 34.3717 49.5251 34.409C49.2067 34.4234 48.8087 34.4416 48.3311 34.4633C47.8421 34.2348 47.5268 34.0669 47.3852 33.9594C47.2436 33.8519 47.1474 33.7423 47.0968 33.6306C47.0461 33.519 46.8786 33.3443 46.5943 33.1065C46.5809 32.8109 46.4532 32.509 46.2112 32.201C46.2485 32.0169 46.2402 31.835 46.1864 31.6551C46.1326 31.4753 46.1021 31.3057 46.0949 31.1465L46.0064 29.202C45.7056 29.1017 45.5123 29.1105 45.4265 29.2284C45.3396 29.3235 45.2161 29.3633 45.0559 29.3478C44.7674 29.5204 44.4434 29.6605 44.0836 29.7681C43.7456 29.8518 43.4752 29.9211 43.2726 29.9759C43.0483 30.0545 42.825 30.1558 42.6027 30.2799C42.3805 30.4039 42.2373 30.513 42.1732 30.6071C41.9561 30.8448 41.8337 31.1581 41.8058 31.5468C41.8099 31.6378 41.7624 31.845 41.6631 32.1686C41.5866 32.4912 41.4993 32.8256 41.4011 33.1719C41.3257 33.5172 41.2797 33.7586 41.2631 33.8961C41.2683 34.0098 41.2203 34.2057 41.119 34.4838C41.0404 34.7609 40.9567 34.9242 40.8678 34.9738C40.7354 35.071 40.6021 35.1454 40.4677 35.1971C40.3333 35.2488 40.1622 35.2452 39.9544 35.1863ZM49.4956 32.2566C49.8739 32.0571 50.2595 31.7661 50.6523 31.3835C51.0452 31.001 51.5067 30.3761 52.037 29.5087C52.2644 28.997 52.4179 28.614 52.4975 28.3596C52.5998 28.1043 52.6448 27.8402 52.6324 27.5672C52.6427 27.2933 52.6359 26.8948 52.6121 26.3717C52.5594 25.7132 52.3645 25.1865 52.0275 24.7916C51.7121 24.3729 51.3968 23.9542 51.0815 23.5356C50.76 23.9832 50.4251 24.3859 50.0767 24.7436C49.7283 25.1013 49.379 25.687 49.0285 26.5006C48.7619 27.1508 48.505 27.7664 48.2579 28.3474C48.0099 28.9057 47.9386 29.5927 48.0441 30.4083C48.0658 30.8859 48.1154 31.2255 48.193 31.4271C48.2705 31.6287 48.3263 31.854 48.3605 32.1032C48.4142 32.283 48.5667 32.3787 48.8179 32.39C49.0691 32.4014 49.295 32.3569 49.4956 32.2566ZM56.0757 27.855C55.8649 28.7306 55.744 29.5793 55.713 30.4012C55.7048 31.222 55.8175 31.9462 56.0511 32.5737C56.3065 33.1774 56.7149 33.6374 57.2762 33.9537C57.5337 34.1015 57.8014 34.2261 58.0795 34.3274C58.3566 34.4059 58.6424 34.4271 58.937 34.3909C59.2379 34.4912 59.5527 34.3971 59.8814 34.1086C60.2318 33.7964 60.62 33.3116 61.0459 32.6541C61.4935 31.9728 61.9679 31.1307 62.4693 30.1279C62.5664 29.7589 62.6641 29.4012 62.7623 29.0549C62.8822 28.6848 62.9907 28.3152 63.0879 27.9461C63.2502 27.5057 63.3592 27.1475 63.415 26.8715C63.4708 26.5955 63.4884 26.23 63.4677 25.7752C63.4656 25.7297 63.4635 25.6842 63.4615 25.6387C63.4821 25.5922 63.4914 25.5462 63.4894 25.5007C63.5214 25.203 63.5783 24.9497 63.6599 24.7409C63.7633 24.5082 63.7509 24.2353 63.6227 23.9221C63.6836 23.7598 63.6836 23.5091 63.6226 23.17C63.5833 22.8072 63.5104 22.4572 63.4039 22.1202C63.3191 21.7594 63.239 21.501 63.1635 21.3449C63.147 20.981 63.0741 20.6311 62.9448 20.2951C62.8156 19.9591 62.6869 19.6345 62.5587 19.3213C62.4646 19.2572 62.4269 19.1792 62.4455 19.0872C62.4641 18.9952 62.4486 18.9047 62.3989 18.8158C62.1767 18.4385 61.8722 18.0079 61.4855 17.5241C61.0978 17.0176 60.8047 16.5865 60.6062 16.2309C60.6931 16.1358 60.8042 16.0738 60.9396 16.0448C61.0978 16.0148 61.2559 15.9848 61.4141 15.9549C61.5712 15.9021 61.7056 15.8504 61.8173 15.7998C62.0395 15.6757 62.39 15.6142 62.8686 15.6152C63.3462 15.5935 63.8259 15.6172 64.3077 15.6865C64.7884 15.7329 65.145 15.8079 65.3776 15.9112C65.4934 15.9516 65.6082 15.9691 65.7219 15.964C65.8356 15.9588 65.9385 15.9655 66.0305 15.9841C66.1845 15.8631 66.2775 15.6538 66.3096 15.3561C66.3633 15.0346 66.4093 14.7932 66.4475 14.6319C66.1808 14.2794 65.9745 14.0039 65.8288 13.8054C65.683 13.6069 65.3594 13.5077 64.858 13.5077C64.5841 13.4974 64.3101 13.4871 64.0362 13.4768C63.7622 13.4664 63.4898 13.4902 63.219 13.5481C63.0825 13.5543 62.8117 13.6122 62.4064 13.7218C62.0229 13.8077 61.6399 13.9049 61.2574 14.0134C60.8749 14.122 60.6165 14.2021 60.4821 14.2538C60.1689 14.382 59.8567 14.533 59.5455 14.7067C59.256 14.8566 58.9547 14.9956 58.6415 15.1238C58.4171 15.2024 58.2983 15.3446 58.2848 15.5503C58.2714 15.756 58.3143 15.9478 58.4136 16.1256C58.5593 16.3241 58.7279 16.5215 58.9191 16.7179C59.1093 16.8916 59.2887 17.0771 59.4572 17.2746C59.6257 17.472 59.8584 17.8261 60.1551 18.3368C60.4735 18.8236 60.747 19.324 60.9755 19.8378C61.204 20.3515 61.2789 20.747 61.2004 21.024C60.9481 20.9899 60.7197 20.9775 60.515 20.9868C60.332 20.9724 60.1164 20.9936 59.8683 21.0504C59.3814 21.3689 58.892 21.8811 58.3999 22.5872C57.9079 23.2933 57.4551 24.1116 57.0417 25.042C56.6499 25.9487 56.3279 26.8863 56.0757 27.855ZM57.7893 30.2042C57.8327 29.6552 57.9619 28.9884 58.1769 28.2038C58.3909 27.3964 58.6519 26.621 58.9599 25.8777C59.2896 25.1106 59.639 24.525 60.0081 24.1208C60.1817 23.9305 60.3848 23.6364 60.6174 23.2384C60.85 22.8404 60.9725 22.5271 60.9849 22.2987C61.3416 22.6243 61.5468 23.1277 61.6006 23.809C61.6761 24.4665 61.6616 25.1508 61.5573 25.8621C61.4746 26.5496 61.3511 27.0908 61.1867 27.4857C61.1257 27.648 61.0658 27.833 61.0069 28.0408C60.9697 28.2248 60.9325 28.4088 60.8953 28.5929C60.6007 29.1304 60.3598 29.5972 60.1727 29.9931C60.0084 30.3881 59.8213 30.784 59.6114 31.181C59.4005 31.5552 59.0915 32.0251 58.6842 32.5906C58.5653 32.4821 58.4469 32.3849 58.3291 32.2991C58.2102 32.1905 58.0918 32.0934 57.974 32.0076C57.8633 31.5796 57.793 31.2865 57.763 31.1284C57.7547 30.9464 57.7635 30.6383 57.7893 30.2042ZM70.4006 33.4932C69.6367 33.7331 69.0955 33.8603 68.7771 33.8748C68.4587 33.8893 68.1103 33.7456 67.7319 33.4438C67.613 33.3352 67.5396 33.2246 67.5117 33.1119C67.4827 32.9765 67.4223 32.8995 67.3303 32.8809C67.3003 32.7227 67.306 32.5971 67.3473 32.5041C67.4104 32.3872 67.5535 32.2782 67.7768 32.1769C68.1273 32.366 68.562 32.4032 69.0809 32.2884C69.5999 32.1737 70.1028 31.9571 70.5897 31.6386C71.0983 31.2964 71.4906 30.9025 71.7666 30.457C72.1966 29.8904 72.5259 29.3627 72.7543 28.8737C72.9817 28.3619 73.098 27.9122 73.1032 27.5246C73.0928 27.2971 73.0514 27.1395 72.9791 27.0516C72.9284 26.94 72.8069 26.7746 72.6146 26.5554C72.2115 26.7105 71.8435 26.8868 71.5106 27.0843C71.2005 27.2807 70.9477 27.4859 70.7523 27.6999C70.0959 28.2995 69.5827 28.7901 69.2126 29.1716C68.8653 29.552 68.5634 29.9304 68.3071 30.3067C68.0734 30.682 67.7773 31.1855 67.4186 31.8171C67.247 32.0528 67.0842 32.2312 66.9302 32.3521C66.7989 32.472 66.6536 32.5356 66.4944 32.5429C66.5834 32.9946 66.4366 33.2748 66.0541 33.3834C65.5486 33.2924 65.1779 33.1611 64.9422 32.9895C64.7055 32.7952 64.6197 32.4117 64.6848 31.839C64.7612 31.5164 64.8351 31.137 64.9065 30.7008C64.9767 30.2417 65.062 29.8618 65.1623 29.561C65.6419 28.0806 66.0605 26.7625 66.4181 25.6067C66.7985 24.4499 67.137 23.6254 67.4337 23.1334L68.0957 21.1547C68.4834 21.1598 68.7827 21.226 68.9936 21.3531C69.2034 21.4575 69.4552 21.7309 69.7488 22.1734C69.754 22.2871 69.6553 22.622 69.4527 23.1782C69.2718 23.7106 69.049 24.3247 68.7844 25.0205C68.5425 25.7152 68.31 26.3639 68.0867 26.9666C67.8851 27.5455 67.7441 27.9508 67.6634 28.1823C67.5838 28.4366 67.65 28.3881 67.8619 28.0366C68.0966 27.684 68.509 27.2322 69.0993 26.6812C69.3815 26.3721 69.733 26.0826 70.1537 25.8128C70.5734 25.5202 70.928 25.299 71.2174 25.149C71.5296 24.9981 71.7875 24.9066 71.9912 24.8745C72.1948 24.8425 72.3416 24.813 72.4316 24.7861C73.0002 24.7603 73.4617 24.8874 73.8163 25.1675C74.1699 25.4249 74.4232 25.7325 74.5762 26.0901C74.752 26.4468 74.845 26.7388 74.8554 26.9663C74.9402 27.327 75.0017 27.6775 75.04 28.0176C75.0999 28.3339 75.0927 28.6761 75.0183 29.0441C74.9584 29.2292 74.8447 29.4851 74.6772 29.8117C74.5097 30.1384 74.3087 30.478 74.074 30.8306C73.8611 31.1593 73.6001 31.4333 73.291 31.6525C73.0956 31.8665 72.8325 32.0949 72.5017 32.3379C72.1709 32.5808 71.8169 32.8135 71.4395 33.0357C71.0839 33.2343 70.7376 33.3867 70.4006 33.4932ZM77.5213 33.7162C77.1099 33.6893 76.763 33.5798 76.4808 33.3875C76.2203 33.1715 76.0233 32.85 75.8899 32.423C75.8724 32.0364 75.9018 31.6818 75.9783 31.3593C76.0765 31.0129 76.1524 30.679 76.2062 30.3575C76.2961 29.8292 76.4315 29.2989 76.6124 28.7665C76.7933 28.2341 76.9514 27.7027 77.0868 27.1724C77.2088 26.8478 77.3085 26.5356 77.386 26.2358C77.4636 25.936 77.5411 25.6362 77.6186 25.3364C77.7158 24.9673 77.8134 24.6096 77.9116 24.2633C78.0098 23.917 78.108 23.5706 78.2062 23.2243C78.2837 22.9245 78.338 22.6144 78.369 22.2939C78.4227 21.9724 78.4651 21.6514 78.4961 21.3309C78.7338 21.0466 79.0016 20.9205 79.2993 20.9525C79.6198 20.9835 80.0183 21.2275 80.4949 21.6844C80.6211 21.9521 80.6893 22.1997 80.6996 22.4272C80.709 22.6318 80.6619 22.8505 80.5586 23.0831C80.4769 23.2919 80.3658 23.6046 80.2252 24.0213C80.1074 24.4369 79.9782 24.853 79.8376 25.2696C79.7187 25.6624 79.6299 25.9627 79.5709 26.1705C79.5368 26.4228 79.4304 26.8378 79.2516 27.4157C79.0955 27.9926 78.9291 28.5927 78.7523 29.2161C78.5746 29.8167 78.4485 30.3011 78.374 30.6691C78.2531 31.0164 78.1658 31.3509 78.112 31.6724C78.0583 31.9939 78.0082 32.395 77.9617 32.8757C78.0165 33.0783 77.9901 33.2505 77.8826 33.3921C77.7968 33.5099 77.6764 33.618 77.5213 33.7162ZM87.3665 31.9692C86.9075 32.4003 86.3612 32.6644 85.7275 32.7616C85.1165 32.8578 84.5097 32.7943 83.907 32.571C83.3033 32.325 82.7957 31.9379 82.3842 31.4096C81.9748 30.9269 81.6987 30.3697 81.556 29.738C81.4123 29.0837 81.3621 28.2313 81.4055 27.181C81.4334 26.2909 81.6773 25.391 82.1373 24.4812C82.5962 23.5487 83.1622 22.7139 83.8352 21.9768C84.5309 21.2387 85.225 20.7171 85.9176 20.4121C86.2484 20.1691 86.5281 20.0538 86.7565 20.0662C87.0067 20.0549 87.383 20.0605 87.8854 20.0832C88.4116 20.1277 88.8029 20.2124 89.0593 20.3375C89.3384 20.4615 89.5628 20.6337 89.7323 20.8538C90.089 21.1795 90.3319 21.5103 90.4612 21.8462C90.5894 22.1595 90.6607 22.4753 90.6752 22.7937C90.607 23.2982 90.2938 23.9278 89.7356 24.6824C89.1991 25.4134 88.475 26.0275 87.5632 26.5248C87.0701 26.7067 86.5274 26.7998 85.935 26.8039C85.3426 26.8081 84.8469 26.6825 84.4479 26.4272C84.0075 26.2649 83.7248 26.312 83.5997 26.5684C83.4736 26.802 83.3744 27.3763 83.302 28.2912C83.2504 29.1595 83.3476 29.7933 83.5936 30.1923C83.8387 30.5686 84.1561 30.782 84.5458 30.8327C85.0048 30.9029 85.3604 30.9551 85.6127 30.9892C85.8866 30.9996 86.2117 30.8822 86.588 30.6372C86.9416 30.3932 87.1633 30.2578 87.2532 30.2309C87.3421 30.1812 87.4083 30.1327 87.4517 30.0851C87.5168 30.0138 87.6579 29.8592 87.875 29.6214C88.027 29.455 88.1469 29.3356 88.2348 29.2632C88.3216 29.1681 88.4219 29.1179 88.5356 29.1128C88.6493 29.1076 88.7542 29.1598 88.8504 29.2694C88.9455 29.3562 89.0396 29.4203 89.1326 29.4616C89.36 29.4513 89.4117 29.5857 89.2877 29.8648C89.1864 30.1429 88.9626 30.4835 88.6163 30.8867C88.269 31.2672 87.8524 31.628 87.3665 31.9692ZM87.0033 24.7384C87.2483 24.6133 87.5026 24.4422 87.7662 24.2251C88.0288 23.9852 88.2454 23.7361 88.4159 23.4776C88.6082 23.1954 88.7002 22.9633 88.6919 22.7814C88.6774 22.463 88.5177 22.2082 88.2127 22.0169C87.9067 21.8029 87.4617 21.789 86.8776 21.9751C86.6305 22.0547 86.354 22.2382 86.048 22.5256C85.741 22.7903 85.4469 23.0886 85.1657 23.4204C84.9073 23.7512 84.6928 24.0459 84.5222 24.3043C84.3744 24.5618 84.3243 24.7122 84.3718 24.7556C84.4452 24.8662 84.6427 24.9484 84.9642 25.0021C85.2847 25.0331 85.6377 25.0284 86.0233 24.9881C86.4316 24.9467 86.7583 24.8635 87.0033 24.7384Z" fill="#F5A925"/>
<path d="M20.2885 29.8433C19.6738 30.741 17.1785 31.1062 15.9345 31.0467C15.8809 31.0442 15.8407 31.0959 15.8575 31.1468V31.1468M20.2885 29.8433V29.8433C20.7802 31.6783 20.952 34.2598 19.1039 34.6996C19.0615 34.7097 19.0185 34.7183 18.9749 34.7254C17.3561 34.9885 16.4662 33.0004 15.9545 31.4423L15.8575 31.1468M20.2885 29.8433C20.2256 27.979 20.7709 26.1589 21.0514 25.4819C21.8004 22.6359 22.3732 21.0128 20.1574 18.5413C17.9416 16.0698 13.6544 16.2107 11.6538 18.9302C9.65322 21.6497 10.3832 24.6873 12.6507 26.725C13.4794 27.2943 15.2809 28.9758 15.8575 31.1468M8.31228 16.6966L6.04995 14.757M13.8066 13.572L12.651 10.8787M19.5767 13.8303L21.0443 10.8787M23.8 17.9694L26.5187 16.0498M6.05016 21.6534L2.06447 21.1142" stroke="#F5A925" stroke-width="2.13437" stroke-linecap="round"/>
</svg>
