<svg width="28" height="28" viewBox="0 0 28 28" fill="none" xmlns="http://www.w3.org/2000/svg">
<path fill-rule="evenodd" clip-rule="evenodd" d="M9.01375 9.43009C9.01375 6.76341 11.1645 4.60156 13.8176 4.60156C16.4708 4.60156 18.6215 6.76341 18.6215 9.43009C18.6215 12.0968 16.4708 14.2588 13.8176 14.2588C11.1645 14.2588 9.01375 12.0968 9.01375 9.43009ZM11.8318 9.43016C11.8318 10.5325 12.7209 11.4262 13.8176 11.4262C14.9144 11.4262 15.8035 10.5325 15.8035 9.43016C15.8035 8.32782 14.9144 7.43415 13.8176 7.43415C12.7209 7.43415 11.8318 8.32782 11.8318 9.43016ZM18.6506 16.7435C18.5896 16.7926 17.4371 17.708 15.5139 18.1018L18.4169 20.9937C18.9274 21.506 18.928 22.3373 18.4183 22.8504C17.9086 23.3635 17.0818 23.3643 16.5711 22.8519L13.7528 20.0933L11.193 22.8341C10.9367 23.1013 10.5948 23.2357 10.2526 23.2357C9.92618 23.2357 9.5995 23.1136 9.34603 22.868C8.82672 22.3647 8.81166 21.5335 9.31241 21.0115L12.0679 18.1171C10.0908 17.7326 8.89072 16.7933 8.82892 16.7435C8.26615 16.2899 8.17575 15.4636 8.62707 14.8978C9.07833 14.3322 9.90033 14.2413 10.4632 14.6949C10.4751 14.7046 11.7303 15.6523 13.7527 15.6537C15.7752 15.6523 17.0044 14.7046 17.0162 14.6949C17.5791 14.2413 18.4012 14.3322 18.8524 14.8978C19.3037 15.4636 19.2133 16.2899 18.6506 16.7435Z" fill="#212123"/>
</svg>
