<svg width="66" height="66" viewBox="0 0 66 66" fill="none" xmlns="http://www.w3.org/2000/svg">
<mask id="path-1-inside-1_723_1179" fill="white">
<path fill-rule="evenodd" clip-rule="evenodd" d="M0.00179148 32.6085C0.0017907 50.6176 14.6011 65.217 32.6103 65.217C50.6194 65.217 65.2187 50.6176 65.2187 32.6085C65.2187 14.5993 50.6194 -6.38156e-07 32.6103 -1.42536e-06C14.6011 -2.21257e-06 0.00179227 14.5993 0.00179148 32.6085Z"/>
</mask>
<path d="M31.9543 24.6953L32.6614 23.9882L31.9543 23.2811L31.2472 23.9882L31.9543 24.6953ZM44.0079 35.334L32.6614 23.9882L31.2472 25.4024L42.5937 36.7483L44.0079 35.334ZM31.2472 23.9882L19.9014 35.3341L21.3156 36.7483L32.6614 25.4024L31.2472 23.9882ZM32.6103 63.217C15.7057 63.217 2.00179 49.5131 2.00179 32.6085L-1.99821 32.6085C-1.99821 51.7222 13.4965 67.217 32.6103 67.217L32.6103 63.217ZM63.2187 32.6085C63.2187 49.5131 49.5149 63.217 32.6103 63.217L32.6103 67.217C51.724 67.217 67.2187 51.7222 67.2187 32.6085L63.2187 32.6085ZM32.6103 2C49.5149 2 63.2187 15.7039 63.2187 32.6085L67.2187 32.6085C67.2187 13.4947 51.724 -2 32.6103 -2L32.6103 2ZM2.00179 32.6085C2.00179 15.7039 15.7057 2 32.6103 2L32.6103 -2C13.4965 -2 -1.99821 13.4947 -1.99821 32.6085L2.00179 32.6085Z" fill="#D6D6D6" mask="url(#path-1-inside-1_723_1179)"/>
</svg>
