<svg width="66" height="66" viewBox="0 0 66 66" fill="none" xmlns="http://www.w3.org/2000/svg">
<mask id="path-1-inside-1_755_1269" fill="white">
<path fill-rule="evenodd" clip-rule="evenodd" d="M0.35726 33.0382C0.357259 51.0473 14.9566 65.6466 32.9657 65.6466C50.9749 65.6466 65.5742 51.0473 65.5742 33.0382C65.5742 15.029 50.9749 0.429687 32.9657 0.429686C14.9566 0.429685 0.357261 15.029 0.35726 33.0382Z"/>
</mask>
<path d="M32.0832 25.125L32.7903 24.4179L32.0832 23.7108L31.3761 24.4179L32.0832 25.125ZM44.1368 35.7637L32.7903 24.4179L31.3761 25.8321L42.7226 37.178L44.1368 35.7637ZM31.3761 24.4179L20.0303 35.7637L21.4445 37.178L32.7903 25.8321L31.3761 24.4179ZM32.9657 63.6466C16.0611 63.6466 2.35726 49.9428 2.35726 33.0382L-1.64274 33.0382C-1.64274 52.1519 13.852 67.6466 32.9657 67.6466L32.9657 63.6466ZM63.5742 33.0382C63.5742 49.9428 49.8703 63.6466 32.9657 63.6466L32.9657 67.6466C52.0795 67.6466 67.5742 52.1519 67.5742 33.0382L63.5742 33.0382ZM32.9657 2.42969C49.8703 2.42969 63.5742 16.1336 63.5742 33.0382L67.5742 33.0382C67.5742 13.9244 52.0795 -1.57031 32.9657 -1.57031L32.9657 2.42969ZM2.35726 33.0382C2.35726 16.1336 16.0611 2.42969 32.9657 2.42969L32.9657 -1.57031C13.852 -1.57031 -1.64274 13.9244 -1.64274 33.0382L2.35726 33.0382Z" fill="#F5A925" mask="url(#path-1-inside-1_755_1269)"/>
</svg>
