<svg width="140" height="85" viewBox="0 0 140 85" fill="none" xmlns="http://www.w3.org/2000/svg">
<path d="M28.0421 57.946C27.8211 57.6996 27.6249 57.487 27.4536 57.3083C27.2833 57.1529 27.1591 56.9837 27.0808 56.8007C27.0269 56.64 27.0189 56.4655 27.057 56.2772C27.0591 56.3238 27.0993 56.1821 27.1775 55.8521C27.2568 55.5454 27.3435 55.1452 27.4376 54.6513C27.556 54.1796 27.6401 53.7212 27.6898 53.276L28.1639 50.6317C28.0635 50.473 28.0671 50.298 28.175 50.1066C28.3051 49.8909 28.4468 49.6746 28.6001 49.4578L30.9208 48.9675C31.2888 48.8575 31.6964 48.5942 32.1438 48.1775C32.6143 47.7598 33.0595 47.2965 33.4793 46.7879C33.8991 46.2792 34.2402 45.8324 34.5024 45.4474C35.2447 44.3412 35.8607 43.2757 36.3503 42.251C36.862 41.2019 37.303 40.1327 37.6731 39.0435C38.0653 37.9299 38.4312 36.7476 38.7706 35.4965C39.1322 34.2211 39.534 32.8041 39.9759 31.2453C40.1769 31.0496 40.3127 30.7054 40.3836 30.2126C40.4544 29.7198 40.4845 29.357 40.4739 29.1244C40.2603 29.0409 40.0848 29.0255 39.9473 29.0784C39.8098 29.1313 39.647 29.1387 39.4587 29.1006C39.078 28.9315 38.7977 28.6645 38.618 28.2996C38.4614 27.9337 38.4228 27.5974 38.5021 27.2908C38.6174 27.2622 38.7459 27.268 38.8876 27.3082C39.0282 27.3251 39.2032 27.3288 39.4126 27.3193C39.622 27.3097 39.8652 27.2754 40.1423 27.2161C40.3728 27.159 40.7308 27.0844 41.2162 26.9924C41.7016 26.9004 42.1521 26.8099 42.5677 26.7211C43.0066 26.6312 43.2598 26.5614 43.3275 26.5117C44.3004 26.3741 45.158 26.2652 45.9004 26.1848C46.665 26.08 47.3957 26.0002 48.0926 25.9451C48.7885 25.8668 49.5435 25.8092 50.3578 25.7721C50.7533 25.7541 51.1192 25.854 51.4555 26.0719C51.8151 26.2886 52.0356 26.5234 52.117 26.7761C52.152 27.031 52.0933 27.5349 51.941 28.2879C51.7888 29.0408 51.5847 29.936 51.3289 30.9735C51.073 32.0109 50.7849 33.1081 50.4645 34.265C50.1431 35.3987 49.7973 36.5101 49.4273 37.5994C49.0804 38.6876 48.7511 39.6468 48.4391 40.4769C48.2795 41.067 48.086 41.682 47.8587 42.3218C47.6546 42.9606 47.4399 43.6231 47.2147 44.3094C47.1386 44.6859 47.0397 45.0751 46.9182 45.4769C46.8188 45.8545 46.7099 46.2791 46.5914 46.7507C46.6454 46.9115 46.7205 47.0246 46.8167 47.0902C46.9119 47.1325 47.1096 47.1235 47.41 47.0632C48.0096 46.9193 48.3665 46.8215 48.4807 46.7697C48.6171 46.6935 48.7519 46.5825 48.8852 46.4365C48.9074 46.4122 48.9766 46.3974 49.093 46.3921C49.2326 46.3858 49.35 46.4037 49.4451 46.446C49.9411 46.5867 50.3245 46.814 50.5952 47.1281C50.8649 47.4189 51.004 47.6573 51.0124 47.8435C50.9998 48.5901 50.8507 49.4128 50.5652 50.3117C50.3041 51.2328 49.9721 52.1339 49.5692 53.0148C49.1896 53.8947 48.8295 54.692 48.489 55.4069C48.4097 55.7136 48.3706 55.8786 48.3717 55.9019C48.3971 55.9473 48.3992 55.9939 48.378 56.0414C48.3802 56.088 48.2723 56.2794 48.0545 56.6157C47.9212 56.7616 47.7356 56.7817 47.4977 56.676C47.283 56.5692 47.0657 56.4042 46.8457 56.1811C46.6501 55.9802 46.5152 55.8348 46.4412 55.7449C46.3597 55.4922 46.3476 55.2246 46.4047 54.9423C46.4618 54.6599 46.596 54.2808 46.8075 53.8049C47.2326 52.8996 47.6355 52.0187 48.0161 51.1621C48.3968 50.3055 48.6321 49.5837 48.7219 48.9968L48.4649 48.7287C48.375 48.8028 48.0869 48.8742 47.6004 48.9429C47.1129 48.9884 46.5672 49.0366 45.9634 49.0873C45.3828 49.1371 44.872 49.1836 44.4311 49.227C44.0123 49.2461 43.8029 49.2556 43.8029 49.2556C43.6823 49.1678 43.5755 49.1261 43.4825 49.1303C43.4116 49.1102 43.2382 49.1414 42.9622 49.2239L40.7668 49.3937C40.6039 49.4012 40.4643 49.4075 40.348 49.4128C40.2306 49.3948 40.1032 49.4123 39.9657 49.4652C39.5047 49.5794 39.1462 49.6423 38.8902 49.654C38.6565 49.6413 38.2853 49.6815 37.7767 49.7746C37.7302 49.7767 37.4986 49.8106 37.0819 49.8762C36.6652 49.9417 36.1672 50.011 35.5876 50.084C35.0314 50.156 34.4757 50.2395 33.9205 50.3347C33.3875 50.4056 32.9359 50.4728 32.5658 50.5363C32.2179 50.5754 32.0672 50.5939 32.1137 50.5918C31.5554 50.6172 31.1636 50.7166 30.9383 50.8901C30.7141 51.0868 30.4519 51.2153 30.1516 51.2756C29.9549 52.0772 29.7598 52.9137 29.5663 53.7851C29.3972 54.6787 29.2455 55.4433 29.1112 56.0789C29.0002 56.7134 28.9346 57.0661 28.9145 57.1369C28.8987 57.3008 28.8236 57.4441 28.6893 57.5668C28.5793 57.7117 28.3636 57.8381 28.0421 57.946ZM34.8484 48.4391C35.1741 48.4243 35.6849 48.3777 36.3807 48.2994C37.0998 48.2201 37.8882 48.1259 38.7458 48.017C39.6267 47.9069 40.4611 47.799 41.2489 47.6932C42.059 47.5631 42.7421 47.4621 43.2984 47.3902C43.8546 47.3182 44.1555 47.2696 44.201 47.2442C44.3109 46.5864 44.4351 45.9863 44.5736 45.4438C44.7344 44.8769 44.8967 44.345 45.0606 43.8479C45.2466 43.3266 45.4216 42.8174 45.5855 42.3203C45.6088 42.3193 45.6934 42.1289 45.8393 41.7493C45.9842 41.3463 46.1481 40.8493 46.331 40.2581C46.5361 39.6427 46.7412 39.0272 46.9464 38.4117C47.1504 37.7729 47.3228 37.2056 47.4634 36.7096C47.6273 36.2126 47.7399 35.8694 47.8012 35.6801C48.368 33.7892 48.8316 32.1945 49.1922 30.8958C49.5749 29.5729 49.807 28.5249 49.8884 27.7518C49.4897 27.7 48.9652 27.7006 48.3148 27.7535C47.6866 27.7821 47.0246 27.8355 46.3288 27.9138C45.633 27.9921 44.9852 28.1031 44.3856 28.247C43.8093 28.3898 43.3498 28.5389 43.0072 28.6944L42.4188 30.3648C42.3775 30.4832 42.2575 30.92 42.0587 31.675C41.8832 32.4291 41.6237 33.3851 41.28 34.5431C40.9596 35.7 40.5737 36.9532 40.1222 38.3026C39.6697 39.6287 39.1706 40.957 38.625 42.2874C38.0783 43.5945 37.4798 44.7874 36.8295 45.8661C36.2024 46.9437 35.5421 47.8014 34.8484 48.4391ZM60.8438 49.3894C60.6006 49.1673 60.3536 48.8638 60.103 48.4789C59.8513 48.0707 59.6435 47.6023 59.4795 47.0735C59.4245 46.8895 59.3896 46.6347 59.3748 46.3089C59.3832 45.9822 59.3726 45.7495 59.343 45.611C59.2806 45.777 59.1723 45.9568 59.0179 46.1503C58.8857 46.3195 58.7524 46.4655 58.6181 46.5882C58.5293 46.6855 58.3284 46.8811 58.0154 47.1751C57.7013 47.4458 57.3851 47.6701 57.0668 47.8477C56.3213 48.3712 55.6937 48.6679 55.184 48.7377C54.6975 48.8065 54.2206 48.5717 53.7531 48.0335C53.3671 47.748 53.0842 47.4228 52.9044 47.058C52.7479 46.6921 52.7246 46.1802 52.8346 45.5225C52.844 44.7061 52.9244 43.9098 53.0755 43.1335C53.2257 42.334 53.5619 41.2696 54.0843 39.9403C54.5294 38.9642 54.8699 38.2493 55.1057 37.7956C55.3405 37.3187 55.4906 37.0321 55.5562 36.9358C55.8999 36.8036 56.1912 36.802 56.4302 36.931C56.6682 37.0368 56.8178 37.2515 56.8792 37.5751C57.0293 37.8014 57.0241 38.1979 56.8634 38.7648C56.7259 39.3305 56.4663 40.0301 56.0846 40.8634C55.7949 41.6693 55.5284 42.4741 55.2852 43.2778C55.0653 44.0804 54.9448 44.762 54.9237 45.3225C54.9025 45.883 55.0575 46.214 55.3885 46.3155C55.6032 46.4223 55.9622 46.371 56.4656 46.1616C56.9922 45.9511 57.5643 45.4588 58.1818 44.6847C58.8226 43.9095 59.4227 42.7515 59.9821 41.2106C60.147 40.7369 60.2681 40.3234 60.3453 39.9702C60.4214 39.5937 60.461 39.1839 60.4642 38.7408C60.405 38.4637 60.4055 38.2189 60.4657 38.0063C60.5482 37.7695 60.7253 37.5632 60.9971 37.3877C61.0849 37.2671 61.2081 37.1566 61.3667 37.0561C61.5243 36.9324 61.629 36.9276 61.6808 37.0418L62.2376 36.9815C62.3296 36.954 62.3904 37.0095 62.42 37.1481C62.4718 37.2623 62.558 37.3633 62.6786 37.451C62.944 37.6488 63.0344 38.0993 62.9499 38.8025C62.8653 39.5058 62.5841 40.4977 62.1061 41.7784C61.7075 42.7524 61.4379 43.4874 61.2972 43.9834C61.1799 44.4783 61.1201 44.9589 61.1181 45.4253C61.1371 45.8441 61.2365 46.2359 61.4163 46.6007C61.5961 46.9655 61.8674 47.2912 62.2301 47.5778C62.4935 47.729 62.6415 47.9088 62.6743 48.1171C62.7304 48.3244 62.7531 48.5682 62.7426 48.8484C62.7056 49.0599 62.5739 49.2407 62.3476 49.3909C62.1435 49.5168 61.9019 49.5861 61.6227 49.5988C61.3435 49.6115 61.0839 49.5417 60.8438 49.3894ZM61.4306 59.8887C60.9187 59.912 60.4259 59.8412 59.9522 59.6762C59.4551 59.5123 58.9877 59.2305 58.5499 58.8308C58.3172 58.3285 58.1506 57.998 58.0501 57.8394C57.9275 57.7051 57.7085 57.5053 57.3934 57.2398C57.3881 57.1235 57.4246 56.9004 57.5028 56.5704C57.5821 56.2637 57.7095 55.9898 57.8851 55.7487C58.3472 55.1449 58.9166 54.5944 59.5934 54.0973C60.2712 53.6235 61.0681 53.2026 61.9838 52.8345C62.0981 52.7827 62.2117 52.7193 62.3249 52.6442C62.4624 52.5913 62.5893 52.5622 62.7056 52.5569C62.8219 52.5516 62.8885 52.4786 62.9054 52.338C62.9456 52.1963 63.0498 52.1799 63.2179 52.2888C63.3321 52.237 63.4226 52.1746 63.4892 52.1016C63.5558 52.0286 63.6716 52.0117 63.8366 52.0508C63.8366 52.0508 63.9629 52.0101 64.2157 51.9287C64.4917 51.8462 64.8015 51.7388 65.1452 51.6066C65.49 51.4977 65.7882 51.3909 66.0399 51.2861C66.3159 51.2036 66.4539 51.1624 66.4539 51.1624C66.4718 50.5321 66.4538 49.8802 66.3999 49.2065C66.3692 48.5318 66.1603 48.0401 65.7732 47.7313C65.5289 47.486 65.3295 47.2037 65.1751 46.8843C65.044 46.5639 64.8769 46.2218 64.6738 45.858C64.7108 45.6465 64.7843 45.4683 64.8943 45.3234C65.0043 45.1785 65.1618 45.0548 65.367 44.9522C65.7995 44.7227 66.3198 44.3726 66.9278 43.902C67.5581 43.4071 68.1963 42.8302 68.8424 42.1713C69.4885 41.5124 70.051 40.8107 70.5301 40.0662C70.8346 39.5861 70.9308 39.1388 70.8187 38.7242C70.7298 38.3086 70.3111 38.0712 69.5623 38.0121C69.097 38.0332 68.581 38.2199 68.0142 38.5721C67.4463 38.901 66.8604 39.3473 66.2566 39.911C65.8907 40.0675 65.6216 40.0448 65.4492 39.8428C65.2758 39.6176 65.1362 39.3675 65.0304 39.0925C65.0653 38.8345 65.1483 38.6092 65.2794 38.4168C65.4095 38.201 65.5517 37.9964 65.7061 37.8029C65.8838 37.6083 66.0376 37.4031 66.1677 37.1874C66.3496 37.0858 66.5082 36.9854 66.6435 36.886C66.7778 36.7633 66.9243 36.6517 67.0829 36.5512C67.2183 36.4518 67.3547 36.3757 67.4922 36.3228C67.6518 36.2456 67.8131 36.2033 67.976 36.1959C68.1156 36.1895 68.2541 36.1599 68.3916 36.107C68.528 36.0309 68.6776 35.9891 68.8405 35.9817C69.9361 35.9784 70.8159 36.358 71.4801 37.1205C72.1442 37.8829 72.4589 38.6496 72.424 39.4205C72.4124 40.1904 72.0625 41.2088 71.3741 42.4757C71.1806 42.8342 70.8485 43.2224 70.3779 43.6401C69.9306 44.0568 69.4479 44.4634 68.9297 44.86C68.4348 45.2556 67.996 45.6019 67.6132 45.8991C67.2293 46.173 67.0041 46.3465 66.9375 46.4194C67.1585 46.6658 67.3991 47.0862 67.6593 47.6805C67.9184 48.2515 68.1315 48.8363 68.2986 49.4349C68.4901 50.0556 68.5356 50.5431 68.4351 50.8974C68.6699 50.9333 68.9596 50.8968 69.3044 50.7879C69.6735 50.7012 69.9627 50.653 70.1721 50.6435C70.391 50.8434 70.6094 51.0316 70.8272 51.2082C71.0451 51.3848 71.1588 51.5778 71.1683 51.7872C71.2212 51.9246 71.1921 52.0542 71.0811 52.1758C70.9933 52.2964 70.8918 52.3709 70.7765 52.3995C70.4762 52.4598 70.0928 52.4889 69.6265 52.4868C69.1601 52.4847 68.7102 52.5868 68.2766 52.793C67.9731 53.2964 67.7183 53.8442 67.5121 54.4364C67.307 55.0519 67.0326 55.6822 66.6889 56.3273C66.3463 56.9957 65.7948 57.6852 65.0345 58.3959C64.7659 58.6412 64.4846 58.8638 64.1907 59.0637C63.8977 59.2869 63.6582 59.4027 63.4721 59.4112C63.1051 59.5444 62.7488 59.6539 62.403 59.7396C62.0804 59.8242 61.7563 59.8739 61.4306 59.8887ZM59.849 58.1772C59.8511 58.2237 60.0261 58.2274 60.374 58.1883C60.6998 58.1735 61.0926 58.0973 61.5526 57.9598C62.037 57.8445 62.4605 57.6737 62.8232 57.4474C63.2758 57.147 63.656 56.7917 63.9637 56.3814C64.2725 55.9943 64.568 55.5729 64.8504 55.1171C64.9582 54.9256 65.065 54.711 65.1707 54.473C65.2775 54.2583 65.3605 54.0331 65.4198 53.7972C65.2484 53.6185 64.9814 53.6423 64.6187 53.8687C64.256 54.095 63.8229 54.3129 63.3196 54.5223C62.7929 54.7327 62.1542 55.0416 61.4034 55.4487C60.6769 55.8781 60.1265 56.3345 59.7522 56.8178C59.6432 56.9859 59.5222 57.143 59.3889 57.2889C59.2557 57.4349 59.1103 57.5697 58.9527 57.6934C59.0765 57.851 59.2102 57.9731 59.3541 58.0599C59.4979 58.1466 59.6629 58.1857 59.849 58.1772ZM75.7915 47.765C75.6075 47.82 75.3643 47.8544 75.0618 47.8682C74.7583 47.8587 74.4892 47.836 74.2544 47.8C74.0418 47.7398 73.934 47.6747 73.9308 47.6049C73.9255 47.4886 73.8647 47.4331 73.7484 47.4384C73.7484 47.4384 73.6881 47.3945 73.5675 47.3067C73.4702 47.2179 73.3148 47.1317 73.1011 47.0482C72.8769 46.732 72.7564 46.3878 72.7394 46.0155C72.7214 45.62 72.7981 44.9987 72.9693 44.1517C73.0127 43.5669 73.203 42.8821 73.5403 42.0974C73.8998 41.2884 74.3402 40.464 74.8615 39.6243C75.3829 38.7847 75.9311 38.0253 76.5064 37.3464C77.1049 36.6664 77.6532 36.1635 78.1513 35.8378C78.4622 35.4972 78.8498 35.3047 79.314 35.2603C79.7782 35.2159 80.225 35.3004 80.6544 35.514C80.8924 35.6198 81.1335 35.7953 81.3778 36.0406C81.6221 36.286 81.8558 36.5551 82.0789 36.848C82.3021 37.1409 82.4903 37.4355 82.6437 37.7316C82.7251 37.9843 82.7706 38.2154 82.7802 38.4247C82.8119 38.6098 82.8225 38.8425 82.8119 39.1227C82.8246 39.4019 82.8088 39.8222 82.7644 40.3838C82.6671 40.8079 82.5857 41.3245 82.5202 41.9336C82.4779 42.5417 82.4668 43.0667 82.4869 43.5088C82.4605 43.9529 82.5213 44.2649 82.6694 44.4446C82.8407 44.6234 83.0739 44.6244 83.369 44.4478C83.6418 44.2955 83.9067 44.2252 84.1637 44.2368C84.4196 44.2251 84.6205 44.2859 84.7665 44.4192C84.9357 44.5513 85.0266 44.757 85.0393 45.0362C85.052 45.3154 84.9257 45.6126 84.6602 45.9277C84.417 46.2185 84.1024 46.4777 83.7165 46.705C83.3527 46.9081 82.9963 47.0176 82.6473 47.0334C82.3914 47.0451 82.1402 46.905 81.8938 46.6131C81.6464 46.298 81.4195 45.9236 81.2133 45.4901C81.0292 45.0322 80.8579 44.597 80.6992 44.1846L80.4533 43.3915L79.0178 44.8906C78.7302 45.23 78.4415 45.5463 78.1518 45.8392C77.8842 46.1078 77.7182 46.3019 77.6537 46.4214C77.5469 46.6361 77.3354 46.8555 77.0192 47.0797C76.7263 47.3029 76.3171 47.5313 75.7915 47.765ZM75.8025 45.7013C76.1874 45.4507 76.6257 45.0927 77.1175 44.6273C77.6081 44.1387 78.0856 43.6158 78.5498 43.0584C79.013 42.4778 79.3968 41.9475 79.7013 41.4674C80.0725 40.9143 80.3522 40.4003 80.5404 39.9255C80.7286 39.4506 80.8597 39.0017 80.9337 38.5787C80.829 38.327 80.6656 38.0664 80.4435 37.7967C80.2204 37.5038 80.0269 37.3494 79.8629 37.3335C79.3511 37.3568 78.8192 37.7074 78.2672 38.3853C77.7374 39.0389 77.2219 39.7501 76.7207 40.5189C76.6329 40.6395 76.5134 40.8314 76.3622 41.0947C76.211 41.3581 76.0593 41.6098 75.907 41.8498C75.7769 42.0656 75.6902 42.2094 75.6469 42.2813C75.5813 42.3776 75.4539 42.6515 75.2646 43.103C75.0976 43.5303 74.931 43.9691 74.765 44.4197C74.5979 44.8469 74.5176 45.1303 74.5239 45.2699C74.5303 45.4095 74.5488 45.5602 74.5795 45.722C74.6334 45.8827 74.7545 45.9821 74.9428 46.0202C75.131 46.0583 75.4176 45.952 75.8025 45.7013ZM94.1686 47.873C94.01 47.9735 93.7873 47.9487 93.5007 47.7985C93.2374 47.6473 92.9704 47.4147 92.6996 47.1006C92.5241 46.8288 92.394 46.5317 92.3094 46.2091C92.248 45.8855 92.2041 45.4329 92.1777 44.8513C92.1797 44.3849 92.1427 44.0835 92.0666 43.9471C92.0137 43.8096 91.8868 43.8387 91.6859 44.0344C91.4839 44.2068 91.1386 44.5605 90.6501 45.0956C90.0949 45.7037 89.5572 46.1828 89.0369 46.5329C88.5399 46.8819 88.128 47.0522 87.8012 47.0437C87.6384 47.0511 87.4486 46.9782 87.2318 46.8248C87.0372 46.6472 86.8526 46.4341 86.6781 46.1856C86.5026 45.9138 86.3503 45.641 86.2212 45.3671C86.0584 44.8616 86.0054 44.2113 86.0625 43.416C86.1418 42.5964 86.2893 41.7388 86.505 40.843C86.7206 39.9473 86.9734 39.0965 87.2631 38.2907C87.5761 37.4838 87.8959 36.8281 88.2227 36.3237C88.5727 35.8182 88.8873 35.5591 89.1665 35.5464C89.3526 35.5379 89.5197 35.6235 89.6677 35.8033C89.8391 35.982 90.0152 36.2654 90.196 36.6535C90.2965 36.8121 90.3377 36.9502 90.3198 37.0675C90.325 37.1839 90.2383 37.3277 90.0596 37.499C89.8629 37.7877 89.6377 38.2176 89.3839 38.7887C89.1534 39.3587 88.925 39.9752 88.6988 40.6383C88.4957 41.3003 88.3149 41.938 88.1563 42.5514C87.9978 43.1647 87.8926 43.6708 87.8408 44.0695C87.7879 44.4449 87.808 44.6305 87.9011 44.6262C88.2268 44.6114 88.6048 44.466 89.0352 44.19C89.4878 43.8896 89.9145 43.5321 90.3153 43.1176C90.7816 42.6068 91.1877 42.0521 91.5335 41.4535C91.9025 40.8539 92.27 40.2194 92.6358 39.5499C92.9171 39.0709 93.2079 38.5447 93.5082 37.9716C93.8318 37.3973 94.0348 36.9917 94.1173 36.7549C94.4155 36.1351 94.6412 35.7169 94.7946 35.5001C94.9468 35.26 95.1377 35.0998 95.3672 35.0194C95.4835 35.0141 95.5882 35.0094 95.6813 35.0051C95.7976 34.9998 95.8557 34.9972 95.8557 34.9972C95.9964 35.0141 96.164 35.1114 96.3586 35.289C96.549 35.3736 96.6579 35.4619 96.6854 35.5539C96.7118 35.6227 96.7277 35.7152 96.733 35.8315C96.6505 36.0684 96.5152 36.4243 96.327 36.8991C96.1609 37.3496 96.0362 37.6817 95.9526 37.8953C95.5561 38.9158 95.1591 39.9247 94.7615 40.922C94.3861 41.8949 94.1281 42.8858 93.9875 43.8947C93.9558 44.2225 93.9617 44.6069 94.0051 45.0479C94.0706 45.4645 94.1542 45.7638 94.2557 45.9457C94.3319 46.0821 94.4207 46.2413 94.5222 46.4232C94.646 46.5807 94.7803 46.7145 94.9252 46.8245C95.1409 46.9545 95.1827 47.1042 95.0505 47.2734C94.9416 47.4415 94.7851 47.5885 94.581 47.7144C94.3758 47.817 94.2384 47.8699 94.1686 47.873ZM93.0559 33.411C92.3389 33.5369 91.7245 33.3551 91.2126 32.8655C90.7008 32.3759 90.2941 31.6367 89.9927 30.6479C89.9377 30.4639 89.907 30.3021 89.9006 30.1625C89.9165 29.9986 89.9567 29.8569 90.0212 29.7374C90.0635 29.6422 90.1534 29.5682 90.2908 29.5153C90.4273 29.4392 90.5431 29.4222 90.6382 29.4645C90.9692 29.566 91.2088 29.7067 91.3568 29.8864C91.5271 30.0419 91.6413 30.2465 91.6995 30.5003C91.7513 30.6145 91.7799 30.7298 91.7852 30.8461C91.8137 30.9614 91.8275 31.0074 91.8264 30.9841C91.9597 31.3511 92.1226 31.6001 92.315 31.7312C92.5075 31.8623 92.7862 31.838 93.151 31.6582C93.5391 31.4774 93.9145 31.2738 94.2772 31.0474C94.6632 30.8201 95.0005 30.5483 95.2892 30.2321C95.5335 29.9645 95.7672 29.7207 95.9903 29.5007C96.2367 29.2797 96.4709 29.0476 96.693 28.8043L96.7263 28.7679C96.8162 28.6938 96.9315 28.6653 97.0721 28.6822C97.2128 28.6991 97.2958 28.7303 97.3212 28.7758C97.4914 28.9312 97.5803 29.0904 97.5877 29.2532C97.5951 29.4161 97.603 29.5906 97.6115 29.7767L97.5798 29.8481C97.6327 29.9855 97.5285 30.2584 97.2673 30.6666C97.0294 31.0737 96.7307 31.4254 96.3711 31.7215C96.0571 31.9922 95.7187 32.2408 95.3559 32.4671C94.9932 32.6934 94.6183 32.9087 94.2313 33.1128C94.0727 33.2132 93.9008 33.2793 93.7158 33.3111C93.5529 33.3185 93.333 33.3518 93.0559 33.411ZM109.172 34.8459C109.489 34.6449 109.824 34.5714 110.176 34.6253C110.527 34.656 110.802 34.795 111 35.0425C111.22 35.2656 111.268 35.5664 111.146 35.945C111.186 35.8033 111.132 35.899 110.984 36.2322C110.858 36.541 110.69 36.9449 110.479 37.4441C110.292 37.9422 110.116 38.4165 109.95 38.867C109.806 39.2932 109.712 39.5422 109.669 39.6142L109.674 39.7189C110.046 39.7019 110.272 39.8082 110.353 40.0377C110.455 40.2428 110.501 40.4855 110.491 40.7658C110.214 40.825 110.02 40.9154 109.909 41.037C109.796 41.1354 109.648 41.2004 109.463 41.2322C109.393 41.2353 109.313 41.2739 109.223 41.348C109.133 41.422 109.079 41.5061 109.06 41.6002C109.04 41.6711 108.983 41.9534 108.889 42.4473C108.817 42.9168 108.724 43.4339 108.61 43.9987C108.518 44.5391 108.431 44.951 108.351 45.2344C108.313 45.4226 108.227 45.5781 108.092 45.7008C107.957 45.8002 107.867 45.8626 107.821 45.888C107.347 45.723 107.028 45.621 106.863 45.5818C106.72 45.5184 106.577 45.4317 106.432 45.3217C106.402 45.1832 106.395 45.0203 106.409 44.8332C106.423 44.6227 106.47 44.3758 106.551 44.0924C106.651 43.7381 106.729 43.4081 106.785 43.1025C106.864 42.7726 106.936 42.3147 107.003 41.7288C106.907 41.6865 106.71 41.6955 106.409 41.7558C106.131 41.7918 105.83 41.8404 105.507 41.9018C105.183 41.9631 104.906 42.0224 104.675 42.0795C104.468 42.1355 104.376 42.1514 104.398 42.1271C104.284 42.1789 104.064 42.2238 103.74 42.2619C103.437 42.2757 103.123 42.2784 102.796 42.2699C102.491 42.2371 102.268 42.2007 102.126 42.1605L101.922 42.2747C101.909 42.5084 101.82 42.8622 101.655 43.3359C101.489 43.7865 101.415 44.2095 101.433 44.605C101.424 44.9085 101.391 45.213 101.335 45.5187C101.279 45.8243 101.247 46.1405 101.238 46.4673C101.238 46.9802 101.113 47.3006 100.862 47.4286C100.635 47.5555 100.271 47.4905 99.7694 47.2335C99.6499 47.169 99.5299 47.0929 99.4093 47.0051C99.312 46.9163 99.2025 46.8163 99.0809 46.7053L99.517 43.9928C99.5953 43.6628 99.6629 43.3567 99.72 43.0743C99.7761 42.7687 99.8442 42.4742 99.9246 42.1907C100.087 41.6704 100.238 41.139 100.377 40.5965C100.538 40.0529 100.725 39.5432 100.936 39.0673C100.936 39.0673 100.966 38.9494 101.025 38.7136C101.107 38.4534 101.199 38.1695 101.301 37.8617C101.403 37.5307 101.484 37.2706 101.546 37.0813C101.607 36.892 101.617 36.8566 101.576 36.975C101.639 36.8322 101.732 36.5599 101.853 36.1581C101.974 35.7329 102.084 35.3316 102.183 34.9541C102.305 34.5522 102.365 34.3396 102.364 34.3164C102.404 34.1747 102.47 34.0784 102.561 34.0277C102.65 33.9536 102.765 33.9134 102.905 33.9071C103.299 33.8658 103.629 33.9441 103.895 34.1418C104.159 34.3163 104.309 34.5426 104.345 34.8207C104.328 34.9614 104.322 35.0898 104.328 35.2062C104.333 35.3225 104.314 35.4166 104.271 35.4885L102.658 40.0031L102.67 40.2823C102.909 40.4113 103.248 40.4192 103.686 40.3061C104.146 40.1686 104.492 40.0945 104.725 40.0839C104.84 40.0554 105.106 40.0199 105.524 39.9776C105.965 39.9342 106.383 39.9036 106.779 39.8856C107.198 39.8665 107.419 39.8681 107.443 39.8903C107.668 39.1807 107.871 38.5187 108.052 37.9042C108.233 37.2666 108.495 36.6135 108.838 35.9452C108.859 35.8976 108.898 35.7442 108.957 35.4851C109.038 35.225 109.11 35.0119 109.172 34.8459Z" fill="#F5A925"/>
<path d="M79.2254 73.101C95.379 63.2742 113.943 55.2546 128.233 42.7285C136.226 35.7223 142.382 27.9885 134.605 18.2963C123.754 4.7732 105.412 1.625 89.142 1.625C63.8849 1.625 44.2672 11.4064 24.7561 27.0153C11.0721 37.9625 -3.57922 51.2385 2.52764 70.3224C5.40731 79.3214 18.3052 82.5202 26.5286 83.3529C40.8286 84.801 55.077 79.5083 68.0154 73.9633" stroke="#F5A925" stroke-width="2" stroke-linecap="round"/>
</svg>
