<svg width="139" height="88" viewBox="0 0 139 88" fill="none" xmlns="http://www.w3.org/2000/svg">
<path d="M62.4735 78.6912C28.8342 80.1888 39.9665 80.0874 26.9294 80.2931C19.1703 80.4155 11.3053 80.1913 6.84805 73.839V73.839C-1.08577 62.5321 1.73357 46.0787 3.40743 32.3677C4.20694 25.8188 6.09126 20.7449 14.1539 17.837C37.913 9.26804 96.6822 -0.773926 120.332 7.28968C134.198 12.0176 131.213 28.3396 134.21 47.6607C135.425 55.4995 137.837 63.2433 130.401 66.0053V66.0053C115.978 71.3624 98.2757 73.4693 83.0005 75.31C76.9318 76.0413 70.8636 76.4135 64.5781 76.0438" stroke="#F5A925" stroke-width="2" stroke-linecap="round"/>
<path d="M25.4667 49.4762C25.2513 49.6226 24.9874 49.6697 24.675 49.6175C24.3625 49.5654 24.0623 49.4294 23.7744 49.2095C23.5126 49.0096 23.3517 48.7727 23.2915 48.4988C23.336 48.3049 23.4197 48.1409 23.5428 48.0069C23.6889 47.8699 23.8774 47.7859 24.1082 47.755C24.2005 47.7426 24.2782 47.7087 24.3413 47.6532C24.4243 47.5716 24.4959 47.4915 24.5558 47.413C24.6988 47.2529 24.8488 47.0565 25.0056 46.824C25.1855 46.5885 25.3539 46.3544 25.5107 46.1219C25.6906 45.8863 25.8405 45.69 25.9605 45.533C26.0773 45.3528 26.1458 45.2497 26.1657 45.2235C26.5394 44.68 26.8584 44.1673 27.1228 43.6854C27.4103 43.2004 27.77 42.5531 28.2019 41.7433C28.4094 41.363 28.5923 40.9743 28.7506 40.5771C28.9088 40.18 29.0671 39.7828 29.2253 39.3856C29.3498 39.087 29.4627 38.7899 29.5641 38.4943C29.6655 38.1988 29.8423 37.9401 30.0946 37.7183C30.1189 37.1981 30.1494 36.9003 30.1863 36.8249C30.2463 36.7463 30.3593 36.6255 30.5254 36.4622L30.3845 36.1991C30.6472 35.5295 30.8193 35.06 30.9006 34.7906C31.002 34.4951 31.0665 34.2749 31.0941 34.1303C31.1217 33.9856 31.1678 33.8032 31.2323 33.583C31.2937 33.3398 31.4142 32.9242 31.5939 32.3362C31.6322 32.0961 31.7091 31.9683 31.8245 31.9529C31.9599 31.9112 32.0153 31.7981 31.9905 31.6134C31.9658 31.4287 32.0202 31.0455 32.1537 30.4637C32.3103 29.8787 32.4938 29.2315 32.7041 28.5219C32.9376 27.8091 33.1357 27.1834 33.2985 26.6447C33.0677 26.6756 32.7853 26.7604 32.4515 26.8991C32.1376 27.0117 31.7138 27.2682 31.18 27.6687C30.5539 28.0816 30.0801 28.4035 29.7586 28.6346C29.434 28.8425 29.1478 28.9866 28.9001 29.0668C28.6493 29.1239 28.3199 29.1211 27.912 29.0582C27.6517 28.6937 27.5152 28.289 27.5026 27.8442C27.51 27.3733 27.7107 27.0292 28.1045 26.8119C28.1707 26.7796 28.4007 26.6548 28.7945 26.4375C29.1883 26.2202 29.6268 25.9853 30.1099 25.7326C30.593 25.4798 30.9999 25.2726 31.3307 25.1108C31.6815 24.9228 31.8353 24.8434 31.7922 24.8727C32.3046 24.6631 32.8154 24.4419 33.3246 24.2092C33.8339 23.9764 34.3401 23.7206 34.8431 23.4418C34.8893 23.4356 35.0493 23.4024 35.3232 23.3422C35.6202 23.2789 35.9388 23.201 36.2788 23.1084C36.642 23.0128 36.9589 22.9233 37.2297 22.84C37.5236 22.7536 37.7021 22.6827 37.7652 22.6273C38.2237 22.5423 38.7047 22.5366 39.208 22.6102C39.7344 22.6806 40.0199 22.7951 40.0647 22.9536C40.1356 23.1321 40.2565 23.2451 40.4273 23.2927C40.5951 23.3172 40.726 23.4172 40.82 23.5926L41.5082 23.9938C41.5543 23.9876 41.6237 24.1545 41.7162 24.4946C41.8288 24.8085 41.9121 25.0793 41.9661 25.307C42.0463 25.5548 42.0789 25.9733 42.0639 26.5628C42.0688 27.1261 42.0323 27.7302 41.9542 28.375C41.8961 28.9938 41.8272 29.5317 41.7475 29.9888C41.6909 30.4429 41.6394 30.673 41.5933 30.6792C41.5873 30.9854 41.5614 31.3179 41.5154 31.6765C41.4695 32.0351 41.4451 32.3791 41.4422 32.7084C41.4453 32.7315 41.4224 32.9108 41.3733 33.2464C41.3474 33.5788 41.3045 33.9605 41.2448 34.3915C41.1851 34.8224 41.1291 35.1941 41.077 35.5066C41.0249 35.819 41.0104 35.9737 41.0334 35.9706C41.0277 36.6293 40.9636 37.3781 40.841 38.2169C40.7184 39.0558 40.5643 39.9223 40.3787 40.8166C40.1899 41.6878 40.0081 42.5228 39.8332 43.3217C39.6782 44.0944 39.5686 44.767 39.5044 45.3395C39.3906 45.5427 39.3261 45.7629 39.3109 45.9999C39.2956 46.2369 39.2081 46.4601 39.0481 46.6695C38.8851 46.8558 38.6944 47.0106 38.4759 47.1339C38.2805 47.2541 38.0843 47.2803 37.8873 47.2128C37.6441 47.1514 37.4309 47.0507 37.2477 46.9108C37.0875 46.7677 36.9558 46.5739 36.8525 46.3293C36.8894 46.2538 36.9677 45.9614 37.0874 45.4519C37.2071 44.9424 37.3391 44.349 37.4833 43.6718C37.6506 42.9914 37.7911 42.3734 37.9046 41.8178C38.0381 41.2359 38.1171 40.8611 38.1416 40.6934C38.1661 40.5256 38.1921 40.1932 38.2195 39.6961C38.2699 39.1958 38.3289 38.671 38.3962 38.1215C38.4836 37.5459 38.5879 37.0972 38.7093 36.7755C38.7369 36.6308 38.7529 36.3114 38.7572 35.8174C38.7584 35.3003 38.8011 34.7424 38.8853 34.1437C38.913 33.999 38.9451 33.7127 38.9817 33.2848C39.0153 32.8339 39.052 32.406 39.0917 32.0012C39.1515 31.5703 39.1898 31.3302 39.2067 31.2809L39.477 28.0373C39.5353 27.771 39.5589 27.3332 39.5477 26.7237C39.5565 26.0881 39.5384 25.5148 39.4935 25.0039C39.4642 24.9608 39.4234 24.9193 39.3711 24.8793C39.3387 24.8132 39.3509 24.7293 39.4078 24.6277C39.0385 24.6772 38.6607 24.7513 38.2745 24.85C37.9083 24.9226 37.532 25.0083 37.1458 25.107C36.7596 25.2058 36.3534 25.3307 35.9272 25.4818C35.564 25.5774 35.371 25.803 35.3482 26.1585C35.3636 26.274 35.3184 26.5502 35.2125 26.9874C35.1035 27.4014 34.9691 27.8894 34.8095 28.4512C34.6698 28.9869 34.5285 29.511 34.3857 30.0236C34.2398 30.5131 34.1246 30.881 34.0401 31.1273C33.8143 31.7215 33.6131 32.3241 33.4365 32.9352C33.2568 33.5233 33.0787 34.1228 32.9021 34.7339C32.8362 35.1187 32.6965 35.6544 32.483 36.3409C32.2664 37.0044 32.0214 37.7186 31.748 38.4837C31.4745 39.2487 31.188 40.0038 30.8883 40.7489C30.6087 41.4678 30.3498 42.0781 30.1116 42.58C29.8334 43.1342 29.5705 43.6277 29.323 44.0603C29.0955 44.4667 28.858 44.8863 28.6105 45.3189C28.3599 45.7284 28.0509 46.228 27.6835 46.8177C27.436 47.2503 27.0808 47.7561 26.6179 48.3351C26.1551 48.914 25.7713 49.2944 25.4667 49.4762ZM47.3322 44.7136C47.0321 44.7538 46.782 44.7286 46.5818 44.6379C46.4048 44.5441 46.1754 44.4104 45.8936 44.2367C45.3932 43.8338 45.0228 43.437 44.7825 43.0462C44.5391 42.6324 44.4257 42.2246 44.4423 41.8229C44.4868 41.629 44.4867 41.4528 44.442 41.2943C44.4173 41.1096 44.4049 41.0173 44.4049 41.0173C44.274 40.9173 44.2301 40.8527 44.2732 40.8234C44.3132 40.7711 44.35 40.6957 44.3838 40.5971C44.5223 40.5786 44.5515 40.4454 44.4713 40.1977C44.4004 40.0192 44.4386 39.6029 44.5859 38.9487C44.7332 38.2946 44.9429 37.6673 45.2149 37.0669C45.3225 36.8175 45.49 36.4896 45.7175 36.0832C45.942 35.6536 46.191 35.2325 46.4647 34.8199C46.7583 34.3811 47.0282 34.0277 47.2743 33.7598C47.7864 33.1977 48.2463 32.7719 48.6539 32.4823C49.0616 32.1927 49.5116 31.9562 50.0039 31.7727C50.4963 31.5892 50.8348 31.4851 51.0195 31.4604C51.2272 31.4326 51.529 31.5801 51.9247 31.903C52.4865 32.0627 52.9045 32.2887 53.1787 32.5809C53.4759 32.8701 53.7009 33.3216 53.8536 33.9356C54.0157 34.6188 54.0647 35.4229 54.0006 36.3479C53.9566 37.2467 53.561 38.4158 52.814 39.8553C52.3483 40.7636 51.9009 41.458 51.4718 41.9384C51.0396 42.3958 50.5152 42.8655 49.8983 43.3476C49.4569 43.7357 49.0508 44.0369 48.68 44.251C48.3062 44.4421 47.8569 44.5963 47.3322 44.7136ZM50.1643 40.598C50.6348 39.9005 50.9945 39.2532 51.2435 38.6559C51.5155 38.0555 51.7443 37.3081 51.9299 36.4139C51.9882 36.1476 52.0042 35.8282 51.9778 35.4558C51.9483 35.0603 51.8888 34.7041 51.7993 34.3871C51.7299 34.0439 51.6228 33.8585 51.4781 33.8309C51.1795 33.7065 50.8386 33.7052 50.4554 33.827C50.0692 33.9257 49.6716 34.2022 49.2625 34.6565C48.6273 35.3525 48.1046 36.1863 47.6943 37.1576C47.2809 38.1059 46.8961 39.1796 46.5398 40.3787C46.3049 41.2561 46.3138 41.9364 46.5666 42.4194C46.8393 42.8764 47.2895 42.9923 47.9173 42.7672C48.565 42.5159 49.314 41.7928 50.1643 40.598ZM58.8349 43.4895C58.7687 43.5219 58.6025 43.5089 58.3362 43.4506C58.0669 43.3692 57.7713 43.2678 57.4496 43.1465C57.1478 42.9989 56.9054 42.8552 56.7221 42.7152C56.5065 42.5092 56.3025 42.3015 56.11 42.0923C55.9374 41.857 55.8295 41.5777 55.7862 41.2546C55.5783 40.93 55.438 40.5846 55.3654 40.2183C55.3128 39.8259 55.2503 39.4466 55.1777 39.0803C55.0773 38.5064 55.1254 37.9007 55.3219 37.2635C55.5154 36.6031 55.6729 36.1121 55.7942 35.7903C55.8663 35.4517 56.0415 35.0053 56.3197 34.4511C56.6179 33.8707 56.9984 33.291 57.4613 32.712C57.9242 32.133 58.4256 31.6664 58.9655 31.3121C59.3101 31.0779 59.6593 30.8784 60.0132 30.7135C60.387 30.5224 60.8403 30.4852 61.3728 30.6018C61.636 30.637 61.8331 30.7046 61.9639 30.8046C62.0948 30.9045 62.2372 31.0029 62.3912 31.0998C62.5573 30.9366 62.6625 30.5817 62.7068 30.0354C62.771 29.4628 62.7683 28.8287 62.6986 28.1332C62.6489 27.4114 62.523 26.7351 62.321 26.1042C62.139 25.4472 61.8716 24.9426 61.519 24.5904C60.8629 23.9029 60.1847 23.4885 59.4844 23.3474C58.7841 23.2063 58.0316 23.3776 57.227 23.8614C56.9345 23.7831 56.6513 23.5978 56.3771 23.3056C56.1261 23.0102 56.0251 22.6948 56.0741 22.3593C56.2371 22.1729 56.4463 21.9804 56.7016 21.7817C56.957 21.583 57.2201 21.4421 57.4909 21.3588C57.8047 21.2462 58.1217 21.1568 58.4418 21.0904C58.7849 21.0209 59.1551 21.0653 59.5523 21.2235C60.8052 21.4551 61.7796 21.8885 62.4757 22.5236C63.1917 23.1326 63.7316 23.9179 64.0955 24.8796C64.4593 25.8412 64.7509 26.9653 64.9703 28.2517C65.0659 28.6149 65.1223 28.948 65.1394 29.2512C65.1765 29.5282 65.2053 30.006 65.2258 30.6847C65.0352 31.0157 64.9908 31.3859 65.0926 31.7952C65.2144 32.1783 65.2178 32.5539 65.1026 32.9218C65.1321 33.3173 65.083 33.6528 64.9555 33.9284C64.8279 34.2039 64.7796 34.4571 64.8105 34.6879C64.5497 35.8978 64.1357 37.1046 63.5686 38.3085C63.0246 39.5093 62.3566 40.5739 61.5646 41.5024C60.7726 42.431 59.8627 43.0933 58.8349 43.4895ZM58.3256 41.2668C58.5688 41.3282 58.9027 41.1894 59.3272 40.8506C59.7487 40.4887 60.1693 40.0328 60.5891 39.4831C61.0058 38.9104 61.3448 38.3715 61.6061 37.8665C61.6998 37.6895 61.8143 37.4039 61.9495 37.0098C62.1078 36.6127 62.2445 36.2302 62.3597 35.8623C62.4979 35.4913 62.5724 35.2581 62.5831 35.1626C62.7136 34.5577 62.7563 33.9998 62.7113 33.4889C62.6864 32.9518 62.5823 32.6133 62.399 32.4733C62.1049 32.2073 61.6801 32.1937 61.1247 32.4326C60.5924 32.6684 60.097 33.005 59.6387 33.4424C59.3065 33.7689 59.0212 34.1831 58.783 34.6849C58.5648 35.1606 58.3304 35.6032 58.0798 36.0128C58.1245 36.1713 58.0969 36.3159 57.997 36.4468C57.9201 36.5746 57.8317 36.7039 57.7317 36.8348C57.509 37.4521 57.3855 38.0209 57.3612 38.5411C57.3338 39.0382 57.3278 39.3444 57.3433 39.4598C57.3928 39.8292 57.5015 40.2023 57.6695 40.5793C57.8375 40.9562 58.0562 41.1854 58.3256 41.2668ZM66.0326 42.8775C65.9603 42.8637 65.8779 42.863 65.7856 42.8754C65.7164 42.8847 65.6471 42.894 65.5779 42.9032C65.4577 42.7079 65.2845 42.5548 65.0582 42.4442C64.8318 42.3335 64.6486 42.1936 64.5085 42.0244C64.3359 41.789 64.2966 41.5828 64.3903 41.4058C64.5041 41.2026 64.6425 41.0078 64.8055 40.8215C64.9885 40.609 65.1107 40.3811 65.1721 40.1379C65.3013 40.0501 65.542 39.8299 65.8942 39.4772C66.2464 39.1246 66.6486 38.7065 67.1007 38.2229C67.5529 37.7394 68.0035 37.2443 68.4526 36.7377C68.8985 36.208 69.293 35.7322 69.6359 35.3102C69.9788 34.8883 70.2087 34.5873 70.3256 34.4072C70.2994 34.3872 70.2732 34.3672 70.247 34.3472C70.2209 34.3272 70.1831 34.3088 70.1339 34.2919C69.949 33.9642 69.6787 33.6127 69.3229 33.2374C68.9641 32.839 68.5952 32.4538 68.2164 32.0816C67.8575 31.6832 67.5641 31.3348 67.3362 31.0364C67.1637 30.801 67.0158 30.5741 66.8925 30.3557C66.7923 30.1341 66.6691 29.9157 66.5227 29.7003C66.5565 29.6018 66.5903 29.5033 66.6241 29.4047C66.681 29.3031 66.7148 29.2046 66.7255 29.1092C67.1841 29.0242 67.5627 29.044 67.8613 29.1685C68.16 29.2929 68.501 29.4705 68.8843 29.7011C68.9859 29.7579 69.1784 29.9671 69.4619 30.3286C69.7453 30.6901 70.0595 31.1062 70.4045 31.5769C70.7696 32.0214 71.1284 32.4198 71.4811 32.772C71.8306 33.1011 72.1255 33.2848 72.3656 33.3232C72.4715 32.886 72.5519 32.3465 72.6069 31.7047C72.685 31.0599 72.74 30.4181 72.7719 29.7793C72.8269 29.1375 72.8481 28.5943 72.8355 28.1495C72.9123 28.0217 72.9808 27.9186 73.0407 27.84C73.1207 27.7353 73.2006 27.6306 73.2806 27.5259C73.6161 27.5749 73.9002 27.6779 74.1326 27.8347C74.362 27.9684 74.6261 28.0976 74.9247 28.222C75.0484 29.1453 75.0268 30.1234 74.8597 31.1562C74.7157 32.1859 74.6101 33.1516 74.543 34.0535C74.5461 34.0766 74.5507 34.1113 74.5569 34.1574C74.56 34.1805 74.5746 34.202 74.6008 34.222C75.0977 33.897 75.6053 33.4765 76.1236 32.9606C76.665 32.4416 77.1917 31.9011 77.7039 31.339C78.2391 30.7738 78.7143 30.2872 79.1296 29.8791C79.314 29.5019 79.5608 29.1517 79.8699 28.8283C80.176 28.4818 80.4212 28.12 80.6056 27.7428C80.721 27.7273 80.8249 27.7134 80.9173 27.701C81.0096 27.6887 81.1019 27.6763 81.1942 27.6639C81.322 27.7408 81.4891 27.8476 81.6954 27.9845C81.9017 28.1213 82.1027 28.3059 82.2983 28.5381C82.2968 28.7028 82.2823 28.8575 82.2547 29.0022C82.2271 29.1468 82.1633 29.2846 82.0634 29.4155C81.5636 30.0699 81.0262 30.7059 80.451 31.3234C79.8958 31.9147 79.266 32.563 78.5616 33.2684C78.2094 33.621 77.8425 33.9521 77.4611 34.2617C77.1027 34.5682 76.7735 34.9178 76.4737 35.3104C76.9263 35.5318 77.449 35.8377 78.0418 36.2282C78.6576 36.6156 79.2404 37.0192 79.7901 37.439C80.3629 37.8557 80.8271 38.2517 81.1829 38.627C81.4539 38.8962 81.5718 39.1623 81.5366 39.4255C81.5014 39.6887 81.3661 39.9066 81.1307 40.0791C80.9185 40.2485 80.6738 40.3518 80.3968 40.3889C80.1198 40.426 79.8766 40.3646 79.6672 40.2047C79.3793 39.9848 79.1013 39.7518 78.8334 39.5058C78.5624 39.2366 78.2829 38.9921 77.9949 38.7722C77.4452 38.3524 76.8663 37.8895 76.258 37.3836C75.6498 36.8777 75.0509 36.441 74.4612 36.0735C74.4319 36.0305 74.3942 36.012 74.348 36.0182C74.3218 35.9982 74.2841 35.9798 74.2349 35.9629C74.1213 36.5185 74.0071 37.1565 73.8921 37.8769C73.7741 38.5741 73.7076 39.2174 73.6926 39.8069C73.6928 40.1593 73.6029 40.4533 73.423 40.6889C73.2431 40.9245 72.9993 41.1216 72.6916 41.2804C72.4653 41.1697 72.2506 41.0575 72.0473 40.9437C71.8672 40.8269 71.674 40.7 71.4676 40.5632C71.3106 40.4433 71.2588 40.1447 71.3124 39.6676C71.366 39.1905 71.4579 38.6495 71.5884 38.0446C71.7188 37.4396 71.8223 36.8971 71.899 36.4169C71.9756 35.9366 71.97 35.6319 71.8822 35.5027C71.7423 35.6859 71.4924 36.0131 71.1326 36.4843C70.7697 36.9324 70.3652 37.4213 69.9193 37.951C69.4964 38.4776 69.1019 38.9534 68.7359 39.3784C68.393 39.8003 68.1569 40.0552 68.0277 40.143C67.8433 40.5202 67.5312 40.9967 67.0914 41.5726C66.6747 42.1453 66.3218 42.5803 66.0326 42.8775ZM92.9566 38.706C92.1578 38.5311 91.4995 38.0906 90.982 37.3845C90.4613 36.6553 90.0938 35.9292 89.8794 35.206C89.8563 35.2091 89.7933 35.2645 89.6902 35.3723C89.6072 35.4539 89.5072 35.5848 89.3904 35.765C89.1105 36.1314 88.7607 36.5895 88.3409 37.1392C87.918 37.6658 87.4659 38.1493 86.9844 38.5898C86.523 39.0041 86.0584 39.2191 85.5905 39.2348C85.3904 39.1441 85.1772 39.0434 84.9509 38.9328C84.7446 38.7959 84.5382 38.6591 84.3319 38.5223C84.2272 38.4423 84.1341 38.3608 84.0524 38.2778C83.9939 38.1916 83.9338 38.0939 83.8722 37.9847C83.5255 37.3262 83.305 36.7331 83.2108 36.2053C83.1135 35.6544 83.0985 35.1042 83.1659 34.5547C83.2532 33.9791 83.3559 33.3426 83.474 32.6454C83.4878 32.573 83.5299 32.2737 83.6004 31.7473C83.6939 31.2178 83.8012 30.616 83.9224 29.9418C84.0435 29.2677 84.1624 28.6643 84.279 28.1317C84.4187 27.5961 84.5286 27.2759 84.6085 27.1712C84.6778 27.1619 84.747 27.1526 84.8163 27.1433C84.9055 27.1079 84.9847 27.0855 85.054 27.0762C85.2848 27.0453 85.4688 27.1029 85.6058 27.249C85.7167 27.3752 85.8461 27.4636 85.9938 27.5143C86.1647 27.5618 86.2925 27.6387 86.3772 27.7449C86.5235 27.9602 86.5093 28.4673 86.3343 29.2662C86.1563 30.042 85.9691 30.9247 85.7728 31.9144C85.5871 32.8087 85.4492 33.7083 85.359 34.6133C85.2657 35.4952 85.35 36.2123 85.612 36.7647C85.7736 36.743 85.9743 36.5751 86.2142 36.261C86.4741 35.9207 86.6771 35.6821 86.8232 35.545C87.0355 35.3756 87.3 35.0699 87.6167 34.628C87.9534 34.1599 88.2786 33.6934 88.5923 33.2284C88.9029 32.7404 89.1119 32.3716 89.2195 32.1222C89.2933 31.9714 89.3977 31.6989 89.5329 31.3048C89.665 30.8877 89.794 30.4474 89.9199 29.9841C90.0658 29.4946 90.1701 29.0459 90.233 28.6381C90.3189 28.2271 90.3395 27.9424 90.2948 27.7839C90.2407 27.5561 90.2406 27.3799 90.2944 27.2552C90.3682 27.1044 90.4897 26.9588 90.6589 26.8187C90.7743 26.8032 90.9012 26.7862 91.0397 26.7676C91.1782 26.7491 91.3067 26.7436 91.4253 26.7512C91.5854 26.8943 91.7555 27.0242 91.9357 27.141C92.1158 27.2579 92.2975 27.3863 92.4807 27.5262C92.6549 27.9493 92.6645 28.5472 92.5096 29.3199C92.3547 30.0926 92.2075 30.923 92.068 31.8111C91.9285 32.6992 91.8829 33.5864 91.9312 34.4729C91.9764 35.3362 92.3077 36.0555 92.9253 36.6307C93.3822 36.358 93.7252 36.1123 93.9544 35.8936C94.2035 35.6487 94.4412 35.4054 94.6672 35.1636C94.8902 34.8988 95.1824 34.6246 95.5439 34.3412C95.7933 34.4488 96.0036 34.7026 96.1746 35.1026C96.3457 35.5027 96.4483 35.8296 96.4823 36.0835C96.3993 36.1652 96.3162 36.2468 96.2331 36.3284C96.1701 36.3839 96.1217 36.4608 96.0879 36.5594C95.9896 36.878 95.7528 37.2152 95.3775 37.5709C95.0022 37.9267 94.5961 38.2278 94.1592 38.4744C93.7192 38.6978 93.3183 38.775 92.9566 38.706ZM105.291 24.3999C105.613 24.5212 105.831 24.6565 105.945 24.8057C106.055 24.9319 106.276 25.1726 106.605 25.5279C106.587 25.7418 106.559 26.0627 106.523 26.4906C106.506 26.8923 106.476 27.284 106.434 27.6657C106.391 28.0474 106.335 28.3367 106.268 28.5338C106.357 28.8507 106.34 29.3348 106.216 29.9859C106.111 30.6108 106 31.2718 105.882 31.9691C105.761 32.6432 105.673 33.3012 105.618 33.943C105.563 34.5848 105.613 35.1304 105.767 35.5796C105.704 35.6351 105.642 35.7021 105.582 35.7806C105.545 35.856 105.484 35.923 105.398 35.9816C105.139 36.1572 104.864 36.2058 104.571 36.1275C104.279 36.0492 104.033 35.8824 103.835 35.6271C103.633 35.3486 103.545 35.0432 103.571 34.7108C103.6 34.4014 103.655 33.9358 103.736 33.314C103.814 32.6691 103.896 31.965 103.982 31.2016C104.068 30.4382 104.145 29.6994 104.214 28.9853C104.279 28.248 104.336 27.6178 104.383 27.0945C104.431 26.5712 104.443 26.2288 104.422 26.0672C104.394 25.8594 104.217 25.7657 103.891 25.7859C103.584 25.7799 103.251 25.8363 102.891 25.9551C102.551 26.0476 102.326 26.1247 102.217 26.1863C101.76 26.459 101.395 26.8017 101.121 27.2143C100.848 27.627 100.638 28.078 100.492 28.5675C100.346 29.057 100.213 29.5565 100.094 30.066C100.135 30.2014 100.164 30.3268 100.179 30.4422C100.192 30.5346 100.252 30.6323 100.36 30.7353C100.497 30.8814 100.685 30.9736 100.925 31.0119C101.165 31.0503 101.416 31.0755 101.676 31.0876C101.936 31.0998 102.164 31.1397 102.361 31.2072C102.434 31.221 102.493 31.2249 102.539 31.2187C102.582 31.1894 102.627 31.1717 102.673 31.1655C102.742 31.1562 102.806 31.1946 102.865 31.2808C103.063 31.5361 103.21 31.7515 103.304 31.9269C103.398 32.1023 103.351 32.367 103.163 32.7211C102.639 33.1908 102.124 33.6475 101.62 34.091C101.115 34.5346 100.629 35.0228 100.16 35.5556C100.02 35.7388 99.8404 35.8921 99.6219 36.0153C99.4235 36.1124 99.2558 36.2641 99.119 36.4704C99.0021 36.6506 98.8606 36.8223 98.6945 36.9855C98.5484 37.1226 98.4054 37.2827 98.2655 37.4659C98.1855 37.5706 98.104 37.6638 98.0209 37.7454C97.9348 37.804 97.8278 37.7948 97.7 37.7179C97.3507 37.7412 97.0767 37.6252 96.878 37.3699C96.6793 37.1145 96.5075 36.7968 96.3626 36.4168C96.5732 36.0596 96.9177 35.6493 97.396 35.1857C97.8712 34.6991 98.4042 34.2047 98.9948 33.7026C99.6055 33.1743 100.178 32.71 100.711 32.3095C100.105 32.3437 99.6264 32.2786 99.2754 32.1142C98.9213 31.9266 98.6019 31.7345 98.317 31.5377C97.9905 31.2055 97.8064 30.7954 97.7645 30.3076C97.7457 29.8167 97.8093 29.3265 97.9551 28.837C98.0979 28.3244 98.2516 27.8926 98.416 27.5416C98.456 27.4892 98.4729 27.44 98.4667 27.3938C98.4836 27.3445 98.502 27.3068 98.522 27.2807C98.751 26.7095 98.9538 26.2946 99.1307 26.036C99.3306 25.7742 99.6628 25.4477 100.127 25.0565C100.297 24.9164 100.482 24.8093 100.683 24.7353C100.882 24.6382 101.083 24.5642 101.288 24.5133C101.513 24.4362 101.821 24.3713 102.214 24.3188C102.606 24.2662 103.002 24.2367 103.4 24.2303C103.796 24.2008 104.104 24.2183 104.324 24.2828C104.491 24.3073 104.649 24.3449 104.797 24.3956C104.968 24.4432 105.133 24.4446 105.291 24.3999ZM36.275 68.85C36.0133 68.6501 35.7407 68.3694 35.4573 68.0079C35.1708 67.6234 34.9227 67.1749 34.7131 66.6625C34.6422 66.4841 34.585 66.2332 34.5417 65.9101C34.5215 65.5838 34.4906 65.353 34.449 65.2176C34.4014 65.3885 34.3091 65.577 34.1723 65.7834C34.0555 65.9635 33.9355 66.1205 33.8125 66.2545C33.7325 66.3592 33.5495 66.5717 33.2635 66.892C32.9743 67.1892 32.679 67.4403 32.3775 67.6452C31.6807 68.232 31.0815 68.5825 30.5798 68.6967C30.1013 68.8078 29.6056 68.6158 29.0928 68.1205C28.6833 67.87 28.373 67.5708 28.1619 67.2231C27.9739 66.8724 27.9059 66.3645 27.9578 65.6997C27.8957 64.8856 27.9059 64.0853 27.9885 63.2988C28.068 62.4892 28.3097 61.3995 28.7136 60.0295C29.0715 59.0181 29.3481 58.2761 29.5432 57.8035C29.7353 57.3079 29.8597 57.0092 29.9166 56.9076C30.2474 56.7458 30.5375 56.7187 30.7868 56.8262C31.0331 56.9107 31.201 57.1115 31.2905 57.4284C31.4599 57.6407 31.4894 58.0362 31.379 58.615C31.2916 59.1906 31.0943 59.9102 30.7871 60.7738C30.5691 61.6019 30.3742 62.4269 30.2023 63.2489C30.0536 64.0677 29.9932 64.7572 30.0213 65.3174C30.0494 65.8776 30.2327 66.1937 30.5713 66.2659C30.7946 66.3534 31.1477 66.2709 31.6308 66.0182C32.137 65.7624 32.6637 65.2218 33.2111 64.3966C33.7815 63.5682 34.2778 62.3621 34.7 60.7782C34.8228 60.2918 34.9072 59.8693 34.9531 59.5106C34.996 59.1289 34.9996 58.7173 34.9639 58.2756C34.8806 58.0048 34.8597 57.7609 34.9011 57.5438C34.9625 57.3006 35.1208 57.0797 35.3762 56.881C35.4531 56.7532 35.5661 56.6323 35.7153 56.5183C35.8614 56.3813 35.9653 56.3673 36.0269 56.4766L36.5763 56.3677C36.6655 56.3323 36.731 56.3822 36.7726 56.5176C36.8342 56.6269 36.9289 56.7199 37.0567 56.7968C37.3385 56.9705 37.468 57.4114 37.4454 58.1193C37.4228 58.8273 37.2295 59.8401 36.8656 61.1577C36.5539 62.1628 36.3497 62.9186 36.253 63.425C36.1795 63.9283 36.1621 64.4124 36.2009 64.8771C36.2566 65.2926 36.3899 65.6742 36.601 66.0219C36.8121 66.3695 37.1108 66.6702 37.4973 66.9239C37.7729 67.0515 37.9361 67.2176 37.987 67.4222C38.061 67.6238 38.105 67.8646 38.1191 68.1447C38.1007 68.3586 37.9854 68.5503 37.7732 68.7197C37.5809 68.863 37.3462 68.9532 37.0692 68.9903C36.7922 69.0274 36.5275 68.9806 36.275 68.85ZM49.4636 66.9771C49.2897 66.9064 49.1042 66.8373 48.9071 66.7697C48.7332 66.699 48.5592 66.6283 48.3853 66.5576C48.2344 66.4839 48.0951 66.4085 47.9673 66.3317C47.4238 65.958 47.0372 65.5281 46.8076 65.042C46.5979 64.5296 46.4837 64.028 46.4649 63.537C46.4462 63.0461 46.4597 62.6213 46.5057 62.2627C46.5485 61.881 46.5607 61.6209 46.5421 61.4824C46.4943 61.3009 46.5057 61.1231 46.5764 60.9491C46.644 60.7521 46.7116 60.5551 46.7791 60.358C47.0864 59.4944 47.3745 58.7509 47.6434 58.1275C47.9323 57.4778 48.3704 56.7142 48.9578 55.8366C49.0808 55.7026 49.1938 55.5817 49.2969 55.4739C49.4199 55.3399 49.5476 55.2406 49.6799 55.1759L50.5551 55.6578C50.6598 55.7377 50.733 55.8454 50.7746 55.9808C50.8132 56.0931 50.8118 56.2578 50.7703 56.4748C50.7458 56.6426 50.7098 56.8119 50.6622 56.9828C50.6346 57.1275 50.5823 57.2637 50.5055 57.3915C50.1625 57.8134 49.9066 58.2707 49.7376 58.7632C49.5656 59.2327 49.3835 59.7153 49.1914 60.211C49.2193 60.4188 49.1617 60.6027 49.0187 60.7629C48.8725 60.8999 48.8034 61.0854 48.8113 61.3194C48.8329 61.4809 48.8315 61.6456 48.807 61.8134C48.7824 61.9811 48.7595 62.1605 48.7381 62.3513C48.626 62.7423 48.6047 63.1094 48.6741 63.4525C48.7436 63.7957 48.8031 64.1519 48.8526 64.5212C49.0496 64.5888 49.2189 64.6249 49.3605 64.6294C49.499 64.6108 49.6682 64.4707 49.8681 64.2089C50.2772 63.7546 50.554 63.3651 50.6984 63.0403C50.866 62.7124 50.9873 62.3906 51.0625 62.0751C51.1377 61.7595 51.2529 61.3916 51.4081 60.9714C51.5863 60.5481 51.7161 60.0255 51.7972 59.4037C51.8784 58.7819 51.918 58.2009 51.9161 57.6607C51.9111 57.0974 51.8617 56.7281 51.7677 56.5527C51.7291 56.4404 51.7221 56.3003 51.7466 56.1326C51.7711 55.9648 51.6802 55.8125 51.4739 55.6756C51.5539 55.5709 51.5768 55.3916 51.5428 55.1377C51.5088 54.8838 51.4502 54.6214 51.3669 54.3506C51.2836 54.0798 51.188 53.8929 51.0803 53.7899C50.9104 52.8727 50.7721 52.1041 50.6655 51.4839C50.5789 50.8376 50.5162 50.2821 50.4775 49.8173C50.4587 49.3264 50.4561 48.8685 50.4697 48.4438C50.4835 48.3714 50.591 48.122 50.7924 47.6956C51.0137 47.243 51.2243 46.8858 51.4242 46.624C51.7702 46.2252 52.2656 45.8886 52.9102 45.6143C53.5749 45.3137 54.1527 45.1541 54.6436 45.1353C54.6236 45.1615 54.7636 45.1544 55.0637 45.1142C55.3869 45.0709 55.7431 45.0114 56.1324 44.9358C56.5218 44.8601 56.8072 44.7984 56.9888 44.7505C57.1673 44.6796 57.3457 44.6087 57.5242 44.5378C57.7027 44.4669 57.9942 44.2751 58.3988 43.9624C58.568 43.8223 58.7134 43.7675 58.835 43.7982L59.8765 44.4693C59.9401 45.1188 59.8434 45.6252 59.5867 45.9885C59.3268 46.3288 58.776 46.6023 57.9343 46.8091C57.7958 46.8277 57.6458 46.8478 57.4842 46.8694C57.3195 46.868 57.1595 46.9012 57.0041 46.969C56.8718 47.0337 56.7448 47.0507 56.6232 47.02C56.5247 46.9862 56.3831 46.9817 56.1984 47.0065C55.9445 47.0405 55.6837 47.1107 55.416 47.217C55.1452 47.3003 54.8551 47.3274 54.5457 47.2984C53.7457 47.6406 53.1411 48.0388 52.732 48.4931C52.3229 48.9473 52.1787 49.6246 52.2993 50.5248C52.5061 51.3665 52.7236 52.1128 52.9518 52.7637C53.2031 53.4114 53.3828 54.1393 53.4911 54.9472C53.5651 55.1487 53.646 55.3141 53.7338 55.4433C53.8216 55.5726 53.8071 55.7272 53.6902 55.9074C53.8768 56.4228 54.0041 56.9345 54.0721 57.4423C54.1371 57.927 54.1173 58.3056 54.0128 58.5781C53.9883 58.7459 53.9939 59.0506 54.0296 59.4923C54.0853 59.9078 54.0286 60.3618 53.8597 60.8544C53.4741 62.0104 53.0616 63.0526 52.622 63.9809C52.1794 64.8861 51.5697 65.6845 50.7929 66.376C50.6437 66.49 50.4568 66.5855 50.2321 66.6626C50.0306 66.7366 49.7744 66.8414 49.4636 66.9771ZM59.5533 64.7792C59.3748 64.8501 59.1355 64.9057 58.8354 64.9459C58.5322 64.963 58.2621 64.964 58.0251 64.9487C57.8081 64.9073 57.695 64.852 57.6857 64.7827C57.6702 64.6673 57.6048 64.6174 57.4894 64.6328C57.4894 64.6328 57.4255 64.5944 57.2977 64.5175C57.193 64.4376 57.0306 64.3653 56.8104 64.3008C56.5594 64.0055 56.4091 63.6732 56.3596 63.3039C56.3071 62.9114 56.329 62.2858 56.4254 61.427C56.4173 60.8406 56.5469 60.1419 56.8141 59.3306C57.1014 58.4932 57.4679 57.6335 57.9136 56.7513C58.3594 55.8692 58.839 55.0647 59.3526 54.338C59.8892 53.6082 60.3913 53.0592 60.859 52.6911C61.1388 52.3246 61.508 52.0989 61.9666 52.0139C62.4252 51.929 62.8777 51.9741 63.3241 52.1493C63.5704 52.2338 63.826 52.3875 64.0908 52.6105C64.3557 52.8335 64.6121 53.0811 64.86 53.3533C65.108 53.6256 65.3213 53.9024 65.5 54.184C65.6033 54.4286 65.6688 54.6548 65.6967 54.8625C65.7445 55.0441 65.7754 55.2749 65.7895 55.555C65.8266 55.832 65.8476 56.2522 65.8526 56.8154C65.7929 57.2464 65.757 57.7681 65.7451 58.3807C65.7563 58.9901 65.7913 59.5141 65.85 59.9527C65.8626 60.3974 65.9506 60.7029 66.1138 60.869C66.3001 61.032 66.5325 61.0126 66.8109 60.8108C67.0694 60.6352 67.3271 60.5419 67.5841 60.531C67.838 60.497 68.0435 60.5399 68.2005 60.6599C68.3807 60.7767 68.4893 60.9736 68.5264 61.2506C68.5635 61.5276 68.4637 61.8347 68.2269 62.1719C68.0101 62.4829 67.7194 62.7686 67.3549 63.0289C67.0103 63.2631 66.6649 63.4034 66.3186 63.4498C66.0647 63.4838 65.8022 63.3662 65.5312 63.0971C65.2571 62.8048 64.9983 62.4518 64.7548 62.038C64.5314 61.598 64.3226 61.1795 64.1284 60.7826L63.814 60.014L62.5153 61.6331C62.2586 61.9965 61.9987 62.3368 61.7357 62.654C61.4927 62.945 61.3444 63.1529 61.2906 63.2776C61.203 63.5008 61.0116 63.7379 60.7162 63.989C60.444 64.2369 60.0563 64.5003 59.5533 64.7792ZM59.3834 62.7225C59.7449 62.439 60.1502 62.044 60.5992 61.5374C61.0452 61.0077 61.475 60.4449 61.8886 59.8491C62.2991 59.2301 62.635 58.6682 62.8963 58.1632C63.2176 57.5797 63.4511 57.0432 63.597 56.5537C63.7429 56.0642 63.8342 55.6055 63.8709 55.1777C63.7445 54.9361 63.5589 54.6908 63.314 54.4416C63.0661 54.1694 62.8598 54.0325 62.6951 54.0311C62.1873 54.0992 61.6881 54.495 61.1976 55.2186C60.7272 55.9161 60.2759 56.6698 59.844 57.4795C59.7671 57.6073 59.6649 57.809 59.5374 58.0846C59.4098 58.3601 59.2807 58.6242 59.1501 58.8766C59.0394 59.1029 58.9656 59.2538 58.9287 59.3293C58.8719 59.4309 58.7689 59.7149 58.6199 60.1813C58.491 60.6215 58.3635 61.0733 58.2376 61.5366C58.1086 61.9769 58.0534 62.2662 58.072 62.4047C58.0905 62.5432 58.1222 62.6917 58.1669 62.8502C58.2347 63.0056 58.364 63.094 58.5549 63.1154C58.7457 63.1369 59.0219 63.0059 59.3834 62.7225ZM68.8917 63.8804C68.7178 63.8097 68.5369 63.7752 68.3492 63.7769C68.1845 63.7754 68.0083 63.7755 67.8205 63.7772C67.6373 63.6373 67.4771 63.4943 67.3401 63.3481C67.223 63.1758 67.1259 62.9774 67.0488 62.7527C67.0072 62.6173 67.0133 62.4873 67.067 62.3626C67.1208 62.2379 67.1762 62.1247 67.233 62.0231C67.3023 62.0138 67.3846 62.0146 67.48 62.0253C67.5724 62.0129 67.6647 62.0005 67.757 61.9882C68.1092 61.6355 68.4122 61.2659 68.6659 60.8795C68.9395 60.4669 69.2001 60.0442 69.4476 59.6116C69.712 59.1297 69.9418 58.6525 70.1369 58.1799C70.329 57.6842 70.4718 57.1716 70.5653 56.6422C70.6067 56.4251 70.6251 56.2112 70.6203 56.0004C70.6125 55.7664 70.6423 55.551 70.7099 55.3539C70.8113 55.0584 70.8781 54.7674 70.9102 54.4812C70.9623 54.1687 71.016 53.8678 71.0712 53.5784C70.7157 53.5556 70.444 53.545 70.2563 53.5467C70.0885 53.5221 69.9277 53.4614 69.7737 53.3646C69.6197 53.2677 69.4003 53.1209 69.1155 52.9241C69.0491 52.604 69.0528 52.3686 69.1266 52.2177C69.1973 52.0437 69.3995 51.8874 69.7334 51.7487C69.8657 51.6839 69.9996 51.6308 70.135 51.5891C70.2673 51.5244 70.4027 51.4828 70.5412 51.4642C70.792 51.4071 71.0444 51.3615 71.2983 51.3275C71.5522 51.2935 71.8192 51.2695 72.0993 51.2554C72.2871 51.2538 72.4764 51.2636 72.6672 51.2851C72.8581 51.3065 73.0489 51.3279 73.2398 51.3493C73.4568 51.3907 73.6769 51.4552 73.9001 51.5428C74.1202 51.6073 74.3388 51.6603 74.5558 51.7017C74.7205 51.7031 74.8783 51.7407 75.0292 51.8145C75.18 51.8883 75.344 51.972 75.521 52.0658C75.9705 52.264 76.337 52.5439 76.6204 52.9054C76.9007 53.2438 77.0718 53.6438 77.1337 54.1055C77.2296 54.821 77.2154 55.5044 77.0912 56.1554C77.0345 56.6095 76.9663 57.0651 76.8866 57.5222C76.8299 57.9763 76.7617 58.4318 76.682 58.889C76.6299 59.2014 76.5762 59.5023 76.521 59.7917C76.4658 60.0811 76.4352 60.3789 76.4292 60.6852C76.4171 60.9453 76.418 61.2154 76.4321 61.4954C76.4461 61.7755 76.4501 62.0687 76.4442 62.375C76.3549 62.4104 76.2657 62.4459 76.1765 62.4813C76.1103 62.5137 76.0226 62.5607 75.9134 62.6223C75.6471 62.564 75.3693 62.5073 75.0799 62.452C74.7874 62.3737 74.5588 62.1577 74.3939 61.8038C74.3877 61.7576 74.3815 61.7115 74.3753 61.6653C74.3891 61.593 74.3898 61.5106 74.3775 61.4183C74.3682 61.349 74.3589 61.2798 74.3496 61.2105C74.3403 61.1413 74.3311 61.072 74.3218 61.0028C74.3123 60.5811 74.3274 60.1679 74.3671 59.7631C74.4038 59.3352 74.4651 58.9158 74.551 58.5048C74.6738 58.0184 74.7635 57.5482 74.8202 57.0942C74.8738 56.617 74.9289 56.1515 74.9855 55.6974C75.0269 55.4804 75.0452 55.2665 75.0405 55.0556C75.0557 54.8186 75.061 54.5947 75.0562 54.3838C75.0453 54.1268 74.9489 53.846 74.7671 53.5414C74.5115 53.3877 74.2506 53.2817 73.9843 53.2234C73.7149 53.142 73.4271 53.0983 73.1209 53.0923C73.0963 53.2601 73.0387 53.444 72.9481 53.6442C72.9312 53.6934 72.9289 53.7642 72.9413 53.8566C72.9506 53.9258 72.9337 53.9751 72.8906 54.0043C72.7645 54.1152 72.6891 54.2546 72.6646 54.4223C72.6601 54.5639 72.6571 54.717 72.6557 54.8817C72.6481 55.0002 72.6289 55.1203 72.5982 55.2419C72.5675 55.3635 72.5253 55.4866 72.4715 55.6113C72.3915 55.716 72.3508 55.8507 72.3494 56.0154C72.3449 56.157 72.3419 56.3101 72.3405 56.4748C72.3407 56.8272 72.3047 57.1728 72.2326 57.5114C72.1605 57.85 72.0584 58.2279 71.9263 58.6451C71.8326 58.8221 71.7519 59.0091 71.6843 59.2062C71.6136 59.3801 71.5445 59.5656 71.4769 59.7627C71.4662 59.8581 71.4324 59.9566 71.3755 60.0582C71.3155 60.1367 71.2702 60.2368 71.2395 60.3584C71.155 60.6047 71.0605 60.8641 70.9561 61.1366C70.8485 61.3859 70.7148 61.6153 70.5548 61.8248C70.295 62.165 70.0366 62.5169 69.7799 62.8802C69.5462 63.2405 69.2501 63.5739 68.8917 63.8804ZM78.9839 62.4224C78.7314 62.2917 78.5382 62.1649 78.4042 62.0419C78.2702 61.9188 78.1977 61.7288 78.1868 61.4718C78.1866 61.1194 78.2079 60.7523 78.2507 60.3706C78.2905 59.9658 78.3549 59.5695 78.4439 59.1816C78.4575 58.7568 78.4826 58.3305 78.5192 57.9026C78.579 57.4717 78.7111 57.0545 78.9155 56.6512C79.1594 55.4906 79.3734 54.3693 79.5574 53.2873C79.7613 52.1791 80.056 50.8707 80.4413 49.3622C80.5227 49.0929 80.6018 48.8943 80.6787 48.7665C80.7755 48.6125 80.8609 48.4601 80.9346 48.3092C80.9453 48.2138 81.0084 48.1584 81.1238 48.1429C81.2592 48.1013 81.4124 48.1042 81.5832 48.1518C81.751 48.1764 81.8888 48.2401 81.9966 48.3432C82.0858 48.3077 82.2329 48.4408 82.4377 48.7423C82.6657 49.0407 82.769 49.2853 82.7476 49.4762C82.7599 49.5685 82.7539 49.6985 82.7293 49.8663C82.7048 50.0341 82.6557 50.1934 82.5819 50.3443C82.502 50.449 82.4282 50.5998 82.3606 50.7969C82.2899 50.9708 82.1808 51.2087 82.0332 51.5104C81.889 52.1877 81.7655 52.7564 81.6627 53.2166C81.5599 53.6769 81.4302 54.1994 81.2736 54.7844C81.1429 55.0369 81.0577 55.3655 81.018 55.7703C80.9782 56.1751 80.9369 56.5683 80.8941 56.95C80.7882 57.3871 80.6891 57.7881 80.597 58.1529C80.528 58.5146 80.4997 58.7416 80.5121 58.834C80.4185 59.3635 80.3596 59.8883 80.3353 60.4085C80.308 60.9056 80.2151 61.3528 80.0569 61.7499C80.0802 62.0993 80.0072 62.344 79.838 62.4842C79.6919 62.6212 79.4072 62.6006 78.9839 62.4224ZM87.3334 61.8676C86.9578 61.8709 86.6716 61.8387 86.4745 61.7712C86.2744 61.6805 85.8957 61.4845 85.3384 61.1832C85.0243 60.9433 84.5862 60.5673 84.0241 60.0552C83.462 59.5431 82.8953 58.9963 82.324 58.415C81.7495 57.8105 81.2698 57.2991 80.8848 56.8807L82.0492 54.7862C82.3988 55.1153 82.6876 55.4291 82.9155 55.7275C83.1435 56.0259 83.3229 56.2251 83.4538 56.325C84.0899 57.0387 84.5904 57.6178 84.9554 58.0624C85.3436 58.5038 85.6847 58.8576 85.9788 59.1236C86.2729 59.3897 86.5739 59.6196 86.8819 59.8133C87.2129 60.0039 87.6147 60.1968 88.0873 60.3919C88.1627 60.4288 88.2412 60.4888 88.3229 60.5718C88.4045 60.6549 88.4461 60.7903 88.4478 60.9781C88.3895 61.2443 88.3073 61.4198 88.2011 61.5046C88.115 61.5631 87.8257 61.6841 87.3334 61.8676ZM80.7299 56.5138C80.5388 56.1399 80.5324 55.7413 80.7106 55.318C80.9089 54.8685 81.1472 54.5428 81.4256 54.341C81.4963 54.1671 81.5747 54.0508 81.6609 53.9923C81.767 53.9076 81.8254 53.8175 81.8361 53.7221C81.8699 53.6236 81.9683 53.4812 82.1314 53.2948C82.3175 53.1054 82.482 52.9306 82.625 52.7705C82.9634 52.4902 83.3418 52.1575 83.7602 51.7725C84.1985 51.3613 84.6138 50.9532 85.006 50.5482C85.3982 50.1431 85.7273 49.7936 85.9933 49.4995C86.2825 49.2022 86.457 49.0144 86.517 48.9358C86.5739 48.8342 86.6585 48.7642 86.7708 48.7256C86.9031 48.6609 87.0793 48.6608 87.2994 48.7253C87.5857 48.7574 87.7859 48.8481 87.8998 48.9973C88.0107 49.1234 88.094 49.3942 88.1497 49.8097C88.253 50.0543 88.1862 50.3453 87.9494 50.6825C87.7326 50.9935 87.382 51.3577 86.8974 51.7751C86.7282 51.9152 86.4975 52.1224 86.2053 52.3965C85.9361 52.6675 85.7001 52.9224 85.4971 53.1611C85.3479 53.275 85.1271 53.4691 84.8349 53.7432C84.5627 53.9912 84.325 54.2345 84.1221 54.4732C83.9529 54.6133 83.7383 54.8536 83.4784 55.1939C83.2155 55.5111 82.9432 55.759 82.6617 55.9377C82.0159 56.7292 81.5806 57.1635 81.356 57.2406C81.1313 57.3177 80.9226 57.0754 80.7299 56.5138ZM93.9201 60.985C93.6231 61.0483 93.3777 61.0577 93.1837 61.0131C92.9867 60.9456 92.7389 60.8495 92.4402 60.7251C91.8798 60.4007 91.4464 60.0593 91.1399 59.7009C90.8534 59.3164 90.6954 58.9263 90.6659 58.5308C90.6842 58.3169 90.6594 58.1322 90.5916 57.9768C90.5469 57.8183 90.5245 57.7391 90.5245 57.7391C90.3706 57.6422 90.3151 57.5792 90.3582 57.5499C90.3982 57.4976 90.4235 57.4237 90.4342 57.3282C90.6127 57.2573 90.6188 57.1273 90.4524 56.9381C90.3585 56.7627 90.3374 56.3426 90.3893 55.6777C90.4612 54.9866 90.5854 54.3356 90.762 53.7245C90.8434 53.4551 90.9601 53.0987 91.1122 52.6554C91.2874 52.209 91.4856 51.7595 91.7069 51.3068C91.9252 50.8312 92.1327 50.4509 92.3295 50.166C92.76 49.5209 93.1529 49.0336 93.5082 48.704C93.8835 48.3482 94.3127 48.044 94.7957 47.7913C95.2327 47.5448 95.5534 47.3961 95.7581 47.3451C95.9628 47.2942 96.2698 47.3941 96.6794 47.6446C97.255 47.732 97.7015 47.9072 98.0187 48.1701C98.3559 48.4069 98.6455 48.8146 98.8874 49.3931C99.1618 50.0377 99.3262 50.8264 99.3807 51.759C99.4552 52.6654 99.2189 53.8837 98.672 55.4138C98.3541 56.3728 98.0068 57.1125 97.63 57.6329C97.2764 58.1503 96.8335 58.703 96.3014 59.2913C95.9123 59.7194 95.547 60.0621 95.2055 60.3193C94.864 60.5765 94.4356 60.7984 93.9201 60.985ZM96.138 56.4935C96.5069 55.7391 96.7796 55.0564 96.9562 54.4453C97.1528 53.808 97.2715 53.0285 97.3125 52.1066C97.3246 51.8465 97.2944 51.5333 97.2219 51.1671C97.1462 50.7778 97.0405 50.4277 96.9049 50.1169C96.7924 49.803 96.6653 49.6438 96.5237 49.6393C96.2082 49.5641 95.8735 49.6089 95.5196 49.7738C95.1626 49.9157 94.7958 50.2468 94.4191 50.7672C94.0885 51.2814 93.8003 51.8488 93.5545 52.4691C93.3317 53.0864 93.1398 53.7583 92.9787 54.4848C92.8175 55.2113 92.6741 55.9825 92.5485 56.7982C92.4352 57.7063 92.5364 58.3742 92.8522 58.8018C93.191 59.2264 93.6566 59.2815 94.2489 58.9671C94.8382 58.6297 95.4679 57.8052 96.138 56.4935ZM110.29 46.4906C110.588 46.2627 110.915 46.1601 111.271 46.183C111.623 46.1827 111.909 46.2972 112.127 46.5264C112.366 46.7294 112.441 47.0248 112.352 47.4127C112.379 47.268 112.334 47.3681 112.216 47.7129C112.118 48.0315 111.985 48.4487 111.82 48.9644C111.677 49.4769 111.542 49.9649 111.417 50.4282C111.311 50.8654 111.239 51.1216 111.202 51.1971L111.216 51.3009C111.586 51.2515 111.82 51.3375 111.921 51.559C112.041 51.7544 112.108 51.9922 112.122 52.2722C111.851 52.3555 111.666 52.4626 111.566 52.5935C111.463 52.7013 111.32 52.7791 111.139 52.8269C111.07 52.8362 110.993 52.8816 110.91 52.9633C110.827 53.0449 110.78 53.1334 110.77 53.2288C110.756 53.3012 110.724 53.5875 110.673 54.0877C110.643 54.5617 110.595 55.085 110.531 55.6575C110.487 56.2039 110.437 56.6218 110.382 56.9112C110.361 57.102 110.288 57.2644 110.165 57.3984C110.039 57.5093 109.955 57.5794 109.911 57.6086C109.425 57.4858 109.098 57.4122 108.93 57.3876C108.782 57.337 108.632 57.2632 108.478 57.1663C108.436 57.0309 108.414 56.8693 108.413 56.6816C108.408 56.4707 108.433 56.2206 108.488 55.9313C108.557 55.5696 108.606 55.234 108.635 54.9247C108.684 54.5891 108.716 54.1266 108.731 53.5372C108.633 53.5034 108.437 53.5297 108.143 53.6161C107.869 53.6763 107.574 53.7511 107.257 53.8406C106.94 53.93 106.669 54.0133 106.444 54.0904C106.243 54.1644 106.152 54.1883 106.172 54.1621C106.063 54.2238 105.848 54.2878 105.528 54.3542C105.228 54.3944 104.915 54.4246 104.588 54.4448C104.282 54.4389 104.057 54.4221 103.912 54.3945L103.718 54.5262C103.726 54.7601 103.668 55.1203 103.546 55.6067C103.42 56.07 103.383 56.4979 103.436 56.8903C103.453 57.1934 103.447 57.4997 103.418 57.8091C103.389 58.1184 103.384 58.4362 103.405 58.7625C103.449 59.2734 103.353 59.6036 103.114 59.753C102.899 59.8994 102.53 59.8665 102.008 59.6545C101.884 59.6007 101.758 59.5354 101.63 59.4585C101.525 59.3785 101.407 59.2886 101.276 59.1886L101.473 56.4483C101.522 56.1128 101.563 55.8019 101.595 55.5156C101.624 55.2062 101.666 54.9069 101.721 54.6175C101.838 54.0849 101.941 53.5424 102.032 52.9898C102.145 52.4341 102.287 51.91 102.456 51.4174C102.456 51.4174 102.475 51.2974 102.513 51.0573C102.571 50.791 102.638 50.5001 102.713 50.1845C102.785 49.8459 102.844 49.5796 102.888 49.3857C102.933 49.1917 102.94 49.1556 102.909 49.2772C102.96 49.1294 103.028 48.85 103.114 48.439C103.197 48.005 103.271 47.5956 103.337 47.2108C103.423 46.7998 103.464 46.5828 103.461 46.5597C103.489 46.415 103.546 46.3134 103.632 46.2549C103.715 46.1732 103.826 46.1231 103.964 46.1046C104.354 46.0289 104.689 46.078 104.971 46.2517C105.249 46.4023 105.419 46.6146 105.479 46.8885C105.475 47.0301 105.48 47.1586 105.496 47.274C105.511 47.3894 105.5 47.4848 105.463 47.5603L104.252 52.1989L104.289 52.4758C104.539 52.5834 104.876 52.5617 105.303 52.4106C105.749 52.2333 106.087 52.1292 106.318 52.0982C106.43 52.0597 106.693 52.001 107.105 51.9223C107.541 51.8404 107.955 51.7732 108.347 51.7206C108.763 51.665 108.983 51.6471 109.01 51.6671C109.171 50.9406 109.315 50.2634 109.442 49.6354C109.567 48.9843 109.77 48.3108 110.053 47.615C110.07 47.5658 110.096 47.4095 110.131 47.1463C110.189 46.8801 110.242 46.6615 110.29 46.4906Z" fill="#F5A925"/>
</svg>
