<svg width="130" height="79" viewBox="0 0 130 79" fill="none" xmlns="http://www.w3.org/2000/svg">
<path d="M27.0245 69.6974C50.0245 72.7495 100.734 63.3853 115.024 50.8591C115.505 50.4377 115.99 50.006 116.475 49.564C132.246 35.2039 123.398 9.90627 103.03 3.57489C97.5281 1.86456 91.7922 1 86.0649 1C60.8079 1 37.5172 3.8911 18.0061 19.5C10.2127 25.7347 6.26682 29.7332 3.85344 36.4538C-1.14486 50.3727 2.4552 67.17 15.6272 73.8944C18.9702 75.601 22.2944 76.7257 25.0034 77C39.3033 78.4481 52 78.8833 64.9383 73.3383" stroke="#F5A925" stroke-width="2" stroke-linecap="round"/>
<path d="M45.5681 51.0669C45.5512 51.2075 45.4132 51.2488 45.1541 51.1906C44.9194 51.1547 44.7026 51.0013 44.5037 50.7306C44.2975 50.2971 44.1859 49.8942 44.169 49.5219C44.152 49.1497 44.1383 48.5908 44.1276 47.8452C44.2302 47.0246 44.3681 45.9576 44.5415 44.6441C44.7371 43.3063 44.9607 41.8158 45.2123 40.1724C45.4861 38.5047 45.78 36.7661 46.094 34.9567C46.3308 34.0134 46.5132 33.1541 46.6411 32.379C46.7913 31.5795 46.9017 30.9333 46.9726 30.4405C47.0434 29.9477 47.0788 29.7013 47.0788 29.7013C47.0756 29.6315 47.0074 29.6696 46.8742 29.8155C46.7632 29.9372 46.6532 30.082 46.5443 30.2502C46.4354 30.4183 46.3946 30.5484 46.4221 30.6404C46.4221 30.6404 46.346 30.7605 46.1937 31.0005C46.0415 31.2406 45.8464 31.5642 45.6085 31.9713C45.3864 32.2146 45.1284 32.6926 44.8344 33.4054C44.5405 34.1181 44.2095 34.786 43.8415 35.4089C43.501 36.1238 43.1399 36.8979 42.7582 37.7312C42.3754 38.5413 42.0334 39.2213 41.732 39.7712C41.5364 40.0832 41.3429 40.4417 41.1515 40.8467C40.9601 41.2518 40.8438 41.5135 40.8025 41.632C40.7211 41.8921 40.5725 42.2136 40.3568 42.5964C40.1401 42.956 39.9 43.3166 39.6367 43.6783C39.5066 43.8941 39.3771 44.1214 39.2481 44.3604C39.118 44.5762 39.0102 44.7676 38.9245 44.9347C38.8611 45.0774 38.8294 45.1488 38.8294 45.1488C38.8325 45.2186 38.7257 45.4333 38.509 45.7929C38.3155 46.1514 38.0654 46.5474 37.7587 46.981C37.4753 47.4136 37.2009 47.7874 36.9355 48.1026C36.1604 49.0004 35.5323 49.5419 35.0511 49.727C34.5689 49.8888 34.0126 49.7043 33.3823 49.1735C33.0629 48.815 32.8228 48.4063 32.6621 47.9473C32.5003 47.4651 32.4151 46.8745 32.4066 46.1755C32.3971 45.4532 32.4377 44.5538 32.5286 43.4772C32.6544 42.6555 32.7686 41.8343 32.8711 41.0137C32.9726 40.1698 33.0651 39.3846 33.1486 38.6581C33.2543 37.9072 33.3421 37.2738 33.4118 36.7577C33.5049 36.2406 33.5826 35.899 33.645 35.733C33.6703 35.2655 33.6471 35.0102 33.5751 34.9668C33.5032 34.9234 33.37 35.0694 33.1754 35.4046C33.0898 35.5717 32.864 35.99 32.4982 36.6594C32.1312 37.3056 31.7014 38.1061 31.2086 39.0611C30.7391 40.015 30.2734 41.0503 29.8113 42.1671C28.9379 43.9786 28.2135 45.4803 27.6383 46.6722C27.0853 47.8397 26.638 48.7693 26.2965 49.4609C25.9782 50.1515 25.745 50.6633 25.597 50.9965C25.4489 51.3296 25.3427 51.5559 25.2782 51.6754C25.2137 51.7949 25.1592 51.879 25.1148 51.9276C24.9054 51.9372 24.6802 51.8541 24.439 51.6786C24.2222 51.5253 23.9922 51.3376 23.749 51.1155C23.6718 50.9558 23.6295 50.7946 23.6221 50.6317C23.6379 50.4678 23.7088 50.2314 23.8346 49.9226C23.9594 49.5906 24.1465 49.0925 24.396 48.4283C24.671 47.8097 24.9263 47.2735 25.1621 46.8198C25.3969 46.3429 25.5819 46.0547 25.7173 45.9553C25.8252 45.7639 25.9214 45.573 26.006 45.3826C26.0906 45.1923 26.1387 44.9686 26.1503 44.7116C26.2603 44.5667 26.422 44.2796 26.6356 43.8503C26.8714 43.3966 27.1057 42.908 27.3383 42.3845C27.5106 42.0736 27.7253 41.6675 27.9823 41.1662C28.2625 40.6639 28.5522 40.1145 28.8515 39.518C29.1496 38.8983 29.4145 38.3151 29.6461 37.7683C30.6327 35.8817 31.4696 34.2933 32.1569 33.0031C32.8432 31.6896 33.3645 30.8499 33.7209 30.484C33.8319 30.3624 33.9408 30.1942 34.0476 29.9795C34.1777 29.7638 34.239 29.5745 34.2316 29.4117C34.2094 28.9231 34.2823 28.4768 34.4504 28.0728C34.6408 27.6445 34.8417 27.4489 35.0532 27.4859C35.2858 27.4753 35.4963 27.489 35.6845 27.5271C35.8728 27.5652 36.0774 27.7074 36.2984 27.9538C36.4973 28.2245 36.6728 28.4963 36.8251 28.7691C36.9774 29.0419 36.9912 29.6008 36.8664 30.4458C36.8813 30.7715 36.8633 31.1453 36.8126 31.5673C36.7608 31.966 36.7079 32.3414 36.654 32.6935C36.6223 33.0214 36.599 33.2789 36.5842 33.466C36.3231 34.3872 36.0905 35.4235 35.8864 36.5752C35.6813 37.7035 35.5005 38.8541 35.3441 40.0269C35.1866 41.1764 35.0608 42.2546 34.9667 43.2613C34.8716 44.2448 34.8156 45.0634 34.7987 45.7169C34.804 46.3461 34.8437 46.7057 34.9177 46.7956C35.0848 46.8812 35.2249 46.8865 35.3381 46.8114C35.4512 46.7363 35.6352 46.4249 35.89 45.8771C36.0402 45.5905 36.2459 45.2431 36.5071 44.8349C36.7904 44.4023 37.0638 44.0052 37.3271 43.6435C37.4984 43.3093 37.767 42.8075 38.1329 42.1381C38.4987 41.4687 38.9608 40.6084 39.5191 39.5572C40.1007 38.5049 40.7886 37.2264 41.5827 35.7215C42.399 34.1923 43.3211 32.4251 44.3489 30.42C44.8469 29.5814 45.3111 28.7676 45.7415 27.9787C46.1941 27.1654 46.5663 26.6356 46.8582 26.3892C47.1701 26.0719 47.5043 25.9868 47.8607 26.1338C48.216 26.2575 48.5322 26.5462 48.8093 26.9998C49.1097 27.4524 49.2874 28.0272 49.3424 28.7241C49.3805 29.0487 49.3578 29.5743 49.2742 30.3008C49.214 31.0263 49.1004 31.8591 48.9333 32.7992C48.7652 33.7161 48.5405 34.6705 48.2593 35.6625C48.2075 36.0612 48.1139 36.5666 47.9786 37.179C47.8655 37.7669 47.7301 38.3792 47.5726 39.0159C47.4151 39.6525 47.2559 40.2542 47.0952 40.8211C47.0138 41.5941 46.9086 42.3566 46.7797 43.1085C46.6739 43.8593 46.6502 44.3617 46.7084 44.6155C46.5159 44.9972 46.4007 45.5387 46.3626 46.2398C46.3246 46.9409 46.3225 47.6638 46.3564 48.4082C46.3046 49.3198 46.2639 49.9628 46.2343 50.3372C46.2047 50.7115 46.1313 50.8897 46.0139 50.8717C45.7072 50.7924 45.5586 50.8575 45.5681 51.0669ZM56.0706 47.6865C55.6011 48.1275 55.0423 48.3977 54.394 48.4971C53.769 48.5955 53.1482 48.5305 52.5317 48.3021C51.9141 48.0504 51.3948 47.6544 50.9739 47.1141C50.5551 46.6202 50.2727 46.0502 50.1268 45.4041C49.9798 44.7347 49.9284 43.8628 49.9728 42.7883C50.0013 41.8778 50.2508 40.9572 50.7214 40.0266C51.1909 39.0727 51.7698 38.2187 52.4582 37.4647C53.1699 36.7096 53.88 36.1761 54.5885 35.864C54.9269 35.6155 55.2129 35.4976 55.4467 35.5103C55.7026 35.4986 56.0875 35.5044 56.6015 35.5277C57.1397 35.5731 57.54 35.6598 57.8023 35.7878C58.0878 35.9146 58.3173 36.0907 58.4907 36.3159C58.8556 36.649 59.1041 36.9874 59.2363 37.3311C59.3675 37.6515 59.4405 37.9746 59.4553 38.3003C59.3855 38.8164 59.0651 39.4604 58.4941 40.2325C57.9453 40.9801 57.2045 41.6083 56.2718 42.117C55.7674 42.3032 55.2122 42.3984 54.6063 42.4027C54.0003 42.4069 53.4932 42.2785 53.085 42.0173C52.6345 41.8513 52.3453 41.8994 52.2173 42.1617C52.0883 42.4007 51.9868 42.9881 51.9128 43.924C51.86 44.8123 51.9595 45.4606 52.2112 45.8688C52.4618 46.2537 52.7865 46.4721 53.1852 46.5239C53.6547 46.5957 54.0185 46.6491 54.2765 46.684C54.5568 46.6946 54.8894 46.5745 55.2743 46.3239C55.6359 46.0743 55.8628 45.9358 55.9548 45.9083C56.0457 45.8575 56.1134 45.8078 56.1578 45.7591C56.2244 45.6862 56.3688 45.5281 56.5908 45.2848C56.7463 45.1145 56.8689 44.9924 56.9588 44.9184C57.0477 44.8211 57.1502 44.7698 57.2666 44.7645C57.3829 44.7592 57.4902 44.8126 57.5886 44.9247C57.6859 45.0135 57.7821 45.0791 57.8773 45.1214C58.1099 45.1108 58.1628 45.2483 58.0359 45.5338C57.9323 45.8183 57.7034 46.1667 57.3491 46.5792C56.9938 46.9684 56.5677 47.3375 56.0706 47.6865ZM55.6991 40.2897C55.9497 40.1617 56.2099 39.9867 56.4795 39.7646C56.7481 39.5192 56.9697 39.2644 57.1441 39C57.3408 38.7113 57.4349 38.4739 57.4265 38.2877C57.4116 37.962 57.2482 37.7014 56.9363 37.5057C56.6232 37.2868 56.168 37.2726 55.5705 37.463C55.3177 37.5444 55.0349 37.7321 54.7218 38.0261C54.4078 38.2969 54.1069 38.602 53.8193 38.9415C53.5549 39.2799 53.3355 39.5813 53.161 39.8457C53.0098 40.109 52.9586 40.2629 53.0072 40.3073C53.0823 40.4204 53.2843 40.5045 53.6132 40.5595C53.941 40.5912 54.3021 40.5864 54.6966 40.5451C55.1143 40.5028 55.4485 40.4177 55.6991 40.2897ZM62.651 48.4361C62.4839 48.3505 62.3052 48.2654 62.1148 48.1808C61.9477 48.0951 61.7807 48.0095 61.6136 47.9238C61.4697 47.8371 61.3375 47.7499 61.217 47.6621C60.7083 47.2423 60.3609 46.7802 60.1747 46.2758C60.0108 45.747 59.941 45.2373 59.9653 44.7466C59.9896 44.2559 60.0403 43.834 60.1175 43.4807C60.1936 43.1043 60.2285 42.8462 60.2222 42.7066C60.1904 42.5216 60.2174 42.3455 60.303 42.1784C60.3876 41.9881 60.4722 41.7977 60.5568 41.6073C60.9385 40.774 61.2906 40.0586 61.6132 39.4611C61.9579 38.8392 62.4612 38.1169 63.1232 37.2941C63.2575 37.1715 63.3807 37.0609 63.4928 36.9626C63.6271 36.8399 63.7629 36.7521 63.9004 36.6993L64.7301 37.256C64.8274 37.3448 64.8908 37.4585 64.9204 37.597C64.949 37.7123 64.9331 37.8762 64.8729 38.0888C64.8338 38.2538 64.783 38.4193 64.7206 38.5853C64.6804 38.727 64.6165 38.8581 64.5287 38.9787C64.1501 39.3689 63.8551 39.802 63.6436 40.2779C63.4311 40.7305 63.2074 41.1953 62.9727 41.6723C62.9822 41.8816 62.9087 42.0598 62.7522 42.2068C62.5947 42.3306 62.5095 42.5093 62.4969 42.743C62.5043 42.9059 62.4884 43.0698 62.4493 43.2348C62.4102 43.3997 62.3716 43.5763 62.3335 43.7646C62.1876 44.1442 62.1342 44.508 62.1734 44.8559C62.2125 45.2039 62.2406 45.5639 62.2575 45.9362C62.4478 46.0208 62.6134 46.0715 62.754 46.0884C62.8936 46.0821 63.0744 45.9573 63.2965 45.7141C63.7438 45.2974 64.0536 44.9336 64.226 44.6227C64.4216 44.3107 64.5707 44.0008 64.6733 43.6931C64.7758 43.3853 64.9228 43.029 65.1142 42.6239C65.3289 42.2178 65.5039 41.7086 65.6392 41.0963C65.7745 40.484 65.8649 39.9087 65.9104 39.3704C65.9547 38.8089 65.9378 38.4366 65.8595 38.2537C65.831 38.1384 65.8363 37.9983 65.8754 37.8333C65.9145 37.6684 65.8373 37.5087 65.6438 37.3543C65.7326 37.257 65.7712 37.0804 65.7595 36.8245C65.7479 36.5686 65.7125 36.3021 65.6532 36.025C65.594 35.7479 65.5152 35.5534 65.4168 35.4413C65.328 34.5128 65.2576 33.735 65.2057 33.1079C65.1761 32.4564 65.1623 31.8975 65.1644 31.4312C65.1887 30.9405 65.2262 30.4842 65.277 30.0622C65.2971 29.9914 65.4261 29.7524 65.664 29.3452C65.9241 28.9137 66.1652 28.5764 66.3873 28.3331C66.7669 27.9662 67.2898 27.6743 67.9561 27.4574C68.6445 27.2163 69.2341 27.1079 69.7247 27.1322C69.7025 27.1565 69.8427 27.1618 70.1451 27.148C70.4708 27.1332 70.8309 27.1051 71.2254 27.0639C71.6198 27.0226 71.9096 26.9861 72.0946 26.9544C72.2786 26.8994 72.4626 26.8444 72.6466 26.7894C72.8306 26.7344 73.1378 26.5689 73.5682 26.2928C73.7491 26.1681 73.8987 26.1263 74.0171 26.1675L74.9959 26.9273C75.0023 27.5798 74.8617 28.0758 74.574 28.4152C74.2854 28.7314 73.7127 28.9557 72.8561 29.0879C72.7165 29.0942 72.5653 29.1011 72.4025 29.1085C72.2386 29.0927 72.0762 29.1117 71.9155 29.1657C71.778 29.2185 71.6501 29.2244 71.5316 29.1831C71.4364 29.1408 71.2958 29.1239 71.1097 29.1324C70.8537 29.144 70.5878 29.1911 70.3118 29.2736C70.0347 29.3328 69.7434 29.3344 69.4377 29.2784C68.6108 29.5492 67.9736 29.8929 67.5263 30.3096C67.079 30.7263 66.876 31.3883 66.9173 32.2956C67.0495 33.1522 67.2008 33.9147 67.3711 34.583C67.5646 35.2503 67.6799 35.9911 67.717 36.8053C67.7731 37.0126 67.8392 37.1845 67.9153 37.3209C67.9915 37.4573 67.9634 37.6101 67.8313 37.7793C67.9719 38.3091 68.0539 38.8299 68.0772 39.3418C68.0994 39.8303 68.0466 40.2058 67.9186 40.468C67.8795 40.633 67.8584 40.937 67.8552 41.3801C67.8743 41.7989 67.7781 42.2463 67.5666 42.7221C67.0812 43.84 66.579 44.842 66.0598 45.7282C65.5395 46.5912 64.8622 47.333 64.0279 47.9538C63.8692 48.0543 63.6747 48.1331 63.4441 48.1902C63.2369 48.2463 62.9725 48.3283 62.651 48.4361ZM73.3291 48.23C72.3054 48.2766 71.4504 47.9308 70.7641 47.1927C70.0766 46.4313 69.7181 45.4685 69.6884 44.3042C69.6968 43.4645 69.8189 42.5614 70.0547 41.5948C70.3127 40.6039 70.6659 39.6553 71.1142 38.749C71.5615 37.8194 72.0606 37.004 72.6115 36.3029C73.1625 35.6017 73.7457 35.0972 74.3611 34.7895C74.5885 34.6626 74.8285 34.5584 75.0813 34.477C75.3573 34.3945 75.6349 34.3469 75.9141 34.3341C76.17 34.3225 76.4396 34.3569 76.7231 34.4372C77.0054 34.4943 77.2418 34.5652 77.4321 34.6497C77.8351 34.7946 78.1465 34.9786 78.3665 35.2017C78.5864 35.4248 78.789 35.777 78.9741 36.2581C79.064 36.697 79.1132 37.0095 79.1216 37.1956C79.1301 37.3817 79.0846 37.6636 78.9853 38.0411C78.7442 38.8914 78.4164 39.629 78.0019 40.254C77.5874 40.879 77.0174 41.4179 76.292 41.8705C76.1111 41.9953 75.8943 42.0984 75.6416 42.1799C75.4111 42.237 75.1678 42.2714 74.9119 42.283C74.4466 42.3042 73.9892 42.2434 73.5398 42.1006C73.1125 41.9336 72.763 41.6814 72.4912 41.344L72.2342 41.076L72.1422 41.3599C71.9382 41.9987 71.7785 42.5888 71.6633 43.1302C71.5713 43.6706 71.5354 44.1618 71.5555 44.6039C71.5682 44.8831 71.6036 45.1496 71.6618 45.4034C71.7432 45.6561 71.8464 45.8729 71.9712 46.0537C72.0706 46.1891 72.2266 46.2869 72.4391 46.3471C72.6739 46.3831 72.9192 46.3952 73.1751 46.3836C73.338 46.3762 73.5009 46.3688 73.6637 46.3614C73.8488 46.3296 74.0212 46.2752 74.1808 46.198C74.57 46.0404 74.8772 45.8748 75.1024 45.7014C75.3509 45.5269 75.5989 45.3408 75.8464 45.143L75.9828 45.0669L75.9479 45.0684C76.2207 44.9161 76.4586 44.7654 76.6617 44.6163C76.888 44.4661 77.0011 44.3911 77.0011 44.3911C77.0942 44.3868 77.1846 44.3244 77.2724 44.2039C77.4543 44.1023 77.6885 44.1266 77.9751 44.2768C78.285 44.4259 78.4457 44.6284 78.4574 44.8843C78.4394 45.0017 78.3432 45.1926 78.1687 45.457C77.9931 45.6981 77.7938 45.9286 77.5707 46.1486C77.3708 46.3675 77.2016 46.4918 77.0631 46.5214C77.0409 46.5457 76.9616 46.596 76.8252 46.6721C76.6877 46.725 76.5968 46.7758 76.5523 46.8244L76.5872 46.8228C76.3906 47.1115 76.1875 47.2607 75.9781 47.2702L75.6989 47.2829C75.6133 47.45 75.3193 47.6499 74.817 47.8825C74.3136 48.092 73.8177 48.2078 73.3291 48.23ZM74.5502 40.481C74.9689 40.462 75.3243 40.3292 75.6161 40.0828C75.9302 39.8121 76.1967 39.5202 76.4156 39.2071C76.8523 38.5578 77.0923 37.9407 77.1356 37.3559C77.2012 36.7468 77.1123 36.3312 76.8691 36.1091C76.7263 36.0457 76.5968 36.0166 76.4804 36.0219C76.3863 36.0029 76.1901 36.0468 75.8919 36.1536C75.6847 36.2097 75.4018 36.3974 75.0433 36.7168C74.6848 37.0362 74.3279 37.3904 73.9726 37.7796C73.6406 38.1677 73.3873 38.494 73.2128 38.7584L72.7925 39.5119C72.9755 39.4336 73.1484 39.3908 73.3112 39.3834C73.4963 39.3516 73.6015 39.3585 73.6269 39.404C73.6364 39.6134 73.6803 39.8095 73.7586 39.9925C73.8591 40.1511 73.9696 40.2743 74.0901 40.3621C74.234 40.4488 74.3873 40.4884 74.5502 40.481ZM79.6175 47.1745C79.4504 47.0889 79.2733 47.0386 79.0861 47.0239C78.9222 47.008 78.7466 46.9927 78.5595 46.9779C78.3892 46.8224 78.2422 46.6659 78.1184 46.5084C78.0169 46.3265 77.9376 46.1203 77.8805 45.8897C77.8509 45.7512 77.8683 45.6222 77.9328 45.5027C77.9973 45.3832 78.0623 45.2753 78.1279 45.1791C78.1977 45.1759 78.2797 45.1838 78.3738 45.2028C78.4668 45.1986 78.5599 45.1944 78.653 45.1901C79.0347 44.8697 79.3689 44.5281 79.6554 44.1654C79.9642 43.7783 80.2608 43.3801 80.5453 42.9709C80.8509 42.514 81.1216 42.0587 81.3574 41.605C81.5921 41.1281 81.7793 40.63 81.9188 40.1107C81.9791 39.8982 82.0161 39.6867 82.0298 39.4762C82.0425 39.2425 82.0912 39.0305 82.1758 38.8401C82.3026 38.5546 82.3946 38.2706 82.4517 37.9883C82.531 37.6816 82.6109 37.3866 82.6912 37.1031C82.3391 37.0492 82.0694 37.0149 81.8822 37.0001C81.7172 36.961 81.5623 36.8864 81.4174 36.7764C81.2725 36.6665 81.0668 36.501 80.8003 36.28C80.7622 35.9553 80.7866 35.7211 80.8733 35.5772C80.9589 35.4101 81.1741 35.2721 81.5189 35.1632C81.6563 35.1103 81.7943 35.0691 81.9329 35.0394C82.0703 34.9866 82.2089 34.9569 82.3485 34.9506C82.6033 34.9157 82.8587 34.8924 83.1146 34.8808C83.3706 34.8691 83.6386 34.8686 83.9189 34.8791C84.1061 34.8939 84.2938 34.9204 84.482 34.9584C84.6702 34.9965 84.8585 35.0345 85.0467 35.0726C85.2593 35.1329 85.4729 35.2164 85.6876 35.3232C85.9012 35.4067 86.1143 35.4786 86.3269 35.5389C86.4908 35.5548 86.6447 35.606 86.7885 35.6927C86.9323 35.7795 87.0883 35.8773 87.2564 35.9862C87.6869 36.223 88.0274 36.5339 88.278 36.9189C88.5276 37.2805 88.663 37.694 88.6842 38.1593C88.717 38.8805 88.643 39.56 88.4622 40.1977C88.366 40.645 88.2582 41.0929 88.1387 41.5413C88.0425 41.9886 87.9346 42.4365 87.8151 42.8848C87.7358 43.1915 87.656 43.4866 87.5757 43.77C87.4953 44.0534 87.4387 44.3474 87.406 44.652C87.3711 44.91 87.3484 45.1791 87.3378 45.4594C87.3272 45.7396 87.3056 46.032 87.2728 46.3366C87.1808 46.3641 87.0888 46.3916 86.9968 46.4191C86.9281 46.4455 86.8366 46.4847 86.7224 46.5365C86.4622 46.4551 86.1904 46.3742 85.907 46.2938C85.6225 46.1902 85.4137 45.9549 85.2804 45.588C85.2783 45.5414 85.2762 45.4949 85.2741 45.4484C85.2942 45.3775 85.3021 45.2956 85.2978 45.2025C85.2947 45.1327 85.2915 45.0629 85.2883 44.9931C85.2851 44.9233 85.282 44.8535 85.2788 44.7837C85.3063 44.3628 85.3575 43.9525 85.4326 43.5528C85.5066 43.1298 85.6044 42.7173 85.726 42.3155C85.8909 41.8417 86.0215 41.3812 86.1177 40.9338C86.2129 40.4632 86.3086 40.0043 86.4048 39.5569C86.4651 39.3444 86.5021 39.1329 86.5158 38.9224C86.5517 38.6876 86.5766 38.465 86.5903 38.2546C86.6019 37.9976 86.5305 37.7094 86.3761 37.3901C86.135 37.2145 85.8844 37.0861 85.6242 37.0046C85.363 36.9 85.0801 36.8312 84.7756 36.7985C84.7364 36.9634 84.6629 37.1416 84.5551 37.3331C84.5339 37.3806 84.5255 37.451 84.5297 37.544C84.5329 37.6138 84.5117 37.6614 84.4663 37.6868C84.3309 37.7862 84.2437 37.9184 84.2046 38.0834C84.1876 38.224 84.1713 38.3763 84.1554 38.5402C84.1374 38.6576 84.1078 38.7755 84.0666 38.894C84.0254 39.0124 83.9725 39.1314 83.908 39.2509C83.8192 39.3482 83.7668 39.4788 83.751 39.6427C83.734 39.7834 83.7177 39.9356 83.7018 40.0996C83.6712 40.4507 83.6051 40.7917 83.5036 41.1227C83.4021 41.4537 83.2673 41.8212 83.0991 42.2252C82.9902 42.3933 82.8935 42.5726 82.8089 42.7629C82.7232 42.93 82.6381 43.1088 82.5535 43.2991C82.5345 43.3932 82.4922 43.4884 82.4266 43.5847C82.36 43.6576 82.3061 43.7533 82.2648 43.8718C82.1591 44.1097 82.0422 44.3598 81.9143 44.6221C81.7853 44.8611 81.632 45.0779 81.4543 45.2725C81.1656 45.5887 80.8775 45.9165 80.5898 46.256C80.3255 46.5944 80.0014 46.9006 79.6175 47.1745ZM92.3556 46.6998C92.0035 46.6459 91.6762 46.6258 91.3737 46.6396C91.0945 46.6523 90.8254 46.6296 90.5663 46.5714C90.3294 46.4889 90.1126 46.3356 89.9159 46.1114C89.6494 45.8904 89.4506 45.6197 89.3194 45.2993C89.1872 44.9556 89.1116 44.5744 89.0925 44.1556C89.0576 43.3878 89.1464 42.5212 89.3589 41.5557C89.5936 40.5658 89.8754 39.5855 90.2043 38.6147C90.5331 37.6439 90.854 36.755 91.167 35.9481C91.48 35.1412 91.7078 34.513 91.8506 34.0636C91.7924 33.8098 91.8675 33.6665 92.0758 33.6337C92.3074 33.5999 92.5644 33.6115 92.8467 33.6686C93.128 33.7024 93.3163 33.7405 93.4115 33.7828C93.5585 33.9393 93.706 34.1074 93.8541 34.2872C94.0011 34.4437 94.091 34.6261 94.1237 34.8344C94.1809 35.065 94.1333 35.3003 93.981 35.5403C93.852 35.7793 93.7214 35.9834 93.5892 36.1526C93.3682 36.4191 93.1414 36.8141 92.9088 37.3376C92.6762 37.8611 92.4472 38.466 92.222 39.1523C92.019 39.8144 91.8398 40.4869 91.6844 41.1701C91.529 41.8533 91.4063 42.4883 91.3164 43.0752C91.2488 43.6378 91.2345 44.0931 91.2737 44.441C91.9346 44.6208 92.5887 44.6493 93.2359 44.5266C93.8831 44.4039 94.4552 44.168 94.9522 43.819C95.4714 43.4457 95.8606 43.0317 96.1197 42.5769C96.4221 42.0503 96.5056 41.5802 96.3702 41.1667C96.257 40.7289 95.862 40.5021 95.1852 40.4862C94.8352 40.4789 94.51 40.5053 94.2097 40.5656C93.9094 40.6259 93.5974 40.6867 93.2738 40.7481C93.1025 40.5694 92.9787 40.4118 92.9026 40.2754C92.8264 40.139 92.7736 40.0015 92.7439 39.863C92.7069 39.5616 92.8121 39.312 93.0596 39.1142C93.3292 38.8921 93.6364 38.7266 93.9812 38.6177C94.3492 38.5077 94.6738 38.4696 94.9551 38.5034C95.4236 38.552 95.8958 38.6821 96.3717 38.8936C96.8708 39.104 97.2791 39.3652 97.5963 39.6771C97.7909 39.8548 97.9522 40.0689 98.0802 40.3195C98.2304 40.5459 98.3229 40.7864 98.3578 41.0413C98.4773 41.6187 98.4895 42.1427 98.3944 42.6133C98.2982 43.0606 98.1189 43.4768 97.8567 43.8617C97.4422 44.4867 96.7902 45.0176 95.9009 45.4544C95.0348 45.8902 94.2253 46.2883 93.4724 46.649C93.2397 46.6596 93.0531 46.6564 92.9124 46.6395C92.794 46.5983 92.6084 46.6184 92.3556 46.6998Z" fill="#F5A925"/>
</svg>
