<svg width="140" height="95" viewBox="0 0 140 95" fill="none" xmlns="http://www.w3.org/2000/svg">
<path d="M26.6976 71.746C26.6976 71.746 26.6579 71.7324 26.5784 71.7051C26.5049 71.7004 26.4089 71.7016 26.2904 71.7087C26.1944 71.7099 26.0788 71.7283 25.9437 71.7639C25.5596 71.7686 25.2472 71.6341 25.0066 71.3603C24.7718 71.109 24.6521 70.7914 24.6473 70.4073C24.7137 70.2935 24.7308 70.0843 24.6988 69.7796C24.6668 69.475 24.627 69.2326 24.5796 69.0524C24.6223 68.8485 24.646 68.7098 24.6507 68.6363C24.6495 68.5403 24.6465 68.3002 24.6417 67.9162C24.6085 67.5155 24.5818 66.9566 24.5616 66.2394C24.558 65.4938 24.5537 64.7002 24.5489 63.8586C24.5666 63.011 24.582 62.2002 24.5949 61.4261C24.6079 60.6521 24.628 59.9965 24.6552 59.4596C24.705 58.9166 24.7547 58.6025 24.8045 58.5172C24.8045 58.5172 24.7956 58.4834 24.7778 58.4158C24.7541 58.3257 24.7304 58.2356 24.7067 58.1455C24.7067 58.1455 24.6912 58.0412 24.6604 57.8326C24.6462 57.5955 24.6935 57.3181 24.8026 57.0004C24.8274 56.729 24.8351 56.438 24.8256 56.1274C24.8161 55.8168 24.7995 55.6165 24.7758 55.5264C24.8362 55.3901 24.8889 55.0872 24.9339 54.6178C24.9955 54.1199 25.0488 53.6363 25.0938 53.1668C25.1341 52.7709 25.1797 52.3495 25.2306 51.9026C25.3041 51.4498 25.3586 51.0622 25.3941 50.7397C25.4522 50.4114 25.4812 50.2472 25.4812 50.2472C25.4575 50.1571 25.4456 50.1121 25.4456 50.1121C25.4397 50.0895 25.4367 50.0783 25.4367 50.0783C25.5031 49.9645 25.5985 49.4577 25.7229 48.558C25.8639 47.6298 26.0665 46.4325 26.3307 44.9662C26.3733 44.7623 26.4326 44.5299 26.5084 44.2691C26.5843 44.0083 26.6103 43.8329 26.5866 43.7428C26.6518 43.533 26.7887 43.4127 26.9973 43.3818C27.2 43.3285 27.4205 43.3427 27.6588 43.4244C27.9196 43.5003 28.1389 43.6473 28.3167 43.8654L28.7968 44.3169L28.221 47.0695C28.0266 47.795 27.8738 48.4493 27.7624 49.0325C27.6735 49.6098 27.641 49.9435 27.6647 50.0336C27.6647 50.0336 27.6446 50.2316 27.6043 50.6275C27.564 51.0234 27.519 51.4929 27.4693 52.0358C27.4195 52.5787 27.3805 53.0706 27.3521 53.5116C27.2881 54.275 27.2028 54.9116 27.0962 55.4213C27.0121 55.9251 26.9819 56.222 27.0056 56.3121C26.9937 56.2671 27.2326 56.1681 27.7221 56.0151C28.2117 55.8622 28.8393 55.6849 29.6051 55.4833C30.3708 55.2817 31.1478 55.0772 31.9361 54.8697C32.741 54.6337 33.4474 54.4357 34.0555 54.2756C34.6802 54.087 35.0992 53.9406 35.3126 53.8363L37.0249 53.2049L37.2574 49.4229C37.2716 48.7448 37.3065 47.9168 37.3621 46.9389C37.4178 45.9609 37.4752 45.127 37.5344 44.4371C37.622 43.3062 37.7346 42.5902 37.872 42.2891C38.0095 41.988 38.2134 41.8019 38.4836 41.7307C38.5512 41.7129 38.6472 41.7118 38.7717 41.7272C38.9128 41.7141 39.0514 41.7378 39.1878 41.7982C39.3407 41.8302 39.4575 41.9079 39.5381 42.0311C39.8736 42.2077 40.0715 42.4566 40.132 42.7779C40.215 43.0932 40.1445 43.5573 39.9206 44.1701C39.7203 44.8731 39.5912 45.6175 39.5331 46.4035C39.4917 47.1609 39.4402 47.7886 39.3786 48.2865C39.4498 48.5567 39.4753 48.7909 39.4551 48.9888C39.4291 49.1643 39.3829 49.3089 39.3165 49.4227C39.2833 49.4796 39.2377 49.6722 39.1796 50.0006C39.1216 50.3289 39.0748 50.6543 39.0392 50.9768C39.0037 51.2992 38.9948 51.4942 39.0126 51.5618C39.0541 51.7194 39.0707 51.9197 39.0625 52.1628C39.0542 52.4058 39.0169 52.5842 38.9505 52.698C38.941 52.845 38.9286 53.2095 38.9132 53.7915C38.8979 54.3735 38.8867 55.0628 38.8796 55.8594C38.8667 56.6335 38.8395 57.3993 38.7981 58.1567C38.7507 58.8917 38.6962 59.5081 38.6346 60.006C38.6761 60.1636 38.6732 60.3811 38.6258 60.6585C38.5725 60.9134 38.5695 61.1309 38.617 61.3111C38.598 61.6051 38.5744 61.9725 38.5459 62.4135C38.5175 62.8545 38.5182 63.1313 38.5478 63.2439C38.5716 63.7915 38.587 64.3534 38.5942 64.9295C38.6239 65.4997 38.6441 65.9881 38.6548 66.3947C38.6939 66.8178 38.7224 67.0632 38.7402 67.1308C38.6738 67.2446 38.5416 67.2914 38.3437 67.2713C38.1457 67.2511 37.911 67.2286 37.6395 67.2038C37.1464 67.0687 36.8163 66.8666 36.6491 66.5975C36.5104 66.3451 36.4967 65.9272 36.6081 65.344C36.6733 65.1342 36.6928 64.6594 36.6666 63.9197C36.6571 63.1516 36.6505 62.3947 36.6469 61.6491C36.6931 61.2757 36.7209 60.7867 36.7303 60.1822C36.7338 59.5551 36.7373 58.928 36.7408 58.3009C36.7384 57.6513 36.7401 57.109 36.746 56.674C36.746 56.2164 36.7625 55.9592 36.7957 55.9023C36.772 55.8122 36.7513 55.7334 36.7335 55.6658C36.7157 55.5982 36.7068 55.5645 36.7068 55.5645C36.6499 55.5313 36.3595 55.5716 35.8355 55.6854C35.3057 55.7768 34.6608 55.9345 33.901 56.1586C33.1353 56.3602 32.3417 56.5932 31.5202 56.8576C30.7153 57.0936 29.9982 57.3426 29.3688 57.6046C29.121 57.6698 28.8395 57.7439 28.5242 57.8269C28.2089 57.9099 27.9612 57.9752 27.781 58.0226C27.5332 58.0878 27.3193 58.1441 27.1391 58.1916C26.9814 58.2331 26.9026 58.2538 26.9026 58.2538C26.8979 58.3273 26.8813 58.5845 26.8529 59.0255C26.8245 59.4665 26.7973 60.0035 26.7713 60.6365C26.7393 61.247 26.702 61.8829 26.6594 62.5444C26.6334 63.1774 26.618 63.7594 26.6133 64.2905C26.6252 64.7931 26.6353 65.1517 26.6437 65.3662C26.6603 65.7953 26.6698 66.3347 26.6722 66.9843C26.6972 67.6279 26.7026 68.2888 26.6884 68.9668C26.7027 69.6615 26.7045 70.2631 26.6939 70.7716C26.7058 71.2742 26.707 71.599 26.6976 71.746ZM42.9177 63.1772C42.7801 63.0208 42.6319 62.9153 42.4731 62.8608C42.3083 62.7837 42.2141 62.7002 42.1904 62.6101C42.1666 62.52 42.1317 62.4329 42.0854 62.3487C42.0558 62.2361 41.9841 62.1466 41.8703 62.0802C41.7221 61.9748 41.6533 61.6677 41.6639 61.1592C41.6686 60.6281 41.7367 59.972 41.8682 59.1908C41.9938 58.3871 42.1668 57.5348 42.3872 56.6339C42.5199 56.4063 42.6379 56.1224 42.741 55.7822C42.8441 55.4419 42.9288 55.2149 42.9952 55.1011C42.9715 55.011 42.9845 54.9233 43.0343 54.838C43.0781 54.7301 43.1451 54.6643 43.2352 54.6406L43.1818 54.4379C43.1522 54.3253 43.2031 54.1071 43.3347 53.7835C43.4887 53.454 43.6819 53.09 43.9142 52.6917C44.1406 52.2709 44.3842 51.8696 44.6449 51.4879C44.8997 51.0836 45.122 50.7843 45.3116 50.5899C45.7016 50.1501 46.1354 49.8312 46.6131 49.6332C47.1133 49.4292 47.5821 49.4262 48.0196 49.6241C48.1049 49.6739 48.2472 49.7569 48.4463 49.873C48.6455 49.9892 48.8731 50.1219 49.1292 50.2713C49.4018 50.3922 49.6774 50.5243 49.956 50.6677L51.4995 51.4535L51.336 53.3027C51.2804 54.2807 51.4091 55.0897 51.7221 55.7298C52.0576 56.3639 52.437 56.8902 52.8602 57.3086C53.0381 57.5267 53.3255 57.7039 53.7227 57.8402C54.1423 57.9706 54.5157 58.0168 54.8429 57.9788C55.029 57.9539 55.2157 57.977 55.403 58.0481C55.5903 58.1192 55.7165 58.2786 55.7817 58.5264C55.841 58.7516 55.8434 58.9436 55.7889 59.1025C55.7344 59.2613 55.6005 59.3929 55.3871 59.4972C54.6676 59.783 53.922 59.7866 53.1503 59.5081C52.4011 59.2237 51.6198 58.6346 50.8066 57.7409C50.6809 57.6295 50.4918 57.4143 50.2393 57.0955C50.0034 56.7482 49.8593 56.5212 49.8072 56.4145C49.7467 56.5508 49.6341 56.8093 49.4694 57.1898C49.2987 57.5478 49.1636 57.8122 49.0641 57.9829C47.8919 60.0254 46.7943 61.4824 45.7714 62.3537C44.7651 63.1966 43.8138 63.4711 42.9177 63.1772ZM43.6358 60.9652C43.6773 61.1229 43.9138 61.0606 44.3452 60.7785C44.7933 60.4678 45.2396 60.0132 45.684 59.4145C46.2778 58.5598 46.8539 57.6375 47.4121 56.6477C47.9928 55.6519 48.4308 54.7539 48.7259 53.9537L49.1489 52.5419C48.7873 52.0832 48.4477 51.7993 48.13 51.6903C47.8289 51.5528 47.5883 51.5078 47.4081 51.5552C47.1153 51.6323 46.7473 52.0182 46.304 52.7128C45.8832 53.4016 45.4649 54.2824 45.0489 55.3552C44.6329 56.428 44.2744 57.582 43.9735 58.8172C43.8668 59.327 43.7797 59.8195 43.7122 60.2949C43.6613 60.7418 43.6358 60.9652 43.6358 60.9652ZM57.5527 59.8302C57.2706 59.8563 57.0241 59.7888 56.813 59.6276C56.6186 59.4379 56.3738 59.2856 56.0786 59.1707C56.0134 58.9229 55.966 58.514 55.9363 57.9438C55.9232 57.3452 55.9356 56.7519 55.9735 56.1639C56.0054 55.5535 56.0451 55.1095 56.0925 54.8321C56.0284 54.2229 56.0266 53.6213 56.087 53.0274C56.1699 52.4276 56.2108 51.8509 56.2095 51.2973C56.2036 50.8172 56.1922 50.3626 56.1756 49.9335C56.1815 49.4984 56.1904 49.0747 56.2022 48.6621C56.2377 48.3397 56.2406 48.1222 56.211 48.0096C56.1754 47.8745 56.1713 47.7672 56.1985 47.6878C56.2424 47.5799 56.3816 47.4228 56.6163 47.2165C56.8878 47.2414 57.1278 47.2384 57.3365 47.2076C57.5617 47.1483 57.7496 47.0386 57.9001 46.8786C57.9167 46.8501 58.0856 46.8056 58.4068 46.7452C58.7447 46.6562 59.1163 46.5584 59.5217 46.4517C59.9271 46.345 60.2282 46.2537 60.4249 46.1778C60.7343 46.0722 61.0472 46.026 61.3637 46.039C61.6802 46.052 62.0074 46.014 62.3452 45.9251C62.8147 45.9701 63.2562 46.0465 63.6699 46.1544C64.0837 46.2622 64.4304 46.4358 64.7102 46.6753C65.0065 46.8862 65.1998 47.2086 65.2899 47.6425C65.3338 47.9922 65.4032 48.3472 65.498 48.7075C65.5929 49.0679 65.5918 49.4294 65.4946 49.7922C65.5314 50.0233 65.5166 50.4246 65.4502 50.996C65.378 51.5448 65.3146 52.1274 65.2601 52.7438C65.2223 53.3318 65.2282 53.8119 65.2781 54.1841C65.297 54.3477 65.271 54.5231 65.1999 54.7104C65.1454 54.8693 65.1531 55.0358 65.223 55.2101C65.3048 55.4293 65.3452 55.7198 65.344 56.0813C65.3595 56.4144 65.3121 56.6918 65.2018 56.9135C65.0584 57.1921 64.8344 57.3474 64.5298 57.3794C64.2192 57.3889 63.9246 57.322 63.646 57.1785C63.384 57.0067 63.2287 56.7827 63.1801 56.5065C63.109 56.2362 63.0343 55.9067 62.956 55.5179C62.8943 55.1006 62.8362 54.7426 62.7816 54.4439C62.8978 54.2448 62.9381 54.0776 62.9025 53.9425C62.8835 53.7789 62.8645 53.6153 62.8456 53.4517C62.9237 52.9254 62.9693 52.2752 62.9823 51.5012C63.0119 50.6986 63.0053 49.9418 62.9625 49.2305C62.9198 48.5193 62.8148 48.0291 62.6477 47.7601C62.2873 47.8549 61.8203 48.002 61.2466 48.2012C60.6669 48.3778 60.1353 48.5539 59.6517 48.7294C59.1846 48.8764 58.9286 48.9559 58.8836 48.9677C58.7994 49.014 58.7354 49.091 58.6916 49.1989C58.6418 49.2843 58.6258 49.3607 58.6436 49.4283C58.7017 50.0151 58.6893 50.6083 58.6064 51.2082C58.5175 51.7855 58.4909 52.3705 58.5265 52.9631C58.5455 53.1267 58.5378 53.4177 58.5035 53.8362C58.4632 54.2321 58.4123 54.679 58.3507 55.1769C58.3057 55.6463 58.2719 56.1128 58.2495 56.5763C58.2211 57.0172 58.2395 57.3616 58.3047 57.6093C58.2561 57.7907 58.236 57.9887 58.2443 58.2032C58.2526 58.4178 58.2983 58.6827 58.3813 58.998C58.4062 59.1841 58.3487 59.3317 58.2088 59.4408C58.069 59.5498 57.8503 59.6797 57.5527 59.8302ZM77.9075 54.833C77.0931 54.7584 76.3854 54.4028 75.7844 53.7663C75.1774 53.1073 74.7227 52.4323 74.4204 51.7412C74.3979 51.7471 74.3422 51.81 74.2533 51.9297C74.181 52.021 74.098 52.1632 74.0044 52.3565C73.7721 52.7548 73.4817 53.2527 73.1332 53.8502C72.7789 54.4251 72.3901 54.9609 71.967 55.4577C71.5604 55.9259 71.126 56.1968 70.6637 56.2704C70.4539 56.2052 70.2298 56.1317 69.9915 56.0499C69.7699 55.9397 69.5482 55.8295 69.3265 55.7193C69.2127 55.6529 69.1102 55.5836 69.0189 55.5113C68.9501 55.433 68.8784 55.3435 68.8037 55.2428C68.3781 54.6323 68.0858 54.0711 67.927 53.559C67.7621 53.0244 67.6791 52.4803 67.6779 51.9267C67.6932 51.3447 67.7163 50.7004 67.7471 49.9939C67.7518 49.9205 67.7565 49.6182 67.7612 49.0871C67.7884 48.5501 67.8204 47.9397 67.857 47.2557C67.8937 46.5717 67.9369 45.9583 67.9867 45.4153C68.0589 44.8665 68.1283 44.5352 68.1946 44.4214C68.2622 44.4036 68.3298 44.3858 68.3973 44.368C68.4815 44.3218 68.5574 44.2898 68.6249 44.272C68.8501 44.2127 69.0398 44.247 69.1939 44.375C69.3196 44.4865 69.4589 44.5582 69.6118 44.5902C69.7872 44.6162 69.9236 44.6767 70.0208 44.7715C70.1927 44.9671 70.2413 45.472 70.1667 46.2864C70.0862 47.0783 70.0098 47.9774 69.9376 48.9838C69.8642 49.8942 69.8388 50.804 69.8614 51.7132C69.878 52.5999 70.0506 53.301 70.379 53.8166C70.5366 53.7751 70.715 53.5837 70.9141 53.2422C71.1298 52.8724 71.3017 52.6104 71.4297 52.4563C71.6193 52.2619 71.844 51.9258 72.1035 51.448C72.3797 50.9419 72.6446 50.4386 72.8982 49.9384C73.1459 49.4156 73.3077 49.0238 73.3835 48.763C73.438 48.6042 73.5079 48.3208 73.5932 47.9131C73.6726 47.4828 73.7461 47.0299 73.8136 46.5546C73.8977 46.0508 73.9457 45.5926 73.9575 45.1801C73.9918 44.7616 73.977 44.4766 73.913 44.3248C73.8312 44.1055 73.8092 43.9307 73.8471 43.8003C73.9017 43.6415 74.0042 43.482 74.1547 43.322C74.2673 43.2923 74.3912 43.2597 74.5263 43.2241C74.6614 43.1886 74.7883 43.1672 74.9068 43.1601C75.0835 43.2822 75.2684 43.39 75.4616 43.4837C75.6548 43.5773 75.851 43.6822 76.0502 43.7983C76.2755 44.1966 76.3591 44.7887 76.3011 45.5746C76.243 46.3605 76.1999 47.2028 76.1715 48.1013C76.1431 48.9998 76.2078 49.8859 76.3655 50.7595C76.5173 51.6106 76.9353 52.2833 77.6193 52.7776C78.0389 52.4504 78.3488 52.1641 78.5491 51.9187C78.766 51.6448 78.9717 51.3739 79.1661 51.106C79.3545 50.8156 79.6105 50.5074 79.9341 50.1813C80.1949 50.2572 80.435 50.483 80.6543 50.8587C80.8736 51.2345 81.0159 51.5462 81.0811 51.794C81.0088 51.8852 80.9365 51.9765 80.8642 52.0678C80.8085 52.1306 80.77 52.213 80.7487 52.315C80.6906 52.6433 80.4974 53.0073 80.1691 53.4068C79.8408 53.8063 79.4751 54.1554 79.0721 54.4542C78.6632 54.7304 78.275 54.8567 77.9075 54.833ZM85.8952 52.3329C85.3997 52.4633 85.0221 52.5386 84.7625 52.5588C84.5029 52.579 84.2937 52.5618 84.1349 52.5073C83.976 52.4528 83.7858 52.3704 83.5641 52.2602C83.4266 52.1037 83.2635 51.9419 83.0751 51.7748C82.8866 51.6077 82.7354 51.4909 82.6216 51.4246C82.4426 51.1104 82.2819 50.6831 82.1396 50.1426C82.0199 49.5961 81.9333 48.9928 81.8799 48.3325C81.849 47.6663 81.875 47.0333 81.9579 46.4335C82.0006 46.2296 82.032 46.0287 82.0521 45.8307C82.0723 45.6328 82.0823 45.5338 82.0823 45.5338C82.0527 45.4212 82.1167 45.1153 82.2743 44.6163C82.4544 44.1113 82.6511 43.5778 82.8645 43.0159C83.1003 42.4481 83.3042 42.0332 83.476 41.7712C83.5862 41.5495 83.7723 41.2958 84.0343 41.0101C84.3187 40.7185 84.573 40.495 84.797 40.3397C85.021 40.1844 85.248 40.0404 85.478 39.9076C85.7305 39.7689 86.0256 39.6551 86.3634 39.5661C86.6787 39.4831 86.9893 39.4736 87.2952 39.5376C87.601 39.6016 87.9223 39.7699 88.2589 40.0425C88.771 40.3411 89.103 40.6873 89.2548 41.0808C89.4231 41.4459 89.5156 41.843 89.5322 42.2721C89.5382 42.7522 89.4837 43.1398 89.3688 43.435C89.2479 43.7076 89.0719 43.8623 88.8407 43.8991C88.6096 43.9359 88.3061 43.8351 87.9303 43.5969C87.7928 43.4405 87.7092 43.3059 87.6795 43.1933C87.644 43.0582 87.6386 42.8549 87.6635 42.5834C87.6706 42.2444 87.5846 41.9178 87.4056 41.6037C87.2266 41.2896 87.0357 41.1592 86.833 41.2126C86.5402 41.2897 86.2492 41.5108 85.96 41.8759C85.6874 42.2126 85.4213 42.6198 85.1618 43.0975C85.0515 43.3192 84.9004 43.66 84.7084 44.12C84.533 44.5515 84.3695 45.028 84.2178 45.5496C84.0602 46.0487 83.9447 46.5246 83.8712 46.9774C83.8191 47.7859 83.7735 48.4361 83.7345 48.928C83.7179 49.414 83.7096 49.657 83.7096 49.657C83.7334 49.7471 83.7796 49.8313 83.8484 49.9095C83.9337 49.9593 83.9882 50.0292 84.012 50.1193C84.0831 50.3896 84.2971 50.562 84.6539 50.6367C84.9431 50.7291 85.2596 50.7421 85.6034 50.6757C85.9412 50.5868 86.3282 50.3645 86.7644 50.0088C87.0774 49.7338 87.3529 49.4084 87.5912 49.0326C87.8519 48.6509 88.1328 48.3 88.4339 47.9799C88.6401 47.757 88.796 47.5715 88.9015 47.4233C89.0295 47.2692 89.1053 47.2372 89.1291 47.3272C89.1528 47.4173 89.1984 47.4535 89.266 47.4357C89.3336 47.4179 89.4005 47.3521 89.4669 47.2383C89.5546 47.0226 89.6713 46.8714 89.8171 46.7849C89.957 46.6758 90.0862 46.6177 90.2047 46.6106C90.3399 46.575 90.4163 46.591 90.4341 46.6586C90.4424 46.8731 90.532 47.0302 90.7027 47.1297C90.7264 47.2198 90.7252 47.3526 90.6991 47.528C90.6897 47.675 90.6517 47.8054 90.5854 47.9192C90.5143 48.1065 90.3928 48.3312 90.2209 48.5932C90.0716 48.8492 89.9276 49.0798 89.7889 49.2849C89.6443 49.4674 89.572 49.5587 89.572 49.5587C89.476 49.5599 89.3918 49.6061 89.3195 49.6974C89.2698 49.7828 89.2117 49.8824 89.1453 49.9962C89.0066 50.2012 88.8703 50.3696 88.7364 50.5012C88.5965 50.6102 88.4815 50.6766 88.3915 50.7004C88.2575 50.8319 88.1485 50.9209 88.0643 50.9671C88.0027 51.0074 87.9837 51.0726 88.0074 51.1627C87.8415 51.4472 87.6015 51.679 87.2874 51.858C86.9898 52.0086 86.5258 52.1669 85.8952 52.3329ZM95.1839 49.5263C94.9255 49.6425 94.6209 49.6746 94.27 49.6224C93.9191 49.5703 93.5872 49.453 93.2742 49.2705C92.9838 49.082 92.7692 48.8615 92.6305 48.6091C92.4159 48.1598 92.318 47.5594 92.3369 46.8079C92.3724 46.0279 92.4891 45.1904 92.687 44.2954C92.9015 43.372 93.1699 42.4704 93.4922 41.5909C93.8371 40.7053 94.2199 39.9182 94.6407 39.2294C95.078 38.5122 95.5178 37.9871 95.9599 37.6539C96.1661 37.4311 96.3309 37.2793 96.4541 37.1987C96.594 37.0896 96.7487 37.0369 96.9182 37.0404C97.1102 37.038 97.3989 37.0824 97.7842 37.1737C98.1232 37.1808 98.3863 37.2199 98.5736 37.291C98.7609 37.3621 99.0229 37.5339 99.3596 37.8065C99.6287 38.0969 99.8528 38.3992 100.032 38.7133C100.211 39.0274 100.39 39.3895 100.571 39.7997C100.899 40.3153 101.064 40.6691 101.067 40.8612C101.063 41.0307 101.028 41.1723 100.962 41.2861C100.841 41.5588 100.826 41.6833 100.916 41.6595C100.916 41.6595 100.916 41.7075 100.918 41.8036C100.935 41.8711 100.92 41.9956 100.871 42.177C100.844 42.714 100.857 43.2646 100.909 43.8288C100.978 44.3646 101.102 44.7896 101.281 45.1037C101.591 45.5517 101.995 45.7585 102.492 45.7241C102.988 45.6897 103.419 45.3595 103.784 44.7336C103.984 44.4882 104.179 44.2683 104.369 44.0739C104.553 43.8569 104.668 43.8385 104.716 44.0187C104.716 44.0187 104.758 44.0436 104.844 44.0934C104.923 44.1207 105.008 44.1224 105.098 44.0987C105.211 44.0691 105.29 44.0963 105.336 44.1805C105.405 44.2587 105.438 44.3826 105.434 44.5521C105.447 44.6932 105.421 44.8686 105.356 45.0784C105.107 45.5052 104.997 45.7749 105.027 45.8875C105.027 45.8875 104.994 45.9444 104.928 46.0582C104.878 46.1435 104.784 46.2888 104.645 46.4938C104.305 46.8483 103.819 47.1085 103.189 47.2746C102.581 47.4346 102.075 47.4353 101.672 47.2765C101.269 47.1177 100.865 46.8628 100.459 46.512C100.076 46.1552 99.7983 45.831 99.6252 45.5395L99.3674 45.2461L98.5566 46.1459C98.3741 46.4588 98.1661 46.7665 97.9326 47.0688C97.7216 47.3651 97.583 47.5702 97.5166 47.684C97.4728 47.7919 97.4147 47.8915 97.3424 47.9828C97.2926 48.0681 97.2227 48.1226 97.1326 48.1464C97.0425 48.1701 96.9637 48.1908 96.8961 48.2086C96.8285 48.2264 96.7947 48.2353 96.7947 48.2353C96.8185 48.3254 96.7355 48.4676 96.5458 48.6621C96.3787 48.8506 96.1606 49.0284 95.8916 49.1955C95.645 49.3568 95.4091 49.467 95.1839 49.5263ZM94.3658 47.791C94.501 47.7554 94.7108 47.5918 94.9952 47.3002C95.2963 46.9801 95.6222 46.6173 95.9731 46.2119C96.3464 45.8005 96.6635 45.404 96.9243 45.0223C97.2075 44.6346 97.396 44.3442 97.4896 44.151C97.556 44.0371 97.6638 43.8522 97.8132 43.5962C97.9566 43.3176 98.0864 43.0787 98.2025 42.8795C98.5664 42.1576 98.7577 41.4209 98.7766 40.6693C98.7896 39.8953 98.6189 39.3381 98.2644 38.998C98.1091 38.7739 97.9609 38.6685 97.8199 38.6815C97.6788 38.6946 97.418 38.8475 97.0375 39.1403C96.8088 39.3691 96.551 39.7621 96.2642 40.3193C95.9939 40.848 95.7107 41.4644 95.4144 42.1686C95.1347 42.8443 94.8835 43.5366 94.6607 44.2454C94.4379 44.9543 94.2708 45.6004 94.1594 46.1836C94.0481 46.7668 94.0309 47.2048 94.108 47.4976C94.1317 47.5877 94.175 47.6606 94.2378 47.7163C94.3232 47.7661 94.3658 47.791 94.3658 47.791ZM107.378 45.7383C107.088 45.6459 106.81 45.5024 106.542 45.3081C106.268 45.0912 106.078 44.78 105.971 44.3746C105.912 44.1494 105.856 43.7547 105.804 43.1904C105.752 42.6262 105.715 41.9855 105.695 41.2683C105.675 40.5512 105.667 39.879 105.67 39.252C105.789 38.7873 105.873 38.3315 105.924 37.8846C105.975 37.4377 105.989 37.1692 105.965 37.0791C105.939 36.797 105.912 36.4669 105.885 36.0887C105.88 35.7046 105.884 35.3544 105.897 35.0379C105.91 34.7214 105.933 34.5347 105.967 34.4778C106.05 34.3355 106.167 34.2324 106.319 34.1683C106.464 34.0818 106.628 34.0628 106.809 34.1114C107.007 34.1315 107.181 34.2423 107.33 34.4438C107.649 34.6489 107.859 34.9429 107.96 35.3257C108.055 35.6861 108.073 36.2592 108.015 37.0451C107.931 37.5489 107.868 38.1316 107.825 38.793C107.783 39.4545 107.751 40.065 107.729 40.6245C107.725 41.1555 107.735 41.5141 107.76 41.7002L107.137 42.0808C107.425 41.6196 107.688 41.1532 107.925 40.6813C108.156 40.187 108.321 39.8065 108.419 39.5398C108.666 38.921 108.88 38.4071 109.061 37.9981C109.259 37.5607 109.518 37.0349 109.838 36.4209C110.152 35.7843 110.508 35.3534 110.906 35.1281C111.321 34.8744 111.652 34.7149 111.9 34.6497C112.419 34.6093 112.882 34.7646 113.287 35.1154C113.709 35.4378 114.072 35.9926 114.375 36.7796C114.458 37.0949 114.523 37.4754 114.568 37.9212C114.635 38.3609 114.669 38.5808 114.669 38.5808C114.669 38.5808 114.787 38.2969 115.023 37.7291C115.281 37.1553 115.652 36.5039 116.134 35.7749C116.479 35.3469 116.848 35.057 117.242 34.9053C117.629 34.731 118.025 34.7712 118.429 35.0261C119.098 35.1872 119.608 35.5707 119.96 36.1764C120.307 36.7595 120.565 37.5585 120.736 38.5732C120.822 39.1765 120.927 39.6187 121.049 39.8996C121.165 40.158 121.304 40.4105 121.465 40.657C121.669 40.6997 121.753 40.8822 121.718 41.2047C121.676 41.5046 121.577 41.6753 121.419 41.7168C121.194 41.7761 120.923 41.7992 120.606 41.7862C120.312 41.7672 120.026 41.6861 119.748 41.5427C119.486 41.3708 119.304 41.0934 119.203 40.7106L118.652 38.616C118.522 38.1205 118.392 37.7211 118.264 37.4176C118.159 37.1082 118.052 36.9316 117.944 36.8878C117.661 36.8179 117.339 37.0591 116.979 37.6115C116.618 38.164 116.263 38.8717 115.912 39.7347C115.561 40.5977 115.25 41.4743 114.979 42.3646C114.735 43.1754 114.571 43.6519 114.488 43.7942C114.422 43.908 114.244 43.9187 113.955 43.8263C113.418 43.799 113.046 43.6681 112.84 43.4334C112.65 43.1703 112.553 42.8467 112.548 42.4626C112.56 42.0501 112.559 41.4965 112.544 40.8018C112.553 40.1013 112.556 39.4262 112.553 38.7766C112.545 38.1045 112.528 37.6274 112.501 37.3452C112.364 37.1888 112.191 37.174 111.984 37.3008C111.793 37.3992 111.606 37.5569 111.422 37.7739C111.199 38.0252 110.962 38.449 110.709 39.0453C110.457 39.6415 110.214 40.3196 109.98 41.0795C109.823 41.5785 109.654 42.0806 109.474 42.5855C109.288 43.068 109.112 43.4995 108.948 43.88C108.783 44.2606 108.631 44.5534 108.492 44.7585C108.308 45.337 108.165 45.6635 108.064 45.7382C107.963 45.8129 107.734 45.8129 107.378 45.7383ZM123.259 40.2571C123.118 39.8125 123.035 39.2685 123.01 38.6248C123.007 37.9752 123.042 37.328 123.113 36.6831C123.184 36.0382 123.262 35.5119 123.347 35.1041C123.299 34.8279 123.315 34.5707 123.397 34.3324C123.501 34.0882 123.566 33.8304 123.591 33.5589C123.605 33.3385 123.677 32.9704 123.806 32.4547C123.929 31.9166 124.075 31.3724 124.243 30.8224C124.411 30.2724 124.559 29.8723 124.686 29.6222C124.66 29.34 124.702 29.0881 124.812 28.8664C124.916 28.6222 125.009 28.381 125.091 28.1427C125.295 28.1854 125.459 28.2144 125.583 28.2298C125.708 28.2452 125.873 28.3223 126.078 28.4609C126.232 28.5889 126.394 28.7027 126.565 28.8023C126.752 28.8734 126.912 29.0239 127.045 29.2539C127.099 29.4566 127.073 29.68 126.969 29.9242C126.881 30.14 126.793 30.3557 126.706 30.5715C126.552 30.901 126.439 31.1595 126.368 31.3468C126.313 31.5056 126.245 31.7042 126.163 31.9424C126.098 32.1523 125.984 32.4954 125.82 32.972C125.945 32.9874 126.084 33.0111 126.236 33.0431C126.383 33.0525 126.513 33.0424 126.626 33.0128C126.823 32.9369 127.02 32.909 127.218 32.9292C127.416 32.9493 127.617 32.9807 127.821 33.0234C128.019 33.0435 128.214 33.0524 128.406 33.05C128.7 33.0689 129.029 33.175 129.393 33.3682C129.779 33.5554 130.138 33.7741 130.468 34.0242C130.799 34.2743 131.025 34.4918 131.146 34.6767C131.243 34.7715 131.39 34.9618 131.585 35.2474C131.797 35.5046 131.891 35.769 131.866 36.0404C131.867 36.1364 131.872 36.2437 131.879 36.3623C131.886 36.4808 131.904 36.5964 131.934 36.709C131.721 37.2709 131.548 37.7136 131.417 38.0373C131.285 38.3609 131.013 38.7456 130.6 39.1913C129.97 39.8149 129.313 40.3371 128.629 40.758C127.967 41.1729 127.262 41.467 126.513 41.6401C126.4 41.6698 126.297 41.7332 126.202 41.8304C126.123 41.8992 126.016 41.9033 125.88 41.8429C125.429 41.9615 125.059 41.9265 124.769 41.7381C124.478 41.5496 124.168 41.3304 123.837 41.0803C123.591 40.88 123.399 40.6055 123.259 40.2571ZM125.177 39.8604C125.595 39.7987 125.96 39.6783 126.274 39.4993C126.611 39.3144 126.939 39.1436 127.259 38.9871C127.625 38.8188 127.991 38.5657 128.36 38.2278C128.723 37.8674 129.028 37.4738 129.277 37.0471C129.543 36.5918 129.684 36.1692 129.702 35.7792C129.722 35.5813 129.68 35.3756 129.576 35.1623C129.472 34.9489 129.329 34.8179 129.147 34.7693C128.881 34.671 128.614 34.5726 128.347 34.4742C128.08 34.3759 127.792 34.3795 127.483 34.485C127.421 34.5253 127.343 34.546 127.247 34.5472C127.167 34.52 127.091 34.504 127.017 34.4993C126.825 34.5016 126.639 34.5266 126.459 34.574C126.301 34.6155 126.138 34.6825 125.97 34.775C125.785 34.8959 125.611 35.0138 125.449 35.1288C125.287 35.2438 125.255 35.4448 125.355 35.7316C125.367 35.7767 125.331 35.8703 125.248 36.0126C125.215 36.0695 125.173 36.3214 125.122 36.7683C125.094 37.2092 125.071 37.6727 125.055 38.1587C125.038 38.6448 125.023 38.998 125.008 39.2185C125.01 39.3145 125.025 39.4188 125.055 39.5314C125.101 39.6156 125.142 39.7252 125.177 39.8604ZM38.4751 79.709C38.743 79.4458 39.0548 79.3035 39.4104 79.2821C39.7601 79.2382 40.0576 79.3164 40.303 79.5168C40.565 79.6886 40.6758 79.9725 40.6356 80.3684C40.645 80.2214 40.6125 80.3264 40.5378 80.6832C40.4797 81.0115 40.4004 81.4418 40.2997 81.9741C40.2215 82.5004 40.1486 83.0012 40.0811 83.4766C40.0302 83.9235 39.9911 84.1866 39.9638 84.2661L39.9905 84.3674C40.3508 84.2726 40.5944 84.3288 40.7213 84.5363C40.8647 84.7153 40.9608 84.9428 41.0094 85.219C40.751 85.3352 40.5803 85.4645 40.4973 85.6067C40.4085 85.7264 40.2769 85.8213 40.1026 85.8912C40.0351 85.909 39.9651 85.9636 39.8928 86.0548C39.8205 86.1461 39.785 86.2398 39.7862 86.3358C39.7814 86.4093 39.785 86.6973 39.7969 87.1999C39.8254 87.6741 39.8432 88.1992 39.8504 88.7753C39.8742 89.323 39.8766 89.7438 39.8576 90.0378C39.86 90.2298 39.8085 90.3999 39.703 90.5481C39.5916 90.6738 39.5163 90.7538 39.4772 90.7882C38.9793 90.7266 38.6456 90.694 38.4761 90.6905C38.3232 90.6585 38.1643 90.604 37.9996 90.5269C37.9415 90.3977 37.9 90.2401 37.8751 90.054C37.8442 89.8453 37.8383 89.594 37.8572 89.3C37.8809 88.9326 37.888 88.5935 37.8785 88.283C37.8855 87.9439 37.86 87.4811 37.8019 86.8943C37.6999 86.873 37.5085 86.9234 37.2276 87.0455C36.9632 87.1391 36.6793 87.25 36.3759 87.3781C36.0724 87.5061 35.814 87.6223 35.6007 87.7266C35.4098 87.825 35.3227 87.86 35.3393 87.8316C35.2385 87.9063 35.0335 87.9964 34.7241 88.1019C34.4313 88.179 34.1243 88.2477 33.8031 88.3082C33.4984 88.3403 33.2726 88.3515 33.1256 88.3421L32.9496 88.4968C32.9864 88.7279 32.974 89.0924 32.9124 89.5903C32.8448 90.0657 32.8615 90.4948 32.9623 90.8776C33.0168 91.1764 33.0488 91.481 33.0584 91.7916C33.0679 92.1022 33.1029 92.4181 33.1633 92.7393C33.2713 93.2407 33.2162 93.5803 32.9981 93.7582C32.8025 93.9301 32.4327 93.9431 31.8885 93.7974C31.7582 93.7595 31.6248 93.7103 31.4885 93.6498C31.3747 93.5835 31.2466 93.5088 31.1044 93.4258L30.9601 90.6822C30.9672 90.3432 30.9689 90.0297 30.9654 89.7416C30.9558 89.4311 30.9606 89.1288 30.9795 88.8348C31.0292 88.2919 31.0648 87.7407 31.086 87.1812C31.1298 86.6157 31.2051 86.0781 31.3117 85.5684C31.3117 85.5684 31.3159 85.4469 31.3241 85.2039C31.349 84.9324 31.3792 84.6355 31.4147 84.3131C31.4443 83.9681 31.4692 83.6967 31.4893 83.4987C31.5095 83.3007 31.5118 83.264 31.4964 83.3884C31.5284 83.2355 31.5616 82.9498 31.5959 82.5314C31.6243 82.0904 31.6474 81.6749 31.6652 81.2849C31.6995 80.8665 31.7137 80.646 31.7078 80.6235C31.7173 80.4765 31.7611 80.3686 31.8393 80.2999C31.9116 80.2086 32.0154 80.1452 32.1505 80.1096C32.5274 79.9863 32.8665 79.9934 33.1676 80.1308C33.4627 80.2458 33.6572 80.4354 33.7508 80.6998C33.7639 80.8408 33.7852 80.9677 33.8149 81.0803C33.8445 81.1929 33.8457 81.2889 33.8184 81.3683L33.1912 86.1212L33.2624 86.3915C33.5231 86.4673 33.8556 86.4039 34.2598 86.2011C34.6806 85.97 35.0037 85.8247 35.2289 85.7654C35.3356 85.7133 35.5886 85.6226 35.9881 85.4933C36.4101 85.3581 36.8125 85.2402 37.1954 85.1394C37.6008 85.0326 37.8177 84.9876 37.8462 85.0042C37.916 84.2633 37.9752 83.5734 38.0238 82.9345C38.0664 82.273 38.1849 81.5795 38.3792 80.8541C38.3899 80.8031 38.3964 80.6448 38.3987 80.3793C38.4236 80.1078 38.4491 79.8844 38.4751 79.709ZM44.3901 89.6754C44.2526 89.519 44.1044 89.4135 43.9455 89.359C43.7808 89.2819 43.6865 89.1984 43.6628 89.1083C43.6391 89.0182 43.6041 88.9311 43.5579 88.8469C43.5282 88.7343 43.4565 88.6448 43.3427 88.5785C43.1945 88.473 43.1257 88.166 43.1364 87.6574C43.1411 87.1264 43.2092 86.4702 43.3407 85.6891C43.4662 84.8853 43.6392 84.033 43.8596 83.1321C43.9924 82.9045 44.1103 82.6206 44.2134 82.2804C44.3165 81.9401 44.4012 81.7131 44.4676 81.5993C44.4439 81.5092 44.4569 81.4215 44.5067 81.3362C44.5506 81.2283 44.6175 81.1625 44.7076 81.1388L44.6543 80.9361C44.6246 80.8235 44.6756 80.6054 44.8071 80.2817C44.9612 79.9522 45.1544 79.5883 45.3867 79.1899C45.613 78.7691 45.8566 78.3678 46.1174 77.9861C46.3722 77.5819 46.5944 77.2825 46.7841 77.0881C47.174 76.6483 47.6078 76.3294 48.0855 76.1314C48.5858 75.9274 49.0546 75.9244 49.492 76.1224C49.5774 76.1721 49.7196 76.2551 49.9188 76.3713C50.1179 76.4874 50.3455 76.6201 50.6016 76.7695C50.8743 76.8904 51.1499 77.0225 51.4285 77.1659L52.9719 77.9517L52.8085 79.8009C52.7529 80.7789 52.8815 81.5879 53.1946 82.228C53.5301 82.8622 53.9094 83.3884 54.3327 83.8068C54.5105 84.0249 54.798 84.2021 55.1951 84.3384C55.6147 84.4688 55.9881 84.515 56.3153 84.477C56.5014 84.4521 56.6881 84.4752 56.8754 84.5463C57.0627 84.6174 57.189 84.7768 57.2542 85.0246C57.3135 85.2498 57.3159 85.4418 57.2614 85.6007C57.2068 85.7595 57.0729 85.8911 56.8595 85.9955C56.14 86.2812 55.3944 86.2848 54.6227 86.0063C53.8735 85.7219 53.0923 85.1328 52.279 84.2391C52.1533 84.1277 51.9643 83.9126 51.7117 83.5937C51.4758 83.2464 51.3318 83.0194 51.2796 82.9127C51.2192 83.0491 51.1066 83.3075 50.9418 83.688C50.7712 84.046 50.6361 84.3104 50.5365 84.4811C49.3643 86.5236 48.2668 87.9806 47.2439 88.8519C46.2375 89.6948 45.2863 89.9693 44.3901 89.6754ZM45.1082 87.4634C45.1498 87.6211 45.3862 87.5588 45.8177 87.2767C46.2657 86.9661 46.712 86.5114 47.1565 85.9128C47.7503 85.058 48.3263 84.1357 48.8845 83.1459C49.4653 82.1501 49.9032 81.2521 50.1983 80.452L50.6214 79.0401C50.2598 78.5814 49.9201 78.2975 49.6024 78.1885C49.3013 78.051 49.0607 78.006 48.8805 78.0534C48.5877 78.1305 48.2197 78.5164 47.7764 79.2111C47.3557 79.8998 46.9373 80.7806 46.5213 81.8534C46.1054 82.9262 45.7469 84.0803 45.4459 85.3155C45.3393 85.8252 45.2522 86.3177 45.1846 86.7931C45.1337 87.24 45.1082 87.4634 45.1082 87.4634ZM73.9075 82.4829C73.6716 82.5931 73.4268 82.6696 73.1732 82.7123C72.9195 82.755 72.6593 82.7272 72.3926 82.6288C72.255 82.4724 72.0891 82.2993 71.8947 82.1097C71.7168 81.8916 71.6492 81.6806 71.6919 81.4767C71.7334 81.1768 71.6889 80.7791 71.5584 80.2836C71.4505 79.7822 71.4309 79.3418 71.4996 78.9625C71.5103 78.9115 71.5127 78.8747 71.5067 78.8522C71.5174 78.8013 71.5168 78.7532 71.5049 78.7082C71.4682 78.4771 71.4504 78.1807 71.4515 77.8192C71.4693 77.4292 71.474 77.1269 71.4657 76.9123C71.4763 76.8614 71.4597 76.661 71.4158 76.3113C71.3719 75.9616 71.3221 75.5894 71.2664 75.1947C71.2106 74.8 71.162 74.5238 71.1205 74.3661C71.0908 74.2535 71.1009 74.1545 71.1507 74.0692C71.2171 73.9554 71.1874 73.8428 71.0618 73.7314C70.7903 74.164 70.4614 74.7443 70.0751 75.4722C69.7112 76.1941 69.3729 76.9214 69.06 77.654C68.7412 78.3641 68.503 78.9687 68.3453 79.4677C68.324 79.5697 68.2885 79.6633 68.2387 79.7487C68.1889 79.834 68.1504 79.9164 68.1231 79.9958C68.0686 80.1547 67.9886 80.3082 67.8831 80.4564C67.7776 80.6046 67.7148 80.7776 67.6947 80.9756C67.4126 81.4593 67.1922 81.9026 67.0334 82.3057C66.8971 82.7028 66.6624 83.1379 66.3294 83.6109C66.0544 83.7555 65.7782 83.8041 65.5008 83.7567C65.2459 83.7034 64.9827 83.6643 64.7113 83.6395C64.6366 83.5387 64.5507 83.4409 64.4534 83.3461C64.3503 83.2288 64.2614 83.1197 64.1867 83.019C64.1179 82.4832 64.0532 81.8259 63.9927 81.0471C63.9263 80.2457 63.8402 79.4616 63.7347 78.6947C63.6516 77.9218 63.5342 77.3386 63.3825 76.9451C63.3303 76.8384 63.2953 76.7513 63.2775 76.6837C63.2597 76.6161 63.2728 76.5284 63.3166 76.4205C63.3048 76.3755 63.2929 76.3304 63.281 76.2854C63.2917 76.2344 63.2941 76.1977 63.2881 76.1751C63.1459 76.0922 63.0937 75.9855 63.1316 75.8551C63.1696 75.7247 63.1399 75.6121 63.0427 75.5173C63.0143 75.5007 62.9746 75.4871 62.9236 75.4764C62.8951 75.4598 62.8554 75.4462 62.8044 75.4355C62.5105 76.3317 62.1597 77.1947 61.752 78.0245C61.3609 78.8259 60.99 79.658 60.6392 80.521C60.4033 81.0889 60.1995 81.7326 60.0277 82.4521C59.8784 83.1657 59.6319 83.7845 59.2882 84.3085C59.172 84.5077 59.0618 84.7293 58.9575 84.9735C58.8698 85.1893 58.7424 85.3914 58.5753 85.5799C58.5717 85.7494 58.5142 85.897 58.4028 86.0227C58.308 86.1199 58.1705 86.1922 57.9903 86.2396C57.6525 86.3286 57.285 86.3049 56.8879 86.1686C56.4908 86.0323 56.2424 85.8208 56.1428 85.5339C56.1013 85.3762 56.1274 85.2008 56.221 85.0076C56.2317 84.9566 56.2311 84.9086 56.2192 84.8635C56.2299 84.8126 56.2435 84.7729 56.2601 84.7444C56.6406 84.4516 56.9825 84.0124 57.286 83.4268C57.6119 82.8352 57.9064 82.2158 58.1695 81.5686C58.4267 80.8988 58.6767 80.3393 58.9197 79.89C59.152 79.4917 59.3138 79.0999 59.405 78.7146C59.4903 78.3068 59.6237 77.8984 59.805 77.4895C60.0302 76.9726 60.2464 76.422 60.4538 75.8376C60.6838 75.2472 60.9054 74.6711 61.1187 74.1092C61.3545 73.5414 61.6052 73.0299 61.8707 72.5746C62.0521 72.6232 62.2305 72.6605 62.4059 72.6866C62.6039 72.7067 62.8042 72.6901 63.0069 72.6368C63.1551 72.7423 63.292 72.8507 63.4177 72.9621C63.5599 73.0451 63.7134 73.1251 63.8782 73.2021C64.2647 73.3894 64.5735 73.6934 64.8047 74.1142C65.0359 74.535 65.2196 75.0044 65.356 75.5224C65.5517 76.2656 65.6715 77.0409 65.7154 77.8481C65.7759 78.6269 65.8406 79.2842 65.9094 79.82C65.9153 79.8425 65.9212 79.8651 65.9272 79.8876C65.9497 79.8816 65.9639 79.8899 65.9698 79.9125C66.3527 79.3541 66.6614 78.743 66.8961 78.0792C67.1307 77.4153 67.3968 76.7793 67.6943 76.1712C68.2394 75.0403 68.6471 74.2105 68.9174 73.6818C69.2101 73.1471 69.4341 72.763 69.5894 72.5295C69.7447 72.296 69.8999 72.0624 70.0552 71.8289C70.1832 71.6748 70.3248 71.4809 70.4801 71.2474C70.652 70.9854 70.8706 70.6268 71.1361 70.1716C71.3163 70.1242 71.4852 70.0797 71.6429 70.0382C71.823 69.9908 71.992 69.9463 72.1496 69.9048C72.3594 69.97 72.5183 70.0245 72.6262 70.0683C72.7281 70.0897 72.8863 70.0962 73.1009 70.0879C73.1531 70.1945 73.2426 70.3516 73.3694 70.559C73.4963 70.7665 73.552 70.9324 73.5366 71.0569C73.5331 71.2264 73.5521 71.39 73.5936 71.5476C73.6351 71.7053 73.6203 71.8778 73.5492 72.0651C73.4401 72.3828 73.3898 72.8777 73.3982 73.5498C73.4231 74.1934 73.4593 74.8342 73.5068 75.4719C73.5709 76.0812 73.6242 76.5127 73.6669 76.7663C73.6895 77.218 73.6765 77.5345 73.6279 77.7158C73.5734 77.8747 73.5444 78.0389 73.5408 78.2084C73.5373 78.3779 73.5734 78.561 73.6493 78.7578C73.7193 78.932 73.7412 79.1069 73.7152 79.2823C73.6986 79.3108 73.682 79.3392 73.6654 79.3677C73.6654 79.3677 73.6571 79.3819 73.6405 79.4104C73.6998 79.6356 73.762 79.8721 73.8273 80.1198C73.9091 80.3391 73.9174 80.5536 73.8522 80.7635C73.9388 80.9093 73.9945 81.0752 74.0194 81.2613C74.0443 81.4474 74.1143 81.6217 74.2293 81.7841C74.1629 81.8979 74.1078 82.0087 74.0639 82.1166C74.0201 82.2245 73.9679 82.3466 73.9075 82.4829Z" fill="#F5A925"/>
<path d="M98.9087 77.0044L98.9087 71.6269" stroke="#F5A925" stroke-width="3" stroke-linecap="round"/>
<path d="M104.603 77.0073L104.603 70.9971" stroke="#F5A925" stroke-width="3" stroke-linecap="round"/>
<path d="M91 85.2259C93.6806 87.5236 97.6594 89.7218 101.298 89.6544C105.947 89.5683 109.172 85.717 112.194 82.6953" stroke="#F5A925" stroke-width="3" stroke-linecap="round"/>
</svg>
