<svg width="137" height="88" viewBox="0 0 137 88" fill="none" xmlns="http://www.w3.org/2000/svg">
<path d="M57.9579 9.95488C24.5101 13.8388 35.5162 12.1644 22.613 14.0396C14.9336 15.1557 7.20494 16.6308 3.81732 23.6124V23.6124C-2.21258 36.0395 3.19357 51.833 7.03172 65.1018C8.86498 71.4395 11.5341 76.1482 19.9572 77.7336C44.7784 82.4055 104.397 82.9505 126.459 71.22C139.394 64.342 133.845 48.7045 133.723 29.1529C133.674 21.2206 134.82 13.1913 127.039 11.6501V11.6501C111.946 8.66068 94.1347 9.40261 78.7614 10.0206C72.6538 10.2661 66.6039 10.8659 60.4577 12.2329" stroke="#F5A925" stroke-width="2" stroke-linecap="round"/>
<path d="M24.5111 51.9576C24.5111 51.9576 24.4734 51.9392 24.398 51.9023C24.3256 51.8885 24.2302 51.8778 24.1117 51.8701C24.0163 51.8594 23.8993 51.8633 23.7608 51.8819C23.3791 51.8391 23.0858 51.6669 22.8809 51.3654C22.6791 51.0869 22.5997 50.7569 22.6425 50.3752C22.7225 50.2705 22.7654 50.065 22.7714 49.7587C22.7773 49.4525 22.768 49.207 22.7432 49.0223C22.8108 48.8253 22.8515 48.6906 22.8653 48.6183C22.876 48.5228 22.9028 48.2843 22.9456 47.9026C22.9623 47.5009 23.005 46.943 23.0738 46.2288C23.1626 45.4885 23.2567 44.7005 23.3562 43.8647C23.4788 43.0259 23.5945 42.2232 23.7033 41.4567C23.812 40.6902 23.9132 40.0423 24.0067 39.5128C24.1233 38.9802 24.2116 38.6747 24.2716 38.5961C24.2716 38.5961 24.267 38.5615 24.2577 38.4923C24.2453 38.3999 24.2329 38.3076 24.2206 38.2153C24.2206 38.2153 24.2182 38.1098 24.2134 37.899C24.2287 37.662 24.3101 37.3926 24.4576 37.0909C24.5159 36.8246 24.5596 36.5368 24.5886 36.2274C24.6177 35.918 24.626 35.7172 24.6136 35.6249C24.6905 35.4971 24.7804 35.2031 24.8832 34.7428C25.006 34.2564 25.1188 33.7831 25.2216 33.3229C25.3106 32.935 25.4081 32.5225 25.514 32.0853C25.643 31.6451 25.7451 31.2672 25.8203 30.9517C25.9186 30.633 25.9677 30.4737 25.9677 30.4737C25.9553 30.3814 25.9492 30.3352 25.9492 30.3352C25.9461 30.3121 25.9445 30.3006 25.9445 30.3006C26.0245 30.1959 26.1819 29.7048 26.4168 28.8275C26.6717 27.9239 27.0211 26.761 27.4649 25.3386C27.5325 25.1416 27.6201 24.9184 27.7276 24.669C27.8352 24.4196 27.8828 24.2488 27.8704 24.1564C27.9611 23.9563 28.1119 23.8539 28.3227 23.8491C28.5305 23.8213 28.7475 23.8627 28.9738 23.9733C29.2232 24.0809 29.4226 24.2539 29.572 24.4924L29.9925 25L29.0801 27.6599C28.7973 28.3558 28.5646 28.9861 28.3818 29.5511C28.2221 30.1129 28.1485 30.44 28.1608 30.5323C28.1608 30.5323 28.1163 30.7263 28.0273 31.1141C27.9383 31.502 27.8355 31.9623 27.7189 32.4948C27.6022 33.0274 27.5025 33.5107 27.4197 33.9448C27.2617 34.6944 27.0982 35.3155 26.9292 35.808C26.7833 36.2975 26.7166 36.5885 26.7289 36.6808C26.7227 36.6346 26.972 36.566 27.4767 36.4749C27.9815 36.3837 28.6263 36.2856 29.4111 36.1804C30.1959 36.0753 30.9923 35.9686 31.8002 35.8603C32.6281 35.7259 33.3536 35.6169 33.9769 35.5334C34.6201 35.4237 35.0541 35.3303 35.2787 35.2532L37.056 34.8388L37.7553 31.1148C37.8534 30.4437 37.9906 29.6264 38.167 28.6629C38.3433 27.6993 38.5036 26.879 38.6479 26.2017C38.8749 25.0904 39.0753 24.3939 39.249 24.1121C39.4228 23.8304 39.6481 23.6709 39.9251 23.6338C39.9944 23.6245 40.0898 23.6352 40.2114 23.6659C40.353 23.6705 40.4877 23.7112 40.6155 23.788C40.7632 23.8387 40.8695 23.9302 40.9342 24.0625C41.2452 24.2793 41.4108 24.5509 41.4311 24.8771C41.4744 25.2003 41.3469 25.6521 41.0487 26.2325C40.7629 26.9052 40.5425 27.6279 40.3876 28.4006C40.2526 29.1471 40.1238 29.7635 40.001 30.2499C40.0381 30.5269 40.0344 30.7624 39.9899 30.9563C39.9423 31.1272 39.8785 31.265 39.7985 31.3697C39.7586 31.422 39.6894 31.6075 39.5911 31.9262C39.4928 32.2448 39.4061 32.5619 39.3309 32.8774C39.2557 33.193 39.2227 33.3854 39.232 33.4546C39.2536 33.6162 39.2453 33.8171 39.207 34.0572C39.1687 34.2973 39.1095 34.4697 39.0296 34.5744C39.002 34.7191 38.9445 35.0792 38.8571 35.6549C38.7698 36.2305 38.6733 36.9131 38.5676 37.7027C38.4588 38.4692 38.337 39.2257 38.202 39.9722C38.064 40.6956 37.9335 41.3005 37.8107 41.7869C37.8324 41.9485 37.8025 42.164 37.7211 42.4334C37.6366 42.6797 37.6068 42.8952 37.6315 43.0798C37.5763 43.3692 37.5073 43.7309 37.4245 44.165C37.3416 44.599 37.3079 44.8737 37.3234 44.9892C37.2791 45.5355 37.2249 46.095 37.1606 46.6675C37.1194 47.237 37.0789 47.7241 37.0392 48.1289C37.0256 48.5537 37.0235 48.8007 37.0327 48.8699C36.9528 48.9746 36.8158 49.0047 36.6219 48.9602C36.428 48.9157 36.1978 48.8643 35.9316 48.806C35.459 48.6109 35.1564 48.3694 35.0238 48.0817C34.9175 47.814 34.9557 47.3977 35.1385 46.8328C35.2291 46.6326 35.3073 46.164 35.373 45.4267C35.4587 44.6633 35.5459 43.9115 35.6347 43.1712C35.7268 42.8063 35.815 42.3246 35.8993 41.7259C35.9804 41.104 36.0616 40.4822 36.1428 39.8604C36.2208 39.2155 36.2897 38.6776 36.3495 38.2467C36.4061 37.7926 36.4544 37.5394 36.4944 37.4871C36.482 37.3947 36.4712 37.3139 36.4619 37.2447C36.4527 37.1754 36.448 37.1408 36.448 37.1408C36.3957 37.1008 36.1025 37.1049 35.5685 37.1529C35.0314 37.1779 34.372 37.2545 33.5903 37.3827C32.8054 37.4879 31.9891 37.6208 31.1412 37.7814C30.3133 37.9158 29.5708 38.0741 28.9138 38.2561C28.6599 38.2901 28.3713 38.3288 28.0482 38.3721C27.725 38.4154 27.4711 38.4494 27.2864 38.4741C27.0325 38.5082 26.8132 38.5375 26.6286 38.5623C26.467 38.5839 26.3862 38.5948 26.3862 38.5948C26.3724 38.6671 26.3241 38.9203 26.2413 39.3544C26.1584 39.7884 26.0649 40.3179 25.9606 40.9428C25.8533 41.5446 25.7375 42.1711 25.6133 42.8221C25.509 43.447 25.4217 44.0227 25.3512 44.5491C25.3008 45.0493 25.2664 45.4063 25.248 45.6203C25.2114 46.0481 25.154 46.5845 25.0759 47.2294C25.021 47.8712 24.9444 48.5277 24.8464 49.1987C24.7745 49.8898 24.7018 50.487 24.6282 50.9903C24.5778 51.4905 24.5387 51.8129 24.5111 51.9576ZM47.524 44.715C47.095 45.1954 46.5619 45.5136 45.9249 45.6694C45.3109 45.8222 44.6868 45.8118 44.0527 45.6383C43.4154 45.4417 42.8634 45.0927 42.3968 44.5913C41.9363 44.1361 41.6051 43.593 41.4031 42.9622C41.198 42.3082 41.0704 41.4442 41.0205 40.37C40.9691 39.4605 41.137 38.5216 41.5242 37.5533C41.9083 36.5619 42.4102 35.6605 43.0299 34.849C43.6727 34.0345 44.3333 33.4408 45.0118 33.0679C45.3271 32.7907 45.6017 32.6481 45.8356 32.6403C46.0895 32.6063 46.4735 32.5783 46.9875 32.5564C47.5277 32.5545 47.934 32.6058 48.2065 32.7103C48.5021 32.8117 48.7461 32.967 48.9386 33.1762C49.3312 33.476 49.6085 33.7913 49.7703 34.1221C49.929 34.4298 50.03 34.7452 50.0733 35.0684C50.049 35.5886 49.7863 36.2582 49.2851 37.0773C48.8039 37.8702 48.121 38.5609 47.2365 39.1494C46.7503 39.379 46.2056 39.5225 45.6024 39.5798C44.9991 39.6371 44.4827 39.5536 44.0532 39.3292C43.5899 39.2033 43.306 39.2766 43.2015 39.549C43.0939 39.7984 43.0443 40.3925 43.0526 41.3313C43.0778 42.2208 43.2336 42.8579 43.5201 43.2424C43.8036 43.6039 44.1461 43.793 44.5478 43.8097C45.0218 43.8401 45.3889 43.8614 45.649 43.8736C45.9291 43.8596 46.2499 43.7108 46.6114 43.4274C46.9498 43.1471 47.1636 42.9892 47.2528 42.9538C47.339 42.8952 47.402 42.8398 47.442 42.7874C47.502 42.7089 47.6319 42.5388 47.8318 42.277C47.9717 42.0938 48.0832 41.9613 48.1663 41.8797C48.2462 41.775 48.3439 41.7149 48.4593 41.6995C48.5748 41.684 48.6864 41.7278 48.7942 41.8308C48.8989 41.9108 49.0005 41.9677 49.099 42.0015C49.3298 41.9705 49.3945 42.1028 49.2932 42.3984C49.2149 42.6909 49.0173 43.058 48.7006 43.4999C48.3808 43.9188 47.9886 44.3238 47.524 44.715ZM46.5059 37.3792C46.7443 37.2298 46.9881 37.0326 47.2373 36.7878C47.4833 36.5198 47.6817 36.2465 47.8323 35.9679C48.003 35.663 48.0759 35.4183 48.0512 35.2336C48.0079 34.9104 47.8223 34.6651 47.4943 34.4976C47.1633 34.3069 46.7086 34.3326 46.1301 34.5746C45.8854 34.6779 45.6201 34.8897 45.334 35.21C45.0449 35.5072 44.7719 35.8375 44.5152 36.2009C44.2815 36.5611 44.0893 36.8806 43.9387 37.1593C43.8111 37.4348 43.7735 37.5926 43.8259 37.6326C43.9106 37.7387 44.1191 37.8048 44.4516 37.8307C44.7809 37.8336 45.1403 37.7972 45.5296 37.7215C45.942 37.6427 46.2674 37.5287 46.5059 37.3792ZM54.468 44.8067C54.4018 44.839 54.2356 44.8261 53.9693 44.7678C53.7 44.6864 53.4044 44.585 53.0827 44.4636C52.7809 44.3161 52.5384 44.1723 52.3552 44.0324C52.1396 43.8263 51.9356 43.6187 51.7431 43.4095C51.5705 43.1741 51.4626 42.8949 51.4193 42.5717C51.2113 42.2471 51.0711 41.9017 50.9985 41.5355C50.9459 41.1431 50.8833 40.7637 50.8108 40.3975C50.7104 39.8235 50.7585 39.2179 50.955 38.5806C51.1485 37.9203 51.3059 37.4292 51.4273 37.1075C51.4994 36.7689 51.6746 36.3224 51.9528 35.7682C52.251 35.1878 52.6315 34.6081 53.0944 34.0292C53.5572 33.4502 54.0587 32.9836 54.5986 32.6292C54.9432 32.3951 55.2924 32.1956 55.6463 32.0307C56.0201 31.8396 56.4733 31.8023 57.0059 31.919C57.2691 31.9542 57.4661 32.0218 57.597 32.1217C57.7279 32.2217 57.8703 32.3201 58.0243 32.4169C58.1904 32.2537 58.2956 31.8989 58.3399 31.3525C58.4041 30.78 58.4014 30.1459 58.3317 29.4503C58.282 28.7286 58.1561 28.0522 57.9541 27.4214C57.7721 26.7643 57.5047 26.2597 57.1521 25.9075C56.496 25.22 55.8178 24.8057 55.1175 24.6646C54.4171 24.5234 53.6647 24.6947 52.8601 25.1785C52.5676 25.1002 52.2843 24.9149 52.0102 24.6227C51.7592 24.3274 51.6581 24.012 51.7072 23.6764C51.8702 23.4901 52.0794 23.2976 52.3347 23.0989C52.5901 22.9002 52.8531 22.7592 53.124 22.6759C53.4378 22.5634 53.7548 22.4739 54.0749 22.4075C54.418 22.338 54.7882 22.3824 55.1854 22.5407C56.4383 22.7723 57.4127 23.2056 58.1088 23.8408C58.8248 24.4498 59.3647 25.2351 59.7286 26.1967C60.0924 27.1584 60.384 28.2824 60.6034 29.5689C60.699 29.932 60.7554 30.2652 60.7725 30.5684C60.8096 30.8454 60.8384 31.3232 60.8589 32.0019C60.6682 32.3329 60.6239 32.7031 60.7257 33.1124C60.8475 33.4955 60.8508 33.871 60.7357 34.2389C60.7652 34.6344 60.7161 34.9699 60.5886 35.2455C60.461 35.5211 60.4127 35.7743 60.4436 36.0051C60.1828 37.2149 59.7688 38.4218 59.2017 39.6256C58.6577 40.8264 57.9896 41.8911 57.1977 42.8196C56.4057 43.7481 55.4958 44.4105 54.468 44.8067ZM53.9587 42.5839C54.2019 42.6453 54.5358 42.5066 54.9603 42.1677C55.3818 41.8058 55.8024 41.35 56.2222 40.8003C56.6389 40.2275 56.9779 39.6886 57.2392 39.1837C57.3329 39.0066 57.4474 38.7211 57.5826 38.327C57.7408 37.9298 57.8776 37.5473 57.9928 37.1794C58.131 36.8084 58.2055 36.5752 58.2162 36.4798C58.3466 35.8749 58.3894 35.317 58.3444 34.806C58.3194 34.2689 58.2153 33.9304 58.0321 33.7905C57.738 33.5244 57.3132 33.5109 56.7578 33.7498C56.2254 33.9856 55.7301 34.3222 55.2718 34.7595C54.9396 35.086 54.6543 35.5002 54.4161 36.0021C54.1979 36.4778 53.9635 36.9204 53.7129 37.3299C53.7576 37.4884 53.73 37.6331 53.6301 37.764C53.5532 37.8918 53.4648 38.0211 53.3648 38.152C53.1421 38.7693 53.0186 39.338 52.9943 39.8582C52.9669 40.3553 52.9609 40.6616 52.9764 40.777C53.0259 41.1463 53.1346 41.5195 53.3026 41.8964C53.4706 42.2734 53.6893 42.5025 53.9587 42.5839ZM62.5161 38.4414C62.4897 38.0689 62.4971 37.598 62.5383 37.0285C62.5795 36.4591 62.6122 35.9142 62.6365 35.3941C62.6839 34.8708 62.6706 34.5083 62.5966 34.3068C62.4888 34.2037 62.371 34.1138 62.2432 34.0369C62.1154 33.96 61.9876 33.8832 61.8598 33.8063C61.872 33.5462 61.8872 33.3092 61.9055 33.0953C61.9469 32.8782 62.0969 32.6819 62.3553 32.5063L62.6116 32.5777C62.6777 32.5453 62.7439 32.513 62.8101 32.4806C62.8731 32.4252 62.9262 32.3828 62.9693 32.3535C63.1444 31.9071 63.2919 31.4292 63.4116 30.9197C63.5282 30.3871 63.6264 29.8922 63.7061 29.4351C63.7689 29.0272 63.8817 28.5539 64.0445 28.0152C64.2073 27.4764 64.3825 27.03 64.57 26.6759C64.6838 26.4727 64.776 26.2841 64.8466 26.1101C64.9142 25.9131 64.9818 25.7161 65.0494 25.519C65.2015 25.0757 65.4297 24.5869 65.7341 24.0527C66.0354 23.4954 66.3759 22.968 66.7557 22.4707C67.1555 21.9472 67.5362 21.5437 67.8977 21.2603C68.256 20.9538 68.5722 20.7705 68.8461 20.7103C69.1169 20.627 69.4701 20.5444 69.9055 20.4626C70.1549 20.5701 70.4629 20.7638 70.8293 21.0437C71.2189 21.3205 71.4322 21.5973 71.4693 21.8743C71.5002 22.1052 71.5343 22.3591 71.5714 22.6361C71.6054 22.89 71.5786 23.1286 71.491 23.3518C71.5358 23.5103 71.5474 23.6849 71.526 23.8758C71.5015 24.0435 71.467 24.2244 71.4225 24.4183C71.4118 24.5138 71.3911 24.6223 71.3604 24.7439C71.3527 24.8624 71.3451 24.9809 71.3375 25.0994C71.0196 26.0584 70.7177 26.8743 70.4319 27.547C70.166 28.1936 69.8563 28.7755 69.5027 29.2928C69.169 29.784 68.7577 30.3091 68.2686 30.868C67.7996 31.4008 67.2259 32.0299 66.5477 32.7552C66.9556 32.818 67.3281 32.9679 67.6653 33.2046C67.9994 33.4183 68.2089 33.7545 68.2939 34.213C68.3093 34.3285 68.3148 34.457 68.3103 34.5986C68.3288 34.7371 68.3589 34.874 68.4006 35.0094C68.487 35.3033 68.5487 35.5888 68.5858 35.8657C68.6429 36.1166 68.7016 36.3789 68.7618 36.6528C68.8451 36.9236 68.8899 37.2583 68.8963 37.6569C68.9027 38.0555 68.9014 38.3964 68.8924 38.6796C68.8817 38.775 68.8548 38.8374 68.8117 38.8667C68.7886 38.8697 68.7848 38.929 68.8003 39.0444C68.8498 39.4137 68.8123 39.7477 68.6878 40.0464C68.5633 40.345 68.432 40.6798 68.2937 41.0508C68.2399 41.1755 68.1615 41.2918 68.0585 41.3996C67.9523 41.4843 67.8608 41.5905 67.7839 41.7183C67.4534 42.2326 67.085 42.5521 66.6788 42.6771C66.2957 42.7989 65.8479 42.9646 65.3356 43.1743L65.2756 43.2528C65.02 43.0991 64.8314 43.0068 64.7098 42.9761C64.6113 42.9423 64.4289 42.8963 64.1626 42.838C64.0501 42.5241 63.8452 42.2226 63.548 41.9335C63.2739 41.6412 63.0905 41.3251 62.9979 40.985C62.9532 40.8265 62.9216 40.678 62.903 40.5395C62.9044 40.3749 62.8382 40.231 62.7042 40.108C62.8503 39.9709 62.8548 39.8293 62.7178 39.6832C62.5807 39.5371 62.5721 39.3855 62.6921 39.2284C62.6859 39.1823 62.6797 39.1361 62.6735 39.0899C62.6904 39.0407 62.6973 39.0045 62.6942 38.9814C62.665 38.9384 62.6326 38.8722 62.5971 38.783C62.5586 38.6706 62.5316 38.5568 62.5161 38.4414ZM65.8143 40.9601C66.2972 40.355 66.5938 39.763 66.7042 39.1843C66.8116 38.5825 66.825 37.9815 66.7446 37.3813C66.6842 36.755 66.6076 36.0956 66.5148 35.4031C66.4993 35.2877 66.4608 35.1753 66.3992 35.0661C66.3606 34.9538 66.3582 34.8484 66.392 34.7499C66.2657 34.5083 66.1362 34.2437 66.0037 33.956C65.868 33.6452 65.6578 33.3914 65.373 33.1946C65.2007 33.3117 65.0645 33.4356 64.9646 33.5665C64.8646 33.6974 64.7409 33.9137 64.5933 34.2154C64.5089 34.4617 64.4507 34.9042 64.4188 35.5429C64.4099 36.1786 64.4335 36.8803 64.4894 37.6483C64.5422 38.3931 64.635 39.0856 64.7677 39.7257C64.9236 40.3628 65.1224 40.7943 65.3642 41.0204L65.8143 40.9601ZM67.9133 24.0074C67.2429 24.9666 66.6803 26.0289 66.2255 27.1942C65.7707 28.3595 65.4445 29.5194 65.2467 30.6738L65.6554 30.8305L67.1964 29.1789C67.2594 29.1235 67.3778 28.9549 67.5516 28.6731C67.7253 28.3914 67.8859 28.0996 68.0335 27.7979C68.201 27.47 68.2917 27.2698 68.3055 27.1975C68.4916 27.0081 68.6591 26.6802 68.8081 26.2137C68.9802 25.7442 69.123 25.2317 69.2365 24.676C69.3469 24.0973 69.4158 23.5593 69.4432 23.0622C69.4906 22.5389 69.4742 22.1534 69.394 21.9057L69.1655 22.0421C68.9749 22.3731 68.7727 22.7056 68.559 23.0397C68.3422 23.3507 68.127 23.6733 67.9133 24.0074ZM80.8803 41.0561C80.0815 40.8812 79.4233 40.4407 78.9057 39.7346C78.385 39.0055 78.0175 38.2793 77.8031 37.5561C77.78 37.5592 77.717 37.6147 77.6139 37.7225C77.5309 37.8041 77.4309 37.935 77.3141 38.1151C77.0342 38.4816 76.6844 38.9396 76.2646 39.4893C75.8417 40.016 75.3896 40.4995 74.9082 40.94C74.4467 41.3543 73.9821 41.5692 73.5142 41.5849C73.3141 41.4943 73.1009 41.3936 72.8746 41.2829C72.6683 41.1461 72.462 41.0093 72.2556 40.8724C72.1509 40.7925 72.0578 40.711 71.9761 40.6279C71.9176 40.5418 71.8575 40.4441 71.7959 40.3348C71.4492 39.6764 71.2287 39.0832 71.1345 38.5554C71.0372 38.0045 71.0222 37.4543 71.0896 36.9049C71.1769 36.3292 71.2796 35.6928 71.3977 34.9955C71.4115 34.9232 71.4536 34.6238 71.5241 34.0974C71.6176 33.568 71.7249 32.9661 71.8461 32.292C71.9672 31.6178 72.0861 31.0145 72.2027 30.4819C72.3424 29.9462 72.4523 29.626 72.5322 29.5213C72.6015 29.5121 72.6707 29.5028 72.74 29.4935C72.8292 29.458 72.9085 29.4357 72.9777 29.4264C73.2085 29.3955 73.3925 29.4531 73.5296 29.5992C73.6404 29.7253 73.7698 29.8137 73.9176 29.8644C74.0884 29.912 74.2162 29.9889 74.3009 30.095C74.4473 30.3104 74.433 30.8175 74.258 31.6163C74.08 32.3921 73.8928 33.2748 73.6965 34.2646C73.5108 35.1588 73.3729 36.0585 73.2827 36.9635C73.1894 37.8454 73.2737 38.5625 73.5357 39.1148C73.6973 39.0932 73.898 38.9253 74.1379 38.6112C74.3978 38.2709 74.6008 38.0322 74.7469 37.8951C74.9592 37.7257 75.2237 37.4201 75.5404 36.9782C75.8772 36.5101 76.2024 36.0436 76.516 35.5786C76.8266 35.0905 77.0356 34.7218 77.1432 34.4724C77.217 34.3215 77.3215 34.0491 77.4566 33.655C77.5887 33.2378 77.7177 32.7976 77.8436 32.3343C77.9895 31.8448 78.0939 31.3961 78.1567 30.9882C78.2426 30.5772 78.2632 30.2925 78.2185 30.134C78.1645 29.9063 78.1643 29.7301 78.2181 29.6054C78.2919 29.4545 78.4134 29.309 78.5826 29.1688C78.698 29.1534 78.825 29.1364 78.9635 29.1178C79.102 29.0992 79.2305 29.0938 79.349 29.1014C79.5091 29.2444 79.6793 29.3743 79.8594 29.4912C80.0395 29.608 80.2212 29.7364 80.4045 29.8764C80.5786 30.2995 80.5883 30.8974 80.4333 31.67C80.2784 32.4427 80.1312 33.2731 79.9917 34.1612C79.8522 35.0493 79.8066 35.9366 79.8549 36.823C79.9001 37.6864 80.2315 38.4056 80.849 38.9808C81.3059 38.7081 81.6489 38.4624 81.8781 38.2437C82.1272 37.9989 82.3649 37.7556 82.5909 37.5138C82.8139 37.2489 83.1062 36.9748 83.4676 36.6914C83.717 36.799 83.9273 37.0528 84.0984 37.4528C84.2694 37.8528 84.372 38.1798 84.406 38.4337C84.323 38.5153 84.2399 38.5969 84.1569 38.6786C84.0938 38.734 84.0454 38.811 84.0116 38.9095C83.9133 39.2281 83.6765 39.5653 83.3012 39.9211C82.9259 40.2768 82.5198 40.578 82.0829 40.8245C81.6429 41.0479 81.242 41.1252 80.8803 41.0561ZM91.1158 40.2838C90.8065 40.2548 90.5056 40.2011 90.2131 40.1228C89.9206 40.0445 89.7012 39.8977 89.5549 39.6823C89.5656 39.5869 89.5648 39.493 89.5524 39.4007C89.5631 39.3053 89.5507 39.2129 89.5153 39.1237C89.4751 38.8236 89.5086 38.3727 89.616 37.7708C89.7464 37.1659 89.9037 36.4987 90.0879 35.7691C90.2952 35.0364 90.4856 34.3529 90.6591 33.7187C90.5085 33.9974 90.2317 34.3869 89.8288 34.8874C89.449 35.3847 89.0376 35.9098 88.5948 36.4626C88.1488 36.9923 87.7444 37.4812 87.3814 37.9293C87.0154 38.3543 86.774 38.6568 86.6572 38.837C86.4496 39.2173 86.2544 39.5136 86.0714 39.7261C85.8884 39.9386 85.6216 40.3151 85.2711 40.8555C85.0864 40.8803 84.9133 40.9035 84.7517 40.9251C84.5901 40.9468 84.4401 40.9669 84.3016 40.9854C84.046 40.8317 83.8266 40.6849 83.6434 40.5449C83.4832 40.4019 83.3584 40.1719 83.2689 39.8549C83.6918 39.3283 84.0148 38.9326 84.2377 38.6677C84.4807 38.3767 84.7437 38.0595 85.0266 37.7161C85.1297 37.6083 85.3527 37.3435 85.6956 36.9215C86.0354 36.4766 86.4152 35.9792 86.835 35.4295C87.2748 34.8536 87.6846 34.317 88.0644 33.8197C88.4442 33.3223 88.7141 32.969 88.874 32.7596C88.4243 32.2089 88.1131 31.8159 87.9406 31.5805C87.765 31.3221 87.5308 30.9775 87.2382 30.5468C87.0656 30.3114 86.9031 30.063 86.7506 29.8014C86.595 29.5168 86.4409 29.2438 86.2883 28.9822C86.2236 28.8499 86.1689 28.7045 86.1242 28.546C86.1025 28.3844 86.0493 28.2506 85.9646 28.1444C85.8352 27.8798 85.7665 27.6305 85.7587 27.3966C85.7739 27.1596 85.8446 26.9857 85.9707 26.8748C86.1154 26.9024 86.2747 26.9515 86.4487 27.0222C86.6195 27.0698 86.7873 27.0943 86.952 27.0957C87.1166 27.0972 87.2382 27.1279 87.3168 27.1878C87.4184 27.2447 87.52 27.3016 87.6216 27.3585C87.7432 27.3892 87.8217 27.4491 87.8572 27.5384C87.9157 27.6245 87.9627 27.7122 87.9982 27.8015C88.0536 27.8645 88.1206 27.926 88.1991 27.986C88.1223 28.1138 88.1262 28.2308 88.2109 28.3369C88.2925 28.42 88.3526 28.5176 88.3912 28.63C88.815 29.5131 89.1971 30.2608 89.5376 30.8731C89.8751 31.4623 90.0584 31.7785 90.0877 31.8215C90.1693 31.9046 90.2494 31.9761 90.3279 32.0361C90.4295 32.0929 90.5573 32.1698 90.7113 32.2667C90.8186 31.6648 90.9528 31.0007 91.114 30.2742C91.2751 29.5476 91.4209 28.8819 91.5513 28.277C91.7017 27.6459 91.8076 27.2088 91.869 26.9656C91.8828 26.8932 91.8966 26.8209 91.9104 26.7486C91.9442 26.65 91.9549 26.5546 91.9425 26.4623C91.8885 26.2345 91.9146 26.0783 92.0207 25.9936C92.1469 25.8827 92.2861 25.7818 92.4384 25.6909C93.0016 25.6859 93.5135 25.9111 93.974 26.3663C94.1003 26.6079 94.189 26.831 94.2399 27.0356C94.2908 27.2403 94.2771 27.4888 94.1988 27.7813C94.0667 28.1984 93.9324 28.6864 93.7958 29.2451C93.6791 29.7777 93.5334 30.4434 93.3584 31.2423C93.1835 32.0411 92.9541 33.047 92.6702 34.2599C92.5459 34.911 92.4262 35.4205 92.311 35.7884C92.2158 36.1301 92.1275 36.4357 92.0461 36.7051C91.9878 36.9713 91.9242 37.2853 91.8551 37.647C91.8061 37.9826 91.7541 38.4712 91.6991 39.113C91.8424 39.3053 91.8902 39.4869 91.8426 39.6578C91.7919 39.8055 91.7166 39.9449 91.6166 40.0757C91.526 40.2759 91.359 40.3452 91.1158 40.2838ZM94.8264 37.9891C94.6494 37.8953 94.5269 37.7707 94.4591 37.6153C94.3882 37.4369 94.3088 37.283 94.221 37.1538C93.9607 36.7892 93.7419 36.3838 93.5646 35.9376C93.3874 35.4914 93.147 35.1007 92.8436 34.7654L91.0639 34.8981L91.8706 33.0277L93.161 32.9253C93.4363 32.7004 93.6655 32.4817 93.8485 32.2692C94.0515 32.0306 94.253 31.7804 94.4529 31.5186C95.2032 30.4547 95.7867 29.6363 96.2034 29.0635C96.6201 28.4907 96.9269 28.0619 97.1237 27.7771C97.3205 27.4922 97.4773 27.2598 97.5942 27.0796C97.7448 26.801 97.8308 26.5662 97.8523 26.3754C97.8937 26.1583 97.9297 25.989 97.9604 25.8674C98.0727 25.8289 98.1866 25.8019 98.302 25.7864C98.4174 25.7709 98.5213 25.757 98.6137 25.7446C98.7983 25.7199 98.9368 25.7013 99.0291 25.689C99.1215 25.6766 99.2562 25.7173 99.4332 25.8111C99.8658 26.0586 100.025 26.3662 99.9094 26.7341C99.7635 27.2236 99.5668 27.6847 99.3193 28.1173C99.0687 28.5269 98.722 29.008 98.2791 29.5608C97.8562 30.0874 97.3034 30.7842 96.6206 31.6511C96.5376 31.7327 96.3415 31.9352 96.0324 32.2586C95.7232 32.582 95.4241 32.8923 95.1349 33.1895C94.8658 33.4605 94.7312 33.5961 94.7312 33.5961C94.7143 33.6453 94.6497 33.6892 94.5374 33.7278C94.4451 33.7401 94.3674 33.7741 94.3043 33.8295C94.5753 34.0987 94.9188 34.5578 95.3348 35.207C95.7707 35.83 96.1867 36.4792 96.5826 37.1546C96.7321 37.393 96.9046 37.6284 97.1002 37.8606C97.3158 38.0667 97.5391 38.3305 97.7702 38.652C97.7718 38.8398 97.7504 39.0306 97.7059 39.2246C97.6876 39.4385 97.6353 39.5747 97.5492 39.6333C97.3369 39.8027 97.0461 39.9122 96.6768 39.9617C96.3306 40.0081 96.0258 40.0136 95.7626 39.9784C95.6239 39.6445 95.4736 39.3122 95.3118 38.9814C95.15 38.6506 94.9882 38.3199 94.8264 37.9891ZM108.969 37.7506C108.754 37.8969 108.479 37.8632 108.145 37.6495C107.811 37.4358 107.576 37.2559 107.439 37.1098C107.194 36.8607 106.993 36.4999 106.835 36.0275C106.678 35.5551 106.578 35.1574 106.534 34.8342C106.454 34.2341 106.361 33.894 106.257 33.814C106.175 33.731 106.036 33.8319 105.839 34.1167C105.662 34.3754 105.394 34.7403 105.034 35.2115C104.874 35.4209 104.607 35.7035 104.231 36.0592C103.856 36.415 103.463 36.7261 103.052 36.9926C102.642 37.2591 102.286 37.4125 101.986 37.4527C101.775 37.4575 101.552 37.3699 101.316 37.19C101.081 37.0101 100.865 36.804 100.67 36.5717C100.494 36.3133 100.359 36.0964 100.265 35.921C100.103 35.5902 100.016 35.0262 100.003 34.229C100.01 33.4056 100.076 32.4922 100.2 31.4887C100.344 30.459 100.529 29.4708 100.754 28.5242C101 27.5514 101.269 26.7517 101.561 26.1251C101.873 25.4724 102.214 25.1213 102.583 25.0718C102.837 25.0378 103.053 25.1615 103.232 25.4431C103.43 25.6984 103.588 25.9122 103.705 26.0845C103.852 26.2999 103.907 26.4453 103.87 26.5207C103.856 26.5931 103.781 26.7324 103.644 26.9387C103.49 27.1943 103.323 27.6161 103.144 28.2041C102.961 28.769 102.774 29.3932 102.584 30.0766C102.413 30.7339 102.263 31.365 102.133 31.9699C102.002 32.5748 101.911 33.0335 101.859 33.346C101.837 33.5368 101.802 33.8 101.753 34.1355C101.727 34.468 101.738 34.725 101.786 34.9065C101.789 34.9296 101.808 34.9858 101.844 35.075C101.876 35.1412 101.973 35.1634 102.135 35.1418C102.642 35.0737 103.122 34.798 103.575 34.3144C104.047 33.8047 104.49 33.1696 104.905 32.409C105.343 31.6454 105.742 30.8518 106.102 30.0282C106.462 29.2046 106.791 28.4203 107.091 27.6752C107.413 26.927 107.695 26.3135 107.937 25.8348C108.175 25.3329 108.385 25.058 108.566 25.0102C108.725 24.9655 108.913 24.9638 109.13 25.0052C109.367 25.0205 109.574 25.075 109.751 25.1687C109.928 25.2625 110.019 25.4148 110.024 25.6256C109.861 26.5168 109.641 27.4157 109.363 28.3224C109.082 29.206 108.825 30.098 108.593 30.9985C108.385 31.8958 108.271 32.8039 108.254 33.7227C108.235 34.2891 108.343 34.8269 108.575 35.3361C108.831 35.8423 109.183 36.2769 109.631 36.6398C109.893 36.8397 109.899 37.062 109.65 37.3069C109.401 37.5518 109.174 37.6997 108.969 37.7506ZM113.314 30.8593C113.176 30.8779 113.003 30.9011 112.795 30.9289C112.584 30.9337 112.346 30.9069 112.079 30.8486C111.733 30.895 111.498 30.8913 111.373 30.8375C111.245 30.7606 111.124 30.6476 111.01 30.4984C110.71 30.1862 110.656 29.9584 110.848 29.8152C111.037 29.6488 111.553 29.4623 112.394 29.2555C113.155 28.9657 113.865 28.7413 114.525 28.5824C115.185 28.4234 115.977 28.2821 116.9 28.1584C117.5 28.078 117.907 28.0469 118.121 28.0652C118.335 28.0836 118.586 28.2027 118.874 28.4226C119.267 28.7224 119.438 29.0401 119.389 29.3757C119.337 29.6881 119.04 29.8337 118.496 29.8125C118.338 29.8573 118.041 29.9206 117.605 30.0024C117.17 30.0843 116.747 30.1761 116.338 30.2779C116.087 30.335 115.688 30.4238 115.14 30.5442C114.592 30.6646 113.984 30.7696 113.314 30.8593ZM39.7757 69.0777C39.5294 68.9932 39.3408 68.901 39.2099 68.801C39.076 68.678 38.8596 68.5543 38.561 68.4298C38.4254 68.119 38.2782 67.8098 38.1195 67.5021C37.9807 67.1682 37.9013 66.8381 37.8811 66.5119C37.8794 66.3241 37.8185 66.1325 37.6983 65.9372C37.5981 65.7156 37.5834 65.5179 37.6541 65.3439C37.5584 64.9808 37.5065 64.506 37.4985 63.9197C37.4873 63.3102 37.5039 62.7323 37.5481 62.1859C37.5893 61.6165 37.6175 61.2133 37.6328 60.9762C37.5511 60.8932 37.4742 60.8448 37.4018 60.831C37.3526 60.8141 37.288 60.858 37.208 60.9627C37.0081 61.2244 36.8197 61.4846 36.6429 61.7433C36.4661 62.002 36.2793 62.2737 36.0825 62.5586C36.0025 62.6633 35.911 62.7695 35.808 62.8773C35.7018 62.962 35.6596 63.0852 35.6812 63.2468L34.6575 65.0758C34.5899 65.2728 34.4492 65.5384 34.2355 65.8725C34.0418 66.1804 33.902 66.5398 33.8161 66.9508C33.7916 67.1186 33.7293 67.2679 33.6294 67.3988C33.5263 67.5066 33.4233 67.6144 33.3202 67.7222C33.0047 67.647 32.7977 67.5925 32.6991 67.5587C32.6006 67.5249 32.4089 67.4096 32.1241 67.2128C31.8623 67.0129 31.6729 66.8268 31.5558 66.6545C31.4357 66.4591 31.3848 66.2544 31.4031 66.0405C31.3567 65.6943 31.2917 65.2095 31.2082 64.5863C31.1447 63.9369 31.0627 63.3252 30.9623 62.7512C30.8819 62.151 30.7801 61.7417 30.6568 61.5233C30.406 61.5804 30.2375 61.6382 30.1514 61.6967C30.0652 61.7553 29.9684 61.9092 29.8608 62.1586C29.8808 62.1324 29.7986 62.3079 29.6141 62.6851C29.4497 63.0361 29.2184 63.5018 28.9202 64.0822C28.642 64.6364 28.3653 65.2022 28.0902 65.7795C27.812 66.3337 27.5822 66.811 27.4009 67.2112C27.2395 67.5853 27.1689 67.7592 27.1889 67.7331C27.052 67.9394 26.9398 68.1541 26.8522 68.3774C26.7877 68.5975 26.7248 68.8291 26.6634 69.0723C26.5851 69.3648 26.4829 69.5665 26.3567 69.6774C26.2275 69.7652 26.0975 69.7591 25.9666 69.6592C25.7665 69.5685 25.5548 69.4794 25.3316 69.3918C25.1315 69.3011 24.956 69.2189 24.8051 69.1451C24.6911 68.9959 24.5887 68.8451 24.4978 68.6928C24.4269 68.5144 24.3644 68.3113 24.3104 68.0835C24.4796 67.9434 24.5973 67.8571 24.6634 67.8247C24.7265 67.7693 24.7734 67.6808 24.8041 67.5592C25.2098 66.7294 25.5618 66.0243 25.86 65.4439C26.1551 64.8404 26.4064 64.3485 26.6139 63.9683C26.8214 63.588 26.9821 63.2963 27.0958 63.093C27.2065 62.8667 27.2687 62.7174 27.2825 62.6451C27.367 62.3988 27.4761 62.1609 27.6099 61.9315C27.7667 61.699 27.9104 61.4565 28.0411 61.2041C28.0549 61.1317 28.1487 60.9547 28.3224 60.6729C28.493 60.3681 28.6752 60.0617 28.8689 59.7538C29.0626 59.4459 29.2025 59.2626 29.2887 59.2041C29.3948 59.1194 29.4632 59.0162 29.4939 58.8946C29.5446 58.7468 29.5953 58.5991 29.646 58.4513C29.6643 58.2374 29.7481 58.0734 29.8973 57.9594C30.0465 57.8454 30.2858 57.7899 30.6152 57.7927C30.8215 57.9296 31.0524 58.0749 31.308 58.2286C31.5605 58.3593 31.826 58.4999 32.1047 58.6505C32.1125 58.8845 32.1335 59.1284 32.1675 59.3823C32.2246 59.6331 32.3695 60.0132 32.6022 60.5224C32.5701 60.8087 32.6203 61.0957 32.7529 61.3834C32.8854 61.6711 32.9225 61.9481 32.8642 62.2144C32.9044 62.5145 33.003 62.7245 33.1601 62.8444C33.3371 62.9382 33.5641 62.7903 33.8408 62.4007C34.1483 61.8896 34.5204 61.3345 34.9571 60.7356C35.3907 60.1135 35.8173 59.5277 36.2371 58.978C36.6769 58.4021 37.0467 57.9178 37.3466 57.5252C37.6664 57.1064 37.8548 56.8462 37.9117 56.7446C37.9424 56.623 38.0154 56.5544 38.1308 56.539C38.2662 56.4973 38.3963 56.5034 38.521 56.5572C38.9412 56.7124 39.2268 56.8268 39.3777 56.9006C39.5285 56.9744 39.7479 57.1212 40.0359 57.3411C40.31 57.6333 40.3833 57.9172 40.2557 58.1928C40.1943 58.436 40.1184 58.8339 40.028 59.3864C39.9575 59.9128 39.8832 60.4985 39.8052 61.1433C39.7502 61.7851 39.7021 62.3908 39.6609 62.9602C39.6397 63.5035 39.6377 63.9267 39.6548 64.2299C39.6936 64.6947 39.7355 65.1825 39.7804 65.6934C39.8223 66.1813 39.925 66.6845 40.0884 67.203C40.369 67.8938 40.477 68.3493 40.4125 68.5694C40.368 68.7634 40.1557 68.9328 39.7757 69.0777ZM45.3798 67.9038C45.0797 67.944 44.8296 67.9188 44.6295 67.8281C44.4524 67.7344 44.223 67.6006 43.9413 67.4269C43.4408 67.024 43.0704 66.6272 42.8301 66.2364C42.5867 65.8226 42.4733 65.4148 42.49 65.0132C42.5345 64.8192 42.5344 64.643 42.4896 64.4845C42.4649 64.2998 42.4525 64.2075 42.4525 64.2075C42.3216 64.1076 42.2777 64.0429 42.3208 64.0137C42.3608 63.9613 42.3977 63.8859 42.4315 63.7874C42.57 63.7688 42.5991 63.6357 42.5189 63.3879C42.448 63.2095 42.4862 62.7931 42.6335 62.139C42.7809 61.4848 42.9905 60.8575 43.2625 60.2571C43.3701 60.0077 43.5377 59.6798 43.7652 59.2734C43.9896 58.8439 44.2386 58.4228 44.5123 58.0101C44.806 57.5713 45.0758 57.218 45.3219 56.95C45.834 56.388 46.2939 55.9621 46.7016 55.6725C47.1092 55.3829 47.5592 55.1464 48.0516 54.9629C48.5439 54.7795 48.8824 54.6754 49.0671 54.6506C49.2749 54.6228 49.5766 54.7703 49.9723 55.0933C50.5342 55.253 50.9522 55.4789 51.2263 55.7712C51.5235 56.0603 51.7485 56.5119 51.9012 57.1258C52.0633 57.809 52.1123 58.6131 52.0482 59.5381C52.0042 60.4369 51.6087 61.606 50.8616 63.0455C50.3959 63.9538 49.9485 64.6482 49.5194 65.1286C49.0873 65.586 48.5628 66.0557 47.946 66.5378C47.5045 66.926 47.0984 67.2271 46.7276 67.4413C46.3538 67.6323 45.9045 67.7865 45.3798 67.9038ZM48.212 63.7882C48.6824 63.0908 49.0421 62.4434 49.2911 61.8461C49.5631 61.2457 49.7919 60.4984 49.9776 59.6041C50.0359 59.3378 50.0518 59.0185 50.0254 58.646C49.9959 58.2505 49.9364 57.8943 49.847 57.5773C49.7775 57.2342 49.6704 57.0488 49.5257 57.0212C49.2271 56.8967 48.8862 56.8954 48.5031 57.0172C48.1168 57.116 47.7192 57.3925 47.3101 57.8467C46.6749 58.5428 46.1522 59.3765 45.7419 60.3479C45.3286 61.2962 44.9437 62.3699 44.5875 63.569C44.3526 64.4464 44.3615 65.1266 44.6142 65.6097C44.8869 66.0666 45.3371 66.1825 45.9649 65.9574C46.6126 65.7061 47.3617 64.9831 48.212 63.7882ZM57.7569 65.9634C57.2491 66.0315 56.8651 66.0594 56.605 66.0473C56.3449 66.0351 56.1394 65.9922 55.9886 65.9184C55.8377 65.8446 55.6591 65.7393 55.4528 65.6025C55.3357 65.4302 55.194 65.2494 55.0277 65.0602C54.8613 64.8711 54.7258 64.7365 54.6211 64.6565C54.4824 64.3227 54.3759 63.8787 54.3017 63.3247C54.2505 62.7676 54.2394 62.1582 54.2682 61.4964C54.3201 60.8315 54.4243 60.2066 54.5809 59.6217C54.6485 59.4247 54.7046 59.2292 54.7491 59.0352C54.7936 58.8413 54.8158 58.7443 54.8158 58.7443C54.8004 58.6289 54.9017 58.3334 55.12 57.8577C55.3613 57.3789 55.6226 56.8739 55.9039 56.3428C56.2083 55.8085 56.4619 55.4221 56.6649 55.1834C56.8018 54.9771 57.0179 54.7484 57.3132 54.4974C57.6316 54.2432 57.9116 54.053 58.1531 53.9266C58.3946 53.8003 58.6377 53.6855 58.8824 53.5822C59.1501 53.4758 59.4571 53.3994 59.8033 53.353C60.1265 53.3097 60.4358 53.3388 60.7314 53.4402C61.0269 53.5415 61.3249 53.7483 61.6252 54.0606C62.0964 54.4204 62.3829 54.805 62.4847 55.2143C62.6065 55.5974 62.6491 56.0029 62.6124 56.4308C62.5589 56.9079 62.4568 57.2858 62.3062 57.5644C62.1524 57.82 61.9586 57.9517 61.7247 57.9596C61.4907 57.9674 61.2021 57.8299 60.8587 57.5469C60.7416 57.3746 60.6754 57.2308 60.6599 57.1153C60.6413 56.9768 60.6612 56.7745 60.7195 56.5082C60.7686 56.1726 60.7237 55.8379 60.585 55.5041C60.4463 55.1702 60.273 55.0172 60.0653 55.045C59.7652 55.0852 59.449 55.2686 59.1168 55.595C58.8046 55.8954 58.4901 56.2665 58.1734 56.7084C58.0365 56.9147 57.8444 57.2341 57.5969 57.6668C57.3694 58.0732 57.148 58.5258 56.9329 59.0246C56.7147 59.5003 56.5411 59.9582 56.4121 60.3985C56.2602 61.1942 56.1344 61.8338 56.0347 62.3171C55.9581 62.7973 55.9198 63.0374 55.9198 63.0374C55.9321 63.1298 55.9676 63.219 56.0261 63.3051C56.1047 63.3651 56.1501 63.4413 56.1625 63.5336C56.1996 63.8106 56.3906 64.0082 56.7354 64.1265C57.0109 64.2541 57.3234 64.3062 57.6727 64.2829C58.019 64.2365 58.4305 64.0638 58.9074 63.765C59.252 63.5308 59.5658 63.2421 59.8487 62.8987C60.1548 62.5522 60.477 62.2388 60.8154 61.9585C61.0477 61.7629 61.2253 61.5981 61.3483 61.4641C61.4945 61.3271 61.5737 61.3047 61.5861 61.397C61.5984 61.4894 61.6393 61.5309 61.7085 61.5216C61.7778 61.5123 61.8524 61.4553 61.9323 61.3506C62.0461 61.1474 62.1806 61.0119 62.336 60.9441C62.4883 60.8532 62.6238 60.8115 62.7423 60.8191C62.8808 60.8006 62.9546 60.8259 62.9639 60.8952C62.9456 61.1091 63.015 61.2761 63.172 61.396C63.1844 61.4883 63.1668 61.6199 63.1192 61.7908C63.0916 61.9355 63.0378 62.0602 62.9578 62.1649C62.8641 62.3419 62.7157 62.5498 62.5127 62.7884C62.3328 63.024 62.1613 63.235 61.9983 63.4213C61.8322 63.5846 61.7491 63.6662 61.7491 63.6662C61.6537 63.6555 61.5645 63.6909 61.4814 63.7725C61.4215 63.8511 61.3515 63.9427 61.2715 64.0474C61.1085 64.2337 60.9524 64.3839 60.8032 64.4978C60.6509 64.5887 60.5286 64.6404 60.4362 64.6528C60.287 64.7667 60.1678 64.8415 60.0786 64.8769C60.0124 64.9093 59.9855 64.9716 59.9979 65.064C59.798 65.3257 59.5311 65.526 59.1972 65.6647C58.8833 65.7772 58.4032 65.8768 57.7569 65.9634ZM66.7282 63.8449C66.4526 63.7174 66.194 63.5405 65.9522 63.3145C65.7073 63.0653 65.5571 62.733 65.5014 62.3175C65.4705 62.0867 65.4641 61.6881 65.4822 61.1217C65.5003 60.5553 65.5437 59.9151 65.6125 59.2009C65.6813 58.4868 65.7563 57.8188 65.8374 57.197C66.0126 56.7506 66.1531 56.3088 66.259 55.8717C66.3649 55.4345 66.4117 55.1698 66.3993 55.0774C66.4084 54.7943 66.4228 54.4634 66.4426 54.0848C66.4854 53.7031 66.5329 53.356 66.585 53.0435C66.6371 52.7311 66.6832 52.5487 66.7232 52.4963C66.8231 52.3654 66.9523 52.2776 67.1108 52.2329C67.2662 52.1651 67.4309 52.1665 67.6048 52.2372C67.7988 52.2817 67.9574 52.4132 68.0807 52.6316C68.3717 52.8746 68.5435 53.1923 68.5961 53.5847C68.6456 53.9541 68.5928 54.5251 68.4379 55.2977C68.292 55.7872 68.1569 56.3575 68.0327 57.0086C67.9085 57.6597 67.8011 58.2615 67.7107 58.8141C67.6402 59.3404 67.6058 59.6975 67.6075 59.8853L66.9428 60.1858C67.2858 59.7639 67.6041 59.3335 67.8977 58.8947C68.1883 58.4328 68.3989 58.0757 68.5296 57.8232C68.8508 57.2397 69.1268 56.7563 69.3574 56.3729C69.608 55.9634 69.9301 55.4738 70.3237 54.9041C70.7142 54.3113 71.121 53.9278 71.5441 53.7536C71.9872 53.5533 72.3357 53.4361 72.5897 53.4021C73.1099 53.4264 73.5494 53.6377 73.9082 54.0361C74.2871 54.4082 74.5783 55.0037 74.782 55.8223C74.8253 56.1454 74.8417 56.5309 74.8312 56.9788C74.8438 57.4236 74.8501 57.6459 74.8501 57.6459C74.8501 57.6459 75.0023 57.3788 75.3067 56.8446C75.6341 56.3073 76.0824 55.7068 76.6514 55.0431C77.0467 54.6612 77.4489 54.4193 77.8583 54.3174C78.2645 54.1925 78.6524 54.2815 79.0219 54.5845C79.6654 54.8272 80.1243 55.2709 80.3986 55.9156C80.6699 56.5372 80.8274 57.362 80.8712 58.39C80.8824 58.9994 80.9311 59.4511 81.0175 59.745C81.1008 60.0158 81.2071 60.2835 81.3366 60.5481C81.5336 60.6157 81.5945 60.8073 81.5193 61.1228C81.441 61.4153 81.3211 61.5724 81.1595 61.594C80.9287 61.6249 80.657 61.6143 80.3446 61.5622C80.0552 61.507 79.7812 61.391 79.5225 61.2142C79.2839 61.0112 79.1382 60.7135 79.0857 60.3211L78.798 58.1743C78.73 57.6665 78.6512 57.2541 78.5617 56.9371C78.4954 56.6171 78.4114 56.4286 78.3097 56.3717C78.0373 56.2672 77.6881 56.4668 77.2621 56.9703C76.8361 57.4738 76.3956 58.132 75.9406 58.9449C75.4856 59.7578 75.0683 60.5891 74.6887 61.4389C74.346 62.2133 74.1247 62.6659 74.0247 62.7968C73.9447 62.9015 73.767 62.89 73.4914 62.7625C72.9619 62.6689 72.6094 62.4929 72.4338 62.2345C72.2782 61.9499 72.2218 61.6167 72.2646 61.235C72.3275 60.8272 72.3948 60.2777 72.4667 59.5866C72.5617 58.8925 72.6482 58.223 72.7263 57.5781C72.8012 56.9101 72.8433 56.4345 72.8523 56.1513C72.7352 55.979 72.5659 55.943 72.3444 56.0432C72.1428 56.1172 71.9374 56.2504 71.7282 56.4429C71.476 56.6647 71.1877 57.0558 70.8633 57.6162C70.539 58.1766 70.2139 58.8194 69.8881 59.5444C69.6698 60.0201 69.4401 60.4974 69.1988 60.9762C68.9544 61.4319 68.7268 61.8383 68.5162 62.1955C68.3056 62.5527 68.1188 62.8244 67.9558 63.0108C67.7007 63.5619 67.5185 63.8683 67.4093 63.9299C67.3 63.9915 67.073 63.9632 66.7282 63.8449ZM83.1661 60.3735C83.0812 59.9149 83.0662 59.3647 83.1212 58.7229C83.1992 58.0781 83.3135 57.4401 83.4639 56.809C83.6143 56.1779 83.7571 55.6653 83.8923 55.2712C83.8782 54.9911 83.9266 54.7379 84.0372 54.5116C84.171 54.2822 84.267 54.0344 84.3253 53.7681C84.3667 53.5511 84.4834 53.1947 84.6755 52.6991C84.8645 52.1803 85.0765 51.6584 85.3116 51.1335C85.5468 50.6085 85.7427 50.2298 85.8996 49.9973C85.9086 49.7141 85.9816 49.4694 86.1184 49.2631C86.2521 49.0337 86.3743 48.8058 86.485 48.5795C86.682 48.6471 86.8414 48.6962 86.963 48.7269C87.0846 48.7576 87.2385 48.8545 87.4249 49.0175C87.5619 49.1636 87.709 49.2967 87.866 49.4166C88.0431 49.5104 88.1832 49.6796 88.2865 49.9242C88.3143 50.1319 88.2614 50.3505 88.1276 50.5799C88.0139 50.7831 87.9001 50.9864 87.7864 51.1896C87.5927 51.4975 87.4489 51.74 87.3552 51.917C87.2814 52.0679 87.1892 52.2565 87.0785 52.4828C86.9878 52.6829 86.8318 53.0093 86.6105 53.4619C86.7321 53.4926 86.8668 53.5333 87.0146 53.584C87.1593 53.6116 87.2893 53.6177 87.4047 53.6022C87.6094 53.5513 87.8087 53.5481 88.0026 53.5926C88.1966 53.6371 88.3921 53.6931 88.5891 53.7607C88.783 53.8052 88.9754 53.8382 89.1663 53.8596C89.4557 53.9148 89.7689 54.0608 90.1061 54.2976C90.4664 54.5313 90.7952 54.7927 91.0924 55.0819C91.3896 55.371 91.5867 55.6148 91.6838 55.8133C91.7685 55.9194 91.8903 56.1264 92.049 56.4341C92.2277 56.7156 92.2879 56.9895 92.2296 57.2558C92.2189 57.3512 92.2097 57.4582 92.2021 57.5767C92.1945 57.6952 92.1984 57.8121 92.2138 57.9275C91.9326 58.4587 91.7066 58.8767 91.536 59.1815C91.3653 59.4863 91.0477 59.8344 90.5832 60.2256C89.8802 60.7662 89.1634 61.203 88.4325 61.5359C87.7248 61.8657 86.9885 62.0701 86.2237 62.1491C86.1083 62.1645 85.9975 62.2146 85.8914 62.2993C85.8052 62.3579 85.6983 62.3487 85.5705 62.2718C85.1088 62.3337 84.7456 62.2531 84.4807 62.0302C84.2159 61.8072 83.9348 61.5511 83.6376 61.262C83.4189 61.0328 83.2617 60.7366 83.1661 60.3735ZM85.119 60.2176C85.5407 60.2081 85.9184 60.1339 86.2523 59.9952C86.6093 59.8534 86.9562 59.7247 87.2932 59.609C87.6763 59.4872 88.0717 59.2815 88.4794 58.9919C88.8839 58.6792 89.2361 58.3265 89.536 57.9339C89.8558 57.5151 90.0487 57.1133 90.1146 56.7285C90.1591 56.5345 90.1428 56.3252 90.0658 56.1006C89.9887 55.876 89.8631 55.7283 89.6892 55.6576C89.4367 55.527 89.1842 55.3963 88.9317 55.2657C88.6793 55.135 88.393 55.1029 88.0729 55.1693C88.0068 55.2016 87.926 55.2124 87.8305 55.2017C87.7551 55.1648 87.6812 55.1395 87.6089 55.1257C87.418 55.1043 87.2303 55.1059 87.0456 55.1307C86.884 55.1523 86.714 55.1986 86.5355 55.2695C86.337 55.3666 86.1501 55.4621 85.9747 55.5561C85.7993 55.6501 85.7433 55.8456 85.8066 56.1426C85.8128 56.1888 85.7659 56.2773 85.6659 56.4082C85.626 56.4605 85.553 56.7053 85.4471 57.1424C85.3643 57.5765 85.2846 58.0336 85.2079 58.5138C85.1313 58.994 85.0723 59.3427 85.0308 59.5597C85.0201 59.6551 85.0225 59.7605 85.038 59.876C85.0734 59.9652 85.1004 60.0791 85.119 60.2176Z" fill="#F5A925"/>
</svg>
