<svg width="121" height="86" viewBox="0 0 121 86" fill="none" xmlns="http://www.w3.org/2000/svg">
<path d="M19.6242 51.6702C18.693 51.1219 18.0916 50.6876 17.82 50.3675C17.5457 50.0242 17.3559 49.6008 17.2505 49.0972C17.1559 48.6861 17.0901 48.1194 17.0531 47.3968C17.0392 46.6716 17.0382 45.9566 17.0502 45.2519C17.0622 44.5471 17.0827 44.0172 17.1118 43.6621C17.214 43.533 17.2428 43.3773 17.1982 43.1949C17.174 42.9867 17.162 42.8826 17.162 42.8826C17.1254 42.7696 17.1714 42.4595 17.3001 41.9522C17.4261 41.4217 17.5244 40.7538 17.595 39.9485C17.8965 38.5067 18.2017 37.299 18.5107 36.3253C18.8401 35.3258 19.1741 34.4664 19.5126 33.7472C19.8511 33.0279 20.1963 32.3665 20.5483 31.763C21.384 30.6812 22.0628 29.8638 22.5847 29.3109C23.104 28.7348 23.7034 28.2432 24.3829 27.836C24.8134 27.5047 25.2158 27.2352 25.5903 27.0276C25.9648 26.82 26.286 26.7593 26.5539 26.8454C27.8816 26.9726 28.915 27.3919 29.6541 28.1032C30.3905 28.7914 31.003 29.9277 31.4918 31.5122C31.7719 32.5113 31.9719 33.4259 32.0917 34.256C32.232 35.0604 32.2682 35.8768 32.2003 36.7052C32.1297 37.5106 31.9297 38.413 31.6002 39.4126C31.294 40.4094 30.833 41.5883 30.2173 42.9493C29.5929 44.6396 28.8403 46.1337 27.9594 47.4317C27.1016 48.7271 26.1796 49.772 25.1934 50.5664C24.2329 51.3813 23.2607 51.8928 22.2767 52.1008C21.3158 52.3061 20.4316 52.1626 19.6242 51.6702ZM21.7282 50.406C22.2522 50.2749 22.7424 50.0538 23.1986 49.7429C23.6549 49.4321 24.1209 49.0028 24.5966 48.4552C25.0695 47.8845 25.5972 47.1785 26.1794 46.3372C26.7003 45.5733 27.119 44.9386 27.4354 44.4329C27.7722 43.9014 28.0397 43.378 28.2378 42.8627C28.459 42.3446 28.645 41.7252 28.7957 41.0043C28.9696 40.2807 29.154 39.3449 29.349 38.1969C29.4535 37.4814 29.5251 36.8869 29.5639 36.4135C29.6027 35.9401 29.6109 35.5054 29.5883 35.1094C29.5631 34.6903 29.5081 34.2161 29.4231 33.6867C29.3614 33.1546 29.2821 32.4721 29.1854 31.6393C29.1166 31.2487 28.9887 30.8533 28.8015 30.453C28.6117 30.0296 28.4121 29.7245 28.2029 29.5378C27.942 29.3102 27.598 29.1743 27.1708 29.1301C26.741 29.0628 26.285 29.1743 25.8029 29.4647C25.5388 29.6127 25.2111 29.9203 24.8199 30.3878C24.426 30.8321 24.017 31.3485 23.593 31.937C23.169 32.5255 22.7694 33.1228 22.3943 33.7291C22.0424 34.3326 21.7531 34.8703 21.5266 35.3421C21.3204 35.788 21.2268 36.092 21.2456 36.2539C21.2456 36.2539 21.2407 36.3131 21.231 36.4315C21.2445 36.5471 21.2116 36.6682 21.1325 36.7946C20.8694 37.1534 20.6011 37.7707 20.3276 38.6465C20.0773 39.5196 19.852 40.507 19.6517 41.6088C19.4487 42.6874 19.292 43.7607 19.1815 44.8286C19.0915 45.8706 19.0677 46.7761 19.11 47.5449C19.1363 48.1748 19.1629 48.6055 19.1897 48.8368C19.2166 49.0682 19.2843 49.2479 19.393 49.3759C19.499 49.4809 19.6762 49.6947 19.9247 50.0176C20.0903 50.2328 20.3418 50.3794 20.6791 50.4575C21.0396 50.5329 21.3893 50.5157 21.7282 50.406ZM34.7057 47.4925C34.4324 47.3601 34.1769 47.1787 33.9391 46.9484C33.6987 46.695 33.5543 46.3601 33.5059 45.9437C33.4791 45.7123 33.4797 45.3137 33.5078 44.7477C33.5358 44.1818 33.5905 43.5424 33.6719 42.8296C33.7532 42.1167 33.84 41.4502 33.9321 40.8299C34.1151 40.3866 34.2634 39.9474 34.3769 39.5122C34.4905 39.077 34.542 38.8131 34.5312 38.7206C34.5452 38.4376 34.5655 38.107 34.5919 37.7288C34.6415 37.3479 34.695 37.0017 34.7527 36.6902C34.8103 36.3787 34.8595 36.1972 34.9004 36.1455C35.0027 36.0164 35.1334 35.9309 35.2927 35.889C35.4492 35.8239 35.6139 35.8283 35.7865 35.902C35.9797 35.9499 36.1359 36.0842 36.2553 36.3047C36.542 36.5528 36.7082 36.8735 36.7539 37.2668C36.7969 37.6369 36.7341 38.2069 36.5656 38.9767C36.4111 39.4636 36.266 40.0314 36.1303 40.6802C35.9946 41.329 35.8767 41.9288 35.7766 42.4797C35.6969 43.0048 35.6562 43.3612 35.6545 43.5489L34.9847 43.8377C35.335 43.4219 35.6608 42.9972 35.9622 42.5636C36.2608 42.1069 36.4777 41.7535 36.6128 41.5034C36.9443 40.9256 37.2287 40.4471 37.466 40.0679C37.7237 39.6628 38.0544 39.179 38.458 38.6163C38.8589 38.0305 39.2724 37.6543 39.6985 37.4875C40.1451 37.295 40.4956 37.184 40.7501 37.1544C41.2698 37.1879 41.7055 37.4069 42.0573 37.8115C42.4295 38.1903 42.7102 38.7908 42.8995 39.6129C42.9371 39.9367 42.9467 40.3225 42.9283 40.7701C42.9331 41.215 42.9355 41.4375 42.9355 41.4375C42.9355 41.4375 43.0923 41.1731 43.4061 40.6443C43.7429 40.1128 44.2017 39.5203 44.7823 38.8667C45.1842 38.4918 45.5907 38.257 46.0017 38.1624C46.4101 38.0447 46.7963 38.1405 47.1605 38.4499C47.7996 38.7039 48.2506 39.1557 48.5136 39.8051C48.7739 40.4313 48.9168 41.2588 48.9425 42.2874C48.9429 42.8969 48.9837 43.3494 49.0649 43.6448C49.1434 43.917 49.2451 44.1865 49.3698 44.4534C49.5656 44.5245 49.6232 44.7171 49.5424 45.0312C49.459 45.3223 49.3363 45.4772 49.1744 45.496C48.943 45.5229 48.6716 45.5075 48.3601 45.4499C48.0718 45.3896 47.7998 45.2687 47.5443 45.0874C47.3093 44.8802 47.1689 44.58 47.1232 44.1867L46.8734 42.0353C46.8143 41.5263 46.7429 41.1126 46.659 40.7941C46.5982 40.4729 46.5176 40.283 46.417 40.2243C46.1464 40.1151 45.7937 40.3084 45.3589 40.8044C44.9242 41.3003 44.4721 41.9507 44.0029 42.7554C43.5336 43.5602 43.1017 44.384 42.7073 45.227C42.351 45.9952 42.1217 46.4438 42.0195 46.5729C41.9377 46.6762 41.7602 46.6617 41.4869 46.5293C40.9591 46.4264 40.6098 46.2443 40.4387 45.9828C40.2881 45.6955 40.2376 45.3614 40.2872 44.9805C40.3572 44.5738 40.4342 44.0256 40.5182 43.3359C40.6254 42.6435 40.7237 41.9756 40.8131 41.3322C40.8998 40.6656 40.9502 40.1909 40.9643 39.9079C40.8502 39.7336 40.6816 39.6945 40.4583 39.7908C40.2555 39.8612 40.0478 39.9909 39.8353 40.1797C39.5791 40.397 39.284 40.7829 38.9498 41.3375C38.6156 41.8921 38.2793 42.5291 37.9408 43.2483C37.7142 43.7201 37.476 44.1932 37.2263 44.6677C36.9739 45.119 36.7393 45.5214 36.5225 45.8748C36.3056 46.2282 36.114 46.4966 35.9477 46.6801C35.683 47.2266 35.4954 47.5297 35.3851 47.5894C35.2748 47.6491 35.0483 47.6168 34.7057 47.4925ZM50.8033 47.1708C50.6102 47.1229 50.3974 47.0069 50.1651 46.8229C49.93 46.6157 49.7256 46.3698 49.5519 46.0852C49.3782 45.8006 49.2765 45.531 49.247 45.2766C49.3331 45.0087 49.4324 44.5516 49.545 43.9055C49.6548 43.2363 49.8002 42.4692 49.9811 41.6041C50.1367 41.3281 50.2405 41.0113 50.2928 40.6535C50.3682 40.2931 50.436 39.9687 50.4963 39.6803C50.6384 39.2887 50.8031 38.789 50.9904 38.1811C51.1751 37.55 51.3481 36.9203 51.5096 36.292C51.6916 35.6378 51.8509 35.0918 51.9876 34.6539C52.1723 34.0229 52.2797 33.6353 52.3098 33.4911C52.3373 33.3238 52.3572 33.1925 52.3696 33.0973C52.3481 32.9122 52.3769 32.7565 52.456 32.6301C52.5324 32.4805 52.6169 32.4004 52.7095 32.3896C52.7912 32.2864 52.89 32.228 53.0056 32.2146C53.1418 32.1753 53.2561 32.1503 53.3486 32.1396C53.6031 32.11 53.843 32.258 54.0684 32.5835C54.2911 32.8859 54.4185 33.1759 54.4507 33.4535C54.483 33.7311 54.4245 34.1365 54.2754 34.6696C54.1468 35.1769 53.9861 35.7114 53.7934 36.273C53.6238 36.832 53.4809 37.3175 53.3646 37.7295C53.2484 38.1416 53.229 38.3783 53.3064 38.4397C53.3064 38.4397 53.4603 38.3515 53.7681 38.1751C54.0731 37.9755 54.3946 37.7155 54.7325 37.3949C54.9709 37.2265 55.2283 37.0208 55.5049 36.7777C55.7815 36.5345 56.0478 36.3043 56.3039 36.087C56.5574 35.8466 56.7739 35.6925 56.9536 35.6247C57.2098 35.4074 57.4788 35.2003 57.7607 35.0035C58.04 34.7835 58.2205 34.6219 58.3023 34.5186C58.6741 34.2878 58.9565 34.1964 59.1497 34.2443C59.3659 34.2896 59.5943 34.4389 59.8347 34.6923C60.1241 34.9635 60.2013 35.2242 60.0662 35.4743C59.9284 35.7013 59.5803 36.0348 59.0218 36.4748C58.5709 36.832 58.0226 37.259 57.3769 37.756C56.7544 38.2503 56.1959 38.6903 55.7014 39.076C55.2301 39.4589 54.9638 39.6892 54.9024 39.7666C54.9024 39.7666 55.0151 39.9294 55.2405 40.2549C55.4658 40.5804 55.6872 40.8712 55.9045 41.1274C56.1325 41.476 56.3694 41.8002 56.6152 42.0999C56.8815 42.3738 57.0213 42.5685 57.0348 42.6842C57.2763 43.1485 57.5546 43.5265 57.8698 43.8182C58.1823 44.0867 58.5175 44.247 58.8752 44.2993C59.2534 44.3257 59.6182 44.2365 59.9695 44.0316C60.4107 43.7928 60.7395 43.696 60.9557 43.7412C61.1951 43.7837 61.3772 43.9384 61.502 44.2053C61.616 44.3796 61.6552 44.5158 61.6197 44.6137C61.6046 44.6858 61.4744 44.8767 61.229 45.1866C60.8405 45.6771 60.4217 46.0071 59.9724 46.1765C59.5463 46.3432 59.1374 46.3555 58.7458 46.2134C58.5145 46.2403 58.2377 46.1786 57.9154 46.0285C57.5905 45.8552 57.1814 45.5627 56.6882 45.1511C56.218 44.7368 55.6223 44.1495 54.901 43.3892C54.8903 43.2966 54.8292 43.1748 54.7179 43.0236C54.627 42.8466 54.5259 42.6825 54.4145 42.5313C54.3005 42.3569 54.162 42.1737 53.999 41.9816C53.8334 41.7664 53.7505 41.6588 53.7505 41.6588C53.7425 41.5894 53.7126 41.5342 53.661 41.4934C53.6298 41.4266 53.5741 41.351 53.494 41.2666C53.437 41.1794 53.367 41.082 53.2842 40.9744C52.9006 40.9017 52.6427 41.002 52.5103 41.2753C52.3779 41.5486 52.2353 41.8347 52.0824 42.1338C52.0017 42.448 51.901 42.8934 51.7804 43.4701C51.6802 44.021 51.6019 44.5577 51.5453 45.08C51.5118 45.5997 51.529 45.9494 51.5968 46.1291C51.6397 46.4993 51.6115 46.7604 51.5119 46.9127C51.4097 47.0418 51.1735 47.1278 50.8033 47.1708ZM61.4116 53.9575C61.2416 53.9069 61.0547 53.8114 60.8508 53.671C60.647 53.5305 60.4751 53.3629 60.3353 53.1681C60.1981 52.9965 60.1215 52.8413 60.1053 52.7025C60.0892 52.5636 60.1041 52.1868 60.1499 51.5719C60.1984 50.9801 60.2655 50.2455 60.3512 49.368C60.4627 48.5111 60.5831 47.6296 60.7124 46.7236C60.8675 45.8381 61.0333 45.0452 61.2099 44.3447C61.2427 44.2237 61.3488 43.8245 61.528 43.1472C61.7277 42.4441 61.8998 41.6035 62.0441 40.6255C62.1593 40.0025 62.323 39.2919 62.5351 38.4935C62.7472 37.6952 62.9709 36.8955 63.2061 36.0945C63.4387 35.2703 63.6241 34.5454 63.7625 33.9198C63.9009 33.2941 64.018 32.7882 64.1138 32.4019C64.2301 31.9898 64.2944 31.7362 64.3068 31.6409C64.3369 31.4968 64.3929 31.373 64.4747 31.2698C64.5769 31.1407 64.6818 31.0347 64.7895 30.9519C64.8944 30.8459 64.9802 30.7773 65.0469 30.7461C65.4499 30.5821 65.8286 30.714 66.1831 31.1417C66.3229 31.3365 66.3743 31.5767 66.3371 31.8624C66.2999 32.1481 66.213 32.5098 66.0763 32.9477L65.9139 33.67L67.1309 33.2473C67.3391 33.2231 67.595 33.2051 67.8984 33.1934C68.2223 33.1558 68.5346 33.1195 68.8353 33.0846C69.1361 33.0497 69.3585 33.0473 69.5027 33.0774C70.0606 33.0361 70.4544 33.0959 70.6841 33.2568C70.9369 33.415 71.1617 33.6351 71.3586 33.917C71.4877 34.0192 71.6453 34.1651 71.8314 34.3545C72.0148 34.5207 72.1289 34.6951 72.1735 34.8774C72.3117 35.26 72.3614 35.6879 72.3226 36.1614C72.3042 36.609 72.2164 37.0646 72.0593 37.5284C71.9252 37.9894 71.7178 38.4238 71.4369 38.8315C71.1764 39.2135 70.8861 39.5402 70.566 39.8119C70.3454 39.9313 70.1493 40.0595 69.9776 40.1967C69.8033 40.3107 69.7161 40.3677 69.7161 40.3677C69.7064 40.4861 69.4734 40.7007 69.0172 41.0116C68.5582 41.2993 68.0285 41.5836 67.4281 41.8643C66.8276 42.145 66.3001 42.347 65.8455 42.4701C65.6862 42.512 65.4576 42.562 65.1595 42.6201C64.8615 42.6781 64.6261 42.6703 64.4534 42.5965C64.1936 42.5798 64.0174 42.5768 63.9249 42.5876C63.8323 42.5983 63.7914 42.65 63.8022 42.7425C63.7844 42.7915 63.6789 43.2961 63.4856 44.2563C63.2923 45.2166 63.1049 46.3286 62.9234 47.5923C62.6396 48.9851 62.4046 50.0909 62.2183 50.9097C62.0347 51.7516 61.8848 52.3786 61.7685 52.7907C61.6754 53.2001 61.6022 53.4782 61.5489 53.6251C61.4983 53.7951 61.4525 53.9059 61.4116 53.9575ZM64.2625 40.6493C64.348 40.78 64.5732 40.8008 64.9379 40.7115C65.3232 40.5964 65.7697 40.4039 66.2776 40.1339C66.806 39.8381 67.3201 39.5205 67.8199 39.1812C68.3171 38.8186 68.7217 38.4669 69.0338 38.1258C69.4756 37.4884 69.8302 36.908 70.0977 36.3845C70.3625 35.838 70.3698 35.4972 70.1196 35.3621C69.8222 35.0215 69.3278 34.9031 68.6365 35.0068C67.9451 35.1105 67.1228 35.499 66.1693 36.1725C65.7922 36.3569 65.5129 36.5769 65.3316 36.8324C65.1707 37.0621 65.0396 37.347 64.9384 37.6869C64.8372 38.0269 64.7094 38.4404 64.5549 38.9272C64.4058 39.4603 64.3113 39.8582 64.2715 40.1207C64.2316 40.3832 64.2286 40.5594 64.2625 40.6493ZM80.1684 43.4799C79.406 43.7794 78.8629 43.948 78.539 43.9856C78.2152 44.0232 77.8494 43.9015 77.4416 43.6206C77.3125 43.5184 77.2297 43.4108 77.1931 43.2978C77.1539 43.1617 77.0866 43.0874 76.9914 43.075C76.9495 42.9158 76.9463 42.7872 76.9818 42.6893C77.0378 42.5656 77.176 42.444 77.3966 42.3246C77.7678 42.4925 78.2141 42.4993 78.7354 42.345C79.2567 42.1907 79.7544 41.9336 80.2285 41.5738C80.7229 41.1881 81.095 40.7581 81.3447 40.2836C81.7429 39.6747 82.0411 39.1125 82.2391 38.5972C82.4345 38.0587 82.5209 37.5914 82.4984 37.1955C82.4716 36.9641 82.4181 36.8062 82.3379 36.7218C82.2782 36.6115 82.1424 36.4514 81.9305 36.2415C81.5302 36.4287 81.1673 36.6349 80.8417 36.8603C80.5394 37.083 80.2961 37.3105 80.1121 37.5429C79.4852 38.2018 78.9967 38.7392 78.6464 39.155C78.3192 39.5681 78.0383 39.9759 77.8037 40.3782C77.5922 40.7779 77.3261 41.3129 77.0053 41.9832C76.8471 42.236 76.6937 42.4297 76.5452 42.5641C76.4199 42.6959 76.2762 42.7712 76.1143 42.79C76.2374 43.2446 76.1077 43.5411 75.7251 43.6793C75.2028 43.6227 74.8152 43.5153 74.5623 43.3571C74.3068 43.1757 74.1918 42.7905 74.2171 42.2014C74.2721 41.8668 74.3203 41.4743 74.3618 41.0241C74.4006 40.5506 74.4604 40.1568 74.5411 39.8427C74.9244 38.2976 75.2571 36.9226 75.5393 35.7175C75.8445 34.5098 76.1308 33.6442 76.3983 33.1208L76.9321 31.0542C77.328 31.0317 77.6382 31.0778 77.8625 31.1924C78.0841 31.2839 78.3606 31.5448 78.6919 31.9753C78.7054 32.091 78.6287 32.4398 78.4618 33.0219C78.3154 33.5782 78.1321 34.2208 77.9119 34.9497C77.7149 35.6759 77.5241 36.3546 77.3394 36.9856C77.1752 37.5908 77.0603 38.0145 76.9946 38.2565C76.9316 38.5218 76.9957 38.4674 77.1867 38.0936C77.4009 37.717 77.7894 37.2264 78.3522 36.6218C78.6181 36.2862 78.956 35.9656 79.366 35.6601C79.7733 35.3314 80.1192 35.0803 80.4039 34.9065C80.7116 34.7301 80.9683 34.6183 81.1738 34.571C81.3793 34.5236 81.527 34.4831 81.6168 34.4492C82.1952 34.382 82.6753 34.4787 83.0573 34.7391C83.4365 34.9764 83.717 35.2721 83.8988 35.6261C84.1037 35.9775 84.2196 36.2688 84.2465 36.5002C84.3588 36.8622 84.4467 37.2154 84.5102 37.5598C84.594 37.8783 84.6112 38.228 84.5616 38.6088C84.5137 38.802 84.416 39.0712 84.2686 39.4166C84.1211 39.7619 83.9403 40.1229 83.7261 40.4995C83.5324 40.8502 83.2856 41.1485 82.9859 41.3943C82.8019 41.6267 82.5498 41.8787 82.2297 42.1503C81.9095 42.4219 81.5649 42.6847 81.1958 42.9385C80.8471 43.1666 80.5047 43.347 80.1684 43.4799ZM87.4507 43.197C87.0289 43.1991 86.6671 43.1122 86.3653 42.9362C86.084 42.7344 85.86 42.4204 85.6933 41.9943C85.6476 41.601 85.6522 41.2371 85.7072 40.9025C85.7825 40.542 85.8361 40.1959 85.8679 39.8639C85.9218 39.3184 86.022 38.7675 86.1684 38.2113C86.3148 37.655 86.4381 37.1014 86.5383 36.5506C86.6395 36.2106 86.7189 35.8848 86.7765 35.5734C86.8341 35.2619 86.8917 34.9504 86.9493 34.6389C87.022 34.2553 87.0961 33.8833 87.1714 33.5229C87.2468 33.1624 87.3222 32.802 87.3976 32.4416C87.4552 32.1301 87.4883 31.8097 87.497 31.4805C87.5288 31.1485 87.549 30.8179 87.5577 30.4887C87.7799 30.1815 88.0441 30.0336 88.3502 30.045C88.6795 30.0536 89.1036 30.274 89.6227 30.7061C89.7706 30.9703 89.858 31.218 89.8849 31.4494C89.909 31.6576 89.8767 31.8841 89.7879 32.1288C89.7196 32.3478 89.6286 32.6749 89.515 33.1101C89.4245 33.5426 89.3225 33.9765 89.2089 34.4117C89.1158 34.8211 89.0466 35.1339 89.0014 35.3502C88.9847 35.61 88.9058 36.0412 88.7647 36.6437C88.6468 37.2436 88.52 37.8679 88.3843 38.5167C88.2459 39.1423 88.152 39.6456 88.1024 40.0265C88.0039 40.3896 87.9388 40.7371 87.907 41.0691C87.8752 41.401 87.8528 41.8139 87.8398 42.3078C87.9102 42.5106 87.8957 42.6882 87.7961 42.8404C87.717 42.9668 87.6019 43.0857 87.4507 43.197ZM92.3186 40.803C92.0453 40.6706 91.7898 40.4893 91.5521 40.259C91.3116 40.0056 91.1672 39.6706 91.1189 39.2542C91.092 39.0229 91.0926 38.6242 91.1207 38.0583C91.1488 37.4923 91.2035 36.8529 91.2848 36.1401C91.3662 35.4273 91.4529 34.7607 91.545 34.1405C91.728 33.6972 91.8763 33.2579 91.9899 32.8227C92.1035 32.3875 92.1549 32.1236 92.1441 32.0311C92.1582 31.7481 92.1784 31.4175 92.2048 31.0393C92.2544 30.6585 92.308 30.3123 92.3656 30.0008C92.4232 29.6893 92.4725 29.5077 92.5134 29.4561C92.6156 29.327 92.7463 29.2415 92.9056 29.1995C93.0622 29.1345 93.2268 29.1388 93.3995 29.2125C93.5926 29.2604 93.7489 29.3947 93.8682 29.6153C94.155 29.8634 94.3211 30.184 94.3668 30.5773C94.4098 30.9474 94.347 31.5174 94.1785 32.2873C94.024 32.7741 93.8789 33.3419 93.7432 33.9907C93.6076 34.6395 93.4896 35.2394 93.3895 35.7902C93.3098 36.3153 93.2691 36.6717 93.2675 36.8595L92.5976 37.1483C92.9479 36.7324 93.2737 36.3078 93.5751 35.8742C93.8737 35.4175 94.0906 35.0641 94.2257 34.8139C94.5572 34.2362 94.8416 33.7577 95.0789 33.3785C95.3367 32.9734 95.6673 32.4895 96.0709 31.9269C96.4718 31.3411 96.8853 30.9648 97.3114 30.7981C97.758 30.6056 98.1085 30.4945 98.363 30.465C98.8827 30.4984 99.3184 30.7175 99.6702 31.1221C100.042 31.5009 100.323 32.1013 100.512 32.9234C100.55 33.2473 100.56 33.633 100.541 34.0806C100.546 34.5255 100.548 34.748 100.548 34.748C100.548 34.748 100.705 34.4836 101.019 33.9548C101.356 33.4233 101.815 32.8308 102.395 32.1773C102.797 31.8024 103.204 31.5676 103.615 31.473C104.023 31.3552 104.409 31.4511 104.773 31.7605C105.413 32.0145 105.864 32.4662 106.127 33.1156C106.387 33.7419 106.53 34.5693 106.555 35.5979C106.556 36.2075 106.597 36.6599 106.678 36.9553C106.756 37.2275 106.858 37.4971 106.983 37.764C107.179 37.835 107.236 38.0276 107.155 38.3418C107.072 38.6328 106.949 38.7877 106.787 38.8065C106.556 38.8334 106.285 38.818 105.973 38.7604C105.685 38.7001 105.413 38.5793 105.157 38.3979C104.922 38.1908 104.782 37.8906 104.736 37.4973L104.486 35.3458C104.427 34.8369 104.356 34.4232 104.272 34.1047C104.211 33.7835 104.131 33.5935 104.03 33.5349C103.759 33.4256 103.407 33.619 102.972 34.1149C102.537 34.6109 102.085 35.2612 101.616 36.066C101.147 36.8707 100.715 37.6946 100.32 38.5376C99.9639 39.3057 99.7347 39.7544 99.6324 39.8835C99.5506 39.9868 99.3731 39.9722 99.0998 39.8398C98.5721 39.737 98.2227 39.5548 98.0516 39.2933C97.9011 39.006 97.8505 38.6719 97.9001 38.291C97.9701 37.8843 98.0471 37.3361 98.1312 36.6464C98.2383 35.9541 98.3366 35.2862 98.426 34.6427C98.5128 33.9762 98.5632 33.5014 98.5772 33.2184C98.4632 33.0441 98.2945 33.0051 98.0712 33.1013C97.8684 33.1718 97.6607 33.3014 97.4482 33.4902C97.1921 33.7075 96.8969 34.0935 96.5627 34.6481C96.2285 35.2027 95.8922 35.8396 95.5537 36.5588C95.3271 37.0306 95.089 37.5037 94.8393 37.9782C94.5869 38.4295 94.3522 38.8319 94.1354 39.1853C93.9185 39.5388 93.7269 39.8072 93.5607 39.9906C93.2959 40.5372 93.1084 40.8403 92.9981 40.9C92.8878 40.9597 92.6613 40.9274 92.3186 40.803ZM110.025 39.8021C109.737 39.7418 109.43 39.7189 109.103 39.7334C108.774 39.7247 108.48 39.6182 108.222 39.4137C107.886 39.1479 107.615 38.8277 107.407 38.4532C107.22 38.0529 107.148 37.6392 107.193 37.2121C107.232 36.9495 107.239 36.7026 107.212 36.4713C107.183 36.2168 107.212 35.9672 107.301 35.7224C107.295 35.4652 107.326 35.2272 107.394 35.0082C107.46 34.7661 107.525 34.5241 107.591 34.282C107.707 33.8699 107.8 33.4605 107.87 33.0538C107.963 32.6444 108.081 32.2439 108.223 31.8523C108.487 31.0948 108.777 30.3578 109.092 29.6413C109.43 28.922 109.72 28.1851 109.961 27.4303C110.032 27.2345 110.122 27.1067 110.233 27.047C110.363 26.9615 110.498 26.9107 110.637 26.8946C110.822 26.8731 111.011 26.8863 111.204 26.9342C111.397 26.9821 111.566 27.0212 111.71 27.0513C111.804 27.2515 111.928 27.4129 112.083 27.5356C112.238 27.6582 112.307 27.8495 112.29 28.1094C112.02 28.6096 111.763 29.1201 111.518 29.6409C111.295 30.1358 111.072 30.6423 110.851 31.1603C110.65 31.6525 110.452 32.1679 110.257 32.7064C110.135 33.0722 110.051 33.4571 110.004 33.8611C109.957 34.2652 109.873 34.6501 109.751 35.0159C109.632 35.4048 109.562 35.8115 109.541 36.236C109.517 36.6373 109.47 37.0414 109.4 37.4481C109.391 37.5664 109.404 37.6821 109.441 37.7951C109.498 37.8822 109.587 37.9422 109.708 37.9751C110.018 37.8218 110.33 37.6801 110.643 37.55C110.956 37.4198 111.228 37.2359 111.458 36.9981C111.878 36.5743 112.211 36.2074 112.456 35.8976C112.699 35.5646 112.879 35.2036 112.998 34.8147C113.115 34.4026 113.171 33.8802 113.168 33.2476C113.175 33.1061 113.149 32.9802 113.089 32.8699C113.027 32.7364 112.944 32.6288 112.841 32.547C112.622 32.4787 112.413 32.3974 112.214 32.3032C112.036 32.1832 111.892 32.0476 111.78 31.8964C111.689 31.7194 111.665 31.5112 111.708 31.2718C111.763 30.9372 111.921 30.6844 112.182 30.5133C112.467 30.3396 112.738 30.2495 112.995 30.2431C113.044 30.2609 113.081 30.28 113.107 30.3004C113.156 30.3182 113.195 30.3489 113.224 30.3925C113.419 30.4635 113.619 30.5693 113.823 30.7097C114.024 30.827 114.201 30.9355 114.353 31.035C114.475 31.2787 114.635 31.5416 114.832 31.8235C115.028 32.1054 115.163 32.5587 115.236 33.1833C115.386 34.4788 115.161 35.5717 114.561 36.462C113.984 37.3496 113.176 38.1586 112.135 38.889C111.984 39.0003 111.818 39.0899 111.639 39.1576C111.479 39.1996 111.337 39.2864 111.212 39.4182C111.186 39.3978 111.083 39.4214 110.904 39.4892C110.721 39.5338 110.54 39.59 110.36 39.6577C110.181 39.7255 110.069 39.7736 110.025 39.8021ZM23.1012 71.3174C22.4437 71.5109 21.8266 71.5474 21.2499 71.4268C20.6706 71.2831 20.1805 71 19.7798 70.5776C19.3995 70.1294 19.1664 69.5352 19.0804 68.7949C18.9304 68.1089 18.9187 67.3014 19.0453 66.3723C19.1692 65.4201 19.3972 64.4558 19.7293 63.4794C20.0845 62.5003 20.4892 61.6445 20.9434 60.9118C21.3416 60.3029 21.7452 59.7402 22.1542 59.2238C22.5631 58.7074 22.9433 58.3467 23.2946 58.1418C23.6024 57.9654 23.8937 57.8495 24.1686 57.7942C24.464 57.713 24.7042 57.6616 24.8893 57.6401C25.2702 57.6897 25.6836 57.8175 26.1296 58.0237C26.596 58.204 26.8453 58.4329 26.8775 58.7105C26.8775 58.7105 26.9047 58.7425 26.959 58.8066C27.0338 58.8448 27.0712 58.8639 27.0712 58.8639C27.21 58.8478 27.3431 58.9847 27.4706 59.2747C27.6212 59.562 27.7308 59.901 27.7996 60.2916C27.8658 60.659 27.8442 60.978 27.7349 61.2486C27.6934 61.6989 27.5758 62.0994 27.3821 62.4502C27.1883 62.8009 26.9989 62.987 26.8139 63.0085C26.7213 63.0192 26.6301 63.0416 26.5403 63.0754C26.4709 63.0835 26.4429 63.1454 26.4563 63.261C26.4698 63.3767 26.4057 63.431 26.2642 63.424C26.1459 63.4143 26.0106 63.3597 25.8584 63.2601C25.7034 63.1374 25.5805 62.9876 25.4896 62.8106C25.4762 62.6949 25.4996 62.4929 25.56 62.2045C25.6203 61.9162 25.6712 61.5469 25.7127 61.0966C25.7762 60.4327 25.7163 60.0176 25.5329 59.8514C25.3468 59.662 25.0331 59.6867 24.592 59.9255C24.0512 60.3165 23.5484 60.8321 23.0834 61.4722C22.6417 62.1096 22.2547 62.9166 21.9226 63.8929C21.5878 64.8462 21.3262 66.0254 21.1376 67.4306C21.0606 67.9788 21.0565 68.4482 21.1253 68.8388C21.2172 69.2267 21.2992 69.4282 21.3713 69.4433C21.7059 69.4982 22.1482 69.4703 22.698 69.3596C23.2452 69.2257 23.6379 69.0746 23.8763 68.9062C24.2249 68.6782 24.6131 68.3869 25.0409 68.0325C25.466 67.6549 25.8372 67.3187 26.1547 67.0239C26.2623 66.9411 26.3877 66.8093 26.5308 66.6286C26.674 66.4478 26.8327 66.3005 27.007 66.1864C27.1599 65.8873 27.303 65.7066 27.4364 65.6442C27.5698 65.5818 27.7754 65.5345 28.053 65.5023C28.2434 65.5271 28.425 65.5763 28.5977 65.6501C28.7703 65.7238 28.8852 65.8042 28.9422 65.8914C29.0224 65.9759 28.9971 66.0609 28.8663 66.1464C28.7738 66.1571 28.72 66.1985 28.7049 66.2706C28.7103 66.3169 28.7129 66.34 28.7129 66.34C28.77 66.4272 28.6887 66.6359 28.4691 66.9662C28.27 67.2707 28.0055 67.6179 27.6757 68.0079C27.3458 68.3979 27.0222 68.7403 26.7047 69.035C26.4077 69.304 26.1898 69.4465 26.051 69.4626C25.8197 69.4895 25.7121 69.5723 25.7282 69.7111C25.7335 69.7574 25.5735 69.8932 25.2479 70.1186C24.9456 70.3412 24.5853 70.5706 24.1673 70.8067C23.7724 71.0402 23.417 71.2104 23.1012 71.3174ZM31.4797 69.4302C31.3995 69.3457 31.3167 69.2381 31.2312 69.1073C31.1688 68.9739 31.1323 68.8609 31.1215 68.7684C31.1161 68.7221 31.0979 68.6656 31.0667 68.5989C31.0586 68.5295 31.0083 68.5002 30.9158 68.5109C30.8383 68.4496 30.8537 68.1782 30.9619 67.6967C31.0906 67.1894 31.2574 66.6073 31.4625 65.9504C31.6907 65.2909 31.9216 64.6545 32.1552 64.0412C32.4093 63.4022 32.6202 62.897 32.7882 62.5258C32.8958 62.443 32.9544 62.3424 32.9641 62.2241C32.9943 62.0799 32.9862 62.0105 32.94 62.0159C32.94 62.0159 32.9857 61.905 33.0772 61.6834C33.1891 61.4359 33.2758 61.2735 33.3371 61.196C33.4846 60.8507 33.5858 60.5107 33.6407 60.1761C33.693 59.8183 33.6825 59.5264 33.6094 59.3005C33.5034 59.1955 33.3953 59.1729 33.285 59.2326C33.1747 59.2923 33.1196 59.3222 33.1196 59.3222C33.0297 59.3561 32.8963 59.4184 32.7193 59.5093C32.5627 59.5744 32.4204 59.6613 32.2923 59.7699C31.8032 60.2018 31.4648 60.417 31.277 60.4153C31.0866 60.3906 30.8435 60.114 30.5477 59.5856C30.4256 59.3419 30.3694 59.1609 30.3791 59.0425C30.3888 58.9242 30.4666 58.7862 30.6124 58.6286C30.7786 58.4451 30.9401 58.3209 31.0966 58.2558C31.2505 58.1676 31.3697 58.0834 31.4542 58.0033C31.6898 57.8118 31.8846 57.672 32.0385 57.5838C32.2155 57.4929 32.3489 57.4305 32.4388 57.3966C33.0188 57.1417 33.5237 57.0479 33.9535 57.1152C34.3834 57.1825 34.7306 57.447 34.9952 57.9087C35.3647 58.2643 35.5791 58.6966 35.6382 59.2056C35.6946 59.6914 35.5984 60.277 35.3498 60.9623L35.0632 61.5231C34.9744 61.7679 34.9647 61.8863 35.0341 61.8782C35.1266 61.8675 35.2213 61.7744 35.3182 61.599C35.3769 61.4984 35.4995 61.3435 35.6863 61.1343C35.873 60.925 36.001 60.8164 36.0704 60.8083C36.0704 60.8083 36.0922 60.7941 36.1358 60.7656C36.2025 60.7344 36.2265 60.6378 36.2077 60.4759C36.269 60.3984 36.3304 60.321 36.3917 60.2435C36.4762 60.1633 36.5184 60.1233 36.5184 60.1233C36.611 60.1125 36.7724 59.9883 37.0027 59.7505C37.2534 59.487 37.5464 59.1833 37.8816 58.8396C38.1146 58.625 38.3352 58.5056 38.5434 58.4814C39.0567 58.2577 39.5048 58.3815 39.8878 58.8528C40.2939 59.3215 40.5439 59.9607 40.638 60.7703L40.1268 62.7288L41.1988 61.0569C41.3161 60.8557 41.4361 60.6777 41.5588 60.5228C41.7046 60.3652 41.83 60.2334 41.9349 60.1274C41.9623 59.9601 42.021 59.8595 42.1109 59.8256C42.2007 59.7917 42.2456 59.7748 42.2456 59.7748C42.2456 59.7748 42.2688 59.7721 42.315 59.7667C42.3586 59.7382 42.3764 59.6893 42.3683 59.6199C42.4732 59.5139 42.5911 59.4182 42.7218 59.3327C42.8499 59.224 42.9317 59.1207 42.9672 59.0228C43.3417 58.8152 43.6976 58.7504 44.0349 58.8285C44.3695 58.8834 44.6807 59.1404 44.9684 59.5993C45.1626 59.8581 45.2833 60.0903 45.3306 60.2958C45.3779 60.5013 45.4258 60.8123 45.4741 61.2287C45.4681 61.5811 45.4541 61.8641 45.432 62.0777C45.4304 62.2654 45.4301 62.4647 45.4311 62.6756C45.4321 62.8865 45.431 63.1797 45.4277 63.5552C45.3567 63.751 45.3217 63.9544 45.3227 64.1653C45.3469 64.3735 45.3697 64.5701 45.3912 64.7552C45.4261 65.0559 45.4619 65.2628 45.4984 65.3758C45.5323 65.4656 45.6302 65.5012 45.7922 65.4824C46.108 65.3754 46.5287 65.1624 47.0544 64.8434C47.6005 64.4987 47.9976 64.183 48.2457 63.8962C48.5551 63.5321 48.837 63.3352 49.0915 63.3057C49.3664 63.2503 49.5547 63.3574 49.6563 63.627C49.7133 63.7141 49.6565 63.9317 49.4859 64.2798C49.3385 64.6251 49.1549 64.963 48.9354 65.2932C48.739 65.6208 48.5829 65.7914 48.4673 65.8048C48.3979 65.8129 48.3249 65.8917 48.2485 66.0412C48.1694 66.1676 48.0761 66.2722 47.9685 66.3551C47.8253 66.5358 47.6808 66.705 47.535 66.8626C47.4123 67.0175 47.2585 67.1057 47.0734 67.1272C46.9808 67.138 46.8692 67.1861 46.7385 67.2716C46.6282 67.3313 46.492 67.3705 46.3301 67.3894C46.1068 67.4856 45.7442 67.4925 45.2423 67.4102C44.7635 67.3251 44.4252 67.0361 44.2273 66.5433C44.1052 66.2996 43.9772 65.9041 43.8433 65.357C43.7068 64.7867 43.6512 64.207 43.6766 63.6179C43.7208 63.1907 43.7343 62.8023 43.7171 62.4526C43.7 62.1029 43.718 61.8546 43.7713 61.7078C43.7632 61.6384 43.7444 61.4764 43.7149 61.222C43.6827 60.9444 43.6318 60.8096 43.5624 60.8176C43.4699 60.8284 43.2703 61.0274 42.9636 61.4147C42.6773 61.7762 42.3324 62.2383 41.9288 62.8009C41.5483 63.3609 41.1706 63.944 40.7955 64.5503C40.4204 65.1565 40.1196 65.6955 39.893 66.1673C39.7144 66.446 39.5656 66.7798 39.4466 67.1687C39.3276 67.5577 39.2361 67.7793 39.1721 67.8336C39.0317 68.0375 38.8377 68.0835 38.5903 67.9715C38.3659 67.8569 38.1438 67.6599 37.9238 67.3807C37.8383 67.2499 37.7786 67.1396 37.7447 67.0498C37.7081 66.9368 37.6907 66.7864 37.6923 66.5987C37.7144 66.3851 37.7605 66.075 37.8305 65.6683C37.9236 65.2589 38.0442 64.6822 38.1923 63.9382C38.3554 63.1221 38.4933 62.3909 38.6058 61.7448C38.7388 61.0729 38.8053 60.737 38.8053 60.737C38.7946 60.6444 38.6318 60.7571 38.317 61.075C37.9996 61.3698 37.6323 61.7406 37.2153 62.1876C37.0367 62.4663 36.734 62.8883 36.3072 63.4536C35.8805 64.019 35.4156 64.6591 34.9125 65.374C34.4093 66.0889 33.9334 66.8358 33.4845 67.6148C32.9238 68.6412 32.5167 69.2746 32.2633 69.515C32.033 69.7528 31.7718 69.7245 31.4797 69.4302ZM50.9615 67.2033C50.8475 67.029 50.7157 66.9036 50.5661 66.8272C50.4139 66.7276 50.3324 66.6316 50.3217 66.539C50.3109 66.4465 50.2886 66.3553 50.2547 66.2655C50.2413 66.1498 50.1829 66.0511 50.0797 65.9693C49.9479 65.8439 49.9232 65.5302 50.0056 65.0283C50.0853 64.5033 50.2454 63.8633 50.486 63.1086C50.724 62.3307 51.0157 61.5114 51.3612 60.6507C51.5248 60.4441 51.6817 60.1797 51.8318 59.8575C51.982 59.5353 52.098 59.3225 52.1797 59.2192C52.169 59.1267 52.1943 59.0417 52.2556 58.9642C52.3143 58.8636 52.3899 58.808 52.4824 58.7972L52.4583 58.589C52.4448 58.4733 52.5261 58.2646 52.7021 57.9628C52.9012 57.6584 53.1439 57.3254 53.4301 56.9639C53.7137 56.5793 54.0116 56.2165 54.3236 55.8754C54.633 55.5113 54.8954 55.2464 55.1106 55.0807C55.5588 54.7004 56.0333 54.446 56.5342 54.3175C57.0582 54.1863 57.5228 54.2496 57.9278 54.5074C58.0053 54.5687 58.1344 54.671 58.3151 54.8141C58.4959 54.9573 58.7024 55.1208 58.9348 55.3049C59.1877 55.4631 59.4418 55.6329 59.6973 55.8142L61.1142 56.8103L60.6911 58.6178C60.4978 59.5781 60.5108 60.3972 60.7302 61.0751C60.9727 61.7503 61.2739 62.3249 61.6337 62.7989C61.779 63.04 62.0385 63.256 62.4124 63.4471C62.8094 63.6354 63.1725 63.734 63.5017 63.7426C63.6895 63.7443 63.8711 63.7935 64.0464 63.8904C64.2218 63.9873 64.3243 64.1629 64.3538 64.4174C64.3807 64.6487 64.3559 64.8392 64.2795 64.9887C64.203 65.1383 64.0519 65.2496 63.8259 65.3227C63.0732 65.5039 62.3346 65.4021 61.61 65.0173C60.9085 64.6299 60.2184 63.9363 59.5396 62.9366C59.4309 62.8085 59.2742 62.5688 59.0692 62.2175C58.8848 61.8403 58.7743 61.5953 58.7377 61.4823C58.6586 61.6087 58.5106 61.8486 58.2937 62.202C58.0742 62.5323 57.9031 62.7749 57.7804 62.9298C56.3313 64.7862 55.0388 66.0734 53.903 66.7914C52.7876 67.4836 51.8071 67.6209 50.9615 67.2033ZM51.9851 65.115C52.0039 65.2769 52.2468 65.2487 52.7138 65.0304C53.2013 64.7862 53.7073 64.3992 54.2319 63.8694C54.9406 63.1072 55.6412 62.2756 56.3337 61.3745C57.0494 60.4708 57.6098 59.6438 58.0151 58.8934L58.6334 57.5555C58.3403 57.0503 58.0442 56.7212 57.7451 56.5684C57.4665 56.3897 57.2346 56.3112 57.0495 56.3326C56.7488 56.3676 56.3299 56.6976 55.7929 57.3226C55.279 57.945 54.7404 58.7578 54.1769 59.761C53.6135 60.7643 53.0955 61.856 52.6229 63.0363C52.4453 63.5259 52.2895 64.0011 52.1555 64.4622C52.0419 64.8974 51.9851 65.115 51.9851 65.115ZM66.4039 64.9531C66.1306 64.8207 65.8751 64.6393 65.6373 64.409C65.3969 64.1556 65.2525 63.8207 65.2041 63.4043C65.1773 63.1729 65.1779 62.7743 65.2059 62.2083C65.234 61.6424 65.2887 61.003 65.3701 60.2902C65.4514 59.5773 65.5382 58.9108 65.6303 58.2905C65.8133 57.8472 65.9615 57.408 66.0751 56.9728C66.1887 56.5376 66.2401 56.2737 66.2294 56.1812C66.2434 55.8982 66.2637 55.5676 66.2901 55.1894C66.3396 54.8085 66.3932 54.4623 66.4508 54.1508C66.5085 53.8393 66.5577 53.6578 66.5986 53.6061C66.7009 53.477 66.8316 53.3915 66.9908 53.3496C67.1474 53.2845 67.312 53.2889 67.4847 53.3626C67.6778 53.4105 67.8341 53.5448 67.9535 53.7653C68.2402 54.0134 68.4064 54.3341 68.4521 54.7274C68.495 55.0975 68.4323 55.6675 68.2638 56.4373C68.1093 56.9242 67.9642 57.492 67.8285 58.1408C67.6928 58.7896 67.5749 59.3894 67.4747 59.9403C67.395 60.4654 67.3544 60.8218 67.3527 61.0095L66.6829 61.2983C67.0332 60.8825 67.359 60.4578 67.6603 60.0242C67.959 59.5675 68.1759 59.2141 68.3109 58.964C68.6424 58.3862 68.9268 57.9077 69.1642 57.5285C69.4219 57.1234 69.7526 56.6396 70.1562 56.0769C70.5571 55.4911 70.9706 55.1149 71.3967 54.9481C71.8433 54.7556 72.1938 54.6446 72.4483 54.615C72.9679 54.6485 73.4037 54.8675 73.7555 55.2721C74.1277 55.6509 74.4084 56.2514 74.5976 57.0735C74.6352 57.3973 74.6449 57.7831 74.6265 58.2307C74.6313 58.6756 74.6337 58.8981 74.6337 58.8981C74.6337 58.8981 74.7905 58.6337 75.1043 58.1049C75.4411 57.5734 75.8999 56.9809 76.4805 56.3273C76.8824 55.9524 77.2889 55.7176 77.6999 55.623C78.1083 55.5053 78.4945 55.6011 78.8587 55.9105C79.4978 56.1645 79.9488 56.6163 80.2118 57.2657C80.4721 57.8919 80.615 58.7194 80.6407 59.748C80.6411 60.3575 80.6819 60.81 80.7631 61.1054C80.8416 61.3776 80.9433 61.6471 81.068 61.914C81.2638 61.9851 81.3214 62.1777 81.2406 62.4918C81.1572 62.7829 81.0345 62.9378 80.8726 62.9566C80.6412 62.9835 80.3698 62.9681 80.0583 62.9105C79.77 62.8502 79.498 62.7293 79.2425 62.548C79.0075 62.3408 78.8671 62.0406 78.8214 61.6473L78.5716 59.4959C78.5125 58.9869 78.441 58.5732 78.3572 58.2547C78.2964 57.9335 78.2158 57.7436 78.1152 57.6849C77.8446 57.5757 77.4919 57.769 77.0571 58.265C76.6223 58.7609 76.1703 59.4113 75.7011 60.216C75.2318 61.0208 74.7999 61.8446 74.4055 62.6876C74.0492 63.4558 73.8199 63.9044 73.7177 64.0335C73.6359 64.1368 73.4584 64.1223 73.1851 63.9899C72.6573 63.887 72.3079 63.7049 72.1369 63.4434C71.9863 63.1561 71.9358 62.822 71.9854 62.4411C72.0554 62.0344 72.1324 61.4862 72.2164 60.7965C72.3236 60.1041 72.4219 59.4362 72.5113 58.7928C72.598 58.1262 72.6484 57.6515 72.6625 57.3685C72.5484 57.1942 72.3798 57.1551 72.1565 57.2514C71.9537 57.3218 71.746 57.4515 71.5334 57.6403C71.2773 57.8576 70.9822 58.2435 70.648 58.7981C70.3138 59.3527 69.9775 59.9897 69.6389 60.7089C69.4124 61.1807 69.1742 61.6538 68.9245 62.1283C68.6721 62.5796 68.4375 62.982 68.2206 63.3354C68.0038 63.6888 67.8122 63.9572 67.6459 64.1407C67.3812 64.6872 67.1936 64.9903 67.0833 65.05C66.973 65.1097 66.7465 65.0774 66.4039 64.9531ZM82.9003 61.7716C82.8235 61.3116 82.8182 60.7612 82.8845 60.1205C82.9739 59.4771 83.0993 58.8412 83.2608 58.2129C83.4223 57.5845 83.5741 57.0745 83.7162 56.6829C83.7071 56.4026 83.7599 56.1503 83.8745 55.926C84.0123 55.699 84.1126 55.4529 84.1756 55.1876C84.2209 54.9714 84.3439 54.6171 84.5446 54.1249C84.7427 53.6096 84.9639 53.0915 85.2082 52.5708C85.4525 52.05 85.6552 51.6748 85.816 51.4451C85.8301 51.1622 85.9073 50.9187 86.0478 50.7149C86.1855 50.4879 86.3117 50.2622 86.4264 50.0379C86.6222 50.1089 86.7806 50.1609 86.9016 50.1937C87.0227 50.2265 87.1749 50.3261 87.3583 50.4924C87.4928 50.6409 87.6375 50.7765 87.7924 50.8991C87.9678 50.996 88.105 51.1677 88.2039 51.4141C88.2281 51.6223 88.1713 51.8399 88.0335 52.0669C87.9162 52.2681 87.7989 52.4693 87.6816 52.6705C87.4825 52.9749 87.3345 53.2148 87.2376 53.3902C87.1612 53.5398 87.0657 53.7267 86.9511 53.951C86.8569 54.1495 86.6952 54.4731 86.4659 54.9217C86.5869 54.9546 86.7209 54.9976 86.8677 55.0509C87.0119 55.0811 87.1418 55.0894 87.2575 55.076C87.463 55.0287 87.6624 55.029 87.8555 55.0769C88.0486 55.1248 88.2431 55.1843 88.4389 55.2553C88.632 55.3033 88.8238 55.3396 89.0143 55.3644C89.3026 55.4247 89.6133 55.5762 89.9463 55.8189C90.3024 56.0589 90.6265 56.326 90.9185 56.6204C91.2106 56.9147 91.4034 57.1619 91.497 57.3621C91.5798 57.4697 91.6979 57.6787 91.8512 57.9892C92.0249 58.2738 92.0803 58.5487 92.0173 58.8139C92.0049 58.9091 91.9938 59.0159 91.9841 59.1343C91.9744 59.2526 91.9763 59.3696 91.9897 59.4853C91.6991 60.0114 91.4658 60.4254 91.2899 60.7271C91.1139 61.0289 90.7902 61.3713 90.3189 61.7543C89.6065 62.2825 88.882 62.7065 88.1455 63.0265C87.4321 63.3438 86.6923 63.5352 85.9262 63.6007C85.8105 63.6142 85.6989 63.6623 85.5913 63.7451C85.5041 63.8021 85.3973 63.7911 85.2709 63.712C84.8082 63.7657 84.4464 63.6788 84.1856 63.4511C83.9247 63.2235 83.6482 62.9626 83.3561 62.6682C83.1415 62.4352 82.9896 62.1364 82.9003 61.7716ZM84.8557 61.6501C85.2774 61.648 85.6565 61.5805 85.9927 61.4477C86.3521 61.3122 86.7013 61.1896 87.0402 61.0799C87.4255 60.9648 87.8244 60.7661 88.2371 60.4837C88.6471 60.1782 89.0055 59.8318 89.3122 59.4445C89.6393 59.0314 89.8393 58.6331 89.912 58.2495C89.9599 58.0564 89.9473 57.8468 89.8741 57.6208C89.801 57.3949 89.6781 57.245 89.5054 57.1713C89.2553 57.0362 89.0051 56.9011 88.755 56.7661C88.5049 56.631 88.2192 56.5938 87.898 56.6546C87.8313 56.6857 87.7503 56.6951 87.6551 56.6828C87.5803 56.6445 87.5069 56.6179 87.4348 56.6028C87.2444 56.5781 87.0566 56.5764 86.8715 56.5979C86.7096 56.6167 86.5388 56.66 86.3591 56.7277C86.1589 56.8213 85.9703 56.9135 85.7933 57.0044C85.6163 57.0953 85.5568 57.2898 85.6149 57.5879C85.6203 57.6341 85.5718 57.7218 85.4696 57.8509C85.4287 57.9025 85.3515 58.146 85.2379 58.5812C85.1474 59.0137 85.0596 59.4694 84.9746 59.9482C84.8895 60.427 84.8243 60.7745 84.7791 60.9908C84.7667 61.086 84.7672 61.1914 84.7807 61.3071C84.8145 61.3969 84.8395 61.5113 84.8557 61.6501ZM105.428 51.5946C105.163 51.5316 104.946 51.4748 104.776 51.4242C104.603 51.3505 104.373 51.3889 104.086 51.5395C103.639 51.732 103.209 52.0633 102.794 52.5335C102.403 53.0009 102.033 53.548 101.684 54.1747C101.332 54.7783 101.03 55.4111 100.779 56.0734C100.527 56.7356 100.332 57.3795 100.194 58.0052C100.056 58.6308 99.9889 59.1661 99.9937 59.611C99.9893 59.7757 100.02 59.9363 100.085 60.0928C100.17 60.2236 100.267 60.353 100.376 60.481C100.456 60.5655 100.557 60.6242 100.678 60.657C100.819 60.664 100.939 60.6853 101.037 60.7208C101.418 60.7704 101.866 60.5894 102.381 60.1779C102.896 59.7665 103.393 59.2046 103.873 58.4924C104.373 57.7544 104.798 56.9666 105.146 56.129C105.517 55.2887 105.738 54.4659 105.809 53.6605C105.88 52.8552 105.753 52.1665 105.428 51.5946ZM98.2775 58.1574C98.2409 58.0444 98.1928 57.9328 98.1331 57.8225C98.0965 57.7095 98.0497 57.6094 97.9927 57.5222C97.6226 57.5652 97.2524 57.6082 96.8823 57.6512C96.5121 57.6941 96.142 57.7371 95.7718 57.7801C95.6663 58.2847 95.5858 58.9037 95.5302 59.6369C95.472 60.3471 95.4356 61.0429 95.421 61.7246C95.4268 62.3804 95.4485 62.8702 95.4861 63.1941C95.5049 63.356 95.4489 63.4798 95.3182 63.5653C95.2105 63.6481 95.0976 63.6847 94.9792 63.675C94.7915 63.6733 94.601 63.6485 94.4079 63.6006C94.2379 63.55 94.0604 63.5355 93.8753 63.557C93.6999 63.4601 93.5837 63.3681 93.5267 63.2809C93.467 63.1706 93.3815 63.0399 93.2702 62.8887C93.4193 62.3556 93.4998 61.7366 93.5118 61.0319C93.5442 60.3013 93.5962 59.6388 93.6678 59.0443C93.7961 57.9275 93.9617 56.8297 94.1647 55.7511C94.3677 54.6725 94.6659 53.6062 95.0593 52.5524C95.1304 52.3565 95.2028 52.1723 95.2765 51.9996C95.3502 51.8269 95.3866 51.6351 95.3855 51.4243C95.5109 51.2925 95.6051 51.094 95.6681 50.8287C95.7515 50.5377 95.8377 50.2698 95.9265 50.025C96.0357 49.7544 96.1815 49.5968 96.3639 49.5522C96.549 49.5307 96.7176 49.5698 96.8699 49.6693C97.0969 49.8071 97.3137 49.9578 97.5202 50.1213C97.7472 50.2591 97.9218 50.4498 98.0439 50.6936C97.9551 50.9383 97.8205 51.2939 97.6402 51.7603C97.4803 52.2009 97.3014 52.6789 97.1033 53.1943C96.9053 53.7096 96.7392 54.1978 96.6052 54.6588C96.4943 55.1172 96.4434 55.4865 96.4525 55.7668C96.5014 55.7846 96.5388 55.8037 96.5646 55.8241C96.5878 55.8214 96.6122 55.8303 96.6381 55.8508C96.9851 55.8105 97.3205 55.7715 97.6444 55.7339C97.9914 55.6936 98.3384 55.6533 98.6854 55.613C99.0514 54.7265 99.497 53.819 100.022 52.8905C100.568 51.9362 101.211 51.1113 101.951 50.4158C102.713 49.7176 103.615 49.3081 104.657 49.1872C104.98 49.1496 105.28 49.2086 105.556 49.3641C105.832 49.5196 106.117 49.6507 106.411 49.7573C106.9 49.9349 107.209 50.1687 107.336 50.4587C107.484 50.7229 107.577 51.0169 107.615 51.3408C107.673 51.6388 107.801 51.9404 108.001 52.2454C108.009 52.3148 108.017 52.3842 108.025 52.4536C108.03 52.4999 108.037 52.5577 108.045 52.6272C107.954 52.8488 107.923 53.0868 107.952 53.3413C108.002 53.57 108.006 53.804 107.964 54.0434C107.679 55.8348 107.04 57.3979 106.046 58.7324C105.073 60.0412 103.808 61.1611 102.251 62.0921C101.9 62.297 101.496 62.4494 101.038 62.5494C100.673 62.6387 100.29 62.566 99.8875 62.3314C99.4851 62.0967 99.1339 61.7975 98.8337 61.4338C98.5879 61.1341 98.3986 60.8161 98.2658 60.4799C98.1561 60.1409 98.13 59.8157 98.1877 59.5042C98.2506 59.239 98.2448 59.0873 98.17 59.0491C98.0925 58.9877 98.0484 58.9108 98.0377 58.8183C98.0242 58.7026 98.1042 58.4823 98.2775 58.1574Z" fill="#F5A925"/>
<path d="M25.0868 84.3879C30.7654 83.9085 62.3423 81.8992 67.9344 80.7709C71.0158 80.1492 109.05 76.2642 112.19 75.9991" stroke="#F5A925" stroke-width="2" stroke-linecap="round"/>
</svg>
