<svg width="136" height="81" viewBox="0 0 136 81" fill="none" xmlns="http://www.w3.org/2000/svg">
<path d="M63.9993 10.4977C30.0565 18.6612 40.0495 14.6407 25.308 20.2155C19.0047 22.5992 13.0444 25.4967 8.31101 30.2936V30.2936C-2.87732 41.632 -0.416515 63.0815 12.5383 72.3504C14.9796 74.0972 18.302 75.1552 23.4991 75.4968C48.7017 77.1531 90.0377 75.7703 110.53 61.4745C118.714 55.7655 124.844 52.768 129.355 46.8542C138.324 35.0955 134.225 18.0669 121.734 10.1478C116.364 6.74302 110.819 4.22776 107.319 3.63942C93.1447 1.2567 80.5039 -0.010193 67.2297 4.67442" stroke="#F5A925" stroke-width="2" stroke-linecap="round"/>
<path d="M25.1825 56.8802C24.2337 56.3628 23.6183 55.9486 23.3363 55.6376C23.0508 55.3036 22.8471 54.8866 22.7252 54.3868C22.6171 53.9791 22.5326 53.4148 22.4718 52.6939C22.434 51.9696 22.4095 51.255 22.3982 50.5502C22.3869 49.8454 22.39 49.3151 22.4074 48.9593C22.5053 48.8269 22.5289 48.6703 22.4783 48.4895C22.4473 48.2822 22.4318 48.1785 22.4318 48.1785C22.3915 48.0668 22.4273 47.7553 22.5392 47.2441C22.6476 46.7098 22.7238 46.039 22.7678 45.2317C23.0216 43.7808 23.2869 42.5637 23.5636 41.5803C23.8599 40.5705 24.1653 39.7006 24.4799 38.9706C24.7945 38.2405 25.1178 37.5681 25.4496 36.9533C26.2492 35.8446 26.9006 35.0053 27.4041 34.4354C27.904 33.8425 28.4869 33.3314 29.1526 32.902C29.5719 32.5567 29.9653 32.2741 30.3327 32.0543C30.7001 31.8344 31.0191 31.7631 31.2897 31.8404C32.621 31.9237 33.6676 32.3087 34.4297 32.9953C35.1884 33.6588 35.8381 34.7743 36.3789 36.3418C36.6918 37.3311 36.9218 38.2386 37.069 39.0644C37.2357 39.8636 37.2988 40.6784 37.2582 41.5086C37.2142 42.3159 37.0441 43.2244 36.7478 44.2343C36.4745 45.2407 36.0527 46.4342 35.4822 47.8147C34.9139 49.5247 34.211 51.0428 33.3734 52.3692C32.5588 53.6921 31.6717 54.7668 30.7122 55.5933C29.7792 56.4394 28.8243 56.9827 27.8477 57.2231C26.8941 57.46 26.0057 57.3457 25.1825 56.8802ZM27.2437 55.5473C27.7631 55.3989 28.2457 55.1619 28.6914 54.8361C29.1372 54.5103 29.5887 54.066 30.0461 53.503C30.5 52.917 31.0041 52.1939 31.5582 51.3339C32.0537 50.5533 32.4512 49.9051 32.7507 49.3892C33.0699 48.8469 33.32 48.315 33.5009 47.7934C33.7049 47.2683 33.8704 46.6431 33.9973 45.9176C34.1472 45.1887 34.3007 44.2473 34.4577 43.0935C34.5385 42.3749 34.5905 41.7784 34.6137 41.304C34.6369 40.8295 34.6307 40.3948 34.5951 39.9998C34.5561 39.5818 34.4854 39.1096 34.3831 38.5833C34.3038 38.0535 34.2021 37.3741 34.078 36.5449C33.9963 36.1568 33.8554 35.7658 33.6551 35.3719C33.4514 34.9549 33.2419 34.6566 33.0267 34.4769C32.7584 34.258 32.4101 34.1335 31.9817 34.1035C31.5499 34.0503 31.0978 34.1769 30.6256 34.483C30.3664 34.6396 30.0491 34.9579 29.6735 35.438C29.2945 35.895 28.9028 36.4246 28.4984 37.0268C28.094 37.6289 27.7144 38.2392 27.3595 38.8575C27.0276 39.4723 26.7563 40.0192 26.5454 40.4982C26.3541 40.9507 26.2705 41.2576 26.2946 41.4188C26.2946 41.4188 26.2917 41.4781 26.2859 41.5967C26.3032 41.7119 26.2743 41.834 26.1994 41.9629C25.9483 42.3302 25.7005 42.956 25.4561 43.8403C25.2347 44.7212 25.0421 45.7156 24.8782 46.8233C24.7109 47.9081 24.5896 48.9859 24.5144 50.0569C24.4588 51.1013 24.4648 52.007 24.5326 52.774C24.5796 53.4028 24.6203 53.8324 24.6548 54.0627C24.6893 54.293 24.7629 54.4704 24.8757 54.5948C24.9851 54.6962 25.1693 54.9041 25.4283 55.2185C25.601 55.4282 25.8571 55.5665 26.1968 55.6334C26.5596 55.6968 26.9085 55.6681 27.2437 55.5473ZM40.118 52.2074C39.8405 52.0841 39.5791 51.9113 39.3339 51.6889C39.0852 51.4436 38.9299 51.1136 38.8678 50.699C38.8334 50.4687 38.8208 50.0702 38.8302 49.5037C38.8396 48.9371 38.8732 48.2962 38.931 47.5811C38.9888 46.866 39.0535 46.197 39.1251 45.574C39.2934 45.1249 39.4271 44.681 39.5263 44.2423C39.6254 43.8036 39.6681 43.5381 39.6543 43.446C39.659 43.1627 39.6684 42.8316 39.6823 42.4528C39.7193 42.0705 39.7614 41.7227 39.8087 41.4095C39.856 41.0963 39.8993 40.9132 39.9385 40.8602C40.0364 40.7278 40.1642 40.638 40.322 40.5909C40.4763 40.5207 40.641 40.5196 40.816 40.5876C41.0106 40.6291 41.1713 40.7581 41.2979 40.9747C41.5926 41.2131 41.7693 41.5281 41.8279 41.9197C41.883 42.2882 41.8391 42.86 41.696 43.6349C41.5577 44.1266 41.4314 44.6989 41.3172 45.3518C41.203 46.0047 41.1049 46.6081 41.023 47.162C40.9606 47.6894 40.9317 48.047 40.9363 48.2347L40.2763 48.5454C40.6127 48.1183 40.9244 47.6831 41.2112 47.2398C41.4947 46.7735 41.6998 46.4131 41.8265 46.1587C42.1388 45.5703 42.4073 45.0827 42.6319 44.6958C42.8762 44.2825 43.1908 43.788 43.5756 43.2123C43.9569 42.6136 44.3578 42.2239 44.7782 42.0433C45.2182 41.8361 45.5648 41.7136 45.8182 41.6757C46.3387 41.692 46.7814 41.8965 47.1463 42.2893C47.5309 42.6556 47.8312 43.2465 48.0475 44.0619C48.0957 44.3843 48.1181 44.7696 48.1145 45.2175C48.1339 45.662 48.1436 45.8843 48.1436 45.8843C48.1436 45.8843 48.2917 45.6149 48.5878 45.076C48.907 44.5337 49.3459 43.9264 49.9047 43.2541C50.294 42.8661 50.6925 42.6181 51.1002 42.5099C51.5045 42.3788 51.8937 42.4618 52.2679 42.759C52.915 42.9919 53.3806 43.4285 53.6649 44.0688C53.9457 44.6862 54.1159 45.5085 54.1754 46.5357C54.1959 47.1449 54.2517 47.5957 54.3425 47.8883C54.43 48.1578 54.5404 48.4238 54.6739 48.6864C54.872 48.751 54.9358 48.9416 54.8655 49.2583C54.7917 49.5519 54.6742 49.7108 54.513 49.7349C54.2826 49.7694 54.0109 49.763 53.6977 49.7156C53.4075 49.6649 53.1317 49.5531 52.8703 49.3803C52.6286 49.181 52.4784 48.8855 52.4198 48.494L52.0992 46.3519C52.0233 45.8452 51.9382 45.4341 51.8439 45.1185C51.7726 44.7995 51.6857 44.6123 51.5832 44.557C51.3092 44.4568 50.9631 44.6616 50.5449 45.1716C50.1267 45.6817 49.6964 46.3466 49.2539 47.1664C48.8115 47.9861 48.407 48.8238 48.0405 49.6793C47.7098 50.4588 47.4954 50.9148 47.3975 51.0472C47.3192 51.1531 47.1412 51.1444 46.8637 51.0211C46.3329 50.9357 45.9777 50.7652 45.7981 50.5095C45.6381 50.2273 45.5766 49.895 45.6136 49.5127C45.6702 49.1039 45.7291 48.5535 45.7903 47.8614C45.8746 47.1659 45.9508 46.4951 46.019 45.8491C46.0837 45.18 46.1184 44.7039 46.1231 44.4206C46.0033 44.2501 45.8335 44.2166 45.6135 44.3202C45.4131 44.3973 45.2098 44.5337 45.0036 44.7294C44.7548 44.955 44.4725 45.3505 44.1568 45.9159C43.8411 46.4812 43.526 47.1288 43.2113 47.8588C43.0005 48.3378 42.778 48.8186 42.5441 49.301C42.3068 49.7604 42.0855 50.1703 41.8804 50.5307C41.6753 50.8911 41.4927 51.1657 41.3326 51.3545C41.086 51.9094 40.9085 52.2186 40.8003 52.2819C40.692 52.3452 40.4646 52.3204 40.118 52.2074ZM55.4836 48.9538C55.4433 48.8421 55.3858 48.6152 55.3111 48.2732C55.2329 47.9081 55.1293 47.6881 55.0004 47.6132C54.9902 47.0731 54.9754 46.5808 54.9559 46.1363C54.9365 45.6918 54.9648 45.2519 55.041 44.8166C55.0756 44.5759 55.146 44.2593 55.252 43.8666C55.3811 43.4705 55.5235 43.0842 55.6791 42.7077C55.8312 42.3081 55.9775 42.0272 56.1181 41.8648C56.2586 41.7025 56.3727 41.5206 56.4603 41.3191C56.5709 41.1142 56.6999 40.9536 56.8474 40.8373C56.9683 40.7014 57.03 40.5627 57.0323 40.4211C57.0577 40.276 57.1343 40.1585 57.2622 40.0687C57.5732 39.7867 57.8185 39.538 57.9983 39.3227C58.178 39.1075 58.3727 38.9135 58.5823 38.7408C58.815 38.5647 59.13 38.388 59.5273 38.2108C59.9673 38.0037 60.2875 37.8615 60.4879 37.7844C60.7079 37.6809 60.9232 37.6251 61.134 37.6171C61.3447 37.6091 61.666 37.6317 62.0978 37.6848C62.0772 37.5466 62.0415 37.3871 61.9909 37.2062C61.9368 37.0024 61.8926 36.7853 61.8581 36.555C61.8559 36.2256 61.7978 35.9164 61.6839 35.6273C61.5896 35.3118 61.5091 35.0883 61.4423 34.957C61.28 34.8165 61.1614 34.5752 61.0867 34.2331C61.0085 33.8681 60.8618 33.5957 60.6465 33.416C60.6501 32.968 60.4268 32.5775 59.9766 32.2446C59.546 31.8852 59.0486 31.6299 58.4844 31.4789C57.9167 31.3048 57.4077 31.2868 56.9574 31.4249C56.7075 31.4858 56.4478 31.56 56.1783 31.6474C55.9088 31.7349 55.6727 31.888 55.4699 32.1067C55.174 32.1746 54.9338 32.2223 54.7496 32.2498C54.5653 32.2774 54.384 32.2457 54.2055 32.1547C53.897 31.8241 53.6846 31.585 53.5683 31.4376C53.4751 31.2867 53.4676 31.1583 53.546 31.0524C53.6209 30.9234 53.7666 30.7957 53.9831 30.6691C54.2192 30.516 54.5026 30.2852 54.8332 29.9766C55.1004 30.0309 55.2829 29.9918 55.3808 29.8594C55.4788 29.727 55.6613 29.6879 55.9284 29.7421C56.0955 29.5993 56.3897 29.52 56.8112 29.504C57.2327 29.488 57.4929 29.4961 57.592 29.5284C57.668 29.5641 57.7422 29.5883 57.8148 29.601C57.8839 29.5907 57.9547 29.5919 58.0272 29.6045C58.8575 29.6451 59.6083 29.8624 60.2795 30.2565C60.9738 30.6471 61.5621 31.1948 62.0444 31.8998C62.2274 32.1785 62.4104 32.4572 62.5934 32.736C62.7764 33.0147 62.9577 33.282 63.1373 33.5377C63.2041 33.669 63.2932 33.95 63.4048 34.3807C63.5359 34.785 63.6538 35.1794 63.7585 35.5641C63.8828 35.9223 63.9501 36.1359 63.9604 36.205C64.041 36.4284 64.0967 36.6438 64.1278 36.8511C64.1588 37.0584 64.1685 37.2806 64.1569 37.5179C64.1529 39.3788 63.9882 41.1107 63.663 42.7136C63.3377 44.3165 62.8201 45.9718 62.1102 47.6794C61.9708 48.0064 61.7622 48.3437 61.4846 48.6914C61.207 49.0391 60.9374 49.362 60.6759 49.6602C60.3556 50.0378 59.987 50.3285 59.5701 50.5322C59.1497 50.7128 58.6764 50.8543 58.1501 50.9567C57.4293 50.5465 56.902 50.2486 56.5681 50.0631C56.2342 49.8776 56.0091 49.7111 55.8928 49.5637C55.7765 49.4162 55.6402 49.213 55.4836 48.9538ZM58.2422 49.212C58.3631 49.0762 58.5025 48.9847 58.6603 48.9375C58.8376 48.8639 58.9569 48.7165 59.018 48.4954C59.2829 48.2203 59.5617 47.8018 59.8544 47.2399C60.1701 46.6746 60.4576 46.0781 60.7169 45.4506C60.9728 44.8 61.1601 44.2422 61.2789 43.777C61.3331 43.5098 61.3775 43.2559 61.4121 43.0152C61.4663 42.7481 61.547 42.5005 61.6542 42.2725C61.819 41.8004 61.9257 41.2546 61.9743 40.6351C62.0194 39.9925 61.9372 39.5221 61.7277 39.2237C60.6116 39.7911 59.7236 40.4657 59.0634 41.2474C58.3999 42.0061 57.8468 43.0308 57.4042 44.3216C57.4075 44.8156 57.3382 45.297 57.1965 45.7656C57.0742 46.2078 57.0263 46.6741 57.0526 47.1647C56.972 47.4123 56.9523 47.6743 56.9937 47.9507C57.0546 48.2006 57.157 48.4914 57.3009 48.8231C57.6348 49.0086 57.8149 49.1111 57.8414 49.1307C57.8875 49.1238 58.0211 49.1509 58.2422 49.212ZM71.6698 47.9794C71.2481 48.4663 70.72 48.7926 70.0854 48.9583C69.4739 49.1205 68.8497 49.1197 68.213 48.956C67.5727 48.7692 67.0155 48.4287 66.5412 47.9345C66.0738 47.4864 65.7342 46.9485 65.5226 46.3209C65.3074 45.6701 65.1666 44.8081 65.1002 43.7348C65.0348 42.8262 65.1883 41.8849 65.5605 40.9107C65.9294 39.9136 66.4173 39.0046 67.0245 38.1837C67.6547 37.3593 68.3061 36.7555 68.9787 36.3723C69.2897 36.0902 69.5621 35.9435 69.7959 35.932C70.0493 35.8941 70.4328 35.8603 70.9464 35.8305C71.4865 35.8203 71.8935 35.8653 72.1676 35.9656C72.4647 36.0624 72.711 36.214 72.9068 36.4201C73.304 36.7139 73.586 37.0249 73.7529 37.3532C73.9163 37.6584 74.0221 37.9723 74.0704 38.2947C74.0541 38.8152 73.8017 39.4888 73.3132 40.3155C72.8442 41.1157 72.1721 41.8168 71.2967 42.4188C70.8141 42.6559 70.2716 42.8077 69.6693 42.8743C69.067 42.9409 68.5494 42.8653 68.1165 42.6476C67.6513 42.5288 67.3686 42.6064 67.2683 42.8805C67.1646 43.1315 67.1241 43.7263 67.1468 44.6648C67.1857 45.5539 67.3513 46.1884 67.6437 46.5685C67.9326 46.9256 68.278 47.1094 68.6799 47.1199C69.1544 47.1431 69.5217 47.1587 69.782 47.1669C70.0618 47.1486 70.3803 46.9949 70.7374 46.706C71.0714 46.4205 71.2828 46.2593 71.3715 46.2225C71.4567 46.1627 71.5189 46.1063 71.5581 46.0533C71.6168 45.9739 71.7441 45.8017 71.94 45.5369C72.0771 45.3516 72.1865 45.2174 72.2683 45.1346C72.3467 45.0286 72.4434 44.9671 72.5586 44.9498C72.6737 44.9326 72.786 44.9746 72.8954 45.076C73.0013 45.1544 73.1038 45.2097 73.2028 45.2419C73.4331 45.2075 73.4999 45.3388 73.4031 45.6359C73.3293 45.9295 73.1374 46.2997 72.8275 46.7464C72.5141 47.1701 72.1282 47.581 71.6698 47.9794ZM70.5389 40.6601C70.775 40.507 71.0158 40.3061 71.2611 40.0575C71.5031 39.7858 71.6972 39.5095 71.8435 39.2285C72.0095 38.9211 72.0786 38.6753 72.051 38.491C72.0028 38.1685 71.8134 37.9261 71.483 37.7636C71.1491 37.5781 70.6948 37.6108 70.12 37.8616C69.877 37.9686 69.615 38.1845 69.3339 38.5091C69.0493 38.8108 68.7815 39.1452 68.5303 39.5125C68.3022 39.8763 68.115 40.1987 67.9686 40.4796C67.8453 40.7571 67.8102 40.9155 67.8631 40.9546C67.9494 41.0595 68.159 41.1223 68.4918 41.1431C68.8212 41.1409 69.1799 41.099 69.568 41.0174C69.9792 40.9323 70.3028 40.8132 70.5389 40.6601ZM75.5667 47.5374C75.4031 47.7031 75.1434 47.7773 74.7876 47.7599C74.4317 47.7426 74.145 47.7148 73.9274 47.6768C73.8675 47.5915 73.8059 47.4948 73.7426 47.3865C73.6793 47.2782 73.6293 47.1798 73.5924 47.0911C73.5522 46.9794 73.5119 46.8676 73.4716 46.7559C73.4544 46.6408 73.4158 46.5406 73.356 46.4553C73.4147 46.3759 73.462 46.2982 73.4977 46.2222C73.5565 46.1427 73.6169 46.0748 73.6791 46.0184C73.7943 46.0012 73.921 45.9822 74.0592 45.9615C74.1974 45.9408 74.3241 45.9219 74.4392 45.9046C74.5475 45.8413 74.6293 45.7584 74.6846 45.656C74.7595 45.527 74.866 45.4522 75.0042 45.4315C75.4627 45.0332 75.882 44.4524 76.2623 43.689C76.6656 42.9222 77.0338 42.0782 77.3669 41.157C77.723 40.2324 78.025 39.3394 78.2729 38.4781C78.5403 37.5904 78.7594 36.8511 78.93 36.2604C78.9231 36.2143 78.9179 36.1798 78.9145 36.1567C78.911 36.1337 78.8961 36.1124 78.8696 36.0928C78.7153 36.163 78.5494 36.2349 78.372 36.3086C78.1912 36.3592 78.0139 36.4328 77.8399 36.5295C77.8204 36.556 77.7893 36.5842 77.7466 36.6141C77.704 36.6441 77.6729 36.6723 77.6533 36.6987C77.431 36.944 77.1056 37.0515 76.6773 37.0215C76.2719 36.9879 75.9662 36.8335 75.7602 36.5582C75.7003 36.473 75.6422 36.3993 75.5858 36.3371C75.5294 36.2749 75.4597 36.2029 75.3768 36.1211C75.4379 35.9 75.5468 35.6835 75.7035 35.4717C75.8798 35.2334 76.0796 35.0739 76.3031 34.9934C76.9043 34.7621 77.4991 34.5671 78.0876 34.4084C78.6957 34.2232 79.3142 34.1071 79.9429 34.06C80.5717 34.013 81.2028 34.0599 81.8361 34.2006C81.9547 34.2064 82.0618 34.2139 82.1574 34.2231C82.253 34.2324 82.352 34.2646 82.4545 34.3199C82.6064 34.3914 82.7602 34.4743 82.9156 34.5688C83.071 34.6633 83.2149 34.7595 83.3473 34.8574C83.5293 34.9715 83.6783 35.1023 83.7946 35.2497C83.9109 35.3971 83.996 35.5728 84.0501 35.7766C84.1306 36.0001 84.1899 36.2384 84.2278 36.4918C84.2887 36.7417 84.3151 36.9968 84.307 37.2571C84.278 37.8501 84.1972 38.5687 84.0645 39.4127C83.9514 40.2303 83.8458 40.9408 83.7477 41.5442C83.6058 42.4839 83.4846 43.3262 83.3842 44.0713C83.2803 44.7933 83.1862 45.502 83.1019 46.1976C82.8163 46.3345 82.5267 46.3661 82.233 46.2923C81.9394 46.2185 81.6717 46.082 81.4299 45.8827C81.2895 45.574 81.1986 45.2815 81.1573 45.0051C81.1125 44.7056 81.1483 44.3942 81.2647 44.0706C81.3776 43.724 81.4307 43.2922 81.424 42.7751C81.4172 42.2581 81.5066 41.8326 81.6921 41.4987C81.7244 41.3996 81.7354 41.3156 81.725 41.2465C81.7044 41.1083 81.7108 40.8365 81.7443 40.4312C81.8009 40.0224 81.862 39.5658 81.9278 39.0614C81.9902 38.534 82.0462 38.0429 82.0959 37.588C82.1686 37.1297 82.2107 36.7819 82.2223 36.5447C82.2477 36.3996 82.2287 36.273 82.1654 36.1647C82.1251 36.053 82.0947 35.928 82.074 35.7898C81.8759 35.7253 81.6007 35.6958 81.2483 35.7015C80.919 35.7037 80.7174 35.8516 80.6436 36.1452C80.6275 36.1947 80.613 36.2557 80.6003 36.3283C80.6072 36.3744 80.6026 36.4221 80.5865 36.4717C80.4884 37.0751 80.3178 37.6658 80.0746 38.2438C79.8545 38.8184 79.6867 39.5853 79.5712 40.5445C79.5401 40.8082 79.4726 41.0655 79.3689 41.3166C79.2847 41.5411 79.2156 41.7869 79.1614 42.0541C79.1648 42.0771 79.1567 42.1019 79.1372 42.1284C79.1406 42.1514 79.1325 42.1761 79.1129 42.2026C79.1164 42.2257 79.1083 42.2504 79.0887 42.2769C78.9585 42.5083 78.8416 42.7495 78.7379 43.0006C78.6537 43.2251 78.5598 43.4629 78.4561 43.7139C78.161 44.4174 77.7324 45.0938 77.1703 45.7431C76.6311 46.389 76.0966 46.9871 75.5667 47.5374ZM94.1614 45.2134C93.7757 45.1534 93.4273 45.0289 93.1165 44.8399C92.8022 44.6279 92.4959 44.3912 92.1977 44.1297C92.0619 44.0087 91.8247 43.7616 91.4863 43.3884C91.1479 43.0152 90.7795 42.5994 90.3812 42.1409C90.0059 41.679 89.6473 41.2499 89.3054 40.8537C88.9601 40.4344 88.7011 40.1199 88.5284 39.9103C88.465 40.273 88.3814 40.5799 88.2776 40.8309C88.1935 41.0554 88.1859 41.398 88.2549 41.8587C88.0728 42.2156 87.9552 42.61 87.9021 43.0418C87.8686 43.4471 87.8235 43.8542 87.767 44.263C87.7358 44.5267 87.6551 44.7743 87.5249 45.0057C87.4177 45.2337 87.2611 45.4455 87.0549 45.6412C86.775 45.6596 86.5194 45.6036 86.288 45.4734C86.0796 45.3398 85.8942 45.2027 85.7319 45.0621C85.5523 44.8064 85.4551 44.5502 85.4402 44.2934C85.4253 44.0366 85.4467 43.7861 85.5044 43.542C85.5194 43.3278 85.5857 42.9058 85.7034 42.2759C85.8441 41.6426 85.9894 40.9614 86.1393 40.2325C86.2858 39.4806 86.4214 38.8127 86.5459 38.2289C86.667 37.6221 86.7287 37.2478 86.7311 37.1062C86.8003 36.6248 86.9681 36.0934 87.2343 35.512C87.52 34.904 87.6838 34.2672 87.7254 33.6016C87.7474 33.4335 87.8401 33.2666 88.0037 33.1008C88.1638 32.912 88.3591 32.8003 88.5894 32.7659C88.8393 32.7049 89.0656 32.8006 89.2682 33.0528C89.3177 33.069 89.3919 33.0932 89.491 33.1254C89.5865 33.1347 89.6625 33.1704 89.7189 33.2326C89.9342 33.4123 90.0706 33.6156 90.1281 33.8425C90.2087 34.0659 90.1988 34.3147 90.0985 34.5887C89.8784 35.1633 89.6905 35.6388 89.535 36.0154C89.399 36.3654 89.2681 36.75 89.1425 37.1691C89.0168 37.5883 88.8906 38.1606 88.7637 38.886C89.1414 38.7353 89.419 38.6231 89.5964 38.5494C89.7703 38.4528 89.9275 38.3233 90.068 38.1609C90.2282 37.9721 90.4338 37.6941 90.685 37.3268C90.7829 37.1944 90.9805 36.9411 91.2777 36.5669C91.5945 36.1663 91.9194 35.7409 92.2524 35.2907C92.6083 34.8371 92.9136 34.4382 93.1682 34.0939C93.4459 33.7462 93.5928 33.5476 93.6089 33.4981C93.7161 33.2701 93.8267 33.0652 93.9408 32.8833C94.0744 32.6749 94.261 32.5057 94.5006 32.3756C94.853 32.37 95.1052 32.4029 95.2572 32.4743C95.4057 32.5227 95.6999 32.6789 96.1397 32.9427C96.2686 33.0176 96.3475 33.2295 96.3761 33.5785C96.4014 33.9044 96.3126 34.1767 96.1099 34.3954C95.7435 34.7799 95.2874 35.2721 94.7413 35.8719C94.1953 36.4717 93.6066 37.1014 92.9753 37.7611C92.3671 38.4173 91.7537 39.039 91.1351 39.6261C91.5369 40.1076 91.9006 40.5712 92.2264 41.017C92.5487 41.4397 92.8146 41.8002 93.0241 42.0985C93.1563 42.6675 93.4222 43.028 93.8218 43.1801C94.2409 43.3058 94.7269 43.3272 95.2797 43.2445C95.4777 43.3091 95.6101 43.407 95.6769 43.5383C95.7632 43.6431 95.8184 43.7761 95.8426 43.9374C95.8863 44.0721 95.93 44.2069 95.9737 44.3416C95.6823 44.5972 95.4795 44.8159 95.3655 44.9978C95.271 45.1533 95.1449 45.2546 94.9871 45.3017C94.8489 45.3224 94.5737 45.293 94.1614 45.2134ZM100.57 43.8656C100.393 43.9392 100.154 43.9985 99.8549 44.0433C99.552 44.0651 99.282 44.0702 99.0448 44.0586C98.8271 44.0205 98.7131 43.9669 98.7028 43.8978C98.6856 43.7826 98.6194 43.7337 98.5042 43.7509C98.5042 43.7509 98.4397 43.7135 98.3108 43.6386C98.2048 43.5602 98.0413 43.4905 97.8202 43.4294C97.5647 43.138 97.4093 42.808 97.3542 42.4395C97.2956 42.0479 97.3079 41.422 97.391 40.5618C97.374 39.9757 97.4928 39.275 97.7475 38.4597C98.0219 37.618 98.3751 36.7527 98.8072 35.8638C99.2394 34.9749 99.7066 34.1632 100.209 33.4287C100.734 32.6907 101.228 32.134 101.69 31.7588C101.964 31.388 102.33 31.1567 102.787 31.0647C103.244 30.9727 103.697 31.0109 104.146 31.1791C104.394 31.2598 104.652 31.4096 104.92 31.6285C105.188 31.8474 105.448 32.091 105.701 32.3594C105.953 32.6278 106.17 32.9014 106.353 33.1801C106.46 33.4232 106.529 33.6483 106.56 33.8556C106.611 34.0364 106.645 34.2667 106.664 34.5466C106.705 34.823 106.733 35.2427 106.746 35.8059C106.693 36.2377 106.665 36.7599 106.663 37.3726C106.683 37.9818 106.726 38.5052 106.792 38.9428C106.811 39.3873 106.904 39.6914 107.07 39.8549C107.259 40.0151 107.491 39.9921 107.766 39.7861C108.022 39.6065 108.278 39.5093 108.535 39.4944C108.788 39.4565 108.994 39.4963 109.153 39.6138C109.335 39.7278 109.447 39.9231 109.488 40.1995C109.529 40.4758 109.434 40.7844 109.203 41.1252C108.991 41.4395 108.704 41.7297 108.344 41.9956C108.003 42.235 107.66 42.3805 107.314 42.4323C107.061 42.4702 106.797 42.3567 106.521 42.0917C106.243 41.8037 105.979 41.4547 105.729 41.0447C105.499 40.6082 105.284 40.1929 105.083 39.799L104.757 39.0354L103.483 40.6743C103.232 41.0416 102.978 41.3858 102.72 41.707C102.481 42.0018 102.336 42.2119 102.284 42.3374C102.2 42.5619 102.012 42.802 101.721 43.0575C101.452 43.3096 101.069 43.579 100.57 43.8656ZM100.369 41.8117C100.726 41.5227 101.125 41.1215 101.566 40.6081C102.004 40.0716 102.425 39.5022 102.829 38.9001C103.23 38.2749 103.558 37.7079 103.811 37.1989C104.123 36.6106 104.349 36.0706 104.487 35.5789C104.625 35.0872 104.709 34.6272 104.74 34.1988C104.61 33.9592 104.42 33.7167 104.171 33.4714C103.919 33.203 103.711 33.0693 103.546 33.0704C103.04 33.1463 102.547 33.5497 102.067 34.2808C101.608 34.9855 101.168 35.746 100.749 36.5623C100.674 36.6912 100.575 36.8945 100.451 37.172C100.328 37.4495 100.203 37.7154 100.076 37.9699C99.969 38.1979 99.8976 38.3499 99.8619 38.4258C99.8066 38.5283 99.708 38.8139 99.5662 39.2825C99.444 39.7247 99.3235 40.1784 99.2048 40.6436C99.0826 41.0858 99.0318 41.3759 99.0525 41.5141C99.0732 41.6523 99.1071 41.8003 99.1542 41.9581C99.2244 42.1124 99.3551 42.1989 99.5463 42.2173C99.7374 42.2358 100.012 42.1006 100.369 41.8117Z" fill="#F5A925"/>
</svg>
