<svg width="142" height="80" viewBox="0 0 142 80" fill="none" xmlns="http://www.w3.org/2000/svg">
<path d="M69.8189 8.42602C33.4432 13.4897 44.8434 10.272 28.2343 14.6931C21.8544 16.3913 15.6938 18.6677 10.5555 22.8132V22.8132C-2.13893 33.0547 -1.39048 55.3121 11.3758 65.464C13.7575 67.3579 17.0903 68.6756 22.3396 69.4767C48.395 73.4532 91.4694 75.8892 113.952 63.5308C122.587 58.7844 129.039 56.3624 134.127 51.3107C145.058 40.4567 141.982 22.2057 129.514 13.159C124.318 9.3887 118.921 6.47749 115.409 5.58736C100.875 1.90446 87.8428 -0.524747 73.6589 2.91978" stroke="#F5A925" stroke-width="2" stroke-linecap="round"/>
<path d="M18.1825 55.1146C17.2337 54.5972 16.6183 54.183 16.3363 53.872C16.0508 53.538 15.8471 53.121 15.7252 52.6212C15.6171 52.2135 15.5326 51.6492 15.4718 50.9283C15.434 50.2039 15.4095 49.4894 15.3982 48.7846C15.3869 48.0798 15.39 47.5495 15.4074 47.1937C15.5053 47.0613 15.5289 46.9047 15.4783 46.7239C15.4473 46.5166 15.4318 46.4129 15.4318 46.4129C15.3915 46.3012 15.4273 45.9897 15.5392 45.4784C15.6476 44.9441 15.7238 44.2734 15.7678 43.4661C16.0216 42.0152 16.2869 40.7981 16.5636 39.8147C16.8599 38.8049 17.1653 37.9349 17.4799 37.2049C17.7945 36.4749 18.1178 35.8025 18.4496 35.1877C19.2492 34.0789 19.9006 33.2396 20.4041 32.6698C20.904 32.0769 21.4869 31.5657 22.1526 31.1364C22.5719 30.7911 22.9653 30.5085 23.3327 30.2886C23.7001 30.0688 24.0191 29.9975 24.2897 30.0747C25.621 30.1581 26.6676 30.543 27.4297 31.2296C28.1884 31.8932 28.8381 33.0087 29.3789 34.5762C29.6918 35.5655 29.9218 36.473 30.069 37.2987C30.2357 38.098 30.2988 38.9127 30.2582 39.743C30.2142 40.5503 30.0441 41.4588 29.7478 42.4687C29.4745 43.4751 29.0527 44.6685 28.4822 46.0491C27.9139 47.759 27.211 49.2772 26.3734 50.6035C25.5588 51.9264 24.6717 53.0012 23.7122 53.8277C22.7792 54.6738 21.8243 55.2171 20.8477 55.4574C19.8941 55.6944 19.0057 55.5801 18.1825 55.1146ZM20.2437 53.7817C20.7631 53.6333 21.2457 53.3962 21.6914 53.0705C22.1372 52.7447 22.5887 52.3003 23.0461 51.7374C23.5 51.1514 24.0041 50.4283 24.5582 49.5683C25.0537 48.7876 25.4512 48.1394 25.7507 47.6236C26.0699 47.0813 26.32 46.5494 26.5009 46.0278C26.7049 45.5027 26.8704 44.8774 26.9973 44.152C27.1472 43.4231 27.3007 42.4817 27.4577 41.3279C27.5385 40.6093 27.5905 40.0128 27.6137 39.5384C27.6369 39.0639 27.6307 38.6292 27.5951 38.2342C27.5561 37.8161 27.4854 37.344 27.3831 36.8177C27.3038 36.2879 27.2021 35.6085 27.078 34.7793C26.9963 34.3912 26.8554 34.0002 26.6551 33.6062C26.4514 33.1893 26.2419 32.891 26.0267 32.7113C25.7584 32.4924 25.4101 32.3679 24.9817 32.3378C24.5499 32.2847 24.0978 32.4113 23.6256 32.7174C23.3664 32.874 23.0491 33.1923 22.6735 33.6724C22.2945 34.1294 21.9028 34.659 21.4984 35.2612C21.094 35.8633 20.7144 36.4735 20.3595 37.0918C20.0276 37.7067 19.7563 38.2536 19.5454 38.7326C19.3541 39.1851 19.2705 39.492 19.2946 39.6532C19.2946 39.6532 19.2917 39.7125 19.2859 39.8311C19.3032 39.9463 19.2743 40.0683 19.1994 40.1973C18.9483 40.5646 18.7005 41.1904 18.4561 42.0747C18.2347 42.9556 18.0421 43.9499 17.8782 45.0577C17.7109 46.1424 17.5896 47.2203 17.5144 48.2912C17.4588 49.3357 17.4648 50.2414 17.5326 51.0084C17.5796 51.6372 17.6203 52.0667 17.6548 52.2971C17.6893 52.5274 17.7629 52.7048 17.8757 52.8292C17.9851 52.9305 18.1693 53.1385 18.4283 53.4529C18.601 53.6626 18.8571 53.8008 19.1968 53.8677C19.5596 53.9312 19.9085 53.9025 20.2437 53.7817ZM33.118 50.4418C32.8405 50.3185 32.5791 50.1457 32.3339 49.9233C32.0852 49.678 31.9299 49.348 31.8678 48.9334C31.8334 48.7031 31.8208 48.3046 31.8302 47.738C31.8396 47.1715 31.8732 46.5306 31.931 45.8155C31.9888 45.1004 32.0535 44.4313 32.1251 43.8083C32.2934 43.3593 32.4271 42.9154 32.5263 42.4767C32.6254 42.0379 32.6681 41.7725 32.6543 41.6804C32.659 41.3971 32.6684 41.066 32.6823 40.6872C32.7193 40.3048 32.7614 39.9571 32.8087 39.6439C32.856 39.3306 32.8993 39.1476 32.9385 39.0946C33.0364 38.9622 33.1642 38.8724 33.322 38.8252C33.4763 38.755 33.641 38.7539 33.816 38.8219C34.0106 38.8635 34.1713 38.9925 34.2979 39.209C34.5926 39.4475 34.7693 39.7625 34.8279 40.1541C34.883 40.5226 34.8391 41.0943 34.696 41.8693C34.5577 42.361 34.4314 42.9333 34.3172 43.5862C34.203 44.2391 34.1049 44.8425 34.023 45.3964C33.9606 45.9238 33.9317 46.2814 33.9363 46.4691L33.2763 46.7798C33.6127 46.3527 33.9244 45.9175 34.2112 45.4742C34.4947 45.0079 34.6998 44.6475 34.8265 44.3931C35.1388 43.8047 35.4073 43.3171 35.6319 42.9302C35.8762 42.5169 36.1908 42.0224 36.5756 41.4467C36.9569 40.848 37.3578 40.4583 37.7782 40.2776C38.2182 40.0705 38.5648 39.948 38.8182 39.91C39.3387 39.9263 39.7814 40.1309 40.1463 40.5237C40.5309 40.89 40.8312 41.4809 41.0475 42.2963C41.0957 42.6187 41.1181 43.0039 41.1145 43.4519C41.1339 43.8964 41.1436 44.1187 41.1436 44.1187C41.1436 44.1187 41.2917 43.8492 41.5878 43.3104C41.907 42.7681 42.3459 42.1608 42.9047 41.4884C43.294 41.1005 43.6925 40.8524 44.1002 40.7443C44.5045 40.6132 44.8937 40.6962 45.2679 40.9934C45.915 41.2262 46.3806 41.6628 46.6649 42.3032C46.9457 42.9205 47.1159 43.7428 47.1754 44.7701C47.1959 45.3793 47.2517 45.8301 47.3425 46.1227C47.43 46.3922 47.5404 46.6582 47.6739 46.9208C47.872 46.9854 47.9358 47.176 47.8655 47.4926C47.7917 47.7863 47.6742 47.9451 47.513 47.9693C47.2826 48.0037 47.0109 47.9973 46.6977 47.95C46.4075 47.8993 46.1317 47.7875 45.8703 47.6146C45.6286 47.4153 45.4784 47.1199 45.4198 46.7284L45.0992 44.5863C45.0233 44.0796 44.9382 43.6684 44.8439 43.3529C44.7726 43.0339 44.6857 42.8467 44.5832 42.7914C44.3092 42.6911 43.9631 42.896 43.5449 43.406C43.1267 43.916 42.6964 44.5809 42.2539 45.4007C41.8115 46.2205 41.407 47.0582 41.0405 47.9137C40.7098 48.6932 40.4954 49.1492 40.3975 49.2816C40.3192 49.3875 40.1412 49.3788 39.8637 49.2555C39.3329 49.1701 38.9777 48.9995 38.7981 48.7438C38.6381 48.4616 38.5766 48.1294 38.6136 47.7471C38.6702 47.3383 38.7291 46.7878 38.7903 46.0958C38.8746 45.4002 38.9508 44.7295 39.019 44.0834C39.0837 43.4144 39.1184 42.9382 39.1231 42.6549C39.0033 42.4845 38.8335 42.451 38.6135 42.5546C38.4131 42.6317 38.2098 42.7681 38.0036 42.9638C37.7548 43.1894 37.4725 43.5849 37.1568 44.1502C36.8411 44.7156 36.526 45.3632 36.2113 46.0932C36.0005 46.5722 35.778 47.0529 35.5441 47.5354C35.3068 47.9948 35.0855 48.4047 34.8804 48.7651C34.6753 49.1254 34.4927 49.4 34.3326 49.5888C34.086 50.1438 33.9085 50.453 33.8003 50.5163C33.692 50.5796 33.4646 50.5547 33.118 50.4418ZM51.7886 48.8482C51.4892 48.893 51.2388 48.8716 51.0373 48.784C50.8588 48.693 50.6274 48.5628 50.343 48.3934C49.8364 47.9983 49.46 47.6072 49.2136 47.2202C48.9639 46.8102 48.8442 46.4042 48.8547 46.0023C48.8962 45.8077 48.8934 45.6315 48.8463 45.4737C48.8187 45.2894 48.8049 45.1973 48.8049 45.1973C48.6725 45.0994 48.6276 45.0355 48.6702 45.0055C48.7094 44.9526 48.7451 44.8766 48.7774 44.7775C48.9156 44.7569 48.9427 44.6233 48.8587 44.3768C48.7851 44.1995 48.8169 43.7826 48.9541 43.1262C49.0913 42.4699 49.2913 41.8394 49.5541 41.2349C49.6578 40.9839 49.8203 40.6535 50.0415 40.2436C50.2593 39.8107 50.5019 39.3858 50.7692 38.969C51.056 38.5257 51.3204 38.1683 51.5624 37.8966C52.0658 37.3267 52.5191 36.8938 52.9222 36.598C53.3254 36.3022 53.7717 36.0588 54.2612 35.8678C54.7506 35.6767 55.0875 35.5675 55.2718 35.5399C55.4791 35.5088 55.783 35.6517 56.1837 35.9685C56.7479 36.1196 57.1693 36.3391 57.4479 36.6271C57.7496 36.9116 57.9815 37.3597 58.1436 37.9712C58.3162 38.6518 58.3775 39.4551 58.3277 40.3809C58.2975 41.2803 57.92 42.4554 57.1952 43.9062C56.7434 44.8215 56.3068 45.5227 55.8851 46.0097C55.4601 46.4736 54.9429 46.9514 54.3335 47.4429C53.8981 47.8378 53.4967 48.1451 53.1292 48.365C52.7584 48.5618 52.3115 48.7228 51.7886 48.8482ZM54.5572 44.6896C55.0169 43.9849 55.3666 43.3321 55.6063 42.731C55.8691 42.1265 56.0864 41.3758 56.2583 40.4787C56.3125 40.2116 56.3235 39.892 56.2914 39.5201C56.2558 39.1251 56.1909 38.7698 56.0965 38.4542C56.0218 38.1122 55.9119 37.9285 55.7668 37.9031C55.4663 37.7832 55.1254 37.7871 54.7442 37.9148C54.3595 38.0195 53.9662 38.3021 53.5641 38.7626C52.9397 39.4683 52.4299 40.31 52.0346 41.2876C51.6358 42.2421 51.2676 43.3216 50.9298 44.526C50.7084 45.4069 50.7278 46.0869 50.9879 46.5661C51.2676 47.0187 51.7195 47.1277 52.3437 46.893C52.9876 46.6318 53.7254 45.8973 54.5572 44.6896ZM68.2331 45.6097C67.9233 45.5855 67.6395 45.4984 67.3816 45.3486C67.1202 45.1758 66.9211 44.9466 66.7841 44.6609C66.6472 44.3753 66.6024 44.0759 66.6497 43.7627C66.7062 43.3539 66.753 42.9583 66.79 42.576C66.8465 42.1672 66.8702 41.7751 66.8612 41.3997C66.8532 41.1889 66.889 40.8775 66.9685 40.4652C67.0677 40.0265 67.1617 39.5532 67.2506 39.0454C67.3394 38.5376 67.3528 38.0764 67.2907 37.6618C67.2494 37.3854 67.1786 37.1487 67.0785 36.9518C66.9749 36.7318 66.8109 36.5797 66.5863 36.4956C66.1073 36.2847 65.6323 36.1792 65.1613 36.179C64.7134 36.1754 64.2407 36.1638 63.7432 36.144C63.6937 36.1279 63.5324 36.152 63.2595 36.2164C63.0096 36.2774 62.7908 36.3101 62.6031 36.3147C62.5719 36.5784 62.5407 36.8421 62.5095 37.1058C62.4783 37.3695 62.4587 37.6315 62.4505 37.8917C62.3998 38.1819 62.3444 38.5199 62.2844 38.9056C62.2244 39.2914 62.1742 39.6639 62.1338 40.0232C62.0818 40.6197 62.0419 41.0613 62.0142 41.3481C61.9864 41.6348 61.9472 41.9233 61.8964 42.2134C61.8687 42.5002 61.8058 42.9452 61.7077 43.5486C61.6731 43.7893 61.6483 44.0167 61.6332 44.2309C61.6182 44.4451 61.5686 44.6645 61.4845 44.889C61.4522 44.988 61.4412 45.0721 61.4516 45.1412C61.4585 45.1873 61.4705 45.2679 61.4878 45.383C61.5119 45.5443 61.4882 45.7009 61.4168 45.8529C61.3649 45.9784 61.2883 46.0958 61.1869 46.2052C61.1051 46.2881 60.9986 46.3629 60.8673 46.4296C60.736 46.4964 60.6179 46.5729 60.5131 46.6593C60.2552 46.5095 60.0681 46.3609 59.9519 46.2134C59.8356 46.066 59.6681 45.8909 59.4494 45.6881C59.5014 45.0916 59.5453 44.5199 59.5812 43.9729C59.6401 43.4225 59.688 42.9561 59.725 42.5738C59.7816 42.165 59.8375 41.9093 59.8928 41.8069C59.9873 41.6514 60.0167 41.3762 59.9812 40.9812C59.9686 40.5828 60.0154 40.1872 60.1214 39.7946C60.0605 39.5446 60.0606 39.3091 60.1217 39.0881C60.1793 38.8439 60.237 38.5998 60.2946 38.3557C60.3938 37.917 60.4222 37.4771 60.3797 37.036C60.3568 36.5685 60.3587 36.109 60.3853 35.6576C60.6111 35.4354 60.7914 35.3024 60.9261 35.2587C61.0574 35.192 61.271 35.1247 61.567 35.0568C61.5797 34.9843 61.5924 34.9117 61.6051 34.8392C61.6143 34.7436 61.6253 34.6595 61.638 34.587C61.9686 34.2785 62.4333 34.0794 63.0322 33.9898C63.631 33.9001 64.1383 33.9066 64.554 34.0092C64.6265 34.0219 64.6858 34.0248 64.7319 34.0179C64.778 34.011 64.8488 34.0122 64.9444 34.0215C65.1781 34.01 65.4666 34.0493 65.8097 34.1392C66.1494 34.2061 66.4828 34.3093 66.8098 34.4487C67.1368 34.5882 67.393 34.7264 67.5784 34.8635C68.1275 35.2288 68.5241 35.6757 68.7681 36.2043C69.0351 36.7296 69.2117 37.2801 69.2979 37.8559C69.3955 38.6655 69.3762 39.4808 69.2401 40.3018C69.1005 41.0998 68.9978 41.751 68.932 42.2554C68.9077 42.5652 68.8996 42.8254 68.9076 43.0362C68.9386 43.2435 69.014 43.4323 69.1337 43.6028C69.2534 43.7733 69.4111 43.9616 69.6068 44.1678C69.601 44.2864 69.5347 44.473 69.408 44.7274C69.3008 44.9554 69.1551 45.0832 68.9708 45.1108C68.8096 45.1349 68.68 45.2132 68.5821 45.3456C68.5038 45.4515 68.3874 45.5395 68.2331 45.6097ZM72.4805 45.1859C72.3169 45.3517 72.0572 45.4259 71.7013 45.4085C71.3455 45.3911 71.0588 45.3634 70.8411 45.3253C70.7813 45.2401 70.7197 45.1433 70.6564 45.0351C70.5931 44.9268 70.543 44.8283 70.5062 44.7397C70.4659 44.6279 70.4257 44.5162 70.3854 44.4045C70.3682 44.2893 70.3296 44.1891 70.2698 44.1039C70.3285 44.0245 70.3758 43.9467 70.4115 43.8708C70.4702 43.7913 70.5307 43.7234 70.5929 43.667C70.7081 43.6497 70.8348 43.6308 70.973 43.6101C71.1112 43.5894 71.2378 43.5704 71.353 43.5532C71.4613 43.4899 71.5431 43.407 71.5984 43.3045C71.6733 43.1756 71.7798 43.1008 71.918 43.0801C72.3765 42.6818 72.7958 42.1009 73.1761 41.3376C73.5794 40.5707 73.9476 39.7267 74.2807 38.8056C74.6368 37.881 74.9388 36.988 75.1867 36.1267C75.4541 35.2389 75.6731 34.4997 75.8438 33.909C75.8369 33.8629 75.8317 33.8284 75.8282 33.8053C75.8248 33.7823 75.8098 33.761 75.7834 33.7414C75.629 33.8116 75.4632 33.8835 75.2858 33.9572C75.105 34.0078 74.9276 34.0814 74.7537 34.1781C74.7341 34.2046 74.703 34.2328 74.6604 34.2627C74.6178 34.2926 74.5867 34.3208 74.5671 34.3473C74.3448 34.5925 74.0194 34.7001 73.591 34.67C73.1857 34.6365 72.88 34.4821 72.6739 34.2068C72.6141 34.1216 72.5559 34.0478 72.4995 33.9856C72.4431 33.9234 72.3735 33.8514 72.2906 33.7697C72.3517 33.5486 72.4606 33.3321 72.6173 33.1203C72.7935 32.8819 72.9934 32.7225 73.2168 32.642C73.818 32.4107 74.4129 32.2157 75.0014 32.057C75.6095 31.8717 76.2279 31.7556 76.8567 31.7086C77.4855 31.6616 78.1165 31.7084 78.7499 31.8491C78.8685 31.8549 78.9756 31.8624 79.0711 31.8717C79.1667 31.8809 79.2657 31.9132 79.3682 31.9685C79.5202 32.04 79.6739 32.1229 79.8294 32.2174C79.9848 32.3119 80.1287 32.4081 80.2611 32.506C80.443 32.6201 80.5921 32.7508 80.7084 32.8983C80.8246 33.0457 80.9098 33.2213 80.9639 33.4252C81.0444 33.6486 81.1036 33.887 81.1415 34.1404C81.2025 34.3903 81.2289 34.6454 81.2208 34.9056C81.1918 35.4987 81.111 36.2173 80.9783 37.0613C80.8651 37.8789 80.7595 38.5894 80.6615 39.1928C80.5195 40.1325 80.3983 40.9748 80.2979 41.7198C80.1941 42.4418 80.1 43.1506 80.0157 43.8461C79.7301 43.9831 79.4404 44.0147 79.1468 43.9409C78.8532 43.8671 78.5855 43.7305 78.3437 43.5312C78.2033 43.2226 78.1124 42.93 78.071 42.6536C78.0262 42.3542 78.062 42.0427 78.1784 41.7192C78.2914 41.3726 78.3445 40.9408 78.3378 40.4237C78.331 39.9066 78.4204 39.4811 78.6059 39.1472C78.6382 39.0482 78.6491 38.9642 78.6388 38.8951C78.6181 38.7569 78.6245 38.4851 78.6581 38.0797C78.7146 37.6709 78.7758 37.2144 78.8416 36.71C78.904 36.1826 78.96 35.6915 79.0096 35.2366C79.0823 34.7783 79.1245 34.4305 79.136 34.1933C79.1614 34.0482 79.1425 33.9215 79.0792 33.8133C79.0389 33.7015 79.0084 33.5766 78.9877 33.4384C78.7897 33.3738 78.5145 33.3444 78.1621 33.35C77.8327 33.3522 77.6312 33.5001 77.5574 33.7938C77.5412 33.8433 77.5268 33.9043 77.5141 33.9769C77.521 34.0229 77.5164 34.0707 77.5002 34.1202C77.4022 34.7236 77.2316 35.3143 76.9884 35.8924C76.7683 36.4669 76.6005 37.2338 76.485 38.1931C76.4538 38.4568 76.3864 38.7141 76.2826 38.9651C76.1985 39.1897 76.1293 39.4355 76.0751 39.7027C76.0786 39.7257 76.0705 39.7504 76.0509 39.7769C76.0544 39.8 76.0463 39.8247 76.0267 39.8512C76.0302 39.8742 76.0221 39.899 76.0025 39.9255C75.8723 40.1569 75.7553 40.3981 75.6516 40.6491C75.5675 40.8737 75.4736 41.1114 75.3698 41.3624C75.0748 42.066 74.6462 42.7424 74.084 43.3917C73.5449 44.0376 73.0104 44.6356 72.4805 45.1859ZM86.3124 44.3166C85.2989 44.4683 84.4129 44.2124 83.6542 43.5488C82.892 42.8622 82.4363 41.9414 82.287 40.7863C82.2089 39.9502 82.2374 39.0393 82.3725 38.0536C82.5271 37.0414 82.7808 36.0615 83.1334 35.1139C83.4827 34.1432 83.8952 33.2808 84.3711 32.5267C84.8469 31.7725 85.3751 31.2107 85.9556 30.8412C86.1687 30.6916 86.3967 30.5633 86.6398 30.4563C86.9058 30.3458 87.177 30.2699 87.4534 30.2285C87.7068 30.1906 87.9786 30.197 88.2687 30.2478C88.5555 30.2755 88.7979 30.3216 88.9959 30.3862C89.4116 30.4888 89.7403 30.6398 89.9821 30.8391C90.2239 31.0384 90.4616 31.3678 90.6952 31.8273C90.8298 32.2546 90.9109 32.5604 90.9385 32.7447C90.9661 32.9289 90.9498 33.2139 90.8898 33.5997C90.7376 34.4702 90.4874 35.2377 90.1394 35.902C89.7914 36.5664 89.2799 37.161 88.605 37.6859C88.4379 37.8287 88.2329 37.9536 87.9899 38.0606C87.7665 38.1411 87.5281 38.2004 87.2747 38.2383C86.814 38.3072 86.3528 38.2938 85.8911 38.1981C85.4489 38.0759 85.0753 37.861 84.7702 37.5534L84.487 37.3133L84.4247 37.6052C84.2875 38.2615 84.1894 38.8649 84.1305 39.4154C84.0946 39.9623 84.1095 40.4547 84.175 40.8923C84.2163 41.1687 84.279 41.4301 84.363 41.6766C84.47 41.9196 84.5949 42.1246 84.7376 42.2916C84.8505 42.416 85.0157 42.4973 85.2333 42.5353C85.4705 42.5469 85.7158 42.5338 85.9692 42.4958C86.1304 42.4717 86.2916 42.4476 86.4529 42.4234C86.6337 42.3728 86.7995 42.3009 86.9504 42.2077C87.3213 42.0109 87.6098 41.8146 87.816 41.6189C88.0453 41.4198 88.2728 41.2091 88.4985 40.9869L88.6264 40.8971L88.5918 40.9023C88.8476 40.7227 89.0687 40.5483 89.2553 40.3791C89.465 40.2065 89.5698 40.1201 89.5698 40.1201C89.6619 40.1063 89.7454 40.035 89.8203 39.906C89.9908 39.7863 90.2263 39.7864 90.5268 39.9062C90.8504 40.0226 91.0311 40.2075 91.069 40.4609C91.0632 40.5795 90.9872 40.7793 90.8408 41.0602C90.6911 41.3181 90.5165 41.568 90.3172 41.8097C90.1409 42.048 89.9854 42.1891 89.8507 42.2328C89.8311 42.2593 89.7574 42.3174 89.6295 42.4072C89.4982 42.4739 89.413 42.5338 89.3738 42.5867L89.4084 42.5816C89.2424 42.889 89.0558 43.0582 88.8485 43.0892L88.5721 43.1306C88.5041 43.3056 88.2323 43.5347 87.7566 43.8179C87.2775 44.078 86.796 44.2442 86.3124 44.3166ZM86.7294 36.4831C87.144 36.421 87.4838 36.2524 87.7487 35.9773C88.0333 35.6757 88.2683 35.3579 88.4538 35.024C88.8214 34.3332 88.9966 33.6947 88.9795 33.1085C88.982 32.4959 88.8509 32.0916 88.5861 31.8958C88.4375 31.8474 88.3057 31.8318 88.1905 31.849C88.0949 31.8398 87.9043 31.9036 87.6187 32.0406C87.4183 32.1177 87.1562 32.3335 86.8325 32.6881C86.5088 33.0427 86.1903 33.4318 85.8769 33.8555C85.5866 34.2757 85.3682 34.6263 85.2219 34.9073L84.8814 35.7C85.0553 35.6033 85.2229 35.5429 85.3841 35.5188C85.5649 35.4682 85.6703 35.4642 85.7002 35.5068C85.7312 35.7141 85.7951 35.9047 85.8918 36.0786C86.008 36.2261 86.1306 36.3372 86.2596 36.4121C86.4116 36.4836 86.5682 36.5072 86.7294 36.4831ZM101.639 29.3769C101.934 29.1444 102.259 29.0368 102.615 29.0542C102.967 29.0486 103.254 29.1586 103.477 29.3844C103.718 29.5837 103.798 29.878 103.715 30.2672C103.74 30.1221 103.696 30.2228 103.583 30.5694C103.49 30.8895 103.364 31.3087 103.206 31.8268C103.072 32.3415 102.945 32.8315 102.826 33.2967C102.727 33.7354 102.659 33.9928 102.624 34.0688L102.639 34.1724C103.008 34.1173 103.244 34.1997 103.347 34.4197C103.47 34.6132 103.541 34.8498 103.559 35.1297C103.29 35.2171 103.106 35.327 103.008 35.4594C102.907 35.5688 102.766 35.6488 102.585 35.6994C102.516 35.7098 102.441 35.7564 102.359 35.8393C102.277 35.9221 102.231 36.0114 102.222 36.107C102.21 36.1795 102.182 36.4662 102.139 36.9672C102.116 37.4416 102.077 37.9656 102.021 38.539C101.985 39.086 101.942 39.5046 101.891 39.7948C101.873 39.986 101.803 40.1495 101.682 40.2853C101.558 40.3981 101.474 40.4695 101.431 40.4994C100.943 40.3841 100.615 40.3155 100.447 40.2936C100.298 40.2451 100.146 40.1737 99.9909 40.0792C99.9472 39.9445 99.923 39.7832 99.9185 39.5955C99.9105 39.3848 99.9319 39.1343 99.9827 38.8441C100.046 38.4814 100.09 38.1452 100.114 37.8354C100.158 37.4991 100.183 37.0362 100.189 36.4466C100.09 36.4143 99.8942 36.4436 99.6016 36.5345C99.3287 36.5989 99.0344 36.6783 98.7189 36.7726C98.4033 36.8669 98.1338 36.9544 97.9104 37.0349C97.71 37.112 97.6196 37.1373 97.6392 37.1108C97.5309 37.1741 97.3172 37.2414 96.9982 37.3127C96.6988 37.3576 96.3861 37.3926 96.0602 37.4178C95.7539 37.4166 95.5282 37.4032 95.3831 37.3779L95.1913 37.5125C95.2028 37.7463 95.1508 38.1073 95.0355 38.5956C94.9168 39.0608 94.8867 39.4891 94.9453 39.8807C94.9671 40.1836 94.9658 40.4899 94.9416 40.7997C94.9173 41.1094 94.9177 41.4273 94.943 41.7532C94.9958 42.2633 94.9041 42.595 94.668 42.7481C94.4549 42.8977 94.0858 42.8705 93.5608 42.6665C93.4353 42.6147 93.3081 42.5513 93.1791 42.4764C93.0732 42.398 92.954 42.3099 92.8216 42.212L92.9762 39.469C93.0201 39.1327 93.0559 38.8212 93.0836 38.5345C93.1079 38.2247 93.1454 37.9247 93.1962 37.6346C93.3046 37.1003 93.3998 36.5562 93.4817 36.0023C93.5867 35.4449 93.7199 34.9187 93.8812 34.4236C93.8812 34.4236 93.8985 34.3032 93.9332 34.0626C93.9874 33.7954 94.0497 33.5035 94.12 33.1869C94.1869 32.8472 94.2411 32.58 94.2826 32.3854C94.3241 32.1908 94.3305 32.1545 94.3017 32.2766C94.3501 32.1281 94.4141 31.8477 94.4937 31.4354C94.5698 31.0001 94.6379 30.5896 94.6979 30.2039C94.7775 29.7916 94.8155 29.574 94.8121 29.551C94.8375 29.4059 94.8928 29.3034 94.978 29.2435C95.0598 29.1606 95.1698 29.1089 95.308 29.0882C95.6961 29.0065 96.0324 29.0504 96.3167 29.2198C96.5977 29.3661 96.7704 29.5758 96.8348 29.8487C96.8324 29.9903 96.8399 30.1187 96.8571 30.2339C96.8743 30.3491 96.8651 30.4447 96.8294 30.5206L95.6896 35.1773L95.7309 35.4537C95.9819 35.5574 96.3194 35.5304 96.7432 35.3728C97.1866 35.1887 97.5235 35.0794 97.7538 35.0449C97.8655 35.0047 98.127 34.942 98.5381 34.8569C98.9723 34.7684 99.3851 34.6948 99.7767 34.6362C100.191 34.5741 100.412 34.5529 100.438 34.5725C100.588 33.8436 100.722 33.1642 100.84 32.5343C100.954 31.8814 101.147 31.2049 101.419 30.5048C101.435 30.4553 101.459 30.2987 101.49 30.035C101.544 29.7678 101.594 29.5485 101.639 29.3769ZM115.161 39.928C114.948 40.0776 114.673 40.0482 114.335 39.8396C113.998 39.6311 113.76 39.4548 113.62 39.3108C113.372 39.0655 113.165 38.7078 113.001 38.2379C112.836 37.768 112.73 37.3718 112.681 37.0494C112.592 36.4505 112.494 36.1119 112.388 36.0336C112.305 35.9518 112.168 36.0548 111.975 36.3427C111.802 36.604 111.54 36.973 111.187 37.4497C111.03 37.6615 110.767 37.9482 110.397 38.3096C110.028 38.6711 109.64 38.9883 109.233 39.2611C108.826 39.5339 108.473 39.6927 108.174 39.7375C107.963 39.7455 107.739 39.6613 107.5 39.4851C107.262 39.3088 107.043 39.1061 106.844 38.8768C106.665 38.6211 106.526 38.4063 106.43 38.2324C106.263 37.9041 106.167 37.3416 106.142 36.5447C106.136 35.7213 106.188 34.8069 106.296 33.8016C106.425 32.7699 106.594 31.779 106.805 30.829C107.036 29.8525 107.292 29.0488 107.575 28.4178C107.877 27.7603 108.212 27.404 108.58 27.3489C108.834 27.311 109.052 27.4314 109.235 27.7101C109.437 27.9624 109.599 28.1737 109.718 28.3442C109.868 28.5573 109.925 28.7018 109.889 28.7778C109.877 28.8504 109.803 28.9908 109.67 29.1992C109.52 29.4571 109.36 29.8815 109.189 30.4722C109.015 31.0398 108.838 31.6668 108.658 32.3531C108.498 33.0129 108.357 33.6462 108.236 34.2531C108.115 34.8599 108.031 35.32 107.983 35.6332C107.965 35.8243 107.934 36.088 107.89 36.4243C107.869 36.7571 107.884 37.0139 107.935 37.1947C107.938 37.2177 107.958 37.2736 107.995 37.3623C108.028 37.4279 108.126 37.4487 108.287 37.4246C108.794 37.3487 109.269 37.0656 109.714 36.5751C110.178 36.0582 110.612 35.4164 111.015 34.6495C111.442 33.8793 111.828 33.0796 112.175 32.2506C112.522 31.4215 112.84 30.6322 113.128 29.8826C113.439 29.1296 113.711 28.5119 113.945 28.0294C114.176 27.524 114.381 27.2459 114.562 27.1953C114.72 27.1481 114.908 27.1436 115.125 27.1817C115.363 27.1933 115.57 27.2446 115.749 27.3356C115.927 27.4266 116.021 27.5775 116.029 27.7883C115.88 28.6818 115.673 29.584 115.409 30.4949C115.142 31.3826 114.899 32.2785 114.681 33.1824C114.486 34.0829 114.387 34.9926 114.383 35.9116C114.374 36.4782 114.489 37.0143 114.73 37.5199C114.994 38.0221 115.352 38.4511 115.806 38.8071C116.071 39.003 116.08 39.2252 115.835 39.4739C115.59 39.7226 115.365 39.8739 115.161 39.928ZM123.525 37.4045C123.103 37.8915 122.575 38.2178 121.94 38.3834C121.329 38.5456 120.705 38.5448 120.068 38.3811C119.428 38.1943 118.87 37.8539 118.396 37.3597C117.929 36.9116 117.589 36.3737 117.378 35.746C117.162 35.0953 117.022 34.2333 116.955 33.16C116.89 32.2514 117.043 31.31 117.416 30.3359C117.784 29.3387 118.272 28.4297 118.879 27.6088C119.51 26.7845 120.161 26.1807 120.834 25.7974C121.145 25.5154 121.417 25.3686 121.651 25.3572C121.904 25.3193 122.288 25.2854 122.801 25.2556C123.341 25.2454 123.749 25.2905 124.023 25.3908C124.32 25.4876 124.566 25.6391 124.762 25.8453C125.159 26.1391 125.441 26.4501 125.608 26.7783C125.771 27.0836 125.877 27.3974 125.925 27.7199C125.909 28.2404 125.657 28.914 125.168 29.7407C124.699 30.5409 124.027 31.242 123.152 31.844C122.669 32.081 122.127 32.2329 121.524 32.2995C120.922 32.3661 120.404 32.2905 119.971 32.0727C119.506 31.9539 119.224 32.0316 119.123 32.3056C119.02 32.5566 118.979 33.1514 119.002 34.09C119.041 34.979 119.206 35.6136 119.499 35.9937C119.788 36.3508 120.133 36.5346 120.535 36.545C121.009 36.5682 121.377 36.5839 121.637 36.592C121.917 36.5737 122.235 36.4201 122.592 36.1311C122.926 35.8456 123.138 35.6845 123.226 35.6477C123.312 35.5878 123.374 35.5314 123.413 35.4784C123.472 35.399 123.599 35.2269 123.795 34.9621C123.932 34.7767 124.042 34.6426 124.123 34.5597C124.202 34.4538 124.298 34.3922 124.414 34.375C124.529 34.3577 124.641 34.3998 124.75 34.5012C124.856 34.5795 124.959 34.6348 125.058 34.6671C125.288 34.6326 125.355 34.7639 125.258 35.061C125.184 35.3546 124.992 35.7248 124.682 36.1715C124.369 36.5952 123.983 37.0062 123.525 37.4045ZM122.394 30.0852C122.63 29.9322 122.871 29.7313 123.116 29.4826C123.358 29.2109 123.552 28.9346 123.699 28.6537C123.864 28.3462 123.934 28.1004 123.906 27.9161C123.858 27.5937 123.668 27.3512 123.338 27.1887C123.004 27.0032 122.55 27.0359 121.975 27.2868C121.732 27.3938 121.47 27.6096 121.189 27.9343C120.904 28.2359 120.636 28.5704 120.385 28.9376C120.157 29.3015 119.97 29.6238 119.824 29.9048C119.7 30.1823 119.665 30.3406 119.718 30.3798C119.804 30.4846 120.014 30.5474 120.347 30.5683C120.676 30.5661 121.035 30.5241 121.423 30.4425C121.834 30.3574 122.158 30.2383 122.394 30.0852Z" fill="#F5A925"/>
</svg>
