<svg width="135" height="86" viewBox="0 0 135 86" fill="none" xmlns="http://www.w3.org/2000/svg">
<path d="M24.0816 60.1837C23.8052 60.2251 23.5524 60.1098 23.3234 59.838C23.1645 59.7205 23.043 59.5385 22.9591 59.292C22.9016 59.0651 22.9184 58.627 23.0096 57.9775C23.0973 57.305 23.2617 56.2796 23.5028 54.9012C23.6022 53.9915 23.6916 53.3305 23.7712 52.9183C23.8474 52.483 23.8716 52.1732 23.8441 51.989C23.8061 51.7356 23.7981 51.5249 23.8201 51.3567C23.8616 51.1621 23.8703 50.9842 23.8462 50.823C23.9843 50.8023 24.1036 50.6549 24.2039 50.3809C24.3041 50.1068 24.3676 49.7441 24.3942 49.2927C24.4277 48.8874 24.4618 48.5643 24.4964 48.3237C24.5506 48.0565 24.5709 47.8769 24.5571 47.7848C24.6446 47.5833 24.7167 47.2781 24.7733 46.8693C24.8529 46.4571 24.9895 45.9539 25.1831 45.3597C25.264 44.6412 25.3644 43.8961 25.4844 43.1246C25.601 42.33 25.7262 41.5931 25.8599 40.9137C26.0133 40.2078 26.1431 39.6585 26.2491 39.2659C26.3956 38.5139 26.5173 37.9894 26.6141 37.6924C26.7075 37.3722 26.6782 37.1765 26.5262 37.105C26.3477 37.014 26.2839 36.8234 26.3346 36.5332C26.3854 36.243 26.5922 35.8941 26.9551 35.4866C27.1636 35.1493 27.3514 34.9092 27.5184 34.7665C27.682 34.6007 27.902 34.4971 28.1784 34.4557C28.4778 34.4109 28.9074 34.3702 29.4671 34.3335C29.8851 34.2945 30.3244 34.2405 30.7851 34.1716C31.2688 34.0992 31.5682 34.0543 31.6834 34.0371C31.9045 34.0982 32.1733 34.1639 32.49 34.2343C32.8032 34.2816 33.0819 34.3341 33.326 34.3917C33.5931 34.4459 33.7319 34.5076 33.7422 34.5767C33.7629 34.7149 33.8228 34.8001 33.9218 34.8324C34.0404 34.8382 34.159 34.844 34.2776 34.8498C34.4389 34.8257 34.6766 34.9196 34.991 35.1316C35.3018 35.3205 35.6345 35.5769 35.9891 35.9006C36.3403 36.2012 36.6258 36.5353 36.8456 36.9027C37.0885 37.2667 37.2818 37.6145 37.4257 37.9462C37.5925 38.2745 37.6667 38.7697 37.648 39.4319C37.6767 39.7808 37.6708 40.1349 37.6304 40.4942C37.613 40.85 37.5669 41.0924 37.492 41.2214C37.3676 41.3342 37.2581 41.4683 37.1637 41.6237C37.0692 41.7792 37.0306 41.9145 37.0478 42.0296C37.0616 42.1218 37.0086 42.3181 36.8887 42.6186C36.7654 42.8961 36.6029 43.2266 36.4013 43.61C36.1996 43.9934 35.9749 44.3803 35.7272 44.7706C35.4795 45.1609 35.2364 45.5034 34.9979 45.7981C34.7537 46.2115 34.4484 46.6104 34.0821 46.9949C33.7388 47.376 33.4214 47.6943 33.13 47.9498C32.5725 48.3159 31.9459 48.6922 31.2502 49.0789C30.5776 49.4622 29.9211 49.796 29.2807 50.0802C28.6634 50.361 28.1342 50.5226 27.6931 50.5651C27.0389 50.7572 26.6151 50.9148 26.4216 51.038C26.2477 51.1347 26.1388 51.3511 26.0949 51.6874C26.0246 52.004 25.956 52.3322 25.8891 52.6719C25.8417 52.9851 25.8267 53.1993 25.8439 53.3145C25.8117 53.4135 25.7396 53.7187 25.6277 54.2299C25.5354 54.7147 25.4322 55.2836 25.318 55.9365C25.2268 56.5859 25.1339 57.2239 25.0393 57.8503C24.9446 58.4768 24.8806 58.9926 24.847 59.398C24.8032 59.7342 24.7156 59.9357 24.5843 60.0025C24.4564 60.0923 24.2889 60.1527 24.0816 60.1837ZM26.7626 48.8322C26.8685 48.9106 27.2272 48.8687 27.8388 48.7065C28.4503 48.5443 29.0924 48.2716 29.7651 47.8883C30.2016 47.6581 30.6329 47.3934 31.0591 47.0941C31.5083 46.7914 31.9311 46.4691 32.3273 46.1272C32.5335 45.9315 32.8359 45.5919 33.2345 45.1083C33.6331 44.6248 34.0196 44.0606 34.3941 43.4159C34.446 43.2904 34.5284 43.0543 34.6414 42.7077C34.7739 42.3347 34.8869 41.9881 34.9802 41.668C35.1393 41.3145 35.2759 40.8113 35.3901 40.1584C35.5009 39.4824 35.4677 38.9458 35.2904 38.5484C35.0856 37.9668 34.7035 37.4588 34.1439 37.0245C33.581 36.5672 32.9517 36.2963 32.2562 36.212C31.7357 36.1958 31.3027 36.2135 30.9572 36.2652C30.6347 36.3135 30.2829 36.4014 29.9017 36.5291C29.5504 36.6995 29.2981 36.9021 29.1449 37.1369C29.0147 37.3684 28.8614 37.8387 28.685 38.5481C28.572 38.8946 28.4158 39.4243 28.2163 40.1371C28.0134 40.8268 27.8514 41.4751 27.7303 42.082C27.5433 43.6642 27.3166 44.9815 27.0502 46.034C26.8035 47.06 26.653 47.7065 26.5988 47.9737C26.6597 48.2236 26.6758 48.4096 26.647 48.5316C26.6147 48.6307 26.6532 48.7309 26.7626 48.8322ZM43.6012 54.3302C43.1796 54.8172 42.6515 55.1435 42.0169 55.3092C41.4054 55.4713 40.7812 55.4706 40.1445 55.3068C39.5042 55.1201 38.947 54.7796 38.4727 54.2854C38.0053 53.8373 37.6657 53.2994 37.454 52.6717C37.2389 52.021 37.0981 51.159 37.0317 50.0857C36.9663 49.1771 37.1198 48.2357 37.492 47.2616C37.8608 46.2645 38.3488 45.3554 38.956 44.5346C39.5862 43.7102 40.2376 43.1064 40.9102 42.7232C41.2212 42.4411 41.4936 42.2944 41.7274 42.2829C41.9808 42.245 42.3642 42.2112 42.8779 42.1814C43.418 42.1712 43.825 42.2162 44.0991 42.3165C44.3962 42.4133 44.6425 42.5648 44.8382 42.771C45.2354 43.0648 45.5175 43.3758 45.6844 43.7041C45.8478 44.0093 45.9536 44.3231 46.0019 44.6456C45.9856 45.1661 45.7332 45.8397 45.2447 46.6664C44.7757 47.4666 44.1036 48.1677 43.2282 48.7697C42.7456 49.0068 42.2031 49.1586 41.6008 49.2252C40.9985 49.2918 40.4809 49.2162 40.048 48.9984C39.5828 48.8797 39.3001 48.9573 39.1998 49.2314C39.0961 49.4824 39.0556 50.0772 39.0783 51.0157C39.1172 51.9047 39.2828 52.5393 39.5752 52.9194C39.8641 53.2765 40.2095 53.4603 40.6114 53.4708C41.0859 53.494 41.4532 53.5096 41.7135 53.5178C41.9933 53.4994 42.3118 53.3458 42.6689 53.0569C43.0029 52.7714 43.2143 52.6102 43.303 52.5734C43.3882 52.5135 43.4504 52.4571 43.4896 52.4042C43.5483 52.3247 43.6756 52.1526 43.8715 51.8878C44.0086 51.7025 44.118 51.5683 44.1998 51.4854C44.2782 51.3795 44.3749 51.3179 44.4901 51.3007C44.6052 51.2835 44.7175 51.3255 44.8269 51.4269C44.9328 51.5052 45.0353 51.5606 45.1343 51.5928C45.3646 51.5584 45.4314 51.6897 45.3345 51.9867C45.2608 52.2804 45.0689 52.6505 44.759 53.0973C44.4456 53.5209 44.0597 53.9319 43.6012 54.3302ZM42.4704 47.011C42.7065 46.8579 42.9473 46.657 43.1926 46.4084C43.4346 46.1367 43.6287 45.8604 43.775 45.5794C43.9409 45.272 44.0101 45.0261 43.9825 44.8419C43.9343 44.5194 43.7449 44.277 43.4145 44.1145C43.0806 43.929 42.6263 43.9616 42.0515 44.2125C41.8085 44.3195 41.5465 44.5354 41.2654 44.86C40.9808 45.1617 40.713 45.4961 40.4618 45.8634C40.2337 46.2272 40.0465 46.5496 39.9001 46.8305C39.7768 47.108 39.7416 47.2664 39.7946 47.3055C39.8809 47.4103 40.0905 47.4732 40.4233 47.494C40.7527 47.4918 41.1114 47.4499 41.4995 47.3683C41.9106 47.2832 42.2343 47.1641 42.4704 47.011ZM55.9954 53.0756C55.6096 53.0156 55.2613 52.8911 54.9505 52.7022C54.6361 52.4902 54.3299 52.2534 54.0317 51.9919C53.8959 51.871 53.6587 51.6239 53.3203 51.2507C52.9818 50.8774 52.6134 50.4616 52.2151 50.0031C51.8399 49.5412 51.4813 49.1122 51.1394 48.7159C50.7941 48.2966 50.535 47.9822 50.3624 47.7725C50.2989 48.1352 50.2153 48.4421 50.1116 48.6931C50.0275 48.9177 50.0199 49.2603 50.0888 49.7209C49.9068 50.0778 49.7892 50.4722 49.7361 50.9041C49.7026 51.3094 49.6575 51.7165 49.601 52.1253C49.5698 52.389 49.4891 52.6365 49.3589 52.868C49.2517 53.0959 49.095 53.3078 48.8888 53.5035C48.609 53.5218 48.3534 53.4659 48.1219 53.3357C47.9135 53.202 47.7282 53.0649 47.5659 52.9244C47.3863 52.6687 47.2891 52.4124 47.2742 52.1556C47.2593 51.8988 47.2807 51.6484 47.3383 51.4042C47.3534 51.19 47.4197 50.768 47.5374 50.1381C47.6781 49.5048 47.8234 48.8237 47.9733 48.0948C48.1198 47.3428 48.2553 46.675 48.3799 46.0912C48.501 45.4843 48.5627 45.1101 48.5651 44.9684C48.6343 44.4871 48.802 43.9557 49.0682 43.3742C49.354 42.7663 49.5177 42.1295 49.5594 41.4639C49.5813 41.2958 49.6741 41.1288 49.8377 40.963C49.9978 40.7742 50.193 40.6626 50.4234 40.6281C50.6733 40.5672 50.8995 40.6628 51.1021 40.9151C51.1516 40.9312 51.2259 40.9554 51.3249 40.9877C51.4205 40.9969 51.4965 41.0327 51.5529 41.0949C51.7682 41.2746 51.9046 41.4779 51.9621 41.7048C52.0427 41.9282 52.0328 42.1769 51.9325 42.451C51.7124 43.0255 51.5245 43.5011 51.3689 43.8776C51.2329 44.2276 51.1021 44.6122 50.9765 45.0314C50.8508 45.4505 50.7245 46.0228 50.5976 46.7483C50.9754 46.5975 51.253 46.4853 51.4303 46.4117C51.6042 46.315 51.7615 46.1855 51.902 46.0232C52.0621 45.8344 52.2678 45.5563 52.519 45.189C52.6169 45.0566 52.8145 44.8034 53.1117 44.4292C53.4285 44.0285 53.7534 43.6031 54.0863 43.153C54.4423 42.6994 54.7476 42.3004 55.0022 41.9562C55.2799 41.6085 55.4267 41.4099 55.4429 41.3604C55.5501 41.1324 55.6607 40.9275 55.7747 40.7455C55.9084 40.5371 56.095 40.3679 56.3346 40.2379C56.6869 40.2322 56.9391 40.2651 57.0911 40.3366C57.2397 40.385 57.5338 40.5411 57.9737 40.805C58.1026 40.8799 58.1814 41.0918 58.2101 41.4407C58.2353 41.7666 58.1466 42.0389 57.9438 42.2577C57.5775 42.6422 57.1213 43.1343 56.5753 43.7342C56.0293 44.334 55.4406 44.9637 54.8093 45.6233C54.2011 46.2796 53.5877 46.9012 52.9691 47.4883C53.3708 47.9698 53.7346 48.4334 54.0603 48.8792C54.3826 49.3019 54.6485 49.6625 54.858 49.9608C54.9903 50.5297 55.2562 50.8902 55.6557 51.0424C56.0749 51.168 56.5608 51.1895 57.1136 51.1068C57.3117 51.1713 57.4441 51.2692 57.5108 51.4005C57.5972 51.5054 57.6524 51.6384 57.6765 51.7996C57.7203 51.9344 57.764 52.0691 57.8077 52.2039C57.5163 52.4594 57.3135 52.6782 57.1994 52.8601C57.105 53.0155 56.9788 53.1168 56.8211 53.164C56.6829 53.1847 56.4076 53.1552 55.9954 53.0756ZM58.8972 52.606C58.7222 52.538 58.5408 52.5062 58.3531 52.5108C58.1884 52.5119 58.0122 52.5147 57.8245 52.5192C57.6392 52.3821 57.4768 52.2416 57.3376 52.0976C57.2178 51.9271 57.1177 51.7302 57.0372 51.5068C56.9935 51.372 56.9975 51.2419 57.0494 51.1164C57.1013 50.9909 57.1548 50.8769 57.2101 50.7744C57.2792 50.7641 57.3616 50.7635 57.4572 50.7728C57.5493 50.759 57.6414 50.7452 57.7336 50.7314C58.0803 50.3734 58.3775 49.9992 58.6252 49.6089C58.8925 49.1921 59.1466 48.7655 59.3874 48.3291C59.6444 47.8432 59.8668 47.3625 60.0546 46.887C60.239 46.3884 60.3739 45.8737 60.4593 45.3428C60.4974 45.1252 60.5124 44.911 60.5044 44.7003C60.493 44.4665 60.5196 44.2506 60.5841 44.0525C60.6809 43.7554 60.7432 43.4635 60.7709 43.1768C60.8183 42.8636 60.8673 42.5619 60.9181 42.2717C60.5622 42.2543 60.2904 42.2479 60.1027 42.2524C59.9346 42.2305 59.7728 42.1723 59.6174 42.0778C59.462 41.9834 59.2403 41.8399 58.9525 41.6475C58.8812 41.3285 58.8813 41.093 58.9527 40.941C59.0207 40.766 59.2206 40.6066 59.5523 40.4627C59.6836 40.396 59.8166 40.3407 59.9513 40.297C60.0826 40.2303 60.2174 40.1865 60.3556 40.1659C60.6055 40.1049 60.8571 40.0555 61.1105 40.0175C61.3639 39.9796 61.6305 39.9515 61.9103 39.9332C62.098 39.9286 62.2874 39.9356 62.4786 39.9541C62.6698 39.9726 62.8609 39.991 63.0521 40.0095C63.2697 40.0476 63.4908 40.1087 63.7153 40.1928C63.9364 40.2539 64.1558 40.3035 64.3734 40.3416C64.5381 40.3405 64.6964 40.3757 64.8484 40.4471C65.0004 40.5186 65.1656 40.5998 65.3441 40.6908C65.7966 40.8821 66.1673 41.1563 66.4563 41.5134C66.7417 41.8475 66.919 42.2448 66.9879 42.7055C67.0948 43.4195 67.0911 44.1029 66.9769 44.7559C66.9272 45.2107 66.8661 45.6673 66.7934 46.1256C66.7437 46.5805 66.6825 47.0371 66.6098 47.4954C66.5625 47.8086 66.5135 48.1103 66.4627 48.4005C66.412 48.6906 66.3859 48.9889 66.3847 49.2952C66.3766 49.5555 66.3817 49.8255 66.4 50.1054C66.4183 50.3852 66.4269 50.6783 66.4256 50.9846C66.3369 51.0214 66.2483 51.0582 66.1596 51.0951C66.0939 51.1284 66.007 51.1768 65.8987 51.2401C65.6315 51.1859 65.3529 51.1334 65.0627 51.0826C64.7691 51.0088 64.5371 50.7963 64.3668 50.445C64.3599 50.3989 64.353 50.3529 64.3461 50.3068C64.3588 50.2343 64.3582 50.1519 64.3444 50.0598C64.3341 49.9907 64.3237 49.9216 64.3134 49.8525C64.3031 49.7834 64.2927 49.7143 64.2824 49.6452C64.2664 49.2237 64.2752 48.8103 64.3087 48.405C64.3388 47.9766 64.3936 47.5563 64.4732 47.144C64.5885 46.6558 64.671 46.1842 64.7206 45.7294C64.7669 45.2515 64.8148 44.7851 64.8645 44.3303C64.9025 44.1126 64.9176 43.8984 64.9096 43.6877C64.9212 43.4505 64.923 43.2265 64.915 43.0157C64.9001 42.7589 64.7994 42.4796 64.6129 42.1779C64.355 42.0281 64.0925 41.9261 63.8253 41.8719C63.5548 41.7946 63.2663 41.7554 62.96 41.7541C62.938 41.9223 62.8833 42.1071 62.7957 42.3086C62.7796 42.3581 62.7784 42.4289 62.7922 42.521C62.8025 42.5901 62.7864 42.6397 62.7438 42.6696C62.6194 42.7824 62.5462 42.9229 62.5243 43.091C62.5219 43.2326 62.5213 43.3858 62.5224 43.5505C62.5166 43.6691 62.4993 43.7894 62.4704 43.9115C62.4416 44.0335 62.4013 44.1573 62.3494 44.2828C62.2711 44.3887 62.2324 44.524 62.2335 44.6887C62.2312 44.8304 62.2306 44.9835 62.2317 45.1482C62.2373 45.5006 62.2067 45.8466 62.1398 46.1863C62.0729 46.526 61.9766 46.9054 61.851 47.3246C61.7599 47.503 61.6821 47.6913 61.6176 47.8894C61.5496 48.0644 61.4833 48.2509 61.4188 48.449C61.4095 48.5445 61.3772 48.6436 61.3219 48.746C61.2632 48.8255 61.2194 48.9262 61.1906 49.0483C61.1099 49.2959 61.0194 49.5567 60.9191 49.8307C60.8154 50.0817 60.6852 50.3131 60.5285 50.525C60.2739 50.8692 60.021 51.225 59.7699 51.5923C59.5417 51.9561 59.2508 52.294 58.8972 52.606ZM71.6244 50.3478C71.447 50.4214 71.2086 50.4806 70.9092 50.5255C70.6063 50.5472 70.3362 50.5523 70.099 50.5407C69.8814 50.5027 69.7674 50.4491 69.7571 50.38C69.7398 50.2648 69.6736 50.2159 69.5585 50.2331C69.5585 50.2331 69.494 50.1957 69.365 50.1208C69.2591 50.0424 69.0956 49.9727 68.8745 49.9116C68.619 49.6202 68.4636 49.2902 68.4084 48.9217C68.3498 48.5301 68.3621 47.9042 68.4453 47.044C68.4282 46.4579 68.5471 45.7572 68.8018 44.9419C69.0762 44.1002 69.4294 43.2349 69.8615 42.346C70.2936 41.4571 70.7609 40.6454 71.2632 39.9108C71.7885 39.1729 72.2822 38.6162 72.7441 38.2409C73.0183 37.8702 73.384 37.6389 73.8412 37.5469C74.2984 37.4549 74.7515 37.4931 75.2006 37.6613C75.4481 37.742 75.7061 37.8918 75.9743 38.1107C76.2426 38.3296 76.5027 38.5732 76.7548 38.8416C77.007 39.11 77.2245 39.3836 77.4075 39.6623C77.5146 39.9053 77.5836 40.1305 77.6146 40.3378C77.6652 40.5186 77.6997 40.7489 77.718 41.0288C77.7594 41.3052 77.7869 41.7249 77.8005 42.2881C77.7474 42.7199 77.7196 43.2421 77.7171 43.8548C77.7377 44.464 77.7807 44.9874 77.8462 45.425C77.8656 45.8695 77.9582 46.1735 78.124 46.3371C78.3128 46.4973 78.5449 46.4743 78.8202 46.2682C79.0759 46.0887 79.3321 45.9915 79.5889 45.9766C79.8423 45.9386 80.0484 45.9784 80.2073 46.096C80.3892 46.21 80.5009 46.4052 80.5422 46.6816C80.5836 46.958 80.4885 47.2666 80.2569 47.6074C80.0449 47.9217 79.7587 48.2118 79.3981 48.4777C79.0572 48.7172 78.714 48.8627 78.3685 48.9144C78.1151 48.9524 77.8509 48.8389 77.5757 48.5739C77.2971 48.2859 77.033 47.9369 76.7832 47.5269C76.553 47.0903 76.3378 46.6751 76.1375 46.2812L75.8113 45.5176L74.5377 47.1565C74.2866 47.5238 74.032 47.868 73.7739 48.1892C73.5354 48.484 73.3903 48.6941 73.3384 48.8196C73.2543 49.0441 73.0665 49.2842 72.775 49.5397C72.5066 49.7918 72.1231 50.0612 71.6244 50.3478ZM71.4229 48.2939C71.78 48.0049 72.1791 47.6037 72.6204 47.0902C73.0581 46.5537 73.4792 45.9844 73.8836 45.3823C74.2846 44.7571 74.6118 44.19 74.8653 43.6811C75.1776 43.0928 75.4029 42.5527 75.5412 42.0611C75.6796 41.5694 75.7638 41.1093 75.7938 40.681C75.6638 40.4414 75.4744 40.1989 75.2258 39.9536C74.9737 39.6852 74.7653 39.5515 74.6006 39.5526C74.0939 39.6285 73.6009 40.0319 73.1216 40.763C72.6619 41.4677 72.2223 42.2281 71.8029 43.0445C71.728 43.1734 71.6289 43.3767 71.5056 43.6541C71.3823 43.9316 71.2572 44.1976 71.1305 44.4521C71.0233 44.6801 70.9519 44.832 70.9161 44.908C70.8608 45.0105 70.7623 45.2961 70.6205 45.7647C70.4983 46.2069 70.3778 46.6606 70.259 47.1258C70.1368 47.5679 70.0861 47.8581 70.1067 47.9963C70.1274 48.1345 70.1613 48.2825 70.2085 48.4403C70.2787 48.5946 70.4094 48.681 70.6005 48.6995C70.7917 48.718 71.0658 48.5828 71.4229 48.2939ZM95.2496 46.9176C95.1736 46.8819 95.0136 46.8352 94.7695 46.7775C94.5449 46.6934 94.4079 46.6432 94.3584 46.6271C94.1765 46.513 94.0585 46.3541 94.0044 46.1502C93.9504 45.9464 93.9044 45.7178 93.8664 45.4644C93.8516 45.2076 93.7889 44.9462 93.6784 44.6801C93.6992 44.3473 93.7132 43.9685 93.7202 43.5435C93.7273 43.1186 93.7924 42.7674 93.9158 42.4899C93.9493 42.0845 94.0185 41.6032 94.1235 41.0459C94.2481 40.4621 94.3513 39.8932 94.4332 39.3393C94.5348 38.759 94.5792 38.2695 94.5667 37.8711C94.2327 38.1566 93.9481 38.4582 93.7131 38.776C93.4781 39.0937 93.2891 39.4046 93.1462 39.7086C93.0748 39.8606 92.9884 39.9912 92.887 40.1006C92.7822 40.1869 92.6808 40.2963 92.5829 40.4287C92.3513 40.7695 92.133 41.1201 91.9279 41.4805C91.7228 41.8409 91.5194 42.2128 91.3177 42.5962C90.9893 43.234 90.5965 43.8345 90.1391 44.3974C89.6818 44.9604 89.2474 45.52 88.8361 46.076C88.6829 46.3109 88.4963 46.4801 88.2763 46.5837C88.0759 46.6608 87.8652 46.6688 87.6441 46.6077C87.3505 46.5339 87.0994 46.4302 86.891 46.2965C86.7057 46.1594 86.4985 45.955 86.2694 45.6831C86.1774 45.2259 86.1672 44.6858 86.2388 44.0628C86.3334 43.4364 86.4494 42.795 86.5866 42.1386C86.7469 41.4788 86.8795 40.8703 86.9845 40.3129C87.086 39.7326 87.1126 39.2812 87.0644 38.9587C87.0379 38.9391 87.0016 38.9328 86.9556 38.9397C86.9325 38.9431 86.9014 38.9713 86.8623 39.0243C85.9994 40.0247 85.2816 41.0506 84.709 42.1018C84.1593 43.1495 83.6142 44.385 83.0737 45.8082C82.9412 46.1813 82.8224 46.6465 82.7174 47.2038C82.632 47.7347 82.4471 48.1509 82.1625 48.4525C82.1395 48.456 82.1165 48.4594 82.0934 48.4629C82.09 48.4398 82.0768 48.43 82.0537 48.4335C82.0238 48.3909 81.9892 48.396 81.9501 48.449C81.9109 48.502 81.847 48.5469 81.7583 48.5837C81.6431 48.6009 81.5193 48.5606 81.3869 48.4627C81.2016 48.3256 81.0047 48.1902 80.7963 48.0565C80.6109 47.9194 80.4665 47.7409 80.3629 47.5209C80.3814 47.3298 80.4148 47.1599 80.4633 47.0114C80.5082 46.8398 80.6073 46.6366 80.7606 46.4017C80.7952 46.161 80.8563 45.9399 80.9439 45.7384C81.0545 45.5335 81.1386 45.309 81.1963 45.0648C81.337 44.4315 81.6021 43.6854 81.9916 42.8264C82.3811 41.9675 82.8529 41.108 83.4071 40.2479C83.9613 39.3878 84.5523 38.6165 85.1801 37.9338C85.808 37.2511 86.4173 36.7595 87.0082 36.4592C87.0312 36.4557 87.0427 36.454 87.0427 36.454C87.0657 36.4506 87.0888 36.4471 87.1118 36.4437C87.3525 36.4783 87.5718 36.5279 87.7699 36.5924C87.9645 36.6339 88.1723 36.6852 88.3934 36.7464C88.5028 36.8477 88.6288 36.9819 88.7716 37.149C88.9109 37.2929 89.0174 37.4536 89.091 37.631C89.2245 37.8936 89.2716 38.2869 89.2323 38.8108C89.193 39.3348 89.1306 39.8622 89.0452 40.393C88.9598 40.9239 88.882 41.3477 88.8116 41.6643C88.8024 41.7599 88.7511 41.9677 88.6577 42.2879C88.5643 42.608 88.5182 42.8504 88.5193 43.015C88.5227 43.0381 88.5262 43.0611 88.5296 43.0841C88.5331 43.1072 88.548 43.1285 88.5745 43.1481C88.8913 42.7474 89.1949 42.337 89.4852 41.9167C89.7986 41.493 90.0774 41.0745 90.3217 40.6612C90.9116 39.7251 91.5113 38.7759 92.1208 37.8133C92.7498 36.8243 93.4952 35.9827 94.3568 35.2886C94.5699 35.139 94.8382 35.1224 95.1618 35.2388C95.5083 35.3517 95.776 35.4883 95.9649 35.6484C96.2492 35.8178 96.4288 36.0735 96.5036 36.4155C96.6186 36.8693 96.6558 37.5113 96.6152 38.3416C96.5712 39.1488 96.4811 39.963 96.345 40.784C96.2319 41.6016 96.1061 42.2562 95.9678 42.7479C95.939 42.87 95.9182 42.9673 95.9055 43.0398C95.8928 43.1124 95.8853 43.2195 95.883 43.3611C95.8841 43.5258 95.8621 43.6939 95.8172 43.8655C95.7952 44.0336 95.7716 44.1902 95.7462 44.3353C95.7219 44.6451 95.7552 44.9462 95.8461 45.2388C95.96 45.5278 96.0509 45.8204 96.1187 46.1163C96.1222 46.1394 96.0928 46.1791 96.0306 46.2355C95.9062 46.3483 95.7818 46.4611 95.6574 46.574C95.5526 46.6603 95.4397 46.7714 95.3187 46.9072C95.2957 46.9107 95.2842 46.9124 95.2842 46.9124C95.2842 46.9124 95.2726 46.9141 95.2496 46.9176ZM100.62 45.8665C100.35 45.954 100.044 45.9527 99.7009 45.8628C99.3577 45.7728 99.0405 45.6202 98.7492 45.4047C98.481 45.1858 98.2916 44.9434 98.1811 44.6773C98.0166 44.2074 97.9846 43.5999 98.085 42.8549C98.205 42.0834 98.412 41.2635 98.7059 40.3953C99.0194 39.5006 99.3842 38.6336 99.8001 37.7942C100.239 36.9514 100.705 36.2105 101.198 35.5715C101.711 34.9061 102.205 34.4318 102.681 34.1487C102.91 33.9495 103.09 33.8166 103.222 33.7498C103.373 33.6566 103.532 33.6209 103.7 33.6429C103.891 33.6613 104.173 33.7369 104.546 33.8694C104.883 33.9133 105.14 33.9807 105.319 34.0718C105.497 34.1628 105.739 34.3621 106.044 34.6697C106.28 34.9876 106.47 35.3124 106.614 35.6441C106.757 35.9758 106.897 36.3553 107.031 36.7826C107.302 37.3308 107.428 37.7005 107.409 37.8916C107.387 38.0598 107.337 38.1968 107.259 38.3027C107.109 38.5606 107.08 38.6827 107.172 38.6689C107.172 38.6689 107.168 38.7167 107.158 38.8123C107.169 38.8814 107.14 39.0034 107.072 39.1784C106.987 39.7093 106.939 40.258 106.93 40.8246C106.94 41.3647 107.017 41.8006 107.161 42.1323C107.421 42.6114 107.8 42.8609 108.297 42.8806C108.795 42.9003 109.259 42.6189 109.69 42.0363C109.916 41.8142 110.133 41.6167 110.343 41.4441C110.549 41.2484 110.666 41.2426 110.694 41.4269C110.694 41.4269 110.733 41.4563 110.813 41.515C110.889 41.5507 110.973 41.5617 111.065 41.5479C111.18 41.5307 111.256 41.5664 111.293 41.6551C111.353 41.7403 111.372 41.867 111.35 42.0351C111.347 42.1768 111.302 42.3484 111.215 42.5499C110.921 42.9471 110.783 43.2032 110.8 43.3184C110.8 43.3184 110.761 43.3714 110.683 43.4773C110.624 43.5567 110.514 43.6908 110.354 43.8797C109.978 44.1951 109.467 44.401 108.822 44.4976C108.2 44.5907 107.697 44.5364 107.314 44.3347C106.93 44.1331 106.556 43.8358 106.191 43.443C105.849 43.0468 105.608 42.6943 105.468 42.3857L105.243 42.066L104.34 42.8724C104.124 43.1637 103.884 43.4469 103.619 43.7221C103.377 43.9938 103.217 44.1826 103.139 44.2885C103.084 44.391 103.015 44.4836 102.933 44.5665C102.874 44.646 102.799 44.6926 102.707 44.7064C102.615 44.7202 102.534 44.7322 102.465 44.7426C102.396 44.7529 102.361 44.7581 102.361 44.7581C102.375 44.8502 102.277 44.9826 102.068 45.1553C101.881 45.3245 101.645 45.4776 101.359 45.6146C101.097 45.7481 100.85 45.832 100.62 45.8665ZM99.9951 44.0526C100.133 44.0319 100.36 43.892 100.674 43.633C101.008 43.3476 101.372 43.0223 101.764 42.6574C102.18 42.289 102.538 41.9293 102.839 41.5781C103.163 41.2236 103.382 40.9553 103.496 40.7734C103.574 40.6675 103.701 40.4954 103.878 40.257C104.051 39.9957 104.205 39.7723 104.343 39.587C104.783 38.9088 105.053 38.1972 105.153 37.4522C105.25 36.6841 105.141 36.1117 104.826 35.7351C104.696 35.4955 104.56 35.3745 104.418 35.3722C104.277 35.3698 104.001 35.4935 103.591 35.7433C103.338 35.9459 103.039 36.3086 102.694 36.8313C102.368 37.3275 102.019 37.9095 101.648 38.5773C101.297 39.2186 100.972 39.8795 100.673 40.56C100.375 41.2405 100.139 41.8646 99.9645 42.4323C99.7904 43 99.7258 43.4335 99.7706 43.7329C99.7844 43.8251 99.8195 43.9022 99.8759 43.9644C99.9554 44.0232 99.9951 44.0526 99.9951 44.0526Z" fill="#F5A925"/>
<path d="M104.502 67.9884C108.372 65.4723 114.13 60.9957 119.585 55.7291C134.376 41.45 139.471 16.2042 122.13 5.16165V5.16165C116.466 1.55489 105.907 1.13915 99.192 1.14685C76.1129 1.1733 41.018 2.02956 17.9862 17.1358C9.01044 23.0229 2.17225 32.5086 1.28236 43.2059C1.04411 46.0699 1.23591 48.694 1.68517 51.2623C4.67196 68.337 22.5933 84.0939 39.9254 84.3446C54.1016 84.5497 70.2125 83.88 81.8956 80.8594C95.9727 77.2199 109.287 70.7453 120.5 61.4884V61.4884" stroke="#F5A925" stroke-width="2" stroke-linecap="round"/>
</svg>
