<svg width="137" height="89" viewBox="0 0 137 89" fill="none" xmlns="http://www.w3.org/2000/svg">
<path d="M58.0009 10.7205C24.5531 14.6045 35.5592 12.93 22.656 14.8052C14.9766 15.9213 7.24791 17.3964 3.86029 24.378V24.378C-2.16961 36.8051 3.23654 52.5986 7.07469 65.8674C8.90795 72.2051 11.577 76.9138 20.0002 78.4992C44.8213 83.1711 104.44 83.7161 126.501 71.9856C139.437 65.1076 133.888 49.4702 133.766 29.9185C133.717 21.9862 134.863 13.957 127.082 12.4157V12.4157C111.989 9.4263 94.1777 10.1682 78.8044 10.7862C72.6967 11.0317 66.6469 11.6315 60.5007 12.9985" stroke="#F5A925" stroke-width="2" stroke-linecap="round"/>
<path d="M27.3373 49.3986C26.9725 49.3065 26.5946 49.2044 26.2036 49.0924C25.8357 48.9772 25.4685 48.7796 25.1021 48.4998C24.7618 48.2399 24.4391 47.8484 24.134 47.3254C23.8135 46.6869 23.5638 46.0507 23.3849 45.4167C23.229 44.7797 23.1054 44.0326 23.014 43.1754C22.8532 41.9751 22.7948 40.9255 22.8389 40.0267C22.9029 39.1017 23.0577 38.1529 23.3033 37.18C23.3402 37.1046 23.3947 36.8976 23.4668 36.559C23.5589 36.1941 23.6595 35.8047 23.7685 35.3907C23.9006 34.9735 23.9989 34.6549 24.0634 34.4347C24.1954 34.0176 24.4028 33.4611 24.6856 32.7653C24.9883 32.0433 25.3172 31.3413 25.6723 30.6593C26.2087 29.577 26.6575 28.718 27.0187 28.0821C27.38 27.4463 27.7305 26.9059 28.0704 26.4609C28.4102 26.0159 28.7993 25.5878 29.2376 25.1766C29.696 24.7392 30.282 24.2025 30.9957 23.5664C31.454 23.1291 31.9817 22.8586 32.5788 22.7551C33.1989 22.6485 33.7946 22.7097 34.3657 22.9386C34.9337 23.1445 35.3818 23.5074 35.7099 24.0274C36.0288 24.4781 36.2346 25.0497 36.3274 25.7422C36.4171 26.4116 36.4091 27.1411 36.3034 27.9307C36.1947 28.6972 36.0005 29.4399 35.7208 30.1588C35.4412 30.8777 35.0884 31.4889 34.6624 31.9924C34.3995 32.3096 34.1364 32.4506 33.8732 32.4154C33.6331 32.377 33.3313 32.2295 32.968 31.9727C32.7076 31.6081 32.5613 31.3928 32.5289 31.3266C32.5197 31.2574 32.5596 31.205 32.6489 31.1696C32.7657 30.9894 32.9133 30.6877 33.0915 30.2643C33.2698 29.841 33.4449 29.3946 33.617 28.9251C33.786 28.4325 33.8981 28.0415 33.9533 27.7521C34.008 26.7579 34.0438 26.0599 34.0604 25.6583C34.074 25.2335 33.963 24.9311 33.7274 24.7512C33.6227 24.6713 33.4796 24.6552 33.298 24.703C33.1395 24.7478 32.878 24.9003 32.5134 25.1606C32.0134 25.4626 31.3905 26.0747 30.6447 26.9971C29.8958 27.8964 29.2285 28.8787 28.6428 29.944C27.8834 31.2912 27.2555 32.4797 26.7591 33.5096C26.2627 34.5395 25.9194 35.5724 25.7292 36.6083C25.6954 36.7068 25.6378 36.8907 25.5564 37.1601C25.4981 37.4264 25.469 37.5595 25.469 37.5595C25.5044 37.6488 25.5007 37.8843 25.4579 38.266C25.4119 38.6246 25.3483 38.9386 25.2669 39.2079C25.1552 40.3038 25.1537 41.4319 25.2621 42.5922C25.3675 43.7295 25.5598 44.7259 25.8389 45.5814C26.1411 46.4338 26.4885 47.0099 26.8812 47.3097C27.2091 47.4773 27.6223 47.4924 28.1209 47.3551C28.6425 47.2147 29.221 46.9727 29.8564 46.6291C30.4918 46.2855 31.1356 45.9173 31.7879 45.5244C32.3109 45.2193 32.7847 44.8974 33.2093 44.5585C33.6338 44.2197 33.9476 43.9309 34.1506 43.6922C34.3167 43.529 34.529 43.3596 34.7874 43.1839C35.0658 42.9822 35.3089 42.8673 35.5167 42.8395C35.8244 42.6808 36.0029 42.6099 36.0521 42.6268C36.1014 42.6437 36.1384 42.7445 36.1631 42.9291C36.2064 43.2523 36.0697 43.6348 35.7529 44.0767C35.4593 44.5155 35.0571 44.9336 34.5464 45.331C34.3865 45.5404 34.1704 45.7691 33.8982 46.0171C33.6259 46.265 33.336 46.4683 33.0283 46.6271C32.593 47.0613 32.0408 47.4995 31.3716 47.9417C30.7024 48.3838 30.0109 48.7467 29.297 49.0303C28.6061 49.3109 27.9529 49.4336 27.3373 49.3986ZM39.6758 44.0445C39.4003 43.917 39.1416 43.7401 38.8998 43.5141C38.655 43.2649 38.5047 42.9326 38.449 42.5171C38.4181 42.2863 38.4117 41.8877 38.4298 41.3213C38.4479 40.7549 38.4913 40.1147 38.5601 39.4005C38.6289 38.6864 38.7039 38.0184 38.7851 37.3966C38.9602 36.9502 39.1007 36.5084 39.2067 36.0713C39.3126 35.6341 39.3593 35.3694 39.347 35.277C39.356 34.9939 39.3704 34.663 39.3902 34.2843C39.433 33.9026 39.4805 33.5556 39.5326 33.2431C39.5848 32.9307 39.6308 32.7483 39.6708 32.6959C39.7707 32.565 39.9 32.4772 40.0584 32.4325C40.2138 32.3647 40.3785 32.3661 40.5525 32.4368C40.7464 32.4813 40.905 32.6128 41.0283 32.8312C41.3193 33.0742 41.4911 33.3919 41.5437 33.7843C41.5932 34.1536 41.5404 34.7247 41.3855 35.4973C41.2396 35.9868 41.1046 36.5571 40.9803 37.2082C40.8561 37.8593 40.7487 38.4611 40.6583 39.0137C40.5878 39.54 40.5535 39.8971 40.5551 40.0849L39.8905 40.3854C40.2334 39.9635 40.5517 39.5331 40.8453 39.0943C41.1359 38.6324 41.3465 38.2753 41.4772 38.0228C41.7985 37.4393 42.0744 36.9559 42.305 36.5725C42.5556 36.163 42.8777 35.6733 43.2713 35.1037C43.6618 34.5109 44.0686 34.1274 44.4918 33.9532C44.9349 33.7529 45.2834 33.6357 45.5373 33.6017C46.0575 33.626 46.497 33.8373 46.8558 34.2357C47.2347 34.6078 47.5259 35.2032 47.7296 36.0219C47.7729 36.345 47.7893 36.7305 47.7788 37.1784C47.7914 37.6232 47.7977 37.8455 47.7977 37.8455C47.7977 37.8455 47.9499 37.5784 48.2543 37.0442C48.5818 36.5069 49.03 35.9064 49.599 35.2427C49.9943 34.8608 50.3966 34.6189 50.8059 34.517C51.2121 34.3921 51.6 34.4811 51.9695 34.7841C52.613 35.0268 53.0719 35.4705 53.3463 36.1152C53.6175 36.7368 53.775 37.5616 53.8188 38.5896C53.83 39.199 53.8787 39.6507 53.9651 39.9446C54.0484 40.2154 54.1548 40.4831 54.2842 40.7477C54.4813 40.8153 54.5422 41.0069 54.467 41.3224C54.3887 41.6149 54.2687 41.772 54.1071 41.7936C53.8763 41.8245 53.6047 41.8139 53.2922 41.7618C53.0028 41.7066 52.7288 41.5906 52.4702 41.4138C52.2315 41.2108 52.0859 40.9131 52.0333 40.5207L51.7456 38.3739C51.6776 37.8661 51.5988 37.4537 51.5094 37.1367C51.443 36.8167 51.359 36.6282 51.2574 36.5713C50.9849 36.4668 50.6357 36.6664 50.2097 37.1699C49.7837 37.6734 49.3432 38.3316 48.8882 39.1445C48.4332 39.9574 48.0159 40.7887 47.6363 41.6385C47.2936 42.4129 47.0723 42.8655 46.9723 42.9963C46.8924 43.1011 46.7146 43.0896 46.439 42.9621C45.9096 42.8685 45.557 42.6925 45.3814 42.4341C45.2258 42.1495 45.1694 41.8163 45.2122 41.4346C45.2751 41.0268 45.3424 40.4773 45.4143 39.7862C45.5093 39.0921 45.5958 38.4226 45.6739 37.7777C45.7489 37.1097 45.7909 36.6341 45.7999 36.3509C45.6828 36.1786 45.5135 36.1426 45.292 36.2428C45.0904 36.3168 44.885 36.45 44.6759 36.6425C44.4236 36.8643 44.1353 37.2554 43.8109 37.8158C43.4866 38.3762 43.1615 39.019 42.8357 39.744C42.6175 40.2197 42.3877 40.697 42.1464 41.1758C41.902 41.6315 41.6745 42.0379 41.4639 42.3951C41.2532 42.7523 41.0664 43.024 40.9034 43.2104C40.6483 43.7615 40.4661 44.0679 40.3569 44.1295C40.2477 44.1911 40.0206 44.1628 39.6758 44.0445ZM56.3234 49.709C56.0712 49.9308 55.7811 49.9579 55.4532 49.7904C55.1483 49.6197 54.8988 49.336 54.7047 48.939C54.5105 48.5421 54.4633 48.102 54.563 47.6186C54.5906 47.474 54.6289 47.2338 54.678 46.8983C54.7301 46.5859 54.7522 46.3127 54.7444 46.0788C54.7458 45.9141 54.7779 45.6278 54.8408 45.2199C54.9067 44.8351 54.9842 44.4488 55.0732 44.0609C55.1853 43.6699 55.2767 43.3875 55.3473 43.2135C55.4549 42.9641 55.5117 42.6863 55.5176 42.38C55.5467 42.0707 55.5504 41.8352 55.5287 41.6736C55.5532 41.5059 55.5862 41.3135 55.6276 41.0964C55.6921 40.8763 55.7628 40.7024 55.8397 40.5746C55.8611 40.3837 55.904 40.1782 55.9685 39.9581C56.0299 39.7149 56.1075 39.5048 56.2013 39.3277C56.2258 39.16 56.2341 38.9591 56.2263 38.7252C56.2415 38.4882 56.2938 38.352 56.383 38.3165C56.3937 38.2211 56.3929 38.1272 56.3805 38.0349C56.3912 37.9394 56.4204 37.8063 56.468 37.6354C56.4801 37.3753 56.5345 36.9921 56.6311 36.4857C56.7278 35.9793 56.8528 35.4221 57.0063 34.8141C57.1706 34.1107 57.2009 33.4604 57.0974 32.8634C57.0139 32.2401 56.7897 31.8824 56.4249 31.7903C56.2279 31.7227 56.0955 31.6113 56.0277 31.4559C55.9568 31.2774 55.9551 31.0896 56.0227 30.8926C56.0903 30.6956 56.2118 30.55 56.3871 30.456C56.5825 30.3359 56.7972 30.2719 57.0311 30.264C57.2881 30.2531 57.5136 30.2699 57.7075 30.3144C57.8984 30.3358 57.9853 30.3711 57.9684 30.4204C57.9839 30.5358 58.0509 30.5973 58.1694 30.6049C58.2063 30.5295 58.3094 30.5979 58.4789 30.8102C58.6683 30.9963 58.8508 31.2186 59.0264 31.477C59.202 31.7354 59.2976 31.9224 59.313 32.0378C59.2792 32.1363 59.2639 32.1971 59.267 32.2202C59.267 32.2202 59.3132 32.214 59.4055 32.2016C59.4055 32.2016 59.5247 32.1269 59.7632 31.9775C59.9985 31.8049 60.2439 31.6193 60.4992 31.4206C60.7745 31.1958 60.9522 31.031 61.0322 30.9263C61.0322 30.9263 61.0868 30.8955 61.196 30.8338C61.3252 30.746 61.4298 30.6498 61.5098 30.5451C61.9467 30.2985 62.4383 30.1974 62.9847 30.2417C63.5542 30.2829 64.0206 30.4319 64.3839 30.6886C64.9229 31.2039 65.228 31.7269 65.2991 32.2578C65.3934 32.7856 65.333 33.4752 65.1181 34.3264C65.0874 34.448 65.0098 34.6581 64.8853 34.9567C64.7809 35.2292 64.6749 35.4901 64.5673 35.7395C64.4566 35.9658 64.4013 36.079 64.4013 36.079C63.9817 36.9811 63.4513 37.7571 62.8099 38.407C62.1686 39.0569 61.5064 39.639 60.8234 40.1535C60.6143 40.346 60.3889 40.5054 60.1474 40.6318C59.9258 40.732 59.7242 40.806 59.5427 40.8538C59.358 40.8786 59.228 40.8725 59.1525 40.8356C58.8739 40.685 58.5905 40.3235 58.3023 39.7511C58.2271 40.0667 58.1519 40.3822 58.0767 40.6978C58.0215 40.9871 57.9885 41.1795 57.9778 41.275C57.9764 41.4396 57.9718 41.5812 57.9642 41.6997C57.9535 41.7952 57.9066 41.8837 57.8236 41.9653C57.8236 41.9653 57.8182 42.013 57.8075 42.1085C57.7968 42.2039 57.7346 42.3532 57.6208 42.5564C57.4797 43.2568 57.3492 43.8617 57.2295 44.3712C57.1129 44.9037 57.0201 45.3509 56.9511 45.7126C56.8851 46.0974 56.8361 46.4329 56.804 46.7192C56.8413 47.3486 56.7963 47.9773 56.669 48.6053C56.5448 49.2564 56.4296 49.6243 56.3234 49.709ZM59.1215 39.2889C59.2077 39.2304 59.3869 39.0771 59.6591 38.8292C59.9513 38.555 60.2735 38.2416 60.6258 37.889C60.9749 37.5132 61.2924 37.1652 61.5785 36.8449C61.8876 36.5215 62.0906 36.2829 62.1875 36.1289C62.3443 35.8964 62.488 35.6539 62.6187 35.4014C62.7462 35.1259 62.8361 34.8319 62.8882 34.5194C62.9327 34.3255 62.9857 34.1069 63.0471 33.8637C63.1085 33.6205 63.1599 33.3904 63.2013 33.1734C63.2689 32.9763 63.2788 32.787 63.2309 32.6054C63.2031 32.3977 63.1107 32.2339 62.9536 32.1139C62.8582 32.1032 62.5905 32.2096 62.1504 32.433C61.7073 32.6334 61.232 32.9438 60.7244 33.3643C60.2137 33.7616 59.7862 34.2536 59.4418 34.8402C59.0406 35.5284 58.7694 36.2227 58.6283 36.923C58.5102 37.6203 58.4937 38.1982 58.5786 38.6567C58.6866 39.1122 58.8676 39.3229 59.1215 39.2889ZM69.7394 41.2146C69.4394 41.2548 69.1893 41.2296 68.9891 41.1389C68.8121 41.0451 68.5827 40.9114 68.3009 40.7376C67.8005 40.3348 67.4301 39.9379 67.1898 39.5472C66.9463 39.1333 66.833 38.7256 66.8496 38.3239C66.8941 38.13 66.894 37.9537 66.8493 37.7952C66.8245 37.6106 66.8122 37.5183 66.8122 37.5183C66.6813 37.4183 66.6374 37.3537 66.6805 37.3244C66.7204 37.2721 66.7573 37.1966 66.7911 37.0981C66.9296 37.0796 66.9588 36.9464 66.8786 36.6987C66.8077 36.5202 66.8459 36.1039 66.9932 35.4497C67.1405 34.7955 67.3502 34.1683 67.6222 33.5679C67.7298 33.3185 67.8973 32.9906 68.1248 32.5841C68.3492 32.1546 68.5983 31.7335 68.872 31.3209C69.1656 30.8821 69.4355 30.5287 69.6816 30.2608C70.1937 29.6987 70.6536 29.2729 71.0612 28.9833C71.4689 28.6937 71.9189 28.4571 72.4112 28.2737C72.9036 28.0902 73.2421 27.9861 73.4268 27.9614C73.6345 27.9335 73.9363 28.0811 74.332 28.404C74.8938 28.5637 75.3118 28.7897 75.5859 29.0819C75.8832 29.371 76.1081 29.8226 76.2609 30.4366C76.4229 31.1198 76.4719 31.9239 76.4079 32.8489C76.3639 33.7477 75.9683 34.9168 75.2213 36.3562C74.7556 37.2646 74.3082 37.9589 73.8791 38.4394C73.4469 38.8967 72.9224 39.3665 72.3056 39.8486C71.8642 40.2367 71.4581 40.5378 71.0873 40.752C70.7135 40.9431 70.2642 41.0973 69.7394 41.2146ZM72.5716 37.099C73.0421 36.4015 73.4018 35.7541 73.6507 35.1568C73.9228 34.5565 74.1516 33.8091 74.3372 32.9148C74.3955 32.6486 74.4115 32.3292 74.3851 31.9568C74.3556 31.5613 74.2961 31.205 74.2066 30.8881C74.1372 30.5449 74.0301 30.3595 73.8854 30.3319C73.5867 30.2074 73.2459 30.2061 72.8627 30.328C72.4765 30.4267 72.0788 30.7032 71.6698 31.1575C71.0346 31.8535 70.5119 32.6872 70.1016 33.6586C69.6882 34.6069 69.3034 35.6806 68.9471 36.8797C68.7122 37.7571 68.7211 38.4373 68.9738 38.9204C69.2465 39.3773 69.6968 39.4932 70.3245 39.2681C70.9723 39.0169 71.7213 38.2938 72.5716 37.099ZM87.8888 38.8884C87.0899 38.7135 86.4317 38.273 85.9142 37.5669C85.3935 36.8378 85.026 36.1116 84.8116 35.3884C84.7885 35.3915 84.7254 35.447 84.6224 35.5548C84.5393 35.6364 84.4394 35.7673 84.3225 35.9474C84.0427 36.3139 83.6929 36.7719 83.2731 37.3216C82.8502 37.8483 82.398 38.3318 81.9166 38.7723C81.4552 39.1866 80.9905 39.4015 80.5227 39.4172C80.3226 39.3266 80.1093 39.2259 79.883 39.1152C79.6767 38.9784 79.4704 38.8416 79.2641 38.7047C79.1594 38.6248 79.0662 38.5433 78.9846 38.4602C78.9261 38.3741 78.866 38.2764 78.8043 38.1671C78.4576 37.5087 78.2372 36.9155 78.143 36.3877C78.0457 35.8368 78.0307 35.2866 78.098 34.7372C78.1854 34.1615 78.2881 33.5251 78.4061 32.8278C78.4199 32.7555 78.4621 32.4561 78.5325 31.9297C78.6261 31.4003 78.7334 30.7984 78.8545 30.1243C78.9757 29.4501 79.0946 28.8468 79.2112 28.3142C79.3509 27.7785 79.4607 27.4583 79.5407 27.3536C79.6099 27.3444 79.6792 27.3351 79.7484 27.3258C79.8377 27.2903 79.9169 27.268 79.9862 27.2587C80.217 27.2278 80.4009 27.2854 80.538 27.4315C80.6489 27.5576 80.7782 27.646 80.926 27.6967C81.0969 27.7443 81.2247 27.8212 81.3094 27.9273C81.4557 28.1427 81.4414 28.6498 81.2665 29.4486C81.0885 30.2244 80.9013 31.1071 80.7049 32.0969C80.5193 32.9911 80.3814 33.8908 80.2912 34.7958C80.1978 35.6777 80.2822 36.3948 80.5442 36.9471C80.7058 36.9255 80.9065 36.7576 81.1464 36.4435C81.4062 36.1032 81.6092 35.8645 81.7553 35.7274C81.9676 35.558 82.2321 35.2524 82.5489 34.8105C82.8856 34.3424 83.2108 33.8759 83.5245 33.4109C83.835 32.9228 84.0441 32.5541 84.1517 32.3047C84.2254 32.1538 84.3299 31.8814 84.4651 31.4873C84.5972 31.0701 84.7262 30.6299 84.8521 30.1666C84.998 29.6771 85.1023 29.2284 85.1651 28.8205C85.2511 28.4095 85.2717 28.1248 85.2269 27.9663C85.1729 27.7386 85.1728 27.5624 85.2266 27.4377C85.3004 27.2868 85.4218 27.1413 85.591 27.0011C85.7065 26.9857 85.8334 26.9687 85.9719 26.9501C86.1104 26.9315 86.2389 26.9261 86.3574 26.9337C86.5176 27.0767 86.6877 27.2066 86.8679 27.3235C87.048 27.4403 87.2297 27.5687 87.4129 27.7087C87.5871 28.1318 87.5967 28.7297 87.4418 29.5023C87.2868 30.275 87.1396 31.1054 87.0002 31.9935C86.8607 32.8816 86.8151 33.7689 86.8634 34.6553C86.9086 35.5187 87.2399 36.2379 87.8574 36.8131C88.3143 36.5404 88.6574 36.2947 88.8865 36.076C89.1357 35.8312 89.3733 35.5878 89.5994 35.3461C89.8224 35.0812 90.1146 34.8071 90.4761 34.5237C90.7255 34.6313 90.9357 34.8851 91.1068 35.2851C91.2779 35.6851 91.3805 36.0121 91.4145 36.266C91.3314 36.3476 91.2484 36.4292 91.1653 36.5109C91.1023 36.5663 91.0538 36.6433 91.02 36.7418C90.9217 37.0604 90.685 37.3976 90.3097 37.7534C89.9344 38.1091 89.5283 38.4103 89.0914 38.6568C88.6514 38.8802 88.2505 38.9575 87.8888 38.8884ZM94.4707 32.1556C94.3322 32.1742 94.159 32.1974 93.9513 32.2252C93.7405 32.23 93.5019 32.2032 93.2356 32.1449C92.8894 32.1913 92.6539 32.1876 92.5292 32.1338C92.4014 32.0569 92.2805 31.9439 92.1665 31.7947C91.8662 31.4825 91.8122 31.2547 92.0045 31.1115C92.1937 30.9451 92.7091 30.7586 93.5508 30.5518C94.3109 30.262 95.021 30.0376 95.6812 29.8787C96.3413 29.7197 97.133 29.5784 98.0563 29.4547C98.6565 29.3743 99.0635 29.3432 99.2775 29.3615C99.4914 29.3799 99.7423 29.499 100.03 29.7189C100.423 30.0187 100.595 30.3364 100.546 30.6719C100.494 30.9844 100.196 31.13 99.6526 31.1088C99.4941 31.1536 99.1971 31.2169 98.7616 31.2987C98.3261 31.3806 97.9037 31.4724 97.4944 31.5742C97.2436 31.6313 96.8443 31.7201 96.2965 31.8405C95.7487 31.9609 95.1401 32.0659 94.4707 32.1556ZM26.9327 67.9486C26.6571 67.8211 26.3984 67.6443 26.1567 67.4182C25.9118 67.169 25.7615 66.8367 25.7059 66.4212C25.6749 66.1904 25.6685 65.7918 25.6866 65.2254C25.7047 64.659 25.7482 64.0188 25.817 63.3046C25.8857 62.5905 25.9607 61.9225 26.0419 61.3007C26.217 60.8543 26.3576 60.4125 26.4635 59.9754C26.5694 59.5382 26.6162 59.2735 26.6038 59.1811C26.6128 58.898 26.6272 58.5671 26.647 58.1885C26.6899 57.8068 26.7373 57.4597 26.7895 57.1472C26.8416 56.8348 26.8876 56.6524 26.9276 56.6C27.0276 56.4691 27.1568 56.3813 27.3153 56.3366C27.4707 56.2688 27.6353 56.2702 27.8093 56.3409C28.0032 56.3854 28.1618 56.5169 28.2851 56.7353C28.5761 56.9783 28.7479 57.296 28.8005 57.6884C28.85 58.0578 28.7973 58.6288 28.6423 59.4014C28.4965 59.8909 28.3614 60.4612 28.2372 61.1123C28.1129 61.7634 28.0056 62.3652 27.9151 62.9178C27.8447 63.4441 27.8103 63.8012 27.8119 63.989L27.1473 64.2895C27.4902 63.8676 27.8085 63.4372 28.1022 62.9984C28.3927 62.5366 28.6034 62.1794 28.734 61.9269C29.0553 61.3434 29.3312 60.86 29.5618 60.4766C29.8124 60.0671 30.1345 59.5775 30.5281 59.0078C30.9187 58.415 31.3255 58.0315 31.7486 57.8573C32.1917 57.657 32.5402 57.5398 32.7941 57.5058C33.3143 57.5301 33.7538 57.7414 34.1127 58.1398C34.4915 58.512 34.7828 59.1074 34.9864 59.926C35.0298 60.2491 35.0462 60.6346 35.0357 61.0825C35.0483 61.5273 35.0546 61.7497 35.0546 61.7497C35.0546 61.7497 35.2068 61.4825 35.5111 60.9483C35.8386 60.411 36.2868 59.8105 36.8558 59.1468C37.2511 58.7649 37.6534 58.523 38.0627 58.4211C38.4689 58.2962 38.8568 58.3852 39.2264 58.6882C39.8698 58.9309 40.3287 59.3746 40.6031 60.0193C40.8744 60.6409 41.0319 61.4657 41.0756 62.4937C41.0868 63.1031 41.1356 63.5548 41.222 63.8487C41.3052 64.1195 41.4116 64.3872 41.541 64.6519C41.7381 64.7194 41.799 64.911 41.7238 65.2266C41.6455 65.519 41.5255 65.6761 41.364 65.6977C41.1331 65.7286 40.8615 65.7181 40.549 65.6659C40.2597 65.6107 39.9857 65.4947 39.727 65.3179C39.4883 65.1149 39.3427 64.8172 39.2901 64.4248L39.0025 62.278C38.9344 61.7702 38.8557 61.3578 38.7662 61.0408C38.6998 60.7208 38.6158 60.5323 38.5142 60.4754C38.2417 60.3709 37.8925 60.5705 37.4665 61.074C37.0405 61.5775 36.6001 62.2357 36.145 63.0486C35.69 63.8615 35.2727 64.6929 34.8931 65.5426C34.5504 66.317 34.3291 66.7696 34.2292 66.9005C34.1492 67.0052 33.9714 66.9937 33.6959 66.8662C33.1664 66.7726 32.8139 66.5967 32.6382 66.3382C32.4826 66.0536 32.4262 65.7204 32.4691 65.3387C32.5319 64.9309 32.5993 64.3814 32.6712 63.6903C32.7661 62.9962 32.8526 62.3267 32.9307 61.6818C33.0057 61.0138 33.0477 60.5382 33.0568 60.255C32.9397 60.0827 32.7704 60.0467 32.5488 60.1469C32.3473 60.2209 32.1419 60.3541 31.9327 60.5466C31.6804 60.7684 31.3921 61.1595 31.0678 61.7199C30.7434 62.2803 30.4183 62.9231 30.0925 63.6481C29.8743 64.1238 29.6445 64.6011 29.4032 65.0799C29.1588 65.5356 28.9313 65.942 28.7207 66.2992C28.5101 66.6564 28.3233 66.9281 28.1602 67.1145C27.9051 67.6656 27.723 67.972 27.6137 68.0336C27.5045 68.0952 27.2775 68.0669 26.9327 67.9486ZM48.5614 65.544C48.1323 66.0244 47.5993 66.3426 46.9622 66.4984C46.3483 66.6512 45.7242 66.6408 45.09 66.4673C44.4527 66.2707 43.9008 65.9217 43.4341 65.4203C42.9737 64.9651 42.6424 64.422 42.4404 63.7912C42.2353 63.1372 42.1078 62.2732 42.0578 61.199C42.0065 60.2895 42.1744 59.3506 42.5616 58.3823C42.9457 57.3909 43.4476 56.4895 44.0673 55.678C44.7101 54.8635 45.3707 54.2698 46.0491 53.8969C46.3644 53.6197 46.6391 53.4771 46.873 53.4693C47.1269 53.4353 47.5109 53.4073 48.0249 53.3854C48.5651 53.3835 48.9714 53.4348 49.2439 53.5393C49.5394 53.6407 49.7835 53.796 49.976 54.0052C50.3686 54.305 50.6458 54.6203 50.8076 54.9511C50.9664 55.2588 51.0674 55.5742 51.1107 55.8974C51.0864 56.4176 50.8236 57.0872 50.3225 57.9063C49.8413 58.6992 49.1584 59.3899 48.2739 59.9784C47.7877 60.208 47.243 60.3515 46.6397 60.4088C46.0365 60.4661 45.5201 60.3826 45.0905 60.1582C44.6272 60.0323 44.3433 60.1056 44.2388 60.378C44.1313 60.6274 44.0816 61.2215 44.0899 62.1603C44.1151 63.0498 44.271 63.6869 44.5575 64.0714C44.8409 64.4329 45.1835 64.622 45.5852 64.6387C46.0592 64.6691 46.4263 64.6904 46.6864 64.7026C46.9664 64.6886 47.2872 64.5398 47.6487 64.2564C47.9871 63.9761 48.2009 63.8182 48.2902 63.7828C48.3763 63.7242 48.4394 63.6688 48.4794 63.6164C48.5393 63.5379 48.6693 63.3678 48.8692 63.106C49.0091 62.9228 49.1206 62.7903 49.2036 62.7087C49.2836 62.604 49.3813 62.5439 49.4967 62.5285C49.6121 62.513 49.7237 62.5568 49.8315 62.6598C49.9362 62.7398 50.0378 62.7967 50.1364 62.8305C50.3672 62.7995 50.4319 62.9318 50.3305 63.2274C50.2522 63.5199 50.0547 63.887 49.738 64.3289C49.4181 64.7478 49.0259 65.1528 48.5614 65.544ZM47.5432 58.2082C47.7817 58.0588 48.0255 57.8616 48.2746 57.6168C48.5207 57.3488 48.7191 57.0755 48.8697 56.7969C49.0403 56.492 49.1133 56.2473 49.0885 56.0626C49.0452 55.7394 48.8596 55.4941 48.5317 55.3266C48.2007 55.1359 47.7459 55.1616 47.1674 55.4036C46.9228 55.5069 46.6574 55.7187 46.3714 56.039C46.0823 56.3362 45.8093 56.6665 45.5525 57.0299C45.3188 57.3901 45.1267 57.7096 44.976 57.9883C44.8485 58.2638 44.8109 58.4216 44.8632 58.4616C44.9479 58.5677 45.1565 58.6338 45.4889 58.6597C45.8183 58.6626 46.1776 58.6262 46.5669 58.5505C46.9793 58.4717 47.3048 58.3576 47.5432 58.2082ZM52.1395 65.6285C51.9655 65.5578 51.7847 65.5233 51.5969 65.5249C51.4322 65.5235 51.256 65.5236 51.0683 65.5253C50.885 65.3854 50.7249 65.2423 50.5878 65.0962C50.4707 64.9239 50.3737 64.7255 50.2966 64.5008C50.2549 64.3654 50.261 64.2354 50.3148 64.1107C50.3686 63.986 50.4239 63.8728 50.4808 63.7712C50.55 63.7619 50.6324 63.7626 50.7278 63.7734C50.8201 63.761 50.9124 63.7486 51.0048 63.7362C51.357 63.3836 51.6599 63.014 51.9136 62.6276C52.1873 62.2149 52.4479 61.7923 52.6954 61.3597C52.9598 60.8778 53.1895 60.4006 53.3847 59.928C53.5767 59.4323 53.7195 58.9197 53.8131 58.3902C53.8545 58.1732 53.8728 57.9593 53.8681 57.7484C53.8602 57.5145 53.8901 57.299 53.9577 57.102C54.0591 56.8064 54.1258 56.5155 54.1579 56.2293C54.2101 55.9168 54.2637 55.6159 54.319 55.3265C53.9634 55.3037 53.6918 55.2931 53.504 55.2947C53.3363 55.2702 53.1754 55.2095 53.0214 55.1127C52.8675 55.0158 52.6481 54.869 52.3632 54.6722C52.2968 54.3521 52.3005 54.1166 52.3743 53.9658C52.445 53.7918 52.6473 53.6355 52.9811 53.4967C53.1135 53.432 53.2473 53.3788 53.3827 53.3372C53.515 53.2725 53.6504 53.2308 53.7889 53.2123C54.0398 53.1552 54.2921 53.1096 54.546 53.0756C54.8 53.0416 55.067 53.0175 55.347 53.0035C55.5348 53.0018 55.7241 53.0117 55.915 53.0331C56.1058 53.0546 56.2967 53.076 56.4875 53.0974C56.7045 53.1388 56.9246 53.2033 57.1479 53.2909C57.368 53.3554 57.5866 53.4083 57.8036 53.4498C57.9683 53.4512 58.126 53.4888 58.2769 53.5626C58.4278 53.6363 58.5917 53.7201 58.7688 53.8139C59.2183 54.0121 59.5847 54.292 59.8682 54.6535C60.1485 54.9919 60.3196 55.3919 60.3814 55.8536C60.4773 56.5691 60.4631 57.2525 60.3389 57.9035C60.2822 58.3576 60.2141 58.8132 60.1343 59.2703C60.0777 59.7243 60.0095 60.1799 59.9298 60.6371C59.8776 60.9495 59.824 61.2504 59.7687 61.5398C59.7135 61.8292 59.6829 62.127 59.677 62.4332C59.6648 62.6933 59.6658 62.9634 59.6798 63.2435C59.6938 63.5236 59.6979 63.8168 59.6919 64.1231C59.6027 64.1585 59.5134 64.194 59.4242 64.2294C59.3581 64.2618 59.2704 64.3088 59.1611 64.3704C58.8948 64.3121 58.617 64.2553 58.3276 64.2001C58.0352 64.1218 57.8065 63.9057 57.6416 63.5519C57.6354 63.5057 57.6292 63.4595 57.623 63.4134C57.6369 63.341 57.6376 63.2587 57.6252 63.1664C57.6159 63.0971 57.6066 63.0279 57.5974 62.9586C57.5881 62.8894 57.5788 62.8201 57.5695 62.7509C57.56 62.3292 57.5751 61.916 57.6149 61.5112C57.6515 61.0833 57.7128 60.6639 57.7988 60.2529C57.9216 59.7665 58.0113 59.2963 58.0679 58.8423C58.1215 58.3651 58.1766 57.8995 58.2332 57.4455C58.2747 57.2285 58.293 57.0145 58.2882 56.8037C58.3035 56.5667 58.3087 56.3428 58.304 56.1319C58.293 55.8749 58.1966 55.5941 58.0148 55.2895C57.7593 55.1358 57.4983 55.0297 57.2321 54.9714C56.9627 54.89 56.6749 54.8464 56.3686 54.8404C56.3441 55.0082 56.2865 55.1921 56.1958 55.3923C56.1789 55.4415 56.1767 55.5123 56.189 55.6046C56.1983 55.6739 56.1814 55.7231 56.1383 55.7524C56.0122 55.8633 55.9369 56.0026 55.9124 56.1704C55.9078 56.312 55.9049 56.4651 55.9034 56.6298C55.8958 56.7483 55.8767 56.8684 55.846 56.99C55.8153 57.1116 55.773 57.2347 55.7192 57.3594C55.6393 57.4641 55.5986 57.5988 55.5971 57.7635C55.5926 57.9051 55.5896 58.0582 55.5882 58.2229C55.5884 58.5753 55.5525 58.9208 55.4804 59.2595C55.4083 59.5981 55.3062 59.976 55.1741 60.3931C55.0803 60.5702 54.9996 60.7572 54.932 60.9543C54.8614 61.1282 54.7922 61.3137 54.7246 61.5107C54.7139 61.6062 54.6801 61.7047 54.6233 61.8063C54.5633 61.8848 54.518 61.9849 54.4873 62.1065C54.4028 62.3528 54.3083 62.6122 54.2038 62.8846C54.0962 63.134 53.9625 63.3634 53.8026 63.5728C53.5427 63.9131 53.2844 64.265 53.0276 64.6283C52.7939 64.9886 52.4979 65.322 52.1395 65.6285ZM64.787 64.0395C64.4315 64.0167 64.1037 64.0254 63.8036 64.0656C63.5266 64.1027 63.2565 64.1036 62.9933 64.0684C62.7501 64.007 62.5207 63.8733 62.3051 63.6672C62.0203 63.4704 61.7985 63.2181 61.6398 62.9104C61.478 62.5796 61.3693 62.2065 61.3136 61.791C61.2115 61.0293 61.224 60.1582 61.3511 59.1777C61.4982 58.1711 61.693 57.1699 61.9355 56.174C62.1781 55.1781 62.4199 54.2646 62.6609 53.4333C62.902 52.6021 63.074 51.9564 63.1768 51.4962C63.0966 51.2484 63.1588 51.0991 63.3635 51.0482C63.5912 50.9942 63.8482 50.9832 64.1345 51.0154C64.4177 51.0244 64.6085 51.0459 64.7071 51.0796C64.8672 51.2227 65.0289 51.3772 65.1922 51.5433C65.3523 51.6864 65.4578 51.8602 65.5088 52.0649C65.5859 52.2895 65.5591 52.5281 65.4284 52.7805C65.3209 53.0299 65.2086 53.2447 65.0918 53.4248C64.895 53.7097 64.7037 54.123 64.5178 54.6649C64.3319 55.2067 64.1569 55.8294 63.9927 56.5328C63.8484 57.2101 63.7288 57.8958 63.6339 58.5899C63.5389 59.2841 63.4724 59.9274 63.4343 60.5199C63.4162 61.0863 63.4419 61.5411 63.5113 61.8842C64.1855 62.0054 64.8396 61.9765 65.4735 61.7975C66.1075 61.6186 66.6567 61.3335 67.1212 60.9423C67.6057 60.5249 67.9571 60.0784 68.1753 59.6027C68.4305 59.0516 68.4725 58.576 68.3014 58.176C68.1503 57.7498 67.7369 57.5584 67.0614 57.602C66.712 57.6253 66.3904 57.6801 66.0965 57.7665C65.8026 57.8529 65.4972 57.9408 65.1802 58.0302C64.9939 57.8672 64.8568 57.7211 64.769 57.5919C64.6812 57.4627 64.6165 57.3304 64.5748 57.195C64.5115 56.898 64.5945 56.6401 64.8236 56.4214C65.0728 56.1766 65.3643 55.9848 65.6982 55.8461C66.0552 55.7042 66.3752 55.6379 66.6584 55.6469C67.1293 55.6543 67.6111 55.7425 68.1037 55.9115C68.6194 56.0773 69.0489 56.3017 69.3923 56.5847C69.6017 56.7446 69.7811 56.9438 69.9305 57.1823C70.1 57.3945 70.2132 57.6261 70.2703 57.8769C70.44 58.4416 70.4981 58.9625 70.4445 59.4396C70.3879 59.8937 70.2458 60.3239 70.0183 60.7304C69.6601 61.3893 69.0572 61.9753 68.2095 62.4883C67.385 62.9983 66.6135 63.4658 65.895 63.8911C65.6642 63.922 65.478 63.9352 65.3364 63.9307C65.2148 63.9 65.0317 63.9363 64.787 64.0395ZM75.4267 62.7901C74.7728 62.9952 74.1564 63.0426 73.5777 62.9321C72.9959 62.7986 72.5009 62.5242 72.0928 62.109C71.7047 61.6675 71.4611 61.0775 71.3622 60.3388C71.2001 59.6556 71.1742 58.8484 71.2844 57.9172C71.3915 56.963 71.6025 55.9948 71.9174 55.0127C72.2553 54.0276 72.6449 53.1647 73.0861 52.4242C73.4735 51.8083 73.8671 51.2386 74.2669 50.7151C74.6667 50.1916 75.0405 49.8243 75.3882 49.6132C75.6928 49.4314 75.982 49.3104 76.2559 49.2502C76.5498 49.1638 76.7891 49.1083 76.9738 49.0835C77.3555 49.1264 77.7711 49.2469 78.2206 49.4452C78.6901 49.6172 78.9434 49.8418 78.9805 50.1188C78.9805 50.1188 79.0082 50.1503 79.0637 50.2133C79.1391 50.2502 79.1768 50.2687 79.1768 50.2687C79.3153 50.2501 79.4509 50.3847 79.5834 50.6724C79.739 50.957 79.8547 51.294 79.9303 51.6833C80.0029 52.0495 79.9869 52.3689 79.8825 52.6414C79.8489 53.0923 79.7384 53.4948 79.5508 53.8489C79.3633 54.203 79.1772 54.3924 78.9925 54.4172C78.9002 54.4296 78.8094 54.4535 78.7202 54.4889C78.6509 54.4982 78.624 54.5605 78.6395 54.676C78.655 54.7914 78.5919 54.8468 78.4503 54.8423C78.3318 54.8347 78.1956 54.7824 78.0416 54.6856C77.8846 54.5656 77.759 54.418 77.665 54.2426C77.6496 54.1272 77.6694 53.9248 77.7247 53.6354C77.7799 53.346 77.8243 52.9759 77.8578 52.5249C77.9097 51.8601 77.8425 51.4461 77.6562 51.2831C77.4668 51.097 77.1536 51.1272 76.7167 51.3737C76.1829 51.7742 75.6892 52.2986 75.2356 52.9468C74.8051 53.5919 74.4325 54.4055 74.1176 55.3876C73.7997 56.3466 73.5588 57.5303 73.395 58.9385C73.3277 59.488 73.3318 59.9574 73.4075 60.3467C73.5062 60.733 73.5918 60.933 73.6641 60.9468C73.9997 60.9958 74.4413 60.9601 74.9891 60.8397C75.5338 60.6962 75.9239 60.5382 76.1592 60.3657C76.5038 60.1316 76.8868 59.8335 77.3083 59.4716C77.7267 59.0866 78.0919 58.7439 78.4042 58.4436C78.5103 58.3589 78.6333 58.2249 78.7733 58.0417C78.9132 57.8584 79.0693 57.7083 79.2416 57.5912C79.3892 57.2895 79.5291 57.1062 79.6614 57.0415C79.7937 56.9768 79.9984 56.9259 80.2754 56.8888C80.4662 56.9102 80.6486 56.9562 80.8226 57.0269C80.9965 57.0976 81.1128 57.176 81.1713 57.2622C81.2529 57.3452 81.2291 57.4306 81.0999 57.5184C81.0076 57.5308 80.9545 57.5732 80.9407 57.6455C80.9469 57.6917 80.95 57.7148 80.95 57.7148C81.0085 57.8009 80.9309 58.011 80.7172 58.3451C80.5235 58.6531 80.2652 59.0049 79.9423 59.4006C79.6193 59.7964 79.3017 60.1444 78.9895 60.4447C78.6973 60.7188 78.4819 60.8652 78.3434 60.8837C78.1126 60.9146 78.0065 60.9994 78.025 61.1379C78.0312 61.184 77.8735 61.3226 77.552 61.5537C77.2536 61.7817 76.8975 62.0174 76.4837 62.2608C76.0929 62.5011 75.7406 62.6776 75.4267 62.7901ZM83.7707 60.7557C83.6891 60.6726 83.6044 60.5665 83.5166 60.4373C83.4518 60.305 83.4133 60.1926 83.4009 60.1003C83.3947 60.0541 83.3755 59.998 83.3431 59.9318C83.3338 59.8626 83.283 59.8341 83.1907 59.8465C83.1121 59.7865 83.1227 59.5149 83.2225 59.0316C83.3422 58.5221 83.4988 57.9372 83.6923 57.2768C83.9088 56.6134 84.1285 55.973 84.3513 55.3557C84.594 54.7123 84.796 54.2035 84.9574 53.8294C85.0635 53.7447 85.1204 53.6431 85.128 53.5246C85.1556 53.3799 85.1464 53.3106 85.1002 53.3168C85.1002 53.3168 85.144 53.2052 85.2316 52.982C85.3391 52.7326 85.4229 52.5687 85.4829 52.4901C85.6242 52.1422 85.7194 51.8005 85.7685 51.465C85.8144 51.1064 85.7988 50.8147 85.7217 50.5901C85.6139 50.487 85.5054 50.4663 85.3962 50.528C85.287 50.5896 85.2323 50.6204 85.2323 50.6204C85.1431 50.6559 85.0108 50.7206 84.8354 50.8146C84.68 50.8824 84.5392 50.9717 84.4131 51.0826C83.9317 51.5231 83.5971 51.7442 83.4094 51.7458C83.2185 51.7244 82.9705 51.4522 82.6655 50.9291C82.5391 50.6876 82.4798 50.5075 82.4874 50.389C82.495 50.2705 82.5703 50.1312 82.7133 49.971C82.8764 49.7847 83.0356 49.6576 83.191 49.5898C83.3433 49.4989 83.4609 49.4127 83.544 49.331C83.7763 49.1354 83.9685 48.9922 84.1208 48.9013C84.2962 48.8073 84.4285 48.7426 84.5178 48.7071C85.0932 48.442 85.5964 48.3394 86.0273 48.3991C86.4583 48.4589 86.8101 48.7172 87.0828 49.1741C87.4586 49.5232 87.6805 49.9517 87.7485 50.4595C87.8135 50.9442 87.7277 51.5314 87.4911 52.221L87.2144 52.7868C87.13 53.0331 87.1223 53.1516 87.1916 53.1423C87.2839 53.13 87.377 53.0353 87.4707 52.8582C87.5276 52.7566 87.6475 52.5995 87.8306 52.387C88.0136 52.1745 88.1397 52.0636 88.2089 52.0544C88.2089 52.0544 88.2305 52.0397 88.2735 52.0105C88.3397 51.9781 88.362 51.8811 88.3403 51.7195C88.4003 51.641 88.4602 51.5625 88.5202 51.484C88.6033 51.4023 88.6448 51.3615 88.6448 51.3615C88.7371 51.3492 88.8963 51.2221 89.1224 50.9803C89.3685 50.7124 89.6561 50.4036 89.9852 50.0541C90.2144 49.8354 90.4328 49.7121 90.6406 49.6843C91.1498 49.4515 91.6001 49.5675 91.9913 50.032C92.4055 50.4934 92.6668 51.1281 92.7751 51.936L92.2985 53.9031L93.3408 52.2126C93.4546 52.0094 93.5714 51.8293 93.6914 51.6722C93.8344 51.5121 93.9574 51.3781 94.0605 51.2703C94.085 51.1025 94.1419 51.0009 94.2311 50.9655C94.3204 50.93 94.365 50.9123 94.365 50.9123C94.365 50.9123 94.3881 50.9092 94.4342 50.903C94.4773 50.8737 94.4942 50.8245 94.4849 50.7552C94.588 50.6474 94.7041 50.5496 94.8333 50.4618C94.9594 50.3509 95.0394 50.2462 95.0732 50.1477C95.4439 49.9336 95.7986 49.8625 96.1373 49.9346C96.4728 49.9837 96.7885 50.2351 97.0842 50.6889C97.2829 50.9443 97.4077 51.1743 97.4587 51.3789C97.5096 51.5836 97.5629 51.8936 97.6186 52.3091C97.6188 52.6616 97.6097 52.9447 97.5914 53.1587C97.5931 53.3464 97.5963 53.5457 97.601 53.7566C97.6058 53.9674 97.6098 54.2606 97.6131 54.6361C97.5456 54.8331 97.5141 55.0371 97.5189 55.2479C97.5467 55.4557 97.573 55.6519 97.5978 55.8365C97.638 56.1366 97.6773 56.3428 97.7159 56.4551C97.7513 56.5444 97.8499 56.5782 98.0114 56.5565C98.3253 56.444 98.7423 56.2236 99.2622 55.8955C99.8022 55.5412 100.194 55.2185 100.437 54.9275C100.74 54.5579 101.018 54.3561 101.272 54.3221C101.546 54.2619 101.736 54.3656 101.842 54.6334C101.901 54.7195 101.848 54.9381 101.683 55.2891C101.542 55.637 101.365 55.978 101.151 56.3121C100.96 56.6431 100.807 56.8163 100.692 56.8318C100.623 56.8411 100.551 56.9212 100.477 57.072C100.4 57.1998 100.309 57.3061 100.203 57.3908C100.063 57.574 99.9214 57.7457 99.7783 57.9059C99.6584 58.0629 99.5061 58.1538 99.3214 58.1786C99.2291 58.1909 99.1183 58.241 98.9891 58.3288C98.8799 58.3905 98.7445 58.4321 98.5829 58.4537C98.3613 58.5539 97.9989 58.5672 97.4956 58.4937C97.0154 58.4171 96.672 58.1341 96.4655 57.6448C96.3391 57.4033 96.2042 57.0102 96.0607 56.4654C95.9141 55.8977 95.8483 55.319 95.8634 54.7296C95.9 54.3017 95.9067 53.9131 95.8834 53.5638C95.8601 53.2144 95.8738 52.9659 95.9244 52.8181C95.9152 52.7489 95.8935 52.5873 95.8595 52.3334C95.8224 52.0564 95.7692 51.9225 95.6999 51.9318C95.6076 51.9442 95.4115 52.1467 95.1117 52.5393C94.8318 52.9058 94.4951 53.3738 94.1015 53.9435C93.7309 54.5101 93.3635 55.0998 92.9991 55.7126C92.6348 56.3253 92.3435 56.8695 92.1253 57.3452C91.9515 57.627 91.8086 57.9633 91.6965 58.3543C91.5845 58.7453 91.4969 58.9685 91.4338 59.024C91.297 59.2303 91.1039 59.2796 90.8545 59.1721C90.6282 59.0614 90.4026 58.8684 90.1777 58.5931C90.0899 58.4639 90.0283 58.3546 89.9928 58.2654C89.9543 58.1531 89.9342 58.003 89.9325 57.8153C89.9508 57.6013 89.9914 57.2904 90.0542 56.8826C90.1402 56.4716 90.2506 55.8929 90.3855 55.1464C90.5343 54.3275 90.6593 53.5941 90.7604 52.9461C90.8815 52.2719 90.9421 51.9349 90.9421 51.9349C90.9298 51.8425 90.769 51.9581 90.4599 52.2815C90.1476 52.5818 89.787 52.959 89.3779 53.4133C89.2042 53.6951 88.909 54.1223 88.4923 54.6951C88.0756 55.2679 87.622 55.9161 87.1315 56.6398C86.6411 57.3634 86.1783 58.1186 85.7433 58.9053C85.2007 59.9414 84.8048 60.5819 84.5556 60.8267C84.3296 61.0685 84.0679 61.0448 83.7707 60.7557ZM105.731 47.2745C105.98 46.6773 106.18 46.0631 106.33 45.432C106.504 44.7978 106.726 44.1805 106.998 43.5801C107.2 43.1537 107.391 42.7403 107.572 42.3401C107.777 41.9367 107.957 41.5249 108.112 41.1047C108.129 41.0554 108.135 41.0193 108.132 40.9962C108.149 40.9469 108.168 40.9092 108.188 40.883C108.445 40.5196 108.739 40.1747 109.071 39.8482C109.4 39.4987 109.695 39.1537 109.955 38.8135C110.075 38.6564 110.221 38.5193 110.393 38.4023C110.562 38.2621 110.735 38.145 110.91 38.051C111.019 37.9894 111.138 37.997 111.265 38.0739C111.416 38.1477 111.501 38.2538 111.52 38.3923C111.591 38.9232 111.508 39.5335 111.271 40.2231C111.035 40.9127 110.758 41.4785 110.441 41.9204C110.245 42.2052 110.061 42.5001 109.89 42.8049C109.743 43.1066 109.571 43.3999 109.374 43.6848C109.16 44.0189 108.829 44.4392 108.38 44.9459C107.931 45.4525 107.465 45.926 106.984 46.3665C106.503 46.807 106.085 47.1096 105.731 47.2745ZM106.919 49.3006C106.93 49.5576 107.01 49.8054 107.159 50.0438C107.309 50.2823 107.473 50.5423 107.652 50.8238C107.83 51.1053 107.968 51.4276 108.063 51.7908C108.182 52.1508 108.206 52.594 108.136 53.1204C108.084 53.4329 108.011 53.7715 107.919 54.1363C107.827 54.5011 107.73 54.8313 107.629 55.1268C107.595 55.2254 107.502 55.4024 107.348 55.658C107.214 55.8874 107.069 56.1183 106.912 56.3508C106.778 56.5802 106.681 56.7342 106.621 56.8127C106.541 56.9174 106.414 56.9344 106.24 56.8637C106.067 56.7931 105.95 56.7146 105.892 56.6285C105.742 56.3901 105.596 55.9985 105.452 55.4538C105.306 54.886 105.225 54.462 105.211 54.1819C105.207 53.9711 105.196 53.6317 105.181 53.1639C105.165 52.696 105.169 52.202 105.194 51.6818C105.218 51.1616 105.263 50.7091 105.329 50.3243C105.415 49.9134 105.556 49.6478 105.751 49.5276C105.966 49.3813 106.195 49.2449 106.436 49.1186C106.675 48.9691 106.905 48.8443 107.126 48.7442C107.503 48.5762 107.845 48.3189 108.151 47.9725C108.48 47.6229 108.817 47.331 109.161 47.0969C109.378 46.7859 109.624 46.5179 109.9 46.293C110.195 46.042 110.439 45.7625 110.633 45.4546C110.75 45.2744 110.858 45.1189 110.958 44.988C111.081 44.8541 111.214 44.707 111.357 44.5469C111.503 44.4098 111.599 44.2443 111.643 44.0504C111.711 43.8533 111.842 43.6947 112.038 43.5745C112.062 43.4068 112.128 43.2805 112.234 43.1958C112.337 43.088 112.402 42.9618 112.43 42.8171C112.525 42.4754 112.659 42.1636 112.833 41.8819C113.027 41.574 113.16 41.2507 113.232 40.9121C113.318 40.5011 113.431 40.0278 113.57 39.4921C113.733 38.9534 113.674 38.5148 113.394 38.1764C113.029 37.7318 112.609 37.4005 112.133 37.1822C111.677 36.9378 111.381 36.7426 111.244 36.5965C111.191 36.5565 111.142 36.5396 111.096 36.5458C111.047 36.5289 110.997 36.512 110.948 36.4951C110.908 36.5474 110.84 36.5682 110.745 36.5575C110.673 36.5437 110.603 36.553 110.537 36.5854C110.182 36.5625 109.812 36.6943 109.427 36.9808C109.063 37.2412 108.754 37.4822 108.502 37.704C107.51 38.5419 106.672 39.5705 105.99 40.7898C105.304 41.986 104.745 43.2476 104.312 44.5745C103.902 45.8983 103.581 47.1867 103.349 48.4396C103.194 48.5074 103.037 48.5637 102.879 48.6084C102.743 48.65 102.596 48.6932 102.438 48.738C102.427 48.8334 102.406 48.9419 102.376 49.0635C102.345 49.1851 102.314 49.3067 102.283 49.4283C102.424 49.5975 102.552 49.7683 102.669 49.9405C102.81 50.1097 102.98 50.2397 103.18 50.3304C103.048 50.7475 102.966 51.2754 102.934 51.9141C102.925 52.5498 102.951 53.1807 103.011 53.8071C103.072 54.4334 103.133 54.9774 103.195 55.4391C103.21 55.5545 103.247 55.6553 103.306 55.7414C103.387 55.8245 103.424 55.9252 103.417 56.0437C103.411 56.35 103.516 56.7001 103.734 57.0939C103.974 57.4847 104.243 57.8246 104.54 58.1137C104.86 58.3998 105.124 58.5289 105.332 58.5011C105.609 58.4639 105.923 58.5276 106.274 58.6921C106.648 58.8534 106.974 58.8332 107.253 58.6314C107.425 58.5143 107.59 58.4334 107.749 58.3887C107.927 58.3178 108.091 58.2253 108.24 58.1113C108.473 57.9157 108.723 57.5885 108.99 57.1297C109.281 56.6679 109.49 56.2991 109.617 56.0236C109.819 55.5971 109.948 55.1569 110.004 54.7029C110.058 54.2257 110.124 53.7586 110.204 53.3015C110.279 52.9859 110.269 52.6466 110.173 52.2834C110.101 51.9172 110.08 51.6733 110.111 51.5517C110.063 51.3701 110.005 51.2016 109.937 51.0462C109.866 50.8677 109.797 50.7008 109.729 50.5454C109.629 50.3239 109.471 50.11 109.255 49.904C109.06 49.6717 108.89 49.4594 108.747 49.2671C108.51 49.2519 108.273 49.2367 108.036 49.2214C107.819 49.18 107.594 49.1632 107.36 49.1711C107.294 49.2034 107.216 49.2374 107.127 49.2728C107.057 49.2821 106.988 49.2914 106.919 49.3006ZM116.105 56.3879C115.633 56.5451 115.326 56.6215 115.184 56.617C115.063 56.5863 114.859 56.4725 114.575 56.2757C114.18 56.1406 113.838 55.9515 113.547 55.7085C113.279 55.4624 113.067 55.1971 112.912 54.9125C112.776 54.6017 112.706 54.3409 112.701 54.13C112.662 53.3129 112.742 52.4209 112.942 51.4543C113.141 50.4877 113.414 49.5464 113.762 48.6305C114.109 47.7146 114.508 46.9209 114.958 46.2497C115.429 45.5522 115.905 45.0771 116.388 44.8244C116.825 44.5779 117.255 44.4498 117.676 44.4403C118.098 44.4308 118.428 44.6099 118.665 44.9776C119.101 45.6006 119.077 46.0384 118.594 46.2912C118.525 46.3004 118.449 46.3459 118.366 46.4275C118.279 46.486 118.243 46.5615 118.255 46.6538C118.353 46.6876 118.609 46.6651 119.021 46.5864C119.431 46.4845 119.837 46.3596 120.24 46.2116C120.663 46.0374 120.936 45.8833 121.059 45.7494C121.188 45.6616 121.288 45.613 121.357 45.6037C121.426 45.5945 121.602 45.5943 121.886 45.6034C122.293 45.6662 122.508 45.7784 122.53 45.94C122.542 46.0324 122.589 46.12 122.671 46.2031C122.749 46.2631 122.835 46.2869 122.927 46.2745C123.092 46.2759 123.083 46.3829 122.9 46.5954C122.74 46.8048 122.451 47.102 122.032 47.487C121.631 47.8228 121.378 48.0446 121.275 48.1524C121.192 48.234 121.203 48.3971 121.306 48.6418C121.549 49.0556 121.629 49.5619 121.545 50.1606C121.46 50.7593 121.251 51.3866 120.916 52.0424C120.58 52.6983 120.148 53.3319 119.619 53.9432C119.11 54.5283 118.546 55.0504 117.926 55.5094C117.326 55.9423 116.719 56.2351 116.105 56.3879ZM115.312 54.9432C115.405 54.9309 115.56 54.8631 115.779 54.7398C115.994 54.5935 116.166 54.4764 116.295 54.3886C116.375 54.2839 116.477 54.1645 116.6 54.0306C116.743 53.8704 116.859 53.7726 116.948 53.7371C117.041 53.7248 117.151 53.6747 117.281 53.5869C117.407 53.476 117.58 53.2766 117.8 52.9886C118.016 52.6776 118.297 52.2288 118.641 51.6422C119.035 51.0726 119.331 50.5629 119.529 50.1134C119.724 49.6408 119.739 49.2276 119.575 48.8737C119.539 48.7845 119.462 48.7361 119.344 48.7284C119.248 48.7177 119.113 48.677 118.94 48.6064C118.709 48.6373 118.482 48.609 118.258 48.5214C118.055 48.4076 117.813 48.2639 117.531 48.0902L116.884 47.4719L116.374 48.1394C116.055 48.5582 115.736 49.1648 115.42 49.9591C115.123 50.7273 114.888 51.5108 114.713 52.3096C114.535 53.0854 114.452 53.6957 114.465 54.1404C114.488 54.4898 114.577 54.7129 114.731 54.8097C114.884 54.9066 115.078 54.9511 115.312 54.9432Z" fill="#F5A925"/>
</svg>
