<svg width="139" height="86" viewBox="0 0 139 86" fill="none" xmlns="http://www.w3.org/2000/svg">
<path d="M30.5046 49.9043C30.0889 49.8017 29.8293 49.6404 29.7257 49.4204C29.6222 49.2005 29.6084 48.8728 29.6846 48.4375C29.7607 48.0023 29.8392 47.4254 29.9201 46.7068C29.9581 46.4892 29.9888 46.1431 30.0119 45.6687C30.0317 45.1712 30.0578 44.6374 30.0902 44.0674C30.1456 43.4939 30.1965 42.9683 30.2427 42.4904C30.2889 42.0125 30.346 41.686 30.414 41.511L31.4676 36.514L32.9695 28.3769C32.9812 27.6686 33.0822 27.0059 33.2724 26.3887C33.4626 25.7716 33.5071 25.2821 33.4059 24.9205C33.3783 24.7363 33.4826 24.5676 33.7187 24.4145C33.9548 24.2614 34.2358 24.1722 34.5617 24.147C34.8876 24.1218 35.1484 24.2123 35.3441 24.4185C35.5295 24.5556 35.6723 24.7226 35.7724 24.9195C35.8725 25.1165 35.8943 25.4194 35.8377 25.8282L35.0077 28.7782L34.6996 30.7318C34.5658 31.4112 34.4567 32.0987 34.3724 32.7942C34.2847 33.4667 34.1624 34.1444 34.0056 34.8272C33.8027 35.5169 33.617 36.3218 33.4486 37.2419C33.2802 38.162 33.0541 39.3261 32.7704 40.7344C32.6516 41.1996 32.5507 41.8623 32.4675 42.7225C32.3843 43.5827 32.3126 44.4412 32.2525 45.298C32.1889 46.1317 32.1109 46.791 32.0186 47.2758C32.0865 47.5717 32.0686 47.8452 31.9648 48.0962C31.8876 48.3668 31.8731 48.6634 31.9214 48.9858C31.9651 49.1206 31.9184 49.2806 31.7813 49.466C31.6442 49.6514 31.4639 49.7843 31.2405 49.8649C31.0205 49.9684 30.7752 49.9816 30.5046 49.9043ZM25.4342 40.8081C24.3816 41.0128 23.4356 40.9071 22.5962 40.4911C21.7799 40.0717 21.2555 39.479 21.0231 38.7131C20.9047 38.2364 20.8433 37.6686 20.8389 37.0099C20.854 36.3247 20.8842 35.6608 20.9293 35.0183C20.994 34.3492 21.0466 33.835 21.087 33.4758C21.0928 33.3572 21.1338 33.0802 21.2099 32.6449C21.2826 32.1866 21.3599 31.6805 21.4418 31.1266C21.5434 30.5463 21.6322 30.0385 21.7083 29.6032C21.8075 29.1645 21.8634 28.9088 21.8761 28.8363C22.3764 27.3014 22.6946 26.1234 22.8308 25.3024C22.9669 24.4813 23.0742 23.7824 23.1527 23.2054C23.1482 23.0177 23.2611 22.9066 23.4914 22.8722C23.8138 22.8239 24.1518 22.8793 24.5053 23.0383C24.8588 23.1973 25.1386 23.4145 25.3446 23.6898C25.5702 23.9386 25.6197 24.1903 25.4929 24.4447C25.3604 24.8178 25.2169 25.2749 25.0624 25.8161C24.9044 26.3343 24.7465 26.8524 24.5886 27.3706C24.4537 27.8853 24.32 28.3292 24.1874 28.7023L23.4471 31.7802C23.3514 32.242 23.2729 32.8189 23.2116 33.511C23.1734 34.1996 23.0817 34.7667 22.9365 35.2124C22.941 35.4001 22.8983 35.6655 22.8084 36.0086C22.7415 36.3483 22.6878 36.6978 22.6474 37.0571C22.6266 37.3899 22.6927 37.6744 22.8458 37.9105C23.1289 38.3862 23.4271 38.6477 23.7403 38.695C24.0766 38.7389 24.4635 38.728 24.9011 38.6625C25.546 38.566 26.2423 38.2616 26.9898 37.7494C27.7339 37.2142 28.4642 36.5868 29.1807 35.8673C29.9168 35.1213 30.5838 34.3856 31.1817 33.6603C31.7796 32.935 32.2416 32.3242 32.5676 31.828L33.4015 33.1515C33.2978 33.4025 33.0305 33.8193 32.5997 34.4018C32.1884 34.9579 31.6705 35.5888 31.0461 36.2945C30.4183 36.9772 29.7542 37.6536 29.0538 38.3236C28.3765 38.9901 27.7199 39.5594 27.0841 40.0313C26.4448 40.4802 25.8949 40.7392 25.4342 40.8081ZM45.2187 44.9821C44.9539 44.7863 44.6771 44.5098 44.3881 44.1527C44.0957 43.7726 43.8408 43.328 43.6233 42.8189C43.5497 42.6416 43.4887 42.3916 43.4404 42.0692C43.4152 41.7433 43.3807 41.513 43.337 41.3782C43.2921 41.5498 43.2027 41.7398 43.0691 41.9482C42.955 42.1301 42.8375 42.289 42.7166 42.4248C42.6382 42.5307 42.4585 42.746 42.1774 43.0707C41.8929 43.3723 41.6015 43.6279 41.3031 43.8373C40.6154 44.4348 40.0217 44.7945 39.5219 44.9164C39.0451 45.0349 38.5465 44.8504 38.0261 44.3632C37.6128 44.1189 37.2979 43.8246 37.0815 43.4802C36.8882 43.1323 36.8123 42.6256 36.854 41.96C36.7794 41.147 36.7774 40.3466 36.8478 39.559C36.9149 38.7483 37.1398 37.6549 37.5226 36.2789C37.8649 35.2621 38.13 34.516 38.3179 34.0405C38.5023 33.5419 38.6221 33.2414 38.6774 33.1389C39.0057 32.972 39.2953 32.9404 39.5463 33.0442C39.7939 33.1248 39.9649 33.323 40.0592 33.6385C40.2319 33.8482 40.2674 34.2432 40.1659 34.8235C40.0874 35.4005 39.9012 36.123 39.6073 36.9912C39.402 37.8226 39.2198 38.6505 39.0606 39.475C38.9245 40.2961 38.8748 40.9864 38.9114 41.5461C38.9481 42.1058 39.1363 42.4191 39.476 42.486C39.7005 42.5701 40.0524 42.4821 40.5315 42.222C41.0337 41.9585 41.5521 41.4099 42.0867 40.5763C42.6443 39.7393 43.122 38.5257 43.5198 36.9355C43.6351 36.4472 43.713 36.0235 43.7534 35.6642C43.7904 35.2819 43.7876 34.8702 43.7452 34.4291C43.6577 34.1596 43.633 33.916 43.6711 33.6984C43.7288 33.4543 43.8837 33.2309 44.136 33.0283C44.2109 32.8994 44.322 32.7768 44.4695 32.6605C44.6135 32.5212 44.7171 32.5057 44.7804 32.614L45.328 32.4967C45.4167 32.4599 45.4829 32.5088 45.5266 32.6436C45.5899 32.7518 45.6861 32.8434 45.815 32.9183C46.0994 33.0877 46.2357 33.5265 46.224 34.2347C46.2123 34.9429 46.0346 35.9586 45.691 37.2816C45.3947 38.2915 45.2022 39.0503 45.1133 39.5581C45.0475 40.0625 45.0376 40.5467 45.0835 41.0108C45.1456 41.4254 45.2848 41.8049 45.5012 42.1493C45.7176 42.4937 46.0209 42.7897 46.4112 43.0375C46.6887 43.1608 46.8545 43.3243 46.9086 43.5282C46.9856 43.7286 47.0334 43.9687 47.0517 44.2485C47.0367 44.4627 46.9243 44.6562 46.7147 44.8288C46.5246 44.975 46.2914 45.0688 46.015 45.1102C45.7386 45.1516 45.4732 45.1089 45.2187 44.9821ZM52.4315 43.5846C51.7808 43.7997 51.1653 43.8566 50.5849 43.755C50.0011 43.6305 49.502 43.3637 49.0875 42.9548C48.6927 42.5194 48.4401 41.9331 48.3298 41.1961C48.1573 40.5154 48.1189 39.7087 48.2148 38.776C48.3072 37.8202 48.5033 36.8489 48.803 35.8621C49.1258 34.8718 49.5021 34.0031 49.9318 33.2558C50.3098 32.6341 50.6946 32.0584 51.0863 31.5288C51.478 30.9992 51.846 30.6262 52.1904 30.4098C52.4922 30.2234 52.7796 30.0979 53.0525 30.0335C53.345 29.9427 53.5834 29.8834 53.7677 29.8558C54.15 29.8928 54.5674 30.007 55.0199 30.1983C55.492 30.3631 55.7488 30.5837 55.7901 30.8601C55.7901 30.8601 55.8183 30.8912 55.8747 30.9534C55.9507 30.9891 55.9887 31.007 55.9887 31.007C56.1269 30.9863 56.2645 31.1188 56.4014 31.4044C56.5614 31.6866 56.6822 32.0217 56.7639 32.4099C56.8421 32.7749 56.831 33.0945 56.7308 33.3685C56.7041 33.82 56.5998 34.2241 56.4177 34.5811C56.2357 34.938 56.0525 35.1302 55.8682 35.1578C55.7761 35.1716 55.6857 35.1969 55.597 35.2337C55.5279 35.2441 55.502 35.3068 55.5192 35.422C55.5365 35.5372 55.4743 35.5936 55.3326 35.5912C55.214 35.5854 55.077 35.5353 54.9215 35.4408C54.7627 35.3233 54.6349 35.1776 54.5382 35.0037C54.521 34.8885 54.5377 34.6858 54.5885 34.3956C54.6392 34.1055 54.6779 33.7347 54.7046 33.2833C54.7462 32.6177 54.6727 32.2048 54.4839 32.0447C54.2916 31.8615 53.9789 31.8965 53.5459 32.1497C53.0183 32.5584 52.5327 33.0903 52.0892 33.7454C51.6686 34.397 51.3085 35.2163 51.0088 36.2031C50.7056 37.1669 50.483 38.3541 50.3409 39.7647C50.282 40.3152 50.2934 40.7844 50.375 41.1725C50.4797 41.5572 50.5683 41.7559 50.6408 41.7686C50.9771 41.8124 51.4182 41.77 51.964 41.6412C52.5065 41.4893 52.894 41.3253 53.1267 41.1492C53.4677 40.9098 53.8461 40.6059 54.2619 40.2375C54.6743 39.8461 55.0343 39.4979 55.3418 39.1928C55.4467 39.1065 55.5676 38.9706 55.7047 38.7853C55.8418 38.5999 55.9956 38.4474 56.1661 38.3277C56.309 38.0237 56.4461 37.8383 56.5774 37.7716C56.7087 37.7048 56.9125 37.6508 57.1889 37.6094C57.3801 37.6279 57.5631 37.6711 57.7382 37.7391C57.9132 37.8071 58.0306 37.8837 58.0905 37.969C58.1734 38.0508 58.1509 38.1365 58.023 38.2263C57.9309 38.2401 57.8785 38.2833 57.8658 38.3558C57.8727 38.4019 57.8761 38.4249 57.8761 38.4249C57.936 38.5102 57.8616 38.7215 57.6531 39.0588C57.4641 39.3697 57.2113 39.7254 56.8944 40.1261C56.5776 40.5267 56.2654 40.8796 55.9579 41.1847C55.6699 41.4633 55.4568 41.6129 55.3186 41.6336C55.0883 41.6681 54.9835 41.7544 55.0041 41.8926C55.011 41.9387 54.8555 42.0797 54.5376 42.3156C54.2427 42.5482 53.8903 42.7893 53.4802 43.0391C53.0932 43.2854 52.7437 43.4672 52.4315 43.5846ZM60.7433 41.4221C60.6604 41.3403 60.5741 41.2355 60.4843 41.1077C60.4175 40.9764 60.3773 40.8646 60.3635 40.7725C60.3566 40.7264 60.3364 40.6706 60.3031 40.6049C60.2927 40.5358 60.2415 40.5082 60.1493 40.522C60.0699 40.4632 60.0763 40.1914 60.1686 39.7067C60.2805 39.1954 60.4281 38.6081 60.6114 37.9449C60.8177 37.2782 61.0275 36.6345 61.2407 36.0139C61.4736 35.3668 61.6678 34.8549 61.8234 34.4784C61.9282 34.3921 61.9835 34.2896 61.9893 34.171C62.0147 34.0259 62.0043 33.9568 61.9583 33.9637C61.9583 33.9637 62.0003 33.8514 62.0845 33.6269C62.1882 33.3759 62.2694 33.2107 62.3282 33.1312C62.4642 32.7812 62.5541 32.438 62.598 32.1018C62.6384 31.7425 62.6183 31.4512 62.5378 31.2277C62.4284 31.1264 62.3196 31.1073 62.2113 31.1706C62.1031 31.2339 62.0489 31.2656 62.0489 31.2656C61.9602 31.3024 61.8289 31.3691 61.655 31.4658C61.5007 31.536 61.3613 31.6275 61.2369 31.7403C60.7623 32.1882 60.4312 32.4143 60.2435 32.4189C60.0523 32.4004 59.8002 32.132 59.4871 31.6137C59.3571 31.3741 59.2949 31.195 59.3007 31.0764C59.3065 30.9578 59.3797 30.8173 59.5202 30.655C59.6804 30.4662 59.8376 30.3367 59.9919 30.2665C60.1428 30.1733 60.2592 30.0852 60.341 30.0023C60.5702 29.8032 60.7602 29.657 60.9111 29.5638C61.085 29.4671 61.2163 29.4003 61.305 29.3635C61.8763 29.0896 62.3779 28.9792 62.8097 29.0323C63.2415 29.0854 63.5973 29.3383 63.877 29.791C64.258 30.1343 64.4865 30.5593 64.5623 31.066C64.6347 31.5497 64.558 32.1381 64.332 32.8313L64.0641 33.4012C63.9834 33.6488 63.9776 33.7674 64.0467 33.7571C64.1388 33.7433 64.2304 33.6472 64.3215 33.4687C64.3768 33.3662 64.4943 33.2073 64.674 32.9921C64.8537 32.7768 64.9781 32.6639 65.0472 32.6536C65.0472 32.6536 65.0685 32.6386 65.1111 32.6087C65.1768 32.5753 65.1976 32.478 65.1734 32.3168C65.2322 32.2374 65.2909 32.1579 65.3497 32.0785C65.4315 31.9956 65.4724 31.9542 65.4724 31.9542C65.5645 31.9404 65.7217 31.8109 65.9441 31.5656C66.186 31.2939 66.4688 30.9808 66.7925 30.6262C67.0183 30.404 67.2348 30.2774 67.4421 30.2464C67.9477 30.0059 68.3997 30.1148 68.798 30.5733C69.2193 31.0283 69.4903 31.6589 69.611 32.465L69.1647 34.4393L70.1809 32.733C70.2916 32.528 70.4056 32.3461 70.5231 32.1872C70.6637 32.0249 70.7846 31.889 70.886 31.7797C70.9079 31.6115 70.9633 31.5091 71.0519 31.4723C71.1406 31.4354 71.185 31.417 71.185 31.417C71.185 31.417 71.208 31.4136 71.2541 31.4067C71.2967 31.3767 71.3128 31.3272 71.3025 31.2581C71.4039 31.1488 71.5185 31.0492 71.6463 30.9594C71.7707 30.8466 71.8491 30.7407 71.8813 30.6416C72.2488 30.4218 72.6023 30.3453 72.942 30.4122C73.2783 30.4561 73.5978 30.7026 73.9005 31.1519C74.1031 31.4041 74.2314 31.6322 74.2855 31.836C74.3395 32.0399 74.3976 32.3491 74.4596 32.7637C74.4653 33.1161 74.4606 33.3994 74.4456 33.6135C74.4501 33.8012 74.4564 34.0005 74.4644 34.2112C74.4724 34.422 74.4809 34.715 74.49 35.0905C74.4255 35.2885 74.3972 35.4929 74.4052 35.7037C74.4362 35.9109 74.4655 36.1067 74.4931 36.291C74.5379 36.5904 74.5804 36.796 74.6207 36.9077C74.6575 36.9964 74.7566 37.0287 74.9178 37.0045C75.2299 36.8872 75.6434 36.6604 76.1583 36.3243C76.6927 35.9618 77.0792 35.6331 77.3176 35.3384C77.6149 34.9642 77.8902 34.7582 78.1435 34.7202C78.4165 34.6558 78.6082 34.7566 78.7186 35.0227C78.7785 35.1079 78.7289 35.3273 78.5699 35.6808C78.4339 36.0308 78.2616 36.3745 78.0531 36.7119C77.8676 37.0458 77.7172 37.2213 77.6021 37.2386C77.533 37.2489 77.4627 37.3301 77.3912 37.4821C77.3163 37.611 77.2265 37.7187 77.1217 37.805C76.9846 37.9904 76.8457 38.1642 76.7052 38.3265C76.5877 38.4854 76.4368 38.5786 76.2525 38.6062C76.1604 38.62 76.0504 38.6718 75.9226 38.7616C75.8143 38.8249 75.6795 38.8686 75.5183 38.8927C75.2983 38.9963 74.9362 39.0152 74.4318 38.9494C73.9504 38.8801 73.6027 38.6025 73.3887 38.1165C73.2587 37.8769 73.1177 37.4859 72.9659 36.9435C72.8106 36.378 72.7359 35.8004 72.7419 35.2108C72.7719 34.7824 72.7726 34.3938 72.744 34.0448C72.7153 33.6959 72.7251 33.4472 72.7736 33.2986C72.7632 33.2295 72.7391 33.0683 72.7012 32.8149C72.6598 32.5385 72.6046 32.4055 72.5355 32.4159C72.4433 32.4297 72.2504 32.6352 71.9566 33.0324C71.6824 33.4031 71.3529 33.8763 70.9681 34.4519C70.6063 35.0242 70.248 35.6194 69.8931 36.2377C69.5382 36.856 69.2553 37.4046 69.0444 37.8836C68.8751 38.168 68.7373 38.5065 68.6313 38.8992C68.5252 39.2919 68.4411 39.5164 68.3789 39.5728C68.2452 39.7812 68.0529 39.8335 67.8019 39.7298C67.5739 39.6226 67.3454 39.4331 67.1163 39.1613C67.0265 39.0334 66.9632 38.9252 66.9264 38.8365C66.8861 38.7248 66.8637 38.575 66.8591 38.3873C66.8742 38.1731 66.91 37.8617 66.9665 37.4529C67.0461 37.0406 67.1476 36.4603 67.2711 35.7118C67.4073 34.8907 67.5209 34.1555 67.6121 33.506C67.7229 32.8301 67.7782 32.4921 67.7782 32.4921C67.7645 32.4 67.6055 32.518 67.3014 32.8461C66.9938 33.1511 66.639 33.5339 66.237 33.9944C66.0676 34.2788 65.779 34.7106 65.3711 35.2897C64.9633 35.8688 64.5197 36.5239 64.0404 37.255C63.5611 37.9861 63.1101 38.7483 62.6872 39.5416C62.1606 40.5859 61.7746 41.2324 61.5292 41.4811C61.3069 41.7263 61.0449 41.7067 60.7433 41.4221ZM83.5165 37.9782C83.0466 38.1427 82.7408 38.2238 82.5992 38.2214C82.4771 38.1926 82.2722 38.082 81.9844 37.8896C81.5883 37.7605 81.2428 37.5767 80.9481 37.3382C80.6764 37.0963 80.4606 36.8343 80.3006 36.5521C80.1602 36.2434 80.086 35.9837 80.078 35.773C80.0264 34.9565 80.0929 34.0634 80.2775 33.0939C80.4621 32.1243 80.7209 31.1789 81.054 30.2578C81.3871 29.3366 81.7737 28.5369 82.2138 27.8588C82.6735 27.1542 83.1429 26.6718 83.6221 26.4117C84.0552 26.1585 84.4824 26.0239 84.9039 26.0079C85.3254 25.9919 85.6576 26.1659 85.9005 26.5299C86.3459 27.1461 86.3291 27.5843 85.8499 27.8444C85.7808 27.8547 85.7054 27.9014 85.6236 27.9843C85.5384 28.0441 85.5027 28.1201 85.5164 28.2122C85.6155 28.2445 85.8706 28.2181 86.2817 28.133C86.6894 28.0249 87.0936 27.8937 87.4944 27.7396C87.9148 27.5589 88.1855 27.4006 88.3065 27.2648C88.4343 27.175 88.5328 27.1249 88.6019 27.1146C88.671 27.1043 88.8472 27.1014 89.1305 27.1061C89.5393 27.1627 89.7557 27.2716 89.7799 27.4328C89.7936 27.5249 89.842 27.6119 89.9249 27.6937C90.0043 27.7524 90.0901 27.7749 90.1822 27.7611C90.3469 27.76 90.3394 27.8671 90.1597 28.0824C90.003 28.2943 89.7184 28.5959 89.3061 28.9873C88.9098 29.3292 88.661 29.5548 88.5596 29.6642C88.4778 29.7471 88.4904 29.91 88.5975 30.153C88.8472 30.5631 88.9346 31.0681 88.8595 31.668C88.7845 32.268 88.5845 32.8984 88.2596 33.5593C87.9346 34.2202 87.5123 34.8604 86.9928 35.4798C86.4928 36.0727 85.9364 36.6034 85.3236 37.0719C84.7304 37.5139 84.1281 37.816 83.5165 37.9782ZM82.7016 36.5459C82.7938 36.5321 82.9481 36.4619 83.1646 36.3353C83.3777 36.1857 83.5482 36.066 83.6761 35.9762C83.7544 35.8703 83.8541 35.7494 83.975 35.6135C84.1156 35.4512 84.2302 35.3516 84.3189 35.3148C84.411 35.301 84.521 35.2492 84.6488 35.1595C84.7732 35.0466 84.9432 34.8446 85.1586 34.5533C85.3706 34.239 85.6442 33.7859 85.9795 33.1941C86.3643 32.6185 86.6524 32.1044 86.8437 31.6519C87.0316 31.1763 87.0403 30.7629 86.87 30.4116C86.8332 30.3229 86.7555 30.2757 86.6369 30.2699C86.5413 30.2606 86.406 30.222 86.231 30.154C86.0006 30.1885 85.7732 30.1637 85.5487 30.0795C85.3437 29.9689 85.0991 29.8289 84.8147 29.6595L84.1585 29.0513L83.659 29.7266C83.3457 30.1502 83.0369 30.7616 82.7326 31.5607C82.4479 32.3334 82.2242 33.1204 82.0616 33.9218C81.8955 34.7003 81.8222 35.3117 81.8417 35.7562C81.8703 36.1052 81.9624 36.3269 82.1178 36.4214C82.2733 36.5158 82.4679 36.5574 82.7016 36.5459ZM92.5992 36.2301C92.3217 36.1068 92.0604 35.934 91.8152 35.7117C91.5665 35.4663 91.4111 35.1363 91.3491 34.7218C91.3146 34.4914 91.3021 34.093 91.3115 33.5264C91.3208 32.9598 91.3544 32.319 91.4123 31.6039C91.4701 30.8887 91.5348 30.2197 91.6064 29.5967C91.7746 29.1477 91.9083 28.7038 92.0075 28.265C92.1067 27.8263 92.1494 27.5609 92.1356 27.4688C92.1403 27.1855 92.1496 26.8544 92.1636 26.4755C92.2005 26.0932 92.2427 25.7454 92.29 25.4322C92.3373 25.119 92.3805 24.9359 92.4197 24.883C92.5176 24.7506 92.6455 24.6608 92.8033 24.6136C92.9576 24.5434 93.1223 24.5423 93.2973 24.6103C93.4919 24.6518 93.6525 24.7809 93.7791 24.9974C94.0738 25.2359 94.2505 25.5509 94.3091 25.9424C94.3643 26.311 94.3203 26.8827 94.1773 27.6577C94.039 28.1494 93.9127 28.7217 93.7985 29.3746C93.6842 30.0275 93.5862 30.6309 93.5042 31.1848C93.4419 31.7122 93.413 32.0697 93.4175 32.2574L92.7576 32.5682C93.094 32.141 93.4056 31.7058 93.6925 31.2626C93.9759 30.7963 94.181 30.4359 94.3078 30.1814C94.62 29.5931 94.8885 29.1055 95.1132 28.7186C95.3575 28.3052 95.672 27.8107 96.0568 27.2351C96.4382 26.6364 96.8391 26.2467 97.2594 26.066C97.6994 25.8589 98.0461 25.7363 98.2994 25.6984C98.8199 25.7147 99.2627 25.9193 99.6276 26.3121C100.012 26.6784 100.312 27.2692 100.529 28.0846C100.577 28.4071 100.599 28.7923 100.596 29.2403C100.615 29.6848 100.625 29.907 100.625 29.907C100.625 29.907 100.773 29.6376 101.069 29.0988C101.388 28.5565 101.827 27.9492 102.386 27.2768C102.775 26.8888 103.174 26.6408 103.581 26.5327C103.986 26.4015 104.375 26.4846 104.749 26.7818C105.396 27.0146 105.862 27.4512 106.146 28.0916C106.427 28.7089 106.597 29.5312 106.657 30.5584C106.677 31.1676 106.733 31.6185 106.824 31.911C106.911 32.1805 107.022 32.4466 107.155 32.7092C107.353 32.7737 107.417 32.9643 107.347 33.281C107.273 33.5746 107.155 33.7335 106.994 33.7576C106.764 33.7921 106.492 33.7857 106.179 33.7384C105.889 33.6876 105.613 33.5758 105.352 33.403C105.11 33.2037 104.96 32.9083 104.901 32.5167L104.58 30.3747C104.505 29.868 104.419 29.4568 104.325 29.1413C104.254 28.8222 104.167 28.6351 104.065 28.5798C103.79 28.4795 103.444 28.6844 103.026 29.1944C102.608 29.7044 102.178 30.3693 101.735 31.1891C101.293 32.0089 100.888 32.8465 100.522 33.702C100.191 34.4816 99.9767 34.9375 99.8787 35.0699C99.8004 35.1758 99.6225 35.1672 99.345 35.0438C98.8141 34.9585 98.4589 34.7879 98.2794 34.5322C98.1194 34.25 98.0579 33.9178 98.0949 33.5355C98.1514 33.1267 98.2103 32.5762 98.2716 31.8841C98.3559 31.1886 98.4321 30.5178 98.5002 29.8718C98.5649 29.2028 98.5996 28.7266 98.6043 28.4433C98.4846 28.2728 98.3148 28.2394 98.0948 28.343C97.8944 28.4201 97.6911 28.5565 97.4849 28.7522C97.2361 28.9778 96.9538 29.3733 96.6381 29.9386C96.3224 30.5039 96.0072 31.1516 95.6926 31.8816C95.4817 32.3606 95.2593 32.8413 95.0254 33.3237C94.788 33.7832 94.5668 34.193 94.3617 34.5534C94.1566 34.9138 93.974 35.1884 93.8138 35.3772C93.5672 35.9322 93.3898 36.2413 93.2815 36.3046C93.1732 36.3679 92.9458 36.3431 92.5992 36.2301ZM111.496 33.9668C111.227 34.0543 110.921 34.053 110.577 33.9631C110.234 33.8732 109.917 33.7205 109.626 33.505C109.358 33.2862 109.168 33.0437 109.058 32.7776C108.893 32.3077 108.861 31.7003 108.962 30.9552C109.082 30.1837 109.289 29.3638 109.582 28.4956C109.896 27.601 110.261 26.7339 110.677 25.8946C111.116 25.0517 111.582 24.3109 112.075 23.6719C112.588 23.0064 113.082 22.5321 113.557 22.249C113.787 22.0498 113.967 21.9169 114.098 21.8501C114.249 21.7569 114.409 21.7213 114.577 21.7432C114.768 21.7617 115.05 21.8372 115.423 21.9697C115.759 22.0136 116.017 22.0811 116.195 22.1721C116.374 22.2631 116.615 22.4624 116.92 22.77C117.156 23.0879 117.346 23.4127 117.49 23.7444C117.634 24.0761 117.773 24.4556 117.908 24.8829C118.178 25.4311 118.304 25.8008 118.286 25.992C118.264 26.1601 118.214 26.2971 118.135 26.403C117.986 26.661 117.957 26.783 118.049 26.7692C118.049 26.7692 118.044 26.817 118.035 26.9126C118.045 26.9817 118.017 27.1037 117.949 27.2788C117.863 27.8096 117.816 28.3583 117.806 28.9249C117.817 29.465 117.894 29.9009 118.037 30.2326C118.298 30.7117 118.676 30.9612 119.174 30.9809C119.671 31.0007 120.135 30.7192 120.566 30.1367C120.792 29.9145 121.01 29.7171 121.219 29.5444C121.426 29.3487 121.543 29.343 121.57 29.5272C121.57 29.5272 121.61 29.5566 121.689 29.6154C121.765 29.6511 121.849 29.662 121.941 29.6483C122.057 29.631 122.133 29.6667 122.169 29.7554C122.229 29.8407 122.248 29.9673 122.226 30.1355C122.224 30.2771 122.179 30.4487 122.091 30.6502C121.798 31.0474 121.659 31.3036 121.677 31.4187C121.677 31.4187 121.637 31.4717 121.559 31.5776C121.5 31.6571 121.391 31.7912 121.231 31.98C120.854 32.2954 120.343 32.5014 119.698 32.5979C119.077 32.691 118.574 32.6367 118.19 32.4351C117.807 32.2334 117.433 31.9362 117.068 31.5434C116.726 31.1471 116.485 30.7947 116.345 30.486L116.12 30.1664L115.216 30.9728C115.001 31.264 114.761 31.5473 114.496 31.8224C114.254 32.0941 114.094 32.2829 114.015 32.3888C113.96 32.4913 113.892 32.584 113.81 32.6669C113.751 32.7463 113.676 32.7929 113.583 32.8067C113.491 32.8205 113.411 32.8326 113.342 32.8429C113.272 32.8533 113.238 32.8584 113.238 32.8584C113.252 32.9506 113.154 33.083 112.944 33.2556C112.758 33.4249 112.521 33.5779 112.236 33.7149C111.973 33.8484 111.727 33.9324 111.496 33.9668ZM110.872 32.1529C111.01 32.1322 111.236 31.9924 111.551 31.7334C111.885 31.4479 112.248 31.1227 112.641 30.7577C113.057 30.3894 113.415 30.0296 113.716 29.6785C114.039 29.3239 114.258 29.0556 114.372 28.8737C114.451 28.7678 114.578 28.5957 114.754 28.3574C114.927 28.096 115.082 27.8727 115.219 27.6873C115.659 27.0091 115.93 26.2976 116.03 25.5525C116.127 24.7844 116.018 24.2121 115.702 23.8354C115.572 23.5958 115.436 23.4749 115.295 23.4725C115.153 23.4702 114.877 23.5939 114.467 23.8436C114.215 24.0462 113.916 24.4089 113.57 24.9316C113.244 25.4278 112.896 26.0099 112.525 26.6777C112.173 27.319 111.848 27.9799 111.55 28.6604C111.251 29.3409 111.015 29.9649 110.841 30.5326C110.667 31.1003 110.602 31.5338 110.647 31.8333C110.661 31.9254 110.696 32.0026 110.752 32.0648C110.832 32.1235 110.872 32.1529 110.872 32.1529ZM32.9822 69.0587C32.7174 68.8628 32.4405 68.5864 32.1516 68.2293C31.8592 67.8492 31.6043 67.4046 31.3868 66.8955C31.3132 66.7182 31.2522 66.4682 31.2039 66.1458C31.1787 65.8199 31.1442 65.5895 31.1005 65.4548C31.0555 65.6264 30.9662 65.8164 30.8326 66.0247C30.7185 66.2067 30.601 66.3655 30.4801 66.5014C30.4017 66.6073 30.222 66.8226 29.9409 67.1473C29.6564 67.4489 29.3649 67.7044 29.0666 67.9139C28.3789 68.5114 27.7852 68.8711 27.2853 68.993C26.8086 69.1114 26.31 68.927 25.7896 68.4398C25.3763 68.1955 25.0614 67.9012 24.845 67.5568C24.6517 67.2089 24.5758 66.7022 24.6175 66.0366C24.5429 65.2236 24.5408 64.4232 24.6113 63.6356C24.6784 62.8249 24.9033 61.7315 25.286 60.3555C25.6284 59.3387 25.8935 58.5926 26.0813 58.1171C26.2658 57.6185 26.3856 57.3179 26.4409 57.2155C26.7692 57.0486 27.0588 57.017 27.3098 57.1207C27.5574 57.2014 27.7283 57.3996 27.8227 57.7151C27.9953 57.9248 28.0309 58.3198 27.9294 58.9001C27.8509 59.4771 27.6647 60.1996 27.3708 61.0678C27.1655 61.8992 26.9833 62.7271 26.8241 63.5516C26.688 64.3726 26.6382 65.063 26.6749 65.6227C26.7116 66.1824 26.8998 66.4957 27.2395 66.5626C27.464 66.6467 27.8158 66.5587 28.295 66.2986C28.7972 66.035 29.3155 65.4865 29.8501 64.6529C30.4078 63.8159 30.8855 62.6023 31.2833 61.012C31.3986 60.5238 31.4765 60.1001 31.5169 59.7408C31.5539 59.3585 31.5511 58.9468 31.5086 58.5057C31.4212 58.2362 31.3965 57.9926 31.4346 57.775C31.4922 57.5309 31.6472 57.3075 31.8995 57.1049C31.9744 56.976 32.0855 56.8534 32.233 56.7371C32.377 56.5978 32.4806 56.5823 32.5439 56.6906L33.0915 56.5733C33.1802 56.5364 33.2464 56.5854 33.2901 56.7202C33.3534 56.8284 33.4496 56.92 33.5785 56.9949C33.8629 57.1643 33.9992 57.6031 33.9875 58.3113C33.9757 59.0195 33.7981 60.0351 33.4545 61.3582C33.1582 62.3681 32.9657 63.1269 32.8768 63.6347C32.811 64.1391 32.8011 64.6233 32.847 65.0874C32.9091 65.502 33.0483 65.8815 33.2647 66.2259C33.4811 66.5703 33.7844 66.8663 34.1747 67.1141C34.4522 67.2374 34.618 67.4009 34.672 67.6048C34.7491 67.8052 34.7968 68.0453 34.8152 68.3251C34.8001 68.5393 34.6878 68.7328 34.4782 68.9054C34.2881 69.0516 34.0549 69.1454 33.7785 69.1868C33.5021 69.2281 33.2367 69.1855 32.9822 69.0587ZM41.9773 78.3446C41.4706 78.4204 40.9731 78.4007 40.4849 78.2854C39.9736 78.1735 39.4797 77.9413 39.003 77.5888C38.7199 77.1131 38.5202 76.8015 38.4039 76.6541C38.2681 76.5331 38.0298 76.3569 37.689 76.1253C37.6717 76.0101 37.685 75.7844 37.7289 75.4482C37.7762 75.135 37.8748 74.8494 38.0246 74.5915C38.4221 73.9433 38.9318 73.3371 39.5539 72.7731C40.1793 72.232 40.9286 71.7313 41.8016 71.2709C41.9099 71.2076 42.0165 71.1328 42.1213 71.0465C42.2526 70.9797 42.3758 70.9377 42.491 70.9205C42.6061 70.9033 42.6649 70.8238 42.6672 70.6822C42.6926 70.5371 42.7946 70.5101 42.973 70.6011C43.0813 70.5378 43.1648 70.4664 43.2236 70.387C43.2823 70.3075 43.3958 70.2788 43.5639 70.3007C43.5639 70.3007 43.6854 70.2472 43.9284 70.1402C44.1945 70.0297 44.4916 69.891 44.8199 69.7242C45.1516 69.5803 45.4372 69.4434 45.6768 69.3133C45.9428 69.2029 46.0758 69.1476 46.0758 69.1476C46.0288 68.5188 45.9438 67.8722 45.8208 67.2077C45.7208 66.5398 45.4624 66.0721 45.0457 65.8048C44.7774 65.5859 44.5501 65.3256 44.3636 65.0238C44.2002 64.7186 43.9987 64.3955 43.7593 64.0546C43.7744 63.8404 43.8291 63.6556 43.9236 63.5002C44.0181 63.3447 44.1621 63.2054 44.3556 63.0823C44.7622 62.8095 45.2437 62.4077 45.8 61.877C46.376 61.3198 46.9514 60.6803 47.5263 59.9584C48.1012 59.2366 48.5885 58.4807 48.9884 57.6909C49.2419 57.1819 49.2915 56.7271 49.1373 56.3263C49.0062 55.922 48.5652 55.729 47.8144 55.7472C47.3537 55.8161 46.8596 56.0549 46.332 56.4636C45.801 56.8492 45.2642 57.3534 44.7217 57.9763C44.3738 58.1696 44.1038 58.1747 43.9115 57.9916C43.7158 57.7854 43.5512 57.551 43.4177 57.2884C43.4258 57.0281 43.4852 56.7955 43.5958 56.5906C43.703 56.3626 43.8234 56.1444 43.9571 55.936C44.1138 55.7242 44.2457 55.5042 44.3529 55.2763C44.5233 55.1565 44.6708 55.0403 44.7952 54.9275C44.9161 54.7916 45.0503 54.6656 45.1978 54.5493C45.3222 54.4365 45.45 54.3467 45.5813 54.28C45.7322 54.1867 45.8883 54.128 46.0495 54.1039C46.1877 54.0832 46.3225 54.0395 46.4538 53.9728C46.5816 53.883 46.7261 53.826 46.8874 53.8019C47.9768 53.6859 48.8911 53.9729 49.6302 54.663C50.3693 55.353 50.7612 56.0832 50.8058 56.8537C50.8735 57.6206 50.6302 58.6697 50.0759 60.0007C49.9203 60.3772 49.63 60.7975 49.2049 61.2614C48.8028 61.7219 48.3645 62.1761 47.8899 62.6239C47.4384 63.0683 47.0375 63.458 46.6873 63.793C46.3337 64.1049 46.1275 64.3006 46.0687 64.3801C46.3139 64.6024 46.5965 64.9958 46.9165 65.5601C47.233 66.1015 47.5052 66.6612 47.733 67.2394C47.9873 67.8372 48.0827 68.3174 48.0193 68.6801C48.2565 68.6917 48.541 68.6256 48.8727 68.4817C49.2309 68.3575 49.5136 68.2798 49.7209 68.2488C49.9592 68.4251 50.1958 68.5898 50.4307 68.7431C50.6656 68.8963 50.7985 69.0766 50.8295 69.2839C50.8963 69.4152 50.8807 69.547 50.7828 69.6794C50.7079 69.8084 50.6146 69.893 50.5029 69.9333C50.2103 70.0241 49.832 70.0925 49.3679 70.1385C48.9038 70.1844 48.4667 70.3322 48.0567 70.582C47.8066 71.1139 47.6095 71.685 47.4654 72.2953C47.3247 72.9287 47.1166 73.5839 46.8412 74.2609C46.5692 74.961 46.0916 75.7036 45.4085 76.4888C45.1666 76.7605 44.9097 77.0108 44.6378 77.2399C44.3694 77.492 44.1431 77.6319 43.9588 77.6595C43.6076 77.8298 43.2643 77.9754 42.9292 78.0962C42.6171 78.2135 42.2998 78.2963 41.9773 78.3446ZM40.228 76.805C40.2349 76.851 40.4094 76.8367 40.7514 76.7619C41.0739 76.7137 41.4568 76.5975 41.9002 76.4134C42.3701 76.2488 42.7738 76.0354 43.1113 75.7729C43.5306 75.4276 43.8722 75.035 44.136 74.5952C44.4033 74.1784 44.6539 73.7288 44.8878 73.2463C44.9754 73.0448 45.0596 72.8203 45.1403 72.5727C45.2244 72.3482 45.2838 72.1156 45.3184 71.8749C45.1296 71.7148 44.8664 71.7659 44.5289 72.0284C44.1914 72.2909 43.7831 72.5521 43.304 72.8122C42.8018 73.0758 42.1983 73.4487 41.4933 73.931C40.8149 74.4329 40.3144 74.9435 39.9918 75.4627C39.9007 75.6412 39.7965 75.8099 39.6789 75.9687C39.5614 76.1276 39.4307 76.2767 39.2867 76.416C39.426 76.56 39.5716 76.6677 39.7236 76.7392C39.8756 76.8106 40.0437 76.8325 40.228 76.805ZM51.9036 63.6127C51.8633 63.501 51.8058 63.2741 51.7311 62.9321C51.6529 62.567 51.5493 62.347 51.4204 62.2721C51.4102 61.732 51.3953 61.2397 51.3759 60.7952C51.3565 60.3507 51.3848 59.9108 51.461 59.4755C51.4956 59.2348 51.5659 58.9182 51.672 58.5255C51.8011 58.1294 51.9435 57.7431 52.099 57.3666C52.2512 56.967 52.3975 56.6861 52.5381 56.5237C52.6786 56.3614 52.7927 56.1795 52.8802 55.978C52.9909 55.7731 53.1199 55.6125 53.2673 55.4962C53.3883 55.3603 53.4499 55.2216 53.4523 55.0799C53.4777 54.9349 53.5543 54.8174 53.6821 54.7276C53.9932 54.4456 54.2385 54.1969 54.4182 53.9816C54.598 53.7664 54.7926 53.5724 55.0023 53.3997C55.235 53.2236 55.55 53.0469 55.9473 52.8697C56.3873 52.6626 56.7075 52.5204 56.9079 52.4433C57.1279 52.3398 57.3432 52.284 57.554 52.276C57.7647 52.268 58.086 52.2905 58.5178 52.3437C58.4971 52.2055 58.4615 52.046 58.4109 51.8651C58.3568 51.6613 58.3125 51.4442 58.2781 51.2139C58.2759 50.8845 58.2178 50.5753 58.1039 50.2862C58.0096 49.9707 57.929 49.7472 57.8623 49.6159C57.7 49.4754 57.5814 49.2341 57.5067 48.892C57.4285 48.527 57.2817 48.2546 57.0664 48.0749C57.07 47.6269 56.8468 47.2364 56.3966 46.9035C55.966 46.5441 55.4686 46.2888 54.9044 46.1378C54.3367 45.9637 53.8277 45.9457 53.3774 46.0838C53.1275 46.1447 52.8678 46.2189 52.5983 46.3063C52.3288 46.3938 52.0927 46.5469 51.8899 46.7656C51.5939 46.8334 51.3538 46.8812 51.1696 46.9087C50.9853 46.9363 50.8039 46.9046 50.6255 46.8136C50.3169 46.483 50.1046 46.2439 49.9883 46.0965C49.8951 45.9456 49.8876 45.8172 49.966 45.7113C50.0408 45.5823 50.1866 45.4546 50.4031 45.328C50.6392 45.1749 50.9226 44.9441 51.2532 44.6355C51.5203 44.6898 51.7029 44.6507 51.8008 44.5183C51.8987 44.3859 52.0813 44.3468 52.3484 44.401C52.5154 44.2582 52.8097 44.1789 53.2312 44.1629C53.6527 44.1469 53.9129 44.155 54.0119 44.1873C54.0879 44.223 54.1622 44.2472 54.2348 44.2599C54.3039 44.2496 54.3747 44.2507 54.4472 44.2634C55.2775 44.304 56.0283 44.5213 56.6995 44.9154C57.3938 45.306 57.9821 45.8537 58.4644 46.5587C58.6474 46.8374 58.8304 47.1161 59.0134 47.3949C59.1964 47.6736 59.3777 47.9409 59.5573 48.1966C59.624 48.3279 59.7132 48.6089 59.8248 49.0396C59.9559 49.4439 60.0738 49.8383 60.1785 50.223C60.3028 50.5811 60.3701 50.7948 60.3804 50.8639C60.4609 51.0873 60.5167 51.3027 60.5478 51.51C60.5788 51.7173 60.5885 51.9395 60.5769 52.1768C60.5729 54.0377 60.4082 55.7696 60.083 57.3725C59.7577 58.9754 59.2401 60.6307 58.5302 62.3383C58.3908 62.6653 58.1822 63.0026 57.9046 63.3503C57.6269 63.698 57.3574 64.0209 57.0959 64.3191C56.7756 64.6967 56.407 64.9874 55.9901 65.1911C55.5697 65.3717 55.0963 65.5132 54.57 65.6156C53.8493 65.2054 53.3219 64.9075 52.988 64.722C52.6541 64.5365 52.4291 64.37 52.3128 64.2226C52.1965 64.0751 52.0601 63.8718 51.9036 63.6127ZM54.6621 63.8709C54.7831 63.7351 54.9225 63.6436 55.0802 63.5964C55.2576 63.5228 55.3768 63.3754 55.438 63.1543C55.7029 62.8792 55.9817 62.4607 56.2744 61.8988C56.5901 61.3335 56.8776 60.737 57.1369 60.1095C57.3928 59.4589 57.5801 58.9011 57.6988 58.4359C57.7531 58.1687 57.7975 57.9148 57.8321 57.6741C57.8863 57.407 57.967 57.1594 58.0742 56.9314C58.239 56.4593 58.3457 55.9135 58.3942 55.294C58.4394 54.6514 58.3572 54.181 58.1477 53.8826C57.0316 54.45 56.1435 55.1246 55.4834 55.9063C54.8199 56.665 54.2668 57.6897 53.8242 58.9805C53.8275 59.4745 53.7582 59.9558 53.6164 60.4245C53.4942 60.8667 53.4463 61.333 53.4726 61.8236C53.3919 62.0712 53.3723 62.3332 53.4136 62.6096C53.4746 62.8595 53.577 63.1503 53.7208 63.482C54.0547 63.6675 54.2349 63.77 54.2614 63.7896C54.3075 63.7827 54.441 63.8098 54.6621 63.8709ZM65.6212 62.9018C65.1513 63.0663 64.8456 63.1474 64.7039 63.145C64.5819 63.1162 64.3769 63.0056 64.0891 62.8132C63.693 62.6841 63.3476 62.5003 63.0528 62.2618C62.7811 62.0199 62.5653 61.7578 62.4053 61.4757C62.2649 61.167 62.1907 60.9073 62.1827 60.6965C62.1312 59.8801 62.1977 58.987 62.3822 58.0174C62.5668 57.0479 62.8256 56.1025 63.1587 55.1813C63.4918 54.2602 63.8784 53.4605 64.3185 52.7824C64.7782 52.0778 65.2477 51.5954 65.7268 51.3353C66.1599 51.0821 66.5872 50.9475 67.0086 50.9315C67.4301 50.9155 67.7623 51.0895 68.0052 51.4535C68.4506 52.0697 68.4338 52.5079 67.9547 52.768C67.8856 52.7783 67.8101 52.8249 67.7283 52.9078C67.6431 52.9677 67.6074 53.0437 67.6212 53.1358C67.7202 53.1681 67.9753 53.1417 68.3864 53.0566C68.7941 52.9485 69.1984 52.8173 69.5992 52.6631C70.0195 52.4825 70.2902 52.3242 70.4112 52.1884C70.539 52.0986 70.6375 52.0485 70.7066 52.0382C70.7757 52.0278 70.9519 52.025 71.2352 52.0297C71.644 52.0863 71.8604 52.1952 71.8846 52.3564C71.8984 52.4485 71.9467 52.5355 72.0296 52.6173C72.109 52.676 72.1948 52.6985 72.2869 52.6847C72.4516 52.6836 72.4441 52.7907 72.2644 53.006C72.1077 53.2178 71.8232 53.5195 71.4108 53.9109C71.0145 54.2528 70.7657 54.4784 70.6643 54.5878C70.5825 54.6707 70.5952 54.8336 70.7022 55.0766C70.9519 55.4867 71.0393 55.9917 70.9643 56.5916C70.8892 57.1916 70.6892 57.822 70.3643 58.4829C70.0393 59.1438 69.6171 59.784 69.0975 60.4033C68.5975 60.9963 68.0411 61.527 67.4284 61.9955C66.8351 62.4375 66.2328 62.7396 65.6212 62.9018ZM64.8064 61.4695C64.8985 61.4557 65.0528 61.3855 65.2694 61.2589C65.4825 61.1093 65.6529 60.9896 65.7808 60.8998C65.8591 60.7939 65.9588 60.673 66.0797 60.5371C66.2203 60.3748 66.3349 60.2752 66.4236 60.2384C66.5157 60.2246 66.6257 60.1728 66.7536 60.083C66.878 59.9702 67.0479 59.7682 67.2633 59.4769C67.4753 59.1626 67.749 58.7095 68.0843 58.1177C68.4691 57.542 68.7571 57.0279 68.9484 56.5754C69.1363 56.0999 69.1451 55.6865 68.9747 55.3352C68.9379 55.2465 68.8602 55.1993 68.7416 55.1935C68.646 55.1842 68.5107 55.1456 68.3357 55.0776C68.1054 55.1121 67.8779 55.0872 67.6534 55.0031C67.4484 54.8925 67.2038 54.7525 66.9194 54.5831L66.2632 53.9749L65.7638 54.6501C65.4504 55.0738 65.1416 55.6852 64.8373 56.4843C64.5526 57.2569 64.329 58.044 64.1663 58.8454C64.0003 59.6238 63.9269 60.2353 63.9464 60.6798C63.9751 61.0288 64.0671 61.2505 64.2225 61.3449C64.378 61.4394 64.5726 61.4809 64.8064 61.4695ZM72.9665 71.0217C72.795 70.9767 72.605 70.8874 72.3966 70.7538C72.1882 70.6201 72.0109 70.4582 71.8647 70.2682C71.722 70.1012 71.6403 69.9486 71.6196 69.8104C71.5989 69.6722 71.6013 69.295 71.6268 68.6789C71.6558 68.0859 71.6987 67.3494 71.7554 66.4697C71.8385 65.6095 71.9298 64.7245 72.0291 63.8148C72.1549 62.9246 72.2945 62.1266 72.4479 61.4208C72.4767 61.2987 72.5696 60.8963 72.7264 60.2134C72.9028 59.5041 73.047 58.6583 73.159 57.676C73.2537 57.0496 73.3938 56.3339 73.5795 55.529C73.7651 54.7241 73.9623 53.9175 74.171 53.1092C74.3762 52.2778 74.5377 51.5472 74.6554 50.9173C74.773 50.2874 74.8734 49.7779 74.9564 49.3887C75.059 48.973 75.115 48.7173 75.1242 48.6218C75.1496 48.4767 75.2014 48.3512 75.2798 48.2452C75.3777 48.1128 75.4791 48.0035 75.5839 47.9171C75.6853 47.8078 75.7688 47.7364 75.8344 47.703C76.2318 47.5258 76.6147 47.6451 76.983 48.0609C77.1292 48.251 77.1885 48.4894 77.1607 48.7761C77.133 49.0629 77.058 49.4273 76.9358 49.8695L76.7974 50.5967L77.9998 50.1341C78.2071 50.1031 78.4622 50.0767 78.7651 50.0549C79.0875 50.0066 79.3985 49.9601 79.6979 49.9153C79.9973 49.8705 80.2196 49.8607 80.3647 49.8861C80.9209 49.8264 81.3164 49.8732 81.5513 50.0264C81.8092 50.1762 82.0412 50.3887 82.2472 50.664C82.3796 50.762 82.542 50.9025 82.7342 51.0857C82.923 51.2458 83.0428 51.4163 83.0934 51.5971C83.2441 51.9749 83.3079 52.401 83.2847 52.8754C83.2811 53.3234 83.2084 53.7817 83.0666 54.2503C82.9479 54.7155 82.7548 55.1565 82.4875 55.5733C82.2398 55.9636 81.9604 56.2998 81.6494 56.5818C81.4329 56.7084 81.2411 56.8431 81.0741 56.9859C80.9036 57.1056 80.8184 57.1654 80.8184 57.1654C80.8126 57.284 80.5868 57.5062 80.141 57.832C79.6918 58.1347 79.1718 58.4363 78.5809 58.7366C77.9901 59.037 77.4695 59.2562 77.0192 59.3943C76.8614 59.4414 76.6345 59.4989 76.3385 59.5668C76.0426 59.6346 75.8071 59.6346 75.632 59.5666C75.3718 59.5584 75.1956 59.5612 75.1035 59.575C75.0113 59.5888 74.9722 59.6418 74.986 59.7339C74.9698 59.7834 74.881 60.2912 74.7195 61.2574C74.5579 62.2235 74.4073 63.3411 74.2676 64.6101C74.0299 66.0115 73.8315 67.1244 73.6723 67.9489C73.5165 68.7964 73.3874 69.428 73.2847 69.8437C73.2052 70.2559 73.1412 70.5363 73.0927 70.6849C73.0478 70.8564 73.0057 70.9687 72.9665 71.0217ZM75.377 57.6266C75.4668 57.7545 75.6925 57.7678 76.0541 57.6666C76.4353 57.5389 76.8753 57.3317 77.374 57.0451C77.8923 56.7321 78.3957 56.3977 78.8841 56.042C79.369 55.6633 79.7618 55.2984 80.0625 54.9472C80.483 54.2956 80.8183 53.7038 81.0684 53.1718C81.315 52.6168 81.3111 52.276 81.0566 52.1492C80.7481 51.8186 80.2501 51.7165 79.5625 51.843C78.875 51.9694 78.0659 52.3849 77.1352 53.0894C76.7643 53.2862 76.4925 53.5153 76.3196 53.7766C76.1664 54.0115 76.0448 54.3005 75.9549 54.6436C75.865 54.9868 75.7508 55.4042 75.6125 55.8959C75.481 56.4336 75.3997 56.8344 75.3685 57.0981C75.3374 57.3618 75.3402 57.538 75.377 57.6266ZM88.8126 60.5609C88.5166 60.6287 88.2714 60.6419 88.0768 60.6004C87.8787 60.5358 87.6294 60.4436 87.3289 60.3238C86.7636 60.008 86.3249 59.6734 86.0129 59.3197C85.7206 58.9396 85.5566 58.5521 85.521 58.1571C85.536 57.9429 85.5085 57.7586 85.4383 57.6043C85.3911 57.4465 85.3675 57.3676 85.3675 57.3676C85.2121 57.2731 85.1557 57.2109 85.1983 57.181C85.2375 57.128 85.2617 57.0538 85.2709 56.9582C85.4483 56.8845 85.4524 56.7544 85.2831 56.5678C85.1865 56.3939 85.159 55.9741 85.2006 55.3085C85.2619 54.6164 85.3761 53.9635 85.5433 53.3498C85.6205 53.0792 85.7317 52.7211 85.877 52.2755C86.0453 51.8264 86.2366 51.3739 86.4509 50.9179C86.6618 50.4389 86.8634 50.0555 87.0558 49.7677C87.4764 49.116 87.8617 48.6227 88.2119 48.2877C88.5817 47.9262 89.0062 47.6154 89.4853 47.3553C89.9184 47.1021 90.2368 46.9485 90.4407 46.8944C90.6445 46.8403 90.9531 46.9354 91.3665 47.1797C91.9434 47.2582 92.3924 47.4265 92.7137 47.6845C93.0544 47.9161 93.3503 48.3193 93.6011 48.894C93.8854 49.5343 94.0619 50.3204 94.1307 51.252C94.2191 52.1572 94.0016 53.3789 93.4783 54.9173C93.1752 55.8811 92.8392 56.626 92.4706 57.1522C92.1249 57.6749 91.6906 58.2344 91.1676 58.8308C90.7851 59.2648 90.4251 59.6131 90.0876 59.8755C89.7501 60.138 89.3251 60.3664 88.8126 60.5609ZM90.9612 56.0358C91.3184 55.2759 91.5806 54.5891 91.7478 53.9753C91.9345 53.3351 92.0413 52.5538 92.0681 51.6314C92.0762 51.3711 92.0412 51.0585 91.963 50.6934C91.8814 50.3053 91.7704 49.9569 91.63 49.6482C91.5126 49.3361 91.3831 49.1789 91.2415 49.1765C90.9248 49.1062 90.5908 49.1562 90.2395 49.3265C89.8848 49.4738 89.5231 49.8105 89.1544 50.3367C88.8318 50.8559 88.5524 51.4276 88.3161 52.0517C88.1029 52.6723 87.9213 53.3471 87.7713 54.076C87.6214 54.8049 87.4899 55.5781 87.3768 56.3957C87.2774 57.3054 87.3889 57.9717 87.7112 58.3944C88.0566 58.8137 88.523 58.8616 89.1104 58.5382C89.6943 58.1918 90.3113 57.3576 90.9612 56.0358ZM99.4879 59.069C99.1424 59.1207 98.7013 59.1632 98.1647 59.1964C97.6511 59.2262 97.1652 58.9692 96.707 58.4255C96.4181 58.0685 96.1781 57.6452 95.9871 57.1557C95.8191 56.6628 95.7657 56.3058 95.8268 56.0847C95.8838 54.2629 95.9545 53.0042 96.0387 52.3087C96.123 51.6132 96.1698 51.2176 96.179 51.122C96.2113 51.023 96.2707 50.7904 96.3572 50.4242C96.4632 50.0316 96.5209 49.7875 96.5301 49.6919C96.5901 49.3061 96.5626 48.8864 96.4476 48.4326C96.397 48.2518 96.3844 48.0888 96.4098 47.9437C96.4547 47.7722 96.5377 47.6185 96.6587 47.4826C97.0054 47.1246 97.2577 46.6865 97.4157 46.1683C97.4606 45.9967 97.5459 45.7014 97.6716 45.2823C97.8168 44.8366 97.9638 44.4025 98.1125 43.98C98.2808 43.5309 98.4104 43.2171 98.5015 43.0387C98.801 42.5228 99.0626 41.9892 99.2862 41.4376C99.5294 40.8596 99.852 40.3403 100.254 39.8798C100.478 39.3283 100.789 38.8108 101.187 38.3272C101.582 37.8207 101.983 37.3486 102.388 36.9112C102.794 36.4737 103.114 36.0961 103.349 35.7783C103.447 35.6459 103.742 35.4957 104.235 35.3277C104.748 35.1333 105.158 34.9659 105.467 34.8255C105.595 34.7357 105.868 34.7536 106.288 34.8793C106.703 34.9819 107.007 35.1248 107.2 35.3079C107.575 35.7698 107.81 36.1586 107.904 36.4741C108.021 36.7863 108.032 37.1732 107.936 37.635C107.86 38.0702 107.68 38.7565 107.397 39.6938C107.074 40.6841 106.549 41.6576 105.82 42.6143C105.112 43.5446 104.365 44.3746 103.579 45.1045C103.2 45.5615 102.793 45.9875 102.358 46.3823C101.945 46.7738 101.516 47.1323 101.07 47.4581C100.795 47.6641 100.507 47.8604 100.205 48.0469C99.926 48.2299 99.6341 48.4031 99.3288 48.5665C99.1745 48.6367 99.0386 48.7513 98.9211 48.9101C98.8001 49.046 98.7108 49.236 98.6532 49.4801C98.5632 49.8232 98.524 50.1117 98.5354 50.3455C98.5664 50.5528 98.5232 50.7358 98.4057 50.8947C98.3469 50.9742 98.2847 51.2661 98.2189 51.7704C98.1726 52.2483 98.1172 52.8218 98.0525 53.4909C98.0074 54.1334 97.9801 54.738 97.9707 55.3046C97.9579 55.8481 97.9768 56.2103 98.0274 56.3911C98.0677 56.5028 98.1097 56.6261 98.1534 56.7608C98.2167 56.8691 98.3341 56.9457 98.5057 56.9907C98.8408 56.8699 99.1 56.7133 99.2831 56.5211C99.4629 56.3058 99.657 56.0295 99.8655 55.6921C100.09 55.3052 100.288 54.8988 100.46 54.4728C100.655 54.0433 100.802 53.6092 100.901 53.1705C100.955 52.9033 100.985 52.6281 100.989 52.3448C100.991 52.0385 101.032 51.7615 101.112 51.514C101.033 50.9842 100.963 50.5944 100.902 50.3445C100.861 50.0681 100.805 49.8527 100.735 49.6984C100.684 49.5176 100.595 49.3189 100.469 49.1024C100.636 48.9596 100.726 48.852 100.738 48.7794C100.774 48.7034 100.876 48.6764 101.044 48.6983C101.354 48.7226 101.647 48.7964 101.925 48.9197C102.226 49.0396 102.521 49.2072 102.813 49.4227C102.919 49.501 102.99 49.5845 103.027 49.6732C103.064 49.7619 103.068 49.8673 103.039 49.9893C103.057 50.2692 103.064 50.5507 103.059 50.834C103.074 51.0908 103.101 51.3459 103.138 51.5993C103.022 51.9228 102.967 52.2608 102.972 52.6132C102.975 52.9425 102.942 53.2771 102.875 53.6168C102.782 53.9369 102.689 54.257 102.595 54.5771C102.502 54.8972 102.382 55.1977 102.236 55.4787C102.035 56.0268 101.78 56.5242 101.47 56.9709C101.183 57.4141 100.868 57.8263 100.525 58.2074L99.4879 59.069ZM99.169 46.0825C99.4523 46.0872 99.6498 46.0694 99.7615 46.0291C99.8928 45.9624 100.014 45.8265 100.124 45.6216C101.1 44.7455 101.985 43.8948 102.78 43.0694C103.572 42.2209 104.218 41.4294 104.721 40.6948C105.243 39.9338 105.558 39.2861 105.666 38.7518C105.743 38.4813 105.834 38.2204 105.938 37.9694C106.064 37.715 106.128 37.4346 106.13 37.1283L105.847 36.1816C105.247 36.5775 104.77 36.9315 104.416 37.2435C104.085 37.552 103.666 38.0505 103.156 38.739C102.961 39.0038 102.674 39.447 102.296 40.0688C101.937 40.664 101.543 41.3353 101.114 42.0825C100.684 42.8298 100.287 43.5603 99.9227 44.2742C99.5816 44.9846 99.3304 45.5874 99.169 46.0825ZM107.861 57.2505C107.571 57.1998 107.263 57.187 106.937 57.2122C106.608 57.2144 106.311 57.1176 106.046 56.9218C105.702 56.6671 105.42 56.3561 105.2 55.9887C105 55.5948 104.914 55.1837 104.945 54.7553C104.976 54.4916 104.974 54.2446 104.94 54.0142C104.902 53.7609 104.923 53.5104 105.004 53.2628C104.989 53.006 105.012 52.7671 105.073 52.546C105.131 52.3019 105.188 52.0578 105.246 51.8137C105.349 51.398 105.428 50.9857 105.485 50.5769C105.564 50.1647 105.669 49.7605 105.798 49.3644C106.036 48.5987 106.302 47.8525 106.593 47.126C106.908 46.396 107.173 45.6498 107.388 44.8876C107.453 44.6895 107.539 44.5588 107.648 44.4955C107.776 44.4057 107.909 44.3505 108.047 44.3298C108.231 44.3022 108.42 44.3092 108.615 44.3507C108.81 44.3922 108.98 44.4257 109.125 44.4511C109.225 44.648 109.354 44.8053 109.513 44.9228C109.672 45.0403 109.747 45.2292 109.739 45.4894C109.486 45.9983 109.245 46.5171 109.018 47.0456C108.811 47.5476 108.605 48.0611 108.401 48.5862C108.217 49.0848 108.036 49.6064 107.858 50.151C107.749 50.5206 107.677 50.9081 107.644 51.3135C107.61 51.7188 107.539 52.1063 107.429 52.4759C107.323 52.8686 107.267 53.2774 107.26 53.7023C107.249 54.1042 107.216 54.5096 107.159 54.9184C107.153 55.037 107.17 55.1521 107.211 55.2638C107.271 55.3491 107.362 55.4061 107.484 55.4349C107.789 55.2715 108.096 55.1196 108.404 54.9792C108.713 54.8388 108.979 54.646 109.201 54.4008C109.606 53.9633 109.927 53.5857 110.162 53.2679C110.393 52.9271 110.562 52.5604 110.668 52.1678C110.771 51.7521 110.81 51.2281 110.786 50.5959C110.788 50.4542 110.758 50.3293 110.695 50.221C110.628 50.0897 110.542 49.9849 110.436 49.9065C110.215 49.8454 110.003 49.7711 109.802 49.6835C109.62 49.5694 109.471 49.4387 109.355 49.2913C109.258 49.1173 109.227 48.91 109.261 48.6694C109.305 48.3331 109.455 48.0752 109.711 47.8957C109.99 47.7126 110.257 47.6137 110.514 47.5988C110.564 47.6149 110.602 47.6328 110.628 47.6524C110.678 47.6685 110.717 47.6979 110.747 47.7405C110.945 47.8051 111.149 47.9042 111.357 48.0378C111.562 48.1484 111.742 48.251 111.898 48.3455C112.028 48.585 112.196 48.8425 112.402 49.1178C112.608 49.393 112.757 49.8416 112.85 50.4635C113.043 51.7534 112.855 52.8531 112.285 53.7626C111.737 54.6688 110.956 55.504 109.94 56.2683C109.792 56.3846 109.63 56.4795 109.452 56.5532C109.295 56.6003 109.155 56.6918 109.034 56.8277C109.008 56.8081 108.906 56.8351 108.729 56.9088C108.548 56.9594 108.369 57.0215 108.191 57.0952C108.014 57.1688 107.904 57.2206 107.861 57.2505ZM120.028 54.8643C119.607 55.3513 119.078 55.6776 118.444 55.8432C117.832 56.0054 117.208 56.0046 116.571 55.8409C115.931 55.6541 115.374 55.3136 114.9 54.8195C114.432 54.3713 114.093 53.8335 113.881 53.2058C113.666 52.5551 113.525 51.6931 113.459 50.6198C113.393 49.7111 113.547 48.7698 113.919 47.7956C114.288 46.7985 114.776 45.8895 115.383 45.0686C116.013 44.2442 116.664 43.6404 117.337 43.2572C117.648 42.9751 117.921 42.8284 118.154 42.817C118.408 42.779 118.791 42.7452 119.305 42.7154C119.845 42.7052 120.252 42.7503 120.526 42.8505C120.823 42.9474 121.069 43.0989 121.265 43.3051C121.662 43.5988 121.944 43.9099 122.111 44.2381C122.275 44.5433 122.381 44.8572 122.429 45.1796C122.413 45.7001 122.16 46.3737 121.672 47.2004C121.203 48.0006 120.53 48.7017 119.655 49.3037C119.172 49.5408 118.63 49.6926 118.028 49.7592C117.425 49.8258 116.908 49.7502 116.475 49.5325C116.01 49.4137 115.727 49.4913 115.627 49.7654C115.523 50.0164 115.482 50.6112 115.505 51.5497C115.544 52.4388 115.71 53.0733 116.002 53.4535C116.291 53.8105 116.636 53.9943 117.038 54.0048C117.513 54.028 117.88 54.0437 118.14 54.0518C118.42 54.0335 118.739 53.8798 119.096 53.5909C119.43 53.3054 119.641 53.1443 119.73 53.1074C119.815 53.0476 119.877 52.9912 119.916 52.9382C119.975 52.8588 120.103 52.6866 120.298 52.4218C120.435 52.2365 120.545 52.1024 120.627 52.0195C120.705 51.9135 120.802 51.852 120.917 51.8347C121.032 51.8175 121.144 51.8596 121.254 51.9609C121.36 52.0393 121.462 52.0946 121.561 52.1269C121.792 52.0924 121.858 52.2237 121.761 52.5208C121.688 52.8144 121.496 53.1846 121.186 53.6313C120.873 54.055 120.487 54.466 120.028 54.8643ZM118.897 47.545C119.133 47.3919 119.374 47.1911 119.62 46.9424C119.861 46.6707 120.056 46.3944 120.202 46.1134C120.368 45.806 120.437 45.5602 120.409 45.3759C120.361 45.0535 120.172 44.811 119.841 44.6485C119.507 44.463 119.053 44.4957 118.478 44.7465C118.235 44.8536 117.973 45.0694 117.692 45.3941C117.408 45.6957 117.14 46.0301 116.889 46.3974C116.661 46.7612 116.473 47.0836 116.327 47.3646C116.204 47.6421 116.169 47.8004 116.222 47.8396C116.308 47.9444 116.517 48.0072 116.85 48.028C117.18 48.0258 117.538 47.9839 117.926 47.9023C118.338 47.8172 118.661 47.6981 118.897 47.545Z" fill="#F5A925"/>
<path d="M113.5 72.5C116.886 70.2986 121.428 66.7191 125.854 62.4625C141.228 47.6781 141.187 20.7919 124.734 7.21895C123.231 5.9789 121.461 4.86866 119.334 3.91981C112.972 1.08149 105.775 1.13655 98.808 1.14736C75.7251 1.18321 40.8906 2.11311 17.9862 17.1358C9.01044 23.0229 2.17225 32.5086 1.28236 43.2059C1.04411 46.0699 1.23591 48.694 1.68517 51.2623C4.67196 68.337 22.5933 84.0939 39.9254 84.3446C54.1016 84.5497 70.2125 83.88 81.8956 80.8594C95.9727 77.2199 109.287 70.7453 120.5 61.4884V61.4884" stroke="#F5A925" stroke-width="2" stroke-linecap="round"/>
</svg>
